<?xml version="1.0" encoding="UTF-8"?>
<!DOCTYPE svg PUBLIC "-//W3C//DTD SVG 1.1//EN" "http://www.w3.org/Graphics/SVG/1.1/DTD/svg11.dtd">
<!-- Creator: CorelDRAW (Evaluation Version) -->
<svg xmlns="http://www.w3.org/2000/svg" xml:space="preserve" width="210mm" height="297mm" version="1.1" style="shape-rendering:geometricPrecision; text-rendering:geometricPrecision; image-rendering:optimizeQuality; fill-rule:evenodd; clip-rule:evenodd"
viewBox="0 0 21000 12509.99"
 xmlns:xlink="http://www.w3.org/1999/xlink"
 xmlns:xodm="http://www.corel.com/coreldraw/odm/2003">
 <defs>
  <style type="text/css">
   <![CDATA[
    .fil2 {fill:#FEFEFE;fill-rule:nonzero}
    .fil0 {fill:#1F91CC;fill-rule:nonzero}
    .fil1 {fill:url(#id0);fill-rule:nonzero}
   ]]>
  </style>
  <linearGradient id="id0" gradientUnits="userSpaceOnUse" x1="1854.54" y1="3854.16" x2="6677.86" y2="3854.16">
   <stop offset="0" style="stop-opacity:1; stop-color:#00D7FF"/>
   <stop offset="1" style="stop-opacity:1; stop-color:#015C94"/>
  </linearGradient>
 </defs>
 <g id="Layer_x0020_1">
  <metadata id="CorelCorpID_0Corel-Layer"/>
  <path class="fil0" d="M14649.72 12510.02c-52.72,-247.48 -105.16,-495 -157.59,-742.48 -82.71,-389.06 -166.02,-777.84 -248.43,-1167.27 -21.27,-100.35 -24.27,-201.72 -1.2,-302.76 46.17,-200.37 216.96,-366.49 398.25,-379.51 99.79,-7.19 194.79,12.7 283.47,64.38 111.78,65.1 178.29,173.67 215.17,307.23 26.97,97.29 43.44,197.64 63.51,296.97 98.31,488.41 192.09,977.85 285.87,1467.27 26.97,141.12 52.14,282.58 78.81,423.69 2.13,11 4.43,21.82 6.98,32.47l-924.83 0z"/>
  <polygon class="fil0" points="14646.5,12510.02 14646.49,12509.94 15572.88,12509.94 15572.91,12510.02 "/>
  <path class="fil0" d="M20907.19 11589.24c0,133.8 1.8,267.9 2.4,402 0,24.6 -0.6,48.9 -3,73.2 -2.99,30.6 -17.1,44.99 -47.09,52.49 -18,4.5 -36.01,3 -54,3 -432,-0.3 -864,-0.9 -1296,-0.9 -582,0 -1164,0.3 -1746,0.3 -24.6,0 -49.2,0.9 -73.5,0 -45,-1.79 -60.3,-16.5 -58.2,-60.9 2.7,-57.3 7.8,-114.6 13.8,-171.6 9,-85.5 19.2,-171 30,-256.5 76.8,-615.3 295.2,-1172.4 682.8,-1659.9 39.6,-49.8 81.6,-98.1 124.8,-144.9 50.11,-54.31 86.1,-115.81 95.7,-190.8 6.3,-47.4 0.3,-93.6 -12,-138.9 -112.5,-412.5 -277.8,-800.99 -522.6,-1153.8 -271.5,-391.2 -617.1,-701.1 -1032,-933.9 -335.4,-188.4 -693.6,-316.8 -1067.4,-402.6 -47.7,-10.8 -95.69,-20.7 -141.6,-38.1 -47.1,-17.7 -91.2,-41.1 -129.6,-74.09 -101.7,-86.71 -149.1,-196.2 -123.6,-329.1 29.99,-154.2 116.7,-262.5 271.5,-307.5 64.8,-18.9 130.8,-17.4 195.9,-3.3 425.1,90.3 835.8,223.2 1223.4,421.2 615.3,314.1 1122,751.2 1503.6,1329.3 200.4,303.3 355.51,628.8 476.1,971.4 10.2,29.1 20.4,58.2 32.7,86.4 25.8,60 49.81,70.51 109.8,46.2 40.2,-16.2 79.8,-35.1 119.4,-53.4 240.9,-111.9 491.7,-195 752.7,-246 124.2,-24.3 249.6,-40.2 375.9,-48.6 68.1,-4.5 136.2,-5.7 204.3,-6 10.5,0 21.3,0 31.8,1.51 36.3,4.8 54.6,23.1 59.4,59.7 6.6,49.8 3,99.9 2.7,150 0,102 -2.1,204.3 -2.1,306.3 -0.6,391.5 -0.3,783.3 -0.3,1174.79 0,381 -0.31,762 0.3,1143.01z"/>
  <g id="_2766964973760">
   <path class="fil1" d="M2219.86 3632.57l-134.09 0 0 396.66 -94.05 0 0 -396.66 -132.11 0 0 -72.6 360.25 0 0 72.6zm136.29 92.07c11,-15.84 24.41,-28.28 40.26,-37.19 15.94,-8.9 33.55,-13.42 52.91,-13.42 36.29,0 64.78,12.1 85.58,36.3 20.68,24.2 31.02,61.49 31.02,111.98l0 206.91 -94.05 0 0 -207.57c0,-27.06 -4.4,-46.19 -13.09,-57.53 -8.69,-11.22 -21.78,-16.94 -39.16,-16.94 -14.41,0 -26.84,2.31 -37.51,6.93 -10.66,4.62 -19.24,11.33 -25.95,19.91l0 255.2 -94.05 0 0 -502.7 94.05 0 0 198.12zm464.09 36.74l-34.43 -0.88c-13.97,0 -25.52,2.87 -34.54,8.69 -9.01,5.72 -15.83,13.97 -20.57,24.42l0 235.62 -93.82 0 0 -348.7 87.34 0 4.18 51.58c8.14,-18.26 18.81,-32.56 31.79,-42.68 12.98,-10.23 27.94,-15.4 44.88,-15.4 4.73,0 9.12,0.44 13.09,1.22 3.96,0.77 8.03,1.65 12.1,2.75l-10.01 83.38zm193.93 274.67c-51.93,-0.11 -92.62,-16.06 -121.78,-47.96 -29.25,-31.9 -43.89,-72.93 -43.89,-123.2l0 -12.87c0,-52.25 14.19,-95.04 42.57,-128.26 28.38,-33.33 67.33,-49.94 117.04,-49.72 46.75,0 82.72,14.41 107.69,43.12 25.08,28.6 37.62,67.21 37.62,115.83l0 48.62 -207.9 0 -0.99 1.98c1.54,23.87 8.8,43.11 21.78,57.97 12.98,14.85 32.34,22.22 57.86,22.22 21,0 38.94,-2.09 53.68,-6.39 14.74,-4.29 29.92,-10.89 45.54,-19.69l25.52 57.97c-13.97,11.44 -32.88,21 -56.76,28.71 -23.87,7.7 -49.83,11.55 -77.99,11.66zm-6.05 -289.41c-18.92,0 -33.55,6.49 -43.67,19.47 -10.23,12.98 -16.39,30.25 -18.59,51.7l0.66 1.65 114.73 0 0 -7.15c0,-20.35 -4.18,-36.41 -12.54,-48.18 -8.47,-11.66 -22,-17.48 -40.59,-17.48zm405.69 282.59c-3.41,-7.92 -6.39,-16.28 -8.8,-25.19 -2.53,-8.8 -4.29,-17.82 -5.39,-27.06 -9.68,17.05 -22.44,31.12 -38.28,42.24 -15.94,11.22 -34.87,16.72 -56.76,16.83 -36.52,-0.11 -64.68,-9.46 -84.37,-28.27 -19.81,-18.81 -29.7,-44.44 -29.7,-76.89 0,-34.1 13.2,-60.61 39.49,-79.42 26.29,-18.81 64.68,-28.17 115.17,-28.17l52.91 0 0 -27.71c0,-16.72 -4.41,-29.81 -13.2,-39.05 -8.8,-9.13 -22,-13.75 -39.38,-13.75 -15.18,0 -26.95,3.63 -35.31,11.11 -8.26,7.37 -12.32,17.49 -12.32,30.36l-90.64 0 -0.54 -1.87c-1.54,-29.47 11.33,-54.88 38.5,-76.23 27.17,-21.34 62.59,-32.12 106.48,-32.12 41.91,0 75.8,10.56 101.64,31.69 25.85,21 38.83,51.15 38.83,90.52l0 143.99c0,16.4 1.22,31.69 3.74,46.09 2.42,14.41 6.38,28.71 11.77,42.9l-93.82 0zm-86.03 -62.81c16.4,0 30.91,-4.07 43.89,-12.32 12.87,-8.14 21.68,-17.59 26.4,-28.27l0 -49.39 -52.91 0c-19.91,0 -35.09,4.95 -45.21,14.85 -10.23,9.9 -15.4,22 -15.4,36.41 0,11.88 3.84,21.23 11.44,28.16 7.7,7.04 18.26,10.56 31.79,10.56zm347.82 -371.25l0 85.36 58.96 0 0 66.11 -58.96 0 0 177.54c0,13.53 2.76,23.21 8.47,29.04 5.72,5.71 13.2,8.69 22.44,8.69 4.95,0 9.24,-0.33 12.87,-0.88 3.63,-0.54 7.82,-1.43 12.54,-2.75l7.81 68.09c-9.46,3.19 -18.7,5.6 -27.6,7.25 -8.91,1.54 -18.59,2.31 -29.15,2.42 -32.45,-0.11 -57.42,-9.02 -74.91,-26.84 -17.49,-17.82 -26.29,-46.09 -26.29,-84.7l0 -177.87 -50.93 0 0 -66.11 50.93 0 0 -85.36 93.82 0zm222.69 434.06l0 -469.26 163.68 0c57.31,0 104.61,18.37 141.79,54.99 37.19,36.63 55.78,83.6 55.78,141.02l0 77.66c0,57.53 -18.59,104.5 -55.78,140.91 -37.18,36.41 -84.48,54.67 -141.79,54.67l-163.68 0zm94.05 -396.66l0 324.5 69.63 0c30.91,0 55.88,-11.56 74.8,-34.65 18.81,-23.1 28.27,-52.69 28.27,-88.77l0 -78.32c0,-35.85 -9.46,-65.34 -28.27,-88.33 -18.92,-22.99 -43.89,-34.42 -74.8,-34.42l-69.63 0zm486.65 403.48c-51.93,-0.11 -92.62,-16.06 -121.78,-47.96 -29.25,-31.9 -43.89,-72.93 -43.89,-123.2l0 -12.87c0,-52.25 14.19,-95.04 42.57,-128.26 28.38,-33.33 67.33,-49.94 117.04,-49.72 46.75,0 82.72,14.41 107.69,43.12 25.08,28.6 37.62,67.21 37.62,115.83l0 48.62 -207.9 0 -0.99 1.98c1.54,23.87 8.8,43.11 21.78,57.97 12.98,14.85 32.34,22.22 57.86,22.22 21,0 38.94,-2.09 53.68,-6.39 14.74,-4.29 29.92,-10.89 45.54,-19.69l25.52 57.97c-13.97,11.44 -32.88,21 -56.76,28.71 -23.87,7.7 -49.83,11.55 -77.99,11.66zm-6.05 -289.41c-18.92,0 -33.55,6.49 -43.67,19.47 -10.23,12.98 -16.39,30.25 -18.59,51.7l0.66 1.65 114.73 0 0 -7.15c0,-20.35 -4.18,-36.41 -12.54,-48.18 -8.47,-11.66 -22,-17.48 -40.59,-17.48zm312.95 -151.47l0 85.36 58.96 0 0 66.11 -58.96 0 0 177.54c0,13.53 2.76,23.21 8.47,29.04 5.72,5.71 13.2,8.69 22.44,8.69 4.95,0 9.24,-0.33 12.87,-0.88 3.63,-0.54 7.82,-1.43 12.54,-2.75l7.81 68.09c-9.46,3.19 -18.7,5.6 -27.6,7.25 -8.91,1.54 -18.59,2.31 -29.15,2.42 -32.45,-0.11 -57.42,-9.02 -74.91,-26.84 -17.49,-17.82 -26.29,-46.09 -26.29,-84.7l0 -177.87 -50.93 0 0 -66.11 50.93 0 0 -85.36 93.82 0zm268.08 440.88c-51.93,-0.11 -92.62,-16.06 -121.78,-47.96 -29.25,-31.9 -43.89,-72.93 -43.89,-123.2l0 -12.87c0,-52.25 14.19,-95.04 42.57,-128.26 28.38,-33.33 67.33,-49.94 117.04,-49.72 46.75,0 82.72,14.41 107.69,43.12 25.08,28.6 37.62,67.21 37.62,115.83l0 48.62 -207.9 0 -0.99 1.98c1.54,23.87 8.8,43.11 21.78,57.97 12.98,14.85 32.34,22.22 57.86,22.22 21,0 38.94,-2.09 53.68,-6.39 14.74,-4.29 29.92,-10.89 45.54,-19.69l25.52 57.97c-13.97,11.44 -32.88,21 -56.76,28.71 -23.87,7.7 -49.83,11.55 -77.99,11.66zm-6.05 -289.41c-18.92,0 -33.55,6.49 -43.67,19.47 -10.23,12.98 -16.39,30.25 -18.59,51.7l0.66 1.65 114.73 0 0 -7.15c0,-20.35 -4.18,-36.41 -12.54,-48.18 -8.47,-11.66 -22,-17.48 -40.59,-17.48zm345.74 217.14c16.39,0 29.37,-4.85 39.05,-14.64 9.68,-9.79 14.52,-22.88 14.52,-39.16l85.69 0 0.65 1.98c0.88,35.2 -12.2,64.68 -39.37,88.44 -27.06,23.76 -60.51,35.53 -100.54,35.64 -51.48,-0.11 -91.41,-16.5 -119.57,-49.5 -28.05,-33 -42.13,-75.13 -42.13,-126.5l0 -9.69c0,-51.14 13.97,-93.28 42.02,-126.5 28.05,-33.22 67.76,-49.83 119.13,-49.83 42.46,0 76.78,12.32 102.74,36.75 25.95,24.53 38.61,56.76 37.72,96.69l-0.65 1.98 -85.69 0c0,-18.05 -4.84,-33 -14.41,-44.99 -9.58,-11.88 -22.77,-17.82 -39.71,-17.82 -24.3,0 -41.58,9.68 -51.81,29.14 -10.12,19.47 -15.29,44.33 -15.29,74.58l0 9.69c0,30.9 5.17,55.99 15.29,75.12 10.23,19.03 27.71,28.61 52.36,28.61zm307.55 -368.61l0 85.36 58.96 0 0 66.11 -58.96 0 0 177.54c0,13.53 2.76,23.21 8.47,29.04 5.72,5.71 13.2,8.69 22.44,8.69 4.95,0 9.24,-0.33 12.87,-0.88 3.63,-0.54 7.82,-1.43 12.54,-2.75l7.81 68.09c-9.46,3.19 -18.7,5.6 -27.6,7.25 -8.91,1.54 -18.59,2.31 -29.15,2.42 -32.45,-0.11 -57.42,-9.02 -74.91,-26.84 -17.49,-17.82 -26.29,-46.09 -26.29,-84.7l0 -177.87 -50.93 0 0 -66.11 50.93 0 0 -85.36 93.82 0zm215.93 434.06l-94.16 0 0 -348.7 94.16 0 0 348.7zm0 -432.19l-94.16 0 0 -70.51 94.16 0 0 70.51zm62.81 254.65c0,-52.04 14.52,-94.61 43.57,-127.82 28.93,-33.22 69.19,-49.83 120.56,-49.83 51.47,0 91.84,16.62 121.1,49.72 29.26,33 43.89,75.68 43.89,127.93l0 6.71c0,52.47 -14.63,95.15 -43.67,128.15 -29.15,33 -69.41,49.39 -120.78,49.5 -51.47,-0.11 -91.85,-16.5 -120.99,-49.5 -29.04,-33 -43.68,-75.68 -43.68,-128.15l0 -6.71zm93.83 6.71c0,31.79 5.61,57.31 16.72,76.56 11.23,19.24 29.26,28.82 54.12,28.82 24.31,0 42.13,-9.69 53.35,-28.93 11.33,-19.36 16.94,-44.88 16.94,-76.45l0 -6.71c0,-31.02 -5.72,-56.21 -17.05,-75.8 -11.44,-19.47 -29.37,-29.25 -53.79,-29.25 -24.31,0 -42.14,9.79 -53.35,29.47 -11.33,19.58 -16.94,44.77 -16.94,75.57l0 6.71zm379.28 -177.87l4.18 49.94c11.66,-17.82 25.95,-31.68 42.89,-41.58 16.94,-9.91 35.97,-14.86 57.1,-14.86 35.2,0 62.7,11.34 82.5,34.1 19.69,22.66 29.59,58.41 29.59,107.47l0 213.62 -94.39 0 0 -213.4c0,-24.87 -4.4,-42.57 -13.09,-52.91 -8.69,-10.45 -21.78,-15.73 -39.16,-15.73 -13.97,0 -26.29,2.64 -36.85,7.93 -10.67,5.27 -19.47,12.53 -26.29,21.78l0 252.34 -94.05 0 0 -348.7 87.56 0z"/>
   <path class="fil2" d="M2126.8 4656.83c0,-19.41 -7,-35.61 -20.8,-48.7 -13.9,-13 -38.3,-24.2 -73.3,-33.4 -43.4,-10.7 -77.2,-26.5 -101.49,-47.4 -24.3,-20.89 -36.51,-47.2 -36.51,-78.8 0,-33.4 13.1,-61.2 39.31,-83.5 26.2,-22.3 60.1,-33.4 101.9,-33.4 44.99,0 80.69,12.7 107.4,38.2 26.7,25.5 39.6,55.21 38.8,89.21l-0.9 1.79 -55 0c0,-24.19 -8.5,-44.3 -25.4,-60.1 -16.9,-15.8 -38.5,-23.7 -64.89,-23.7 -26.91,0 -47.61,6.5 -61.9,19.6 -14.41,13.1 -21.6,30.1 -21.6,51 0,18.6 7.9,34 23.6,46.41 15.7,12.4 41.3,23.29 76.59,32.7 43,11.1 75.7,27.5 98.2,49.2 22.4,21.7 33.7,48.51 33.7,80.3 0,34.4 -13.6,62 -40.6,82.9 -27.1,20.89 -62.4,31.29 -105.9,31.4 -41.2,-0.1 -77.61,-11.6 -109.21,-34.6 -31.5,-23.1 -46.8,-53.9 -45.79,-92.6l0.6 -1.79 55.11 0c0,26.8 10.09,47.49 30.39,61.99 20.31,14.6 43.3,21.8 68.91,21.8 27.3,0 49,-6.1 64.89,-18.4 15.9,-12.3 23.9,-29 23.9,-50.1zm211.8 -286l0 76.5 60 0 0 42.8 -60 0 0 192.5c0,14.8 3,25.3 9.2,31.29 6.1,6.11 14.3,9.1 24.5,9.1 3.3,0 7,-0.4 11.1,-1.29 4.1,-0.9 7.5,-1.8 10.2,-2.81l7.99 39.5c-4.29,3.61 -10.7,6.4 -19.1,8.7 -8.4,2.2 -16.7,3.3 -24.9,3.4 -23.4,-0.1 -42.1,-7.1 -55.9,-21.3 -13.9,-14.1 -20.8,-36.4 -20.8,-66.59l0 -192.5 -50.4 0 0 -42.8 50.4 0 0 -76.5 57.7 0zm316.6 393.5c-1.9,-9.6 -3.39,-18 -4.5,-25.3 -1.1,-7.4 -1.7,-14.7 -1.9,-22.2 -10.8,15.3 -24.81,28 -42.1,38.3 -17.2,10.2 -35.9,15.3 -55.8,15.4 -33,-0.1 -58.1,-8.5 -75.4,-25.4 -17.31,-16.9 -25.9,-40.2 -25.9,-69.9 0,-30.2 12.2,-53.9 36.7,-71 24.5,-17.1 57.8,-25.6 99.8,-25.6l62.7 0 0 -31.41c0,-18.5 -5.71,-33.2 -17,-44.09 -11.3,-10.8 -27.4,-16.2 -48.11,-16.2 -18.7,0 -33.9,4.6 -45.39,14 -11.51,9.4 -17.31,20.6 -17.31,33.7l-54.7 0.6 -0.6 -1.79c-1.39,-23 9.41,-44.1 32.31,-63.2 22.99,-19.2 52.6,-28.8 88.99,-28.8 35.9,0 64.81,9.2 86.71,27.4 21.9,18.3 32.8,44.6 32.8,79l0 152.6c0,11.4 0.6,22.3 1.7,32.8 1.2,10.6 3.4,20.9 6.5,31.1l-59.5 0zm-95.8 -42.2c20.9,0 39.8,-5.4 56.6,-16.11 16.8,-10.7 27.7,-23.1 32.8,-36.9l0 -51.6 -64.8 0c-23.2,0 -41.81,5.9 -55.8,17.6 -13.9,11.7 -20.9,25.5 -20.9,41.3 0,14.1 4.41,25.2 13.21,33.39 8.7,8.2 21.69,12.31 38.9,12.31zm323.51 -75.3l10.2 39.9 1.8 0 77.9 -239.4 64.2 0 -133.3 365.6c-8,21.3 -19.5,39.9 -34.5,55.7 -14.9,15.8 -35.1,23.7 -60.51,23.7 -4.6,0 -10.6,-0.5 -17.8,-1.6 -7.2,-1.11 -12.8,-2.1 -16.7,-3.1l5.8 -45.39c-1.1,-0.2 2.3,0 10.4,0.6 8.1,0.6 13.3,0.9 15.4,0.9 12.31,0 22.4,-5.5 30.21,-16.4 7.8,-10.89 14.4,-23.1 19.59,-36.29l13.8 -33.2 -117.8 -310.5 64.49 0 66.81 199.5zm691.23 117.5c-1.9,-9.6 -3.39,-18 -4.5,-25.3 -1.1,-7.4 -1.7,-14.7 -1.9,-22.2 -10.8,15.3 -24.81,28 -42.1,38.3 -17.2,10.2 -35.9,15.3 -55.8,15.4 -33,-0.1 -58.1,-8.5 -75.4,-25.4 -17.31,-16.9 -25.9,-40.2 -25.9,-69.9 0,-30.2 12.2,-53.9 36.7,-71 24.5,-17.1 57.8,-25.6 99.8,-25.6l62.7 0 0 -31.41c0,-18.5 -5.71,-33.2 -17,-44.09 -11.3,-10.8 -27.4,-16.2 -48.11,-16.2 -18.7,0 -33.9,4.6 -45.39,14 -11.51,9.4 -17.31,20.6 -17.31,33.7l-54.7 0.6 -0.6 -1.79c-1.39,-23 9.41,-44.1 32.31,-63.2 22.99,-19.2 52.6,-28.8 88.99,-28.8 35.9,0 64.81,9.2 86.71,27.4 21.9,18.3 32.8,44.6 32.8,79l0 152.6c0,11.4 0.6,22.3 1.7,32.8 1.2,10.6 3.4,20.9 6.5,31.1l-59.5 0zm-95.8 -42.2c20.9,0 39.8,-5.4 56.6,-16.11 16.8,-10.7 27.7,-23.1 32.8,-36.9l0 -51.6 -64.8 0c-23.2,0 -41.81,5.9 -55.8,17.6 -13.9,11.7 -20.9,25.5 -20.9,41.3 0,14.1 4.41,25.2 13.21,33.39 8.7,8.2 21.69,12.31 38.9,12.31zm288.6 -232.3c10.9,-15.21 24.41,-27.1 40.3,-35.61 15.9,-8.5 33.51,-12.8 52.9,-12.8 33.8,0 60.1,10.2 78.9,30.5 18.9,20.3 28.3,51.6 28.3,93.8l0 198.6 -57.7 0 0 -199.2c0,-26.2 -5.6,-45.5 -16.9,-58 -11.21,-12.5 -27.9,-18.8 -50.21,-18.8 -17.19,0 -32.09,3.4 -44.8,10.1 -12.7,6.8 -22.99,16.2 -30.8,28.3l0 237.6 -57.7 0 0 -457 57.7 0 0 182.5zm414.5 280.7c-45.5,-0.1 -81,-14.6 -106.4,-43.7 -25.49,-29.1 -38.29,-67.4 -38.29,-114.79l0 -12.9c0,-45.5 13.2,-83.2 39.4,-113 26.3,-29.81 58.4,-44.71 96.3,-44.71 42.3,0 74.1,13.2 95.3,39.6 21.2,26.4 31.8,61.4 31.8,105.2l0 30.39 -202.7 0 -0.9 1.51c0,31.8 7,57.7 21.1,77.5 14.1,19.81 35.5,29.7 64.4,29.7 19.6,0 36.7,-2.7 51.5,-8.3 14.7,-5.6 27.41,-13.3 37.9,-23l22.6 37.5c-11.4,10.9 -26.3,20.2 -44.9,27.7 -18.5,7.5 -40.9,11.2 -67.1,11.3zm-9 -283.6c-20.2,0 -36.8,7.7 -50,23.2 -13.2,15.6 -21.2,35.4 -24.19,59.7l0.6 1.4 143 0 0 -4.7c0,-23 -5.7,-42 -17,-57.1 -11.3,-14.99 -28.8,-22.49 -52.4,-22.49zm386.7 277.4c-1.9,-9.6 -3.39,-18 -4.5,-25.3 -1.1,-7.4 -1.7,-14.7 -1.9,-22.2 -10.8,15.3 -24.81,28 -42.1,38.3 -17.2,10.2 -35.9,15.3 -55.8,15.4 -33,-0.1 -58.1,-8.5 -75.4,-25.4 -17.31,-16.9 -25.9,-40.2 -25.9,-69.9 0,-30.2 12.2,-53.9 36.7,-71 24.5,-17.1 57.8,-25.6 99.8,-25.6l62.7 0 0 -31.41c0,-18.5 -5.71,-33.2 -17,-44.09 -11.3,-10.8 -27.4,-16.2 -48.11,-16.2 -18.7,0 -33.9,4.6 -45.39,14 -11.51,9.4 -17.31,20.6 -17.31,33.7l-54.7 0.6 -0.6 -1.79c-1.39,-23 9.41,-44.1 32.31,-63.2 22.99,-19.2 52.6,-28.8 88.99,-28.8 35.9,0 64.81,9.2 86.71,27.4 21.9,18.3 32.8,44.6 32.8,79l0 152.6c0,11.4 0.6,22.3 1.7,32.8 1.2,10.6 3.4,20.9 6.5,31.1l-59.5 0zm-95.8 -42.2c20.9,0 39.8,-5.4 56.6,-16.11 16.8,-10.7 27.7,-23.1 32.8,-36.9l0 -51.6 -64.8 0c-23.2,0 -41.81,5.9 -55.8,17.6 -13.9,11.7 -20.9,25.5 -20.9,41.3 0,14.1 4.41,25.2 13.21,33.39 8.7,8.2 21.69,12.31 38.9,12.31zm217.7 -110.41c0,-51 10.9,-92.1 32.7,-123.4 21.8,-31.2 52.3,-46.9 91.5,-46.9 18.6,0 35,3.5 49.4,10.3 14.4,6.8 26.6,16.8 36.81,29.9l0 -174.3 57.7 0 0 457 -44.31 0 -8.7 -40.1c-10.4,15.2 -23.2,26.69 -38.4,34.49 -15.31,7.81 -32.9,11.7 -53.11,11.8 -38.6,-0.1 -68.9,-14.1 -90.8,-42.1 -21.8,-27.99 -32.8,-64.89 -32.8,-110.59l0 -6.11zm57.7 6.11c0,32 6.6,57.7 19.7,76.9 12.99,19.3 33.39,28.9 60.9,28.9 17.2,0 31.6,-3.9 43.4,-11.7 11.69,-7.9 21.2,-18.8 28.7,-32.9l0 -147.9c-7.5,-13.1 -17.1,-23.5 -28.9,-31.2 -11.79,-7.7 -26,-11.6 -42.6,-11.6 -27.8,0 -48.2,11.4 -61.41,34.3 -13.2,22.9 -19.8,52.49 -19.8,89.1l0 6.11zm574.64 -14.91c0,-46.9 12.7,-85.5 38.1,-115.9 25.4,-30.39 59.9,-45.6 103.4,-45.6 44,0 78.7,15.21 104.2,45.5 25.5,30.2 38.2,68.9 38.2,115.99l0 6.4c0,47.3 -12.7,86 -38.1,116 -25.4,30.1 -59.9,45.1 -103.7,45.2 -43.7,-0.1 -78.41,-15.1 -103.81,-45.3 -25.49,-30.2 -38.29,-68.8 -38.29,-115.9l0 -6.4zm57.7 6.4c0,33.6 7.1,61.3 21.3,83.2 14.1,21.9 35.2,32.8 63.1,32.8 27.6,0 48.4,-10.9 62.7,-32.8 14.3,-21.9 21.4,-49.6 21.4,-83.2l0 -6.4c0,-33.2 -7.19,-60.9 -21.5,-82.9 -14.4,-22.1 -35.4,-33.1 -63.2,-33.1 -27.5,0 -48.4,11 -62.5,33.1 -14.2,22 -21.3,49.7 -21.3,82.9l0 6.4zm320.79 155l0 -274.2 -49.49 0 0 -42.8 49.49 0 0 -40.1c0,-33.79 8.9,-59.89 26.51,-78.4 17.7,-18.5 42.4,-27.7 74,-27.7 6.69,0 13.3,0.6 20.09,1.6 6.7,1.1 14.2,2.6 22.4,4.6l-7 43.9c-3.6,-0.8 -7.8,-1.5 -12.8,-2 -5,-0.6 -10.2,-0.9 -15.7,-0.9 -16.8,0 -29.3,5 -37.5,15.1 -8.2,10 -12.3,24.6 -12.3,43.8l0 40.1 57.5 0 0 42.8 -57.5 0 0 274.2 -57.71 0zm735.24 -146.5c0,45.7 -10.9,82.6 -32.8,110.59 -21.9,28 -52.1,42 -90.5,42.1 -19.6,-0.1 -36.7,-3.3 -51.4,-9.9 -14.81,-6.5 -27.31,-16.3 -37.71,-29.4l0 155 -57.7 0 0 -438.91 44.2 0 9.1 41c10.4,-15.2 23.3,-26.8 38.7,-34.8 15.4,-8.1 33.39,-12.1 53.9,-12.1 39.3,0 69.8,15.6 91.5,46.8 21.8,31.11 32.7,72.3 32.7,123.5l0 6.11zm-57.7 -6.11c0,-36 -7.1,-65.5 -21.2,-88.7 -14.2,-23.11 -35,-34.7 -62.6,-34.7 -16.6,0 -30.8,3.8 -42.5,11.3 -11.7,7.5 -21.2,17.8 -28.4,30.9l0 153.2c7.2,13.1 16.7,23.3 28.4,30.6 11.7,7.41 26.1,11 43.1,11 27.31,0 48,-10 62.1,-30 14.1,-20 21.1,-45.8 21.1,-77.5l0 -6.11zm115.1 -8.8c0,-46.9 12.7,-85.5 38.1,-115.9 25.4,-30.39 59.9,-45.6 103.4,-45.6 44,0 78.7,15.21 104.2,45.5 25.5,30.2 38.2,68.9 38.2,115.99l0 6.4c0,47.3 -12.7,86 -38.1,116 -25.4,30.1 -59.9,45.1 -103.7,45.2 -43.7,-0.1 -78.41,-15.1 -103.81,-45.3 -25.49,-30.2 -38.29,-68.8 -38.29,-115.9l0 -6.4zm57.7 6.4c0,33.6 7.1,61.3 21.3,83.2 14.1,21.9 35.2,32.8 63.1,32.8 27.6,0 48.4,-10.9 62.7,-32.8 14.3,-21.9 21.4,-49.6 21.4,-83.2l0 -6.4c0,-33.2 -7.19,-60.9 -21.5,-82.9 -14.4,-22.1 -35.4,-33.1 -63.2,-33.1 -27.5,0 -48.4,11 -62.5,33.1 -14.2,22 -21.3,49.7 -21.3,82.9l0 6.4zm377.1 -238.5l0 76.5 60 0 0 42.8 -60 0 0 192.5c0,14.8 3,25.3 9.2,31.29 6.1,6.11 14.3,9.1 24.5,9.1 3.3,0 7,-0.4 11.1,-1.29 4.1,-0.9 7.5,-1.8 10.2,-2.81l7.99 39.5c-4.29,3.61 -10.7,6.4 -19.1,8.7 -8.4,2.2 -16.7,3.3 -24.9,3.4 -23.4,-0.1 -42.1,-7.1 -55.9,-21.3 -13.9,-14.1 -20.8,-36.4 -20.8,-66.59l0 -192.5 -50.4 0 0 -42.8 50.4 0 0 -76.5 57.7 0zm253 399.7c-45.5,-0.1 -81,-14.6 -106.4,-43.7 -25.49,-29.1 -38.29,-67.4 -38.29,-114.79l0 -12.9c0,-45.5 13.2,-83.2 39.4,-113 26.3,-29.81 58.4,-44.71 96.3,-44.71 42.3,0 74.1,13.2 95.3,39.6 21.2,26.4 31.8,61.4 31.8,105.2l0 30.39 -202.7 0 -0.9 1.51c0,31.8 7,57.7 21.1,77.5 14.1,19.81 35.5,29.7 64.4,29.7 19.6,0 36.7,-2.7 51.5,-8.3 14.7,-5.6 27.41,-13.3 37.9,-23l22.6 37.5c-11.4,10.9 -26.3,20.2 -44.9,27.7 -18.5,7.5 -40.9,11.2 -67.1,11.3zm-9 -283.6c-20.2,0 -36.8,7.7 -50,23.2 -13.2,15.6 -21.2,35.4 -24.19,59.7l0.6 1.4 143 0 0 -4.7c0,-23 -5.7,-42 -17,-57.1 -11.3,-14.99 -28.8,-22.49 -52.4,-22.49zm243.5 -39.6l4.1 47.2c10.5,-16.8 23.7,-29.9 39.7,-39.1 15.89,-9.29 34,-14 54.3,-14 34.2,0 60.6,10.1 79.4,30.1 18.7,20 28.1,50.9 28.1,92.7l0 200.1 -57.7 0 0 -198.9c0,-28 -5.5,-47.8 -16.5,-59.5 -11.11,-11.7 -27.9,-17.6 -50.6,-17.6 -17.81,0 -32.81,3.61 -45.21,10.7 -12.5,7.1 -22.3,17.2 -29.5,30l0 235.3 -57.7 0 0 -317 51.6 0zm369.7 -76.5l0 76.5 60 0 0 42.8 -60 0 0 192.5c0,14.8 3,25.3 9.2,31.29 6.1,6.11 14.3,9.1 24.5,9.1 3.3,0 7,-0.4 11.1,-1.29 4.1,-0.9 7.5,-1.8 10.2,-2.81l7.99 39.5c-4.29,3.61 -10.7,6.4 -19.1,8.7 -8.4,2.2 -16.7,3.3 -24.9,3.4 -23.4,-0.1 -42.1,-7.1 -55.9,-21.3 -13.9,-14.1 -20.8,-36.4 -20.8,-66.59l0 -192.5 -50.4 0 0 -42.8 50.4 0 0 -76.5 57.7 0zm184.2 393.5l-57.7 0 0 -317 57.7 0 0 317zm0 -398.1l-57.7 0 0 -58.9 57.7 0 0 58.9zm283.6 398.1c-1.9,-9.6 -3.39,-18 -4.5,-25.3 -1.1,-7.4 -1.7,-14.7 -1.9,-22.2 -10.8,15.3 -24.81,28 -42.1,38.3 -17.2,10.2 -35.9,15.3 -55.8,15.4 -33,-0.1 -58.1,-8.5 -75.4,-25.4 -17.31,-16.9 -25.9,-40.2 -25.9,-69.9 0,-30.2 12.2,-53.9 36.7,-71 24.5,-17.1 57.8,-25.6 99.8,-25.6l62.7 0 0 -31.41c0,-18.5 -5.71,-33.2 -17,-44.09 -11.3,-10.8 -27.4,-16.2 -48.11,-16.2 -18.7,0 -33.9,4.6 -45.39,14 -11.51,9.4 -17.31,20.6 -17.31,33.7l-54.7 0.6 -0.6 -1.79c-1.39,-23 9.41,-44.1 32.31,-63.2 22.99,-19.2 52.6,-28.8 88.99,-28.8 35.9,0 64.81,9.2 86.71,27.4 21.9,18.3 32.8,44.6 32.8,79l0 152.6c0,11.4 0.6,22.3 1.7,32.8 1.2,10.6 3.4,20.9 6.5,31.1l-59.5 0zm-95.8 -42.2c20.9,0 39.8,-5.4 56.6,-16.11 16.8,-10.7 27.7,-23.1 32.8,-36.9l0 -51.6 -64.8 0c-23.2,0 -41.81,5.9 -55.8,17.6 -13.9,11.7 -20.9,25.5 -20.9,41.3 0,14.1 4.41,25.2 13.21,33.39 8.7,8.2 21.69,12.31 38.9,12.31zm293.3 42.2l-57.7 0 0 -457 57.7 0 0 457zm530.43 -266l-29.6 -1.79c-15.2,0 -28.1,3.6 -38.5,10.89 -10.5,7.2 -18.5,17.31 -24.2,30.4l0 226.5 -57.7 0 0 -317 51.6 0 5.5 46.3c9,-16.4 20.09,-29.19 33.3,-38.4 13.2,-9.2 28.29,-13.8 45.5,-13.8 4.3,0 8.4,0.4 12.3,1.1 3.9,0.71 7.2,1.4 9.7,2.2l-7.9 53.6zm122.5 266l-57.7 0 0 -317 57.7 0 0 317zm0 -398.1l-57.7 0 0 -58.9 57.7 0 0 58.9zm273.1 312.8c0,-12.7 -4.91,-22.99 -14.5,-31 -9.7,-8 -28,-15.1 -55,-21.1 -37.3,-8 -65.91,-19.2 -85.9,-33.7 -20.1,-14.5 -30.1,-33.8 -30.1,-58.01 0,-25.8 11,-47.89 33,-66.19 22,-18.4 50.39,-27.6 85.4,-27.6 35.9,0 65,9.81 87.3,29.3 22.3,19.59 32.9,42.3 31.9,68.3l-0.6 1.8 -55 0c0,-13.7 -6,-26.1 -18.1,-37.2 -12.01,-11.2 -27.2,-16.69 -45.5,-16.69 -20.3,0 -35.5,4.5 -45.6,13.7 -10,9.19 -15.1,20.09 -15.1,32.8 0,12.5 4.41,22.2 13.1,29 8.7,6.9 26.6,13.1 53.69,18.8 38.91,8.2 68.41,19.8 88.5,34.9 20.1,15 30.21,34.59 30.21,58.8 0,28.2 -11.4,51.1 -34.1,68.9 -22.8,17.8 -52.5,26.6 -89.3,26.7 -40.4,-0.1 -72.21,-10.3 -95.5,-30.8 -23.21,-20.49 -34.2,-44.4 -33.11,-71.8l0.6 -1.7 55.1 0c1,20.5 8.6,35.4 22.9,44.9 14.2,9.5 30.9,14.2 50,14.2 20.6,0 36.6,-4.3 48.2,-13 11.7,-8.7 17.5,-19.8 17.5,-33.3zm217.1 -60.9l-29.59 0 0 146.2 -57.71 0 0 -457 57.71 0 0 264.8 29 0 95.2 -124.8 69.2 0 -115.2 146.2 125.1 170.8 -68.2 0 -105.5 -146.2zm404.31 60.9c0,-12.7 -4.91,-22.99 -14.5,-31 -9.7,-8 -28,-15.1 -55,-21.1 -37.3,-8 -65.91,-19.2 -85.9,-33.7 -20.1,-14.5 -30.1,-33.8 -30.1,-58.01 0,-25.8 11,-47.89 33,-66.19 22,-18.4 50.39,-27.6 85.4,-27.6 35.9,0 65,9.81 87.3,29.3 22.3,19.59 32.9,42.3 31.9,68.3l-0.6 1.8 -55 0c0,-13.7 -6,-26.1 -18.1,-37.2 -12.01,-11.2 -27.2,-16.69 -45.5,-16.69 -20.3,0 -35.5,4.5 -45.6,13.7 -10,9.19 -15.1,20.09 -15.1,32.8 0,12.5 4.41,22.2 13.1,29 8.7,6.9 26.6,13.1 53.69,18.8 38.91,8.2 68.41,19.8 88.5,34.9 20.1,15 30.21,34.59 30.21,58.8 0,28.2 -11.4,51.1 -34.1,68.9 -22.8,17.8 -52.5,26.6 -89.3,26.7 -40.4,-0.1 -72.21,-10.3 -95.5,-30.8 -23.21,-20.49 -34.2,-44.4 -33.11,-71.8l0.6 -1.7 55.1 0c1,20.5 8.6,35.4 22.9,44.9 14.2,9.5 30.9,14.2 50,14.2 20.6,0 36.6,-4.3 48.2,-13 11.7,-8.7 17.5,-19.8 17.5,-33.3zm615.93 85.3c-1.9,-9.6 -3.39,-18 -4.5,-25.3 -1.1,-7.4 -1.7,-14.7 -1.9,-22.2 -10.8,15.3 -24.81,28 -42.1,38.3 -17.2,10.2 -35.9,15.3 -55.8,15.4 -33,-0.1 -58.1,-8.5 -75.4,-25.4 -17.31,-16.9 -25.9,-40.2 -25.9,-69.9 0,-30.2 12.2,-53.9 36.7,-71 24.5,-17.1 57.8,-25.6 99.8,-25.6l62.7 0 0 -31.41c0,-18.5 -5.71,-33.2 -17,-44.09 -11.3,-10.8 -27.4,-16.2 -48.11,-16.2 -18.7,0 -33.9,4.6 -45.39,14 -11.51,9.4 -17.31,20.6 -17.31,33.7l-54.7 0.6 -0.6 -1.79c-1.39,-23 9.41,-44.1 32.31,-63.2 22.99,-19.2 52.6,-28.8 88.99,-28.8 35.9,0 64.81,9.2 86.71,27.4 21.9,18.3 32.8,44.6 32.8,79l0 152.6c0,11.4 0.6,22.3 1.7,32.8 1.2,10.6 3.4,20.9 6.5,31.1l-59.5 0zm-95.8 -42.2c20.9,0 39.8,-5.4 56.6,-16.11 16.8,-10.7 27.7,-23.1 32.8,-36.9l0 -51.6 -64.8 0c-23.2,0 -41.81,5.9 -55.8,17.6 -13.9,11.7 -20.9,25.5 -20.9,41.3 0,14.1 4.41,25.2 13.21,33.39 8.7,8.2 21.69,12.31 38.9,12.31zm282.5 -274.8l4.1 47.2c10.5,-16.8 23.7,-29.9 39.7,-39.1 15.89,-9.29 34,-14 54.3,-14 34.2,0 60.6,10.1 79.4,30.1 18.7,20 28.1,50.9 28.1,92.7l0 200.1 -57.7 0 0 -198.9c0,-28 -5.5,-47.8 -16.5,-59.5 -11.11,-11.7 -27.9,-17.6 -50.6,-17.6 -17.81,0 -32.81,3.61 -45.21,10.7 -12.5,7.1 -22.3,17.2 -29.5,30l0 235.3 -57.7 0 0 -317 51.6 0zm276.2 164.4c0,-51 10.9,-92.1 32.7,-123.4 21.8,-31.2 52.3,-46.9 91.5,-46.9 18.6,0 35,3.5 49.4,10.3 14.4,6.8 26.6,16.8 36.81,29.9l0 -174.3 57.7 0 0 457 -44.31 0 -8.7 -40.1c-10.4,15.2 -23.2,26.69 -38.4,34.49 -15.31,7.81 -32.9,11.7 -53.11,11.8 -38.6,-0.1 -68.9,-14.1 -90.8,-42.1 -21.8,-27.99 -32.8,-64.89 -32.8,-110.59l0 -6.11zm57.7 6.11c0,32 6.6,57.7 19.7,76.9 12.99,19.3 33.39,28.9 60.9,28.9 17.2,0 31.6,-3.9 43.4,-11.7 11.69,-7.9 21.2,-18.8 28.7,-32.9l0 -147.9c-7.5,-13.1 -17.1,-23.5 -28.9,-31.2 -11.79,-7.7 -26,-11.6 -42.6,-11.6 -27.8,0 -48.2,11.4 -61.41,34.3 -13.2,22.9 -19.8,52.49 -19.8,89.1l0 6.11zm-9128.51 773.1l4.9 22.3 1.79 0 5.6 -22.3 72.9 -223.5 58.91 0 -116.61 317 -43.69 0 -118 -317 59.2 0 75 223.5zm403.43 46.6c-10,17 -22.8,30.1 -38.4,39.3 -15.6,9.2 -33.7,13.7 -54.2,13.8 -34.6,-0.1 -61.5,-11.1 -80.91,-33.2 -19.3,-22 -29,-56.4 -29,-103.1l0 -186.9 57.7 0 0 187.5c0,33.79 5,56.99 15,69.7 9.9,12.7 25.5,19.1 46.6,19.1 20.5,0 37.4,-4.2 50.8,-12.5 13.39,-8.3 23.5,-20 30.3,-35.3l0 -228.5 57.7 0 0 317 -51.8 0 -3.8 -46.9zm208.22 46.9l-57.7 0 0 -457 57.7 0 0 457zm146.52 -317l4.1 47.2c10.5,-16.8 23.7,-29.9 39.7,-39.1 15.89,-9.29 34,-14 54.3,-14 34.2,0 60.6,10.1 79.4,30.1 18.7,20 28.1,50.9 28.1,92.7l0 200.1 -57.7 0 0 -198.9c0,-28 -5.5,-47.8 -16.5,-59.5 -11.11,-11.7 -27.9,-17.6 -50.6,-17.6 -17.81,0 -32.81,3.61 -45.21,10.7 -12.5,7.1 -22.3,17.2 -29.5,30l0 235.3 -57.7 0 0 -317 51.6 0zm426.72 323.2c-45.5,-0.1 -81,-14.6 -106.4,-43.7 -25.49,-29.1 -38.29,-67.4 -38.29,-114.79l0 -12.9c0,-45.5 13.2,-83.2 39.4,-113 26.3,-29.81 58.4,-44.71 96.3,-44.71 42.3,0 74.1,13.2 95.3,39.6 21.2,26.4 31.8,61.4 31.8,105.2l0 30.39 -202.7 0 -0.9 1.51c0,31.8 7,57.7 21.1,77.5 14.1,19.81 35.5,29.7 64.4,29.7 19.6,0 36.7,-2.7 51.5,-8.3 14.7,-5.6 27.41,-13.3 37.9,-23l22.6 37.5c-11.4,10.9 -26.3,20.2 -44.9,27.7 -18.5,7.5 -40.9,11.2 -67.1,11.3zm-9 -283.6c-20.2,0 -36.8,7.7 -50,23.2 -13.2,15.6 -21.2,35.4 -24.19,59.7l0.6 1.4 143 0 0 -4.7c0,-23 -5.7,-42 -17,-57.1 -11.3,-14.99 -28.8,-22.49 -52.4,-22.49zm348.02 11.4l-29.6 -1.79c-15.2,0 -28.1,3.6 -38.5,10.89 -10.5,7.2 -18.5,17.31 -24.2,30.4l0 226.5 -57.7 0 0 -317 51.6 0 5.5 46.3c9,-16.4 20.09,-29.19 33.3,-38.4 13.2,-9.2 28.29,-13.8 45.5,-13.8 4.3,0 8.4,0.4 12.3,1.1 3.9,0.71 7.2,1.4 9.7,2.2l-7.9 53.6zm261.02 266c-1.9,-9.6 -3.39,-18 -4.5,-25.3 -1.1,-7.4 -1.7,-14.7 -1.9,-22.2 -10.8,15.3 -24.81,28 -42.1,38.3 -17.2,10.2 -35.9,15.3 -55.8,15.4 -33,-0.1 -58.1,-8.5 -75.4,-25.4 -17.31,-16.9 -25.9,-40.2 -25.9,-69.9 0,-30.2 12.2,-53.9 36.7,-71 24.5,-17.1 57.8,-25.6 99.8,-25.6l62.7 0 0 -31.41c0,-18.5 -5.71,-33.2 -17,-44.09 -11.3,-10.8 -27.4,-16.2 -48.11,-16.2 -18.7,0 -33.9,4.6 -45.39,14 -11.51,9.4 -17.31,20.6 -17.31,33.7l-54.7 0.6 -0.6 -1.79c-1.39,-23 9.41,-44.1 32.31,-63.2 22.99,-19.2 52.6,-28.8 88.99,-28.8 35.9,0 64.81,9.2 86.71,27.4 21.9,18.3 32.8,44.6 32.8,79l0 152.6c0,11.4 0.6,22.3 1.7,32.8 1.2,10.6 3.4,20.9 6.5,31.1l-59.5 0zm-95.8 -42.2c20.9,0 39.8,-5.4 56.6,-16.11 16.8,-10.7 27.7,-23.1 32.8,-36.9l0 -51.6 -64.8 0c-23.2,0 -41.81,5.9 -55.8,17.6 -13.9,11.7 -20.9,25.5 -20.9,41.3 0,14.1 4.41,25.2 13.21,33.39 8.7,8.2 21.69,12.31 38.9,12.31zm507.73 -104.3c0,45.7 -11,82.6 -33,110.59 -21.9,28 -52.2,42 -90.6,42.1 -21.1,-0.1 -39.4,-4.2 -54.99,-12.5 -15.5,-8.3 -28.3,-20.6 -38.51,-36.8l-9.4 43.1 -44.2 0 0 -457 57.7 0 0 177.5c10,-14.1 22.31,-24.81 37.1,-32.2 14.7,-7.4 32,-11.2 51.7,-11.2 39,0 69.49,15.7 91.4,46.9 21.9,31.3 32.8,72.4 32.8,123.4l0 6.11zm-57.7 -6.11c0,-36.4 -6.7,-66 -20.1,-89 -13.4,-22.89 -33.7,-34.4 -61.1,-34.4 -17.7,0 -32.7,4.41 -44.9,13.1 -12.2,8.7 -22,20.3 -29.2,34.99l0 137.41c7.4,15.6 17.2,27.8 29.2,36.6 12,8.8 27.2,13.2 45.5,13.2 27.2,0 47.39,-9.7 60.69,-29 13.21,-19.41 19.91,-44.9 19.91,-76.8l0 -6.11zm196.52 152.6l-57.7 0 0 -317 57.7 0 0 317zm0 -398.1l-57.7 0 0 -58.9 57.7 0 0 58.9zm157.32 398.1l-57.7 0 0 -457 57.7 0 0 457zm157.32 0l-57.7 0 0 -317 57.7 0 0 317zm0 -398.1l-57.7 0 0 -58.9 57.7 0 0 58.9zm175.22 4.6l0 76.5 60 0 0 42.8 -60 0 0 192.5c0,14.8 3,25.3 9.2,31.29 6.1,6.11 14.3,9.1 24.5,9.1 3.3,0 7,-0.4 11.1,-1.29 4.1,-0.9 7.5,-1.8 10.2,-2.81l7.99 39.5c-4.29,3.61 -10.7,6.4 -19.1,8.7 -8.4,2.2 -16.7,3.3 -24.9,3.4 -23.4,-0.1 -42.1,-7.1 -55.9,-21.3 -13.9,-14.1 -20.8,-36.4 -20.8,-66.59l0 -192.5 -50.4 0 0 -42.8 50.4 0 0 -76.5 57.7 0zm190.33 393.5l-57.7 0 0 -317 57.7 0 0 317zm0 -398.1l-57.7 0 0 -58.9 57.7 0 0 58.9zm226.12 404.3c-45.5,-0.1 -81,-14.6 -106.4,-43.7 -25.49,-29.1 -38.29,-67.4 -38.29,-114.79l0 -12.9c0,-45.5 13.2,-83.2 39.4,-113 26.3,-29.81 58.4,-44.71 96.3,-44.71 42.3,0 74.1,13.2 95.3,39.6 21.2,26.4 31.8,61.4 31.8,105.2l0 30.39 -202.7 0 -0.9 1.51c0,31.8 7,57.7 21.1,77.5 14.1,19.81 35.5,29.7 64.4,29.7 19.6,0 36.7,-2.7 51.5,-8.3 14.7,-5.6 27.41,-13.3 37.9,-23l22.6 37.5c-11.4,10.9 -26.3,20.2 -44.9,27.7 -18.5,7.5 -40.9,11.2 -67.1,11.3zm-9 -283.6c-20.2,0 -36.8,7.7 -50,23.2 -13.2,15.6 -21.2,35.4 -24.19,59.7l0.6 1.4 143 0 0 -4.7c0,-23 -5.7,-42 -17,-57.1 -11.3,-14.99 -28.8,-22.49 -52.4,-22.49z"/>
   <path class="fil2" d="M5612.63 5399.13c0,-12.7 -4.91,-22.99 -14.5,-31 -9.7,-8 -28,-15.1 -55,-21.1 -37.3,-8 -65.91,-19.2 -85.9,-33.7 -20.1,-14.5 -30.1,-33.8 -30.1,-58.01 0,-25.8 11,-47.89 33,-66.19 22,-18.4 50.39,-27.6 85.4,-27.6 35.9,0 65,9.81 87.3,29.3 22.3,19.59 32.9,42.3 31.9,68.3l-0.6 1.8 -55 0c0,-13.7 -6,-26.1 -18.1,-37.2 -12.01,-11.2 -27.2,-16.69 -45.5,-16.69 -20.3,0 -35.5,4.5 -45.6,13.7 -10,9.19 -15.1,20.09 -15.1,32.8 0,12.5 4.41,22.2 13.1,29 8.7,6.9 26.6,13.1 53.69,18.8 38.91,8.2 68.41,19.8 88.5,34.9 20.1,15 30.21,34.59 30.21,58.8 0,28.2 -11.4,51.1 -34.1,68.9 -22.8,17.8 -52.5,26.6 -89.3,26.7 -40.4,-0.1 -72.21,-10.3 -95.5,-30.8 -23.21,-20.49 -34.2,-44.4 -33.11,-71.8l0.6 -1.7 55.1 0c1,20.5 8.6,35.4 22.9,44.9 14.2,9.5 30.9,14.2 50,14.2 20.6,0 36.6,-4.3 48.2,-13 11.7,-8.7 17.5,-19.8 17.5,-33.3zm529.83 -30.1l7.4 40.7 1.7 0 7.6 -40.7 63.29 -201.6 46.3 0 63.6 201.6 8.2 45.39 1.8 0 9.3 -45.39 46.9 -201.6 60.39 0 -92 317 -46.6 0 -62.7 -193.1 -12 -50.4 -1.8 0 -11.1 50.4 -61.5 193.1 -46.6 0 -92 -317 60 0 49.8 201.6zm441.52 115.4l-57.7 0 0 -317 57.7 0 0 317zm0 -398.1l-57.7 0 0 -58.9 57.7 0 0 58.9zm175.22 4.6l0 76.5 60 0 0 42.8 -60 0 0 192.5c0,14.8 3,25.3 9.2,31.29 6.1,6.11 14.3,9.1 24.5,9.1 3.3,0 7,-0.4 11.1,-1.29 4.1,-0.9 7.5,-1.8 10.2,-2.81l7.99 39.5c-4.29,3.61 -10.7,6.4 -19.1,8.7 -8.4,2.2 -16.7,3.3 -24.9,3.4 -23.4,-0.1 -42.1,-7.1 -55.9,-21.3 -13.9,-14.1 -20.8,-36.4 -20.8,-66.59l0 -192.5 -50.4 0 0 -42.8 50.4 0 0 -76.5 57.7 0zm185.62 119c10.9,-15.21 24.41,-27.1 40.3,-35.61 15.9,-8.5 33.51,-12.8 52.9,-12.8 33.8,0 60.1,10.2 78.9,30.5 18.9,20.3 28.3,51.6 28.3,93.8l0 198.6 -57.7 0 0 -199.2c0,-26.2 -5.6,-45.5 -16.9,-58 -11.21,-12.5 -27.9,-18.8 -50.21,-18.8 -17.19,0 -32.09,3.4 -44.8,10.1 -12.7,6.8 -22.99,16.2 -30.8,28.3l0 237.6 -57.7 0 0 -457 57.7 0 0 182.5zm589.03 113.09c0,-46.9 12.7,-85.5 38.1,-115.9 25.4,-30.39 59.9,-45.6 103.4,-45.6 44,0 78.7,15.21 104.2,45.5 25.5,30.2 38.2,68.9 38.2,115.99l0 6.4c0,47.3 -12.7,86 -38.1,116 -25.4,30.1 -59.9,45.1 -103.7,45.2 -43.7,-0.1 -78.41,-15.1 -103.81,-45.3 -25.49,-30.2 -38.29,-68.8 -38.29,-115.9l0 -6.4zm57.7 6.4c0,33.6 7.1,61.3 21.3,83.2 14.1,21.9 35.2,32.8 63.1,32.8 27.6,0 48.4,-10.9 62.7,-32.8 14.3,-21.9 21.4,-49.6 21.4,-83.2l0 -6.4c0,-33.2 -7.19,-60.9 -21.5,-82.9 -14.4,-22.1 -35.4,-33.1 -63.2,-33.1 -27.5,0 -48.4,11 -62.5,33.1 -14.2,22 -21.3,49.7 -21.3,82.9l0 6.4zm504.22 108.1c-10,17 -22.8,30.1 -38.4,39.3 -15.6,9.2 -33.7,13.7 -54.2,13.8 -34.6,-0.1 -61.5,-11.1 -80.91,-33.2 -19.3,-22 -29,-56.4 -29,-103.1l0 -186.9 57.7 0 0 187.5c0,33.79 5,56.99 15,69.7 9.9,12.7 25.5,19.1 46.6,19.1 20.5,0 37.4,-4.2 50.8,-12.5 13.39,-8.3 23.5,-20 30.3,-35.3l0 -228.5 57.7 0 0 317 -51.8 0 -3.8 -46.9zm295.82 -219.1l-29.6 -1.79c-15.2,0 -28.1,3.6 -38.5,10.89 -10.5,7.2 -18.5,17.31 -24.2,30.4l0 226.5 -57.7 0 0 -317 51.6 0 5.5 46.3c9,-16.4 20.09,-29.19 33.3,-38.4 13.2,-9.2 28.29,-13.8 45.5,-13.8 4.3,0 8.4,0.4 12.3,1.1 3.9,0.71 7.2,1.4 9.7,2.2l-7.9 53.6zm574.13 266c-1.9,-9.6 -3.39,-18 -4.5,-25.3 -1.1,-7.4 -1.7,-14.7 -1.9,-22.2 -10.8,15.3 -24.81,28 -42.1,38.3 -17.2,10.2 -35.9,15.3 -55.8,15.4 -33,-0.1 -58.1,-8.5 -75.4,-25.4 -17.31,-16.9 -25.9,-40.2 -25.9,-69.9 0,-30.2 12.2,-53.9 36.7,-71 24.5,-17.1 57.8,-25.6 99.8,-25.6l62.7 0 0 -31.41c0,-18.5 -5.71,-33.2 -17,-44.09 -11.3,-10.8 -27.4,-16.2 -48.11,-16.2 -18.7,0 -33.9,4.6 -45.39,14 -11.51,9.4 -17.31,20.6 -17.31,33.7l-54.7 0.6 -0.6 -1.79c-1.39,-23 9.41,-44.1 32.31,-63.2 22.99,-19.2 52.6,-28.8 88.99,-28.8 35.9,0 64.81,9.2 86.71,27.4 21.9,18.3 32.8,44.6 32.8,79l0 152.6c0,11.4 0.6,22.3 1.7,32.8 1.2,10.6 3.4,20.9 6.5,31.1l-59.5 0zm-95.8 -42.2c20.9,0 39.8,-5.4 56.6,-16.11 16.8,-10.7 27.7,-23.1 32.8,-36.9l0 -51.6 -64.8 0c-23.2,0 -41.81,5.9 -55.8,17.6 -13.9,11.7 -20.9,25.5 -20.9,41.3 0,14.1 4.41,25.2 13.21,33.39 8.7,8.2 21.69,12.31 38.9,12.31zm223.82 -110.41c0,-51 10.9,-92.1 32.7,-123.4 21.8,-31.2 52.3,-46.9 91.5,-46.9 18.6,0 35,3.5 49.4,10.3 14.4,6.8 26.6,16.8 36.81,29.9l0 -174.3 57.7 0 0 457 -44.31 0 -8.7 -40.1c-10.4,15.2 -23.2,26.69 -38.4,34.49 -15.31,7.81 -32.9,11.7 -53.11,11.8 -38.6,-0.1 -68.9,-14.1 -90.8,-42.1 -21.8,-27.99 -32.8,-64.89 -32.8,-110.59l0 -6.11zm57.7 6.11c0,32 6.6,57.7 19.7,76.9 12.99,19.3 33.39,28.9 60.9,28.9 17.2,0 31.6,-3.9 43.4,-11.7 11.69,-7.9 21.2,-18.8 28.7,-32.9l0 -147.9c-7.5,-13.1 -17.1,-23.5 -28.9,-31.2 -11.79,-7.7 -26,-11.6 -42.6,-11.6 -27.8,0 -48.2,11.4 -61.41,34.3 -13.2,22.9 -19.8,52.49 -19.8,89.1l0 6.11zm408.43 53l4.9 22.3 1.79 0 5.6 -22.3 72.9 -223.5 58.91 0 -116.61 317 -43.69 0 -118 -317 59.2 0 75 223.5zm392.52 93.5c-1.9,-9.6 -3.39,-18 -4.5,-25.3 -1.1,-7.4 -1.7,-14.7 -1.9,-22.2 -10.8,15.3 -24.81,28 -42.1,38.3 -17.2,10.2 -35.9,15.3 -55.8,15.4 -33,-0.1 -58.1,-8.5 -75.4,-25.4 -17.31,-16.9 -25.9,-40.2 -25.9,-69.9 0,-30.2 12.2,-53.9 36.7,-71 24.5,-17.1 57.8,-25.6 99.8,-25.6l62.7 0 0 -31.41c0,-18.5 -5.71,-33.2 -17,-44.09 -11.3,-10.8 -27.4,-16.2 -48.11,-16.2 -18.7,0 -33.9,4.6 -45.39,14 -11.51,9.4 -17.31,20.6 -17.31,33.7l-54.7 0.6 -0.6 -1.79c-1.39,-23 9.41,-44.1 32.31,-63.2 22.99,-19.2 52.6,-28.8 88.99,-28.8 35.9,0 64.81,9.2 86.71,27.4 21.9,18.3 32.8,44.6 32.8,79l0 152.6c0,11.4 0.6,22.3 1.7,32.8 1.2,10.6 3.4,20.9 6.5,31.1l-59.5 0zm-95.8 -42.2c20.9,0 39.8,-5.4 56.6,-16.11 16.8,-10.7 27.7,-23.1 32.8,-36.9l0 -51.6 -64.8 0c-23.2,0 -41.81,5.9 -55.8,17.6 -13.9,11.7 -20.9,25.5 -20.9,41.3 0,14.1 4.41,25.2 13.21,33.39 8.7,8.2 21.69,12.31 38.9,12.31zm288.62 -274.8l4.1 47.2c10.5,-16.8 23.7,-29.9 39.7,-39.1 15.89,-9.29 34,-14 54.3,-14 34.2,0 60.6,10.1 79.4,30.1 18.7,20 28.1,50.9 28.1,92.7l0 200.1 -57.7 0 0 -198.9c0,-28 -5.5,-47.8 -16.5,-59.5 -11.11,-11.7 -27.9,-17.6 -50.6,-17.6 -17.81,0 -32.81,3.61 -45.21,10.7 -12.5,7.1 -22.3,17.2 -29.5,30l0 235.3 -57.7 0 0 -317 51.6 0zm421.52 278c17.7,0 33.3,-5.9 46.6,-17.71 13.2,-11.79 19.9,-26.29 19.9,-43.5l52.1 0 0.9 1.8c0.8,27.3 -10.89,51.6 -35.2,72.8 -24.2,21.2 -52.3,31.69 -84.3,31.8 -44.6,-0.1 -78.9,-15.2 -103.2,-45.5 -24.19,-30.21 -36.29,-67.9 -36.29,-113l0 -12.41c0,-44.7 12.19,-82.2 36.5,-112.6 24.3,-30.39 58.6,-45.6 103,-45.6 35.3,0 64.3,11 86.8,32.9 22.6,21.8 33.5,48.7 32.7,80.5l-0.6 1.8 -52.4 0c0,-19.4 -6.3,-35.8 -18.9,-49.4 -12.59,-13.61 -28.5,-20.3 -47.6,-20.3 -28.3,0 -49,10.89 -62,32.89 -13,22 -19.5,48.6 -19.5,79.8l0 12.41c0,31.8 6.4,58.6 19.2,80.5 12.8,21.9 33.6,32.8 62.3,32.8zm325.42 45.2c-45.5,-0.1 -81,-14.6 -106.4,-43.7 -25.49,-29.1 -38.29,-67.4 -38.29,-114.79l0 -12.9c0,-45.5 13.2,-83.2 39.4,-113 26.3,-29.81 58.4,-44.71 96.3,-44.71 42.3,0 74.1,13.2 95.3,39.6 21.2,26.4 31.8,61.4 31.8,105.2l0 30.39 -202.7 0 -0.9 1.51c0,31.8 7,57.7 21.1,77.5 14.1,19.81 35.5,29.7 64.4,29.7 19.6,0 36.7,-2.7 51.5,-8.3 14.7,-5.6 27.41,-13.3 37.9,-23l22.6 37.5c-11.4,10.9 -26.3,20.2 -44.9,27.7 -18.5,7.5 -40.9,11.2 -67.1,11.3zm-9 -283.6c-20.2,0 -36.8,7.7 -50,23.2 -13.2,15.6 -21.2,35.4 -24.19,59.7l0.6 1.4 143 0 0 -4.7c0,-23 -5.7,-42 -17,-57.1 -11.3,-14.99 -28.8,-22.49 -52.4,-22.49zm184.82 124.8c0,-51 10.9,-92.1 32.7,-123.4 21.8,-31.2 52.3,-46.9 91.5,-46.9 18.6,0 35,3.5 49.4,10.3 14.4,6.8 26.6,16.8 36.81,29.9l0 -174.3 57.7 0 0 457 -44.31 0 -8.7 -40.1c-10.4,15.2 -23.2,26.69 -38.4,34.49 -15.31,7.81 -32.9,11.7 -53.11,11.8 -38.6,-0.1 -68.9,-14.1 -90.8,-42.1 -21.8,-27.99 -32.8,-64.89 -32.8,-110.59l0 -6.11zm57.7 6.11c0,32 6.6,57.7 19.7,76.9 12.99,19.3 33.39,28.9 60.9,28.9 17.2,0 31.6,-3.9 43.4,-11.7 11.69,-7.9 21.2,-18.8 28.7,-32.9l0 -147.9c-7.5,-13.1 -17.1,-23.5 -28.9,-31.2 -11.79,-7.7 -26,-11.6 -42.6,-11.6 -27.8,0 -48.2,11.4 -61.41,34.3 -13.2,22.9 -19.8,52.49 -19.8,89.1l0 6.11zm-9049.91 781.3c0,-12.7 -4.91,-22.99 -14.5,-31 -9.7,-8 -28,-15.1 -55,-21.1 -37.3,-8 -65.91,-19.2 -85.9,-33.7 -20.1,-14.5 -30.1,-33.8 -30.1,-58.01 0,-25.8 11,-47.89 33,-66.19 22,-18.4 50.39,-27.6 85.4,-27.6 35.9,0 65,9.81 87.3,29.3 22.3,19.59 32.9,42.3 31.9,68.3l-0.6 1.8 -55 0c0,-13.7 -6,-26.1 -18.1,-37.2 -12.01,-11.2 -27.2,-16.69 -45.5,-16.69 -20.3,0 -35.5,4.5 -45.6,13.7 -10,9.19 -15.1,20.09 -15.1,32.8 0,12.5 4.41,22.2 13.1,29 8.7,6.9 26.6,13.1 53.69,18.8 38.91,8.2 68.41,19.8 88.5,34.9 20.1,15 30.21,34.59 30.21,58.8 0,28.2 -11.4,51.1 -34.1,68.9 -22.8,17.8 -52.5,26.6 -89.3,26.7 -40.4,-0.1 -72.21,-10.3 -95.5,-30.8 -23.21,-20.49 -34.2,-44.4 -33.11,-71.8l0.6 -1.7 55.1 0c1,20.5 8.6,35.4 22.9,44.9 14.2,9.5 30.9,14.2 50,14.2 20.6,0 36.6,-4.3 48.2,-13 11.7,-8.7 17.5,-19.8 17.5,-33.3zm260.7 91.5c-45.5,-0.1 -81,-14.6 -106.4,-43.7 -25.49,-29.1 -38.29,-67.4 -38.29,-114.79l0 -12.9c0,-45.5 13.2,-83.2 39.4,-113 26.3,-29.81 58.4,-44.71 96.3,-44.71 42.3,0 74.1,13.2 95.3,39.6 21.2,26.4 31.8,61.4 31.8,105.2l0 30.39 -202.7 0 -0.9 1.51c0,31.8 7,57.7 21.1,77.5 14.1,19.81 35.5,29.7 64.4,29.7 19.6,0 36.7,-2.7 51.5,-8.3 14.7,-5.6 27.41,-13.3 37.9,-23l22.6 37.5c-11.4,10.9 -26.3,20.2 -44.9,27.7 -18.5,7.5 -40.9,11.2 -67.1,11.3zm-9 -283.6c-20.2,0 -36.8,7.7 -50,23.2 -13.2,15.6 -21.2,35.4 -24.19,59.7l0.6 1.4 143 0 0 -4.7c0,-23 -5.7,-42 -17,-57.1 -11.3,-14.99 -28.8,-22.49 -52.4,-22.49zm317.9 238.4c17.7,0 33.3,-5.9 46.6,-17.71 13.2,-11.79 19.9,-26.29 19.9,-43.5l52.1 0 0.9 1.8c0.8,27.3 -10.89,51.6 -35.2,72.8 -24.2,21.2 -52.3,31.69 -84.3,31.8 -44.6,-0.1 -78.9,-15.2 -103.2,-45.5 -24.19,-30.21 -36.29,-67.9 -36.29,-113l0 -12.41c0,-44.7 12.19,-82.2 36.5,-112.6 24.3,-30.39 58.6,-45.6 103,-45.6 35.3,0 64.3,11 86.8,32.9 22.6,21.8 33.5,48.7 32.7,80.5l-0.6 1.8 -52.4 0c0,-19.4 -6.3,-35.8 -18.9,-49.4 -12.59,-13.61 -28.5,-20.3 -47.6,-20.3 -28.3,0 -49,10.89 -62,32.89 -13,22 -19.5,48.6 -19.5,79.8l0 12.41c0,31.8 6.4,58.6 19.2,80.5 12.8,21.9 33.6,32.8 62.3,32.8zm389.4 -7.9c-10,17 -22.8,30.1 -38.4,39.3 -15.6,9.2 -33.7,13.7 -54.2,13.8 -34.6,-0.1 -61.5,-11.1 -80.91,-33.2 -19.3,-22 -29,-56.4 -29,-103.1l0 -186.9 57.7 0 0 187.5c0,33.79 5,56.99 15,69.7 9.9,12.7 25.5,19.1 46.6,19.1 20.5,0 37.4,-4.2 50.8,-12.5 13.39,-8.3 23.5,-20 30.3,-35.3l0 -228.5 57.7 0 0 317 -51.8 0 -3.8 -46.9zm289.7 -219.1l-29.6 -1.79c-15.2,0 -28.1,3.6 -38.5,10.89 -10.5,7.2 -18.5,17.31 -24.2,30.4l0 226.5 -57.7 0 0 -317 51.6 0 5.5 46.3c9,-16.4 20.09,-29.19 33.3,-38.4 13.2,-9.2 28.29,-13.8 45.5,-13.8 4.3,0 8.4,0.4 12.3,1.1 3.9,0.71 7.2,1.4 9.7,2.2l-7.9 53.6zm122.5 266l-57.7 0 0 -317 57.7 0 0 317zm0 -398.1l-57.7 0 0 -58.9 57.7 0 0 58.9zm169.1 4.6l0 76.5 60 0 0 42.8 -60 0 0 192.5c0,14.8 3,25.3 9.2,31.29 6.1,6.11 14.3,9.1 24.5,9.1 3.3,0 7,-0.4 11.1,-1.29 4.1,-0.9 7.5,-1.8 10.2,-2.81l7.99 39.5c-4.29,3.61 -10.7,6.4 -19.1,8.7 -8.4,2.2 -16.7,3.3 -24.9,3.4 -23.4,-0.1 -42.1,-7.1 -55.9,-21.3 -13.9,-14.1 -20.8,-36.4 -20.8,-66.59l0 -192.5 -50.4 0 0 -42.8 50.4 0 0 -76.5 57.7 0zm218.81 276l10.2 39.9 1.8 0 77.9 -239.4 64.2 0 -133.3 365.6c-8,21.3 -19.5,39.9 -34.5,55.7 -14.9,15.8 -35.1,23.7 -60.51,23.7 -4.6,0 -10.6,-0.5 -17.8,-1.6 -7.2,-1.11 -12.8,-2.1 -16.7,-3.1l5.8 -45.39c-1.1,-0.2 2.3,0 10.4,0.6 8.1,0.6 13.3,0.9 15.4,0.9 12.31,0 22.4,-5.5 30.21,-16.4 7.8,-10.89 14.4,-23.1 19.59,-36.29l13.8 -33.2 -117.8 -310.5 64.49 0 66.81 199.5zm397.4 -276l0 76.5 60 0 0 42.8 -60 0 0 192.5c0,14.8 3,25.3 9.2,31.29 6.1,6.11 14.3,9.1 24.5,9.1 3.3,0 7,-0.4 11.1,-1.29 4.1,-0.9 7.5,-1.8 10.2,-2.81l7.99 39.5c-4.29,3.61 -10.7,6.4 -19.1,8.7 -8.4,2.2 -16.7,3.3 -24.9,3.4 -23.4,-0.1 -42.1,-7.1 -55.9,-21.3 -13.9,-14.1 -20.8,-36.4 -20.8,-66.59l0 -192.5 -50.4 0 0 -42.8 50.4 0 0 -76.5 57.7 0zm108.31 232.1c0,-46.9 12.7,-85.5 38.1,-115.9 25.4,-30.39 59.9,-45.6 103.4,-45.6 44,0 78.7,15.21 104.2,45.5 25.5,30.2 38.2,68.9 38.2,115.99l0 6.4c0,47.3 -12.7,86 -38.1,116 -25.4,30.1 -59.9,45.1 -103.7,45.2 -43.7,-0.1 -78.41,-15.1 -103.81,-45.3 -25.49,-30.2 -38.29,-68.8 -38.29,-115.9l0 -6.4zm57.7 6.4c0,33.6 7.1,61.3 21.3,83.2 14.1,21.9 35.2,32.8 63.1,32.8 27.6,0 48.4,-10.9 62.7,-32.8 14.3,-21.9 21.4,-49.6 21.4,-83.2l0 -6.4c0,-33.2 -7.19,-60.9 -21.5,-82.9 -14.4,-22.1 -35.4,-33.1 -63.2,-33.1 -27.5,0 -48.4,11 -62.5,33.1 -14.2,22 -21.3,49.7 -21.3,82.9l0 6.4zm283.3 -6.4c0,-46.9 12.7,-85.5 38.1,-115.9 25.4,-30.39 59.9,-45.6 103.4,-45.6 44,0 78.7,15.21 104.2,45.5 25.5,30.2 38.2,68.9 38.2,115.99l0 6.4c0,47.3 -12.7,86 -38.1,116 -25.4,30.1 -59.9,45.1 -103.7,45.2 -43.7,-0.1 -78.41,-15.1 -103.81,-45.3 -25.49,-30.2 -38.29,-68.8 -38.29,-115.9l0 -6.4zm57.7 6.4c0,33.6 7.1,61.3 21.3,83.2 14.1,21.9 35.2,32.8 63.1,32.8 27.6,0 48.4,-10.9 62.7,-32.8 14.3,-21.9 21.4,-49.6 21.4,-83.2l0 -6.4c0,-33.2 -7.19,-60.9 -21.5,-82.9 -14.4,-22.1 -35.4,-33.1 -63.2,-33.1 -27.5,0 -48.4,11 -62.5,33.1 -14.2,22 -21.3,49.7 -21.3,82.9l0 6.4zm359.2 155l-57.7 0 0 -457 57.7 0 0 457zm273.1 -85.3c0,-12.7 -4.91,-22.99 -14.5,-31 -9.7,-8 -28,-15.1 -55,-21.1 -37.3,-8 -65.91,-19.2 -85.9,-33.7 -20.1,-14.5 -30.1,-33.8 -30.1,-58.01 0,-25.8 11,-47.89 33,-66.19 22,-18.4 50.39,-27.6 85.4,-27.6 35.9,0 65,9.81 87.3,29.3 22.3,19.59 32.9,42.3 31.9,68.3l-0.6 1.8 -55 0c0,-13.7 -6,-26.1 -18.1,-37.2 -12.01,-11.2 -27.2,-16.69 -45.5,-16.69 -20.3,0 -35.5,4.5 -45.6,13.7 -10,9.19 -15.1,20.09 -15.1,32.8 0,12.5 4.41,22.2 13.1,29 8.7,6.9 26.6,13.1 53.69,18.8 38.91,8.2 68.41,19.8 88.5,34.9 20.1,15 30.21,34.59 30.21,58.8 0,28.2 -11.4,51.1 -34.1,68.9 -22.8,17.8 -52.5,26.6 -89.3,26.7 -40.4,-0.1 -72.21,-10.3 -95.5,-30.8 -23.21,-20.49 -34.2,-44.4 -33.11,-71.8l0.6 -1.7 55.1 0c1,20.5 8.6,35.4 22.9,44.9 14.2,9.5 30.9,14.2 50,14.2 20.6,0 36.6,-4.3 48.2,-13 11.7,-8.7 17.5,-19.8 17.5,-33.3zm192.5 85.3l-57.71 0 0 -59.2 57.71 0 0 59.2zm217.69 0l0 -426.6 139.2 0c44.5,0 79.4,9.69 104.6,28.9 25.21,19.2 37.8,48.1 37.8,86.6 0,18.3 -5.7,34.8 -17,49.3 -11.4,14.6 -26.4,25.7 -45.2,33.3 28,3.9 50.11,16 66.4,36.3 16.3,20.3 24.5,44.19 24.5,71.8 0,39 -12.7,68.9 -38.1,89.5 -25.4,20.61 -59.8,30.9 -103.1,30.9l-169.1 0zm57.7 -200.1l0 155 111.4 0c26.3,0 46.81,-6.51 61.3,-19.51 14.6,-12.99 21.9,-31.4 21.9,-55.2 0,-23.7 -7.5,-42.7 -22.3,-57.2 -14.91,-14.4 -34.9,-22.1 -60.11,-23.1l-3.8 0 -108.4 0zm0 -45.1l93.5 0c21.51,0 38.91,-5.9 52.4,-17.7 13.5,-11.91 20.21,-28.3 20.21,-49.4 0,-23.11 -7.2,-40.3 -21.8,-51.7 -14.5,-11.4 -35.5,-17.2 -62.8,-17.2l-81.5 0 0 136zm412.81 127.7l10.2 39.9 1.8 0 77.9 -239.4 64.2 0 -133.3 365.6c-8,21.3 -19.5,39.9 -34.5,55.7 -14.9,15.8 -35.1,23.7 -60.51,23.7 -4.6,0 -10.6,-0.5 -17.8,-1.6 -7.2,-1.11 -12.8,-2.1 -16.7,-3.1l5.8 -45.39c-1.1,-0.2 2.3,0 10.4,0.6 8.1,0.6 13.3,0.9 15.4,0.9 12.31,0 22.4,-5.5 30.21,-16.4 7.8,-10.89 14.4,-23.1 19.59,-36.29l13.8 -33.2 -117.8 -310.5 64.49 0 66.81 199.5zm379.5 117.5l-57.7 0 0 -317 57.7 0 0 317zm0 -398.1l-57.7 0 0 -58.9 57.7 0 0 58.9zm75.6 245.5c0,-51 10.9,-92.1 32.7,-123.4 21.8,-31.2 52.3,-46.9 91.5,-46.9 18.6,0 35,3.5 49.4,10.3 14.4,6.8 26.6,16.8 36.81,29.9l0 -174.3 57.7 0 0 457 -44.31 0 -8.7 -40.1c-10.4,15.2 -23.2,26.69 -38.4,34.49 -15.31,7.81 -32.9,11.7 -53.11,11.8 -38.6,-0.1 -68.9,-14.1 -90.8,-42.1 -21.8,-27.99 -32.8,-64.89 -32.8,-110.59l0 -6.11zm57.7 6.11c0,32 6.6,57.7 19.7,76.9 12.99,19.3 33.39,28.9 60.9,28.9 17.2,0 31.6,-3.9 43.4,-11.7 11.69,-7.9 21.2,-18.8 28.7,-32.9l0 -147.9c-7.5,-13.1 -17.1,-23.5 -28.9,-31.2 -11.79,-7.7 -26,-11.6 -42.6,-11.6 -27.8,0 -48.2,11.4 -61.41,34.3 -13.2,22.9 -19.8,52.49 -19.8,89.1l0 6.11zm427.7 152.7c-45.5,-0.1 -81,-14.6 -106.4,-43.7 -25.49,-29.1 -38.29,-67.4 -38.29,-114.79l0 -12.9c0,-45.5 13.2,-83.2 39.4,-113 26.3,-29.81 58.4,-44.71 96.3,-44.71 42.3,0 74.1,13.2 95.3,39.6 21.2,26.4 31.8,61.4 31.8,105.2l0 30.39 -202.7 0 -0.9 1.51c0,31.8 7,57.7 21.1,77.5 14.1,19.81 35.5,29.7 64.4,29.7 19.6,0 36.7,-2.7 51.5,-8.3 14.7,-5.6 27.41,-13.3 37.9,-23l22.6 37.5c-11.4,10.9 -26.3,20.2 -44.9,27.7 -18.5,7.5 -40.9,11.2 -67.1,11.3zm-9 -283.6c-20.2,0 -36.8,7.7 -50,23.2 -13.2,15.6 -21.2,35.4 -24.19,59.7l0.6 1.4 143 0 0 -4.7c0,-23 -5.7,-42 -17,-57.1 -11.3,-14.99 -28.8,-22.49 -52.4,-22.49zm243.5 -39.6l4.1 47.2c10.5,-16.8 23.7,-29.9 39.7,-39.1 15.89,-9.29 34,-14 54.3,-14 34.2,0 60.6,10.1 79.4,30.1 18.7,20 28.1,50.9 28.1,92.7l0 200.1 -57.7 0 0 -198.9c0,-28 -5.5,-47.8 -16.5,-59.5 -11.11,-11.7 -27.9,-17.6 -50.6,-17.6 -17.81,0 -32.81,3.61 -45.21,10.7 -12.5,7.1 -22.3,17.2 -29.5,30l0 235.3 -57.7 0 0 -317 51.6 0zm369.7 -76.5l0 76.5 60 0 0 42.8 -60 0 0 192.5c0,14.8 3,25.3 9.2,31.29 6.1,6.11 14.3,9.1 24.5,9.1 3.3,0 7,-0.4 11.1,-1.29 4.1,-0.9 7.5,-1.8 10.2,-2.81l7.99 39.5c-4.29,3.61 -10.7,6.4 -19.1,8.7 -8.4,2.2 -16.7,3.3 -24.9,3.4 -23.4,-0.1 -42.1,-7.1 -55.9,-21.3 -13.9,-14.1 -20.8,-36.4 -20.8,-66.59l0 -192.5 -50.4 0 0 -42.8 50.4 0 0 -76.5 57.7 0zm184.2 393.5l-57.7 0 0 -317 57.7 0 0 317zm0 -398.1l-57.7 0 0 -58.9 57.7 0 0 58.9zm112.8 398.1l0 -274.2 -49.49 0 0 -42.8 49.49 0 0 -40.1c0,-33.79 8.9,-59.89 26.51,-78.4 17.7,-18.5 42.4,-27.7 74,-27.7 6.69,0 13.3,0.6 20.09,1.6 6.7,1.1 14.2,2.6 22.4,4.6l-7 43.9c-3.6,-0.8 -7.8,-1.5 -12.8,-2 -5,-0.6 -10.2,-0.9 -15.7,-0.9 -16.8,0 -29.3,5 -37.5,15.1 -8.2,10 -12.3,24.6 -12.3,43.8l0 40.1 57.5 0 0 42.8 -57.5 0 0 274.2 -57.71 0zm270.51 -117.5l10.2 39.9 1.8 0 77.9 -239.4 64.2 0 -133.3 365.6c-8,21.3 -19.5,39.9 -34.5,55.7 -14.9,15.8 -35.1,23.7 -60.51,23.7 -4.6,0 -10.6,-0.5 -17.8,-1.6 -7.2,-1.11 -12.8,-2.1 -16.7,-3.1l5.8 -45.39c-1.1,-0.2 2.3,0 10.4,0.6 8.1,0.6 13.3,0.9 15.4,0.9 12.31,0 22.4,-5.5 30.21,-16.4 7.8,-10.89 14.4,-23.1 19.59,-36.29l13.8 -33.2 -117.8 -310.5 64.49 0 66.81 199.5zm267.2 117.5l-57.7 0 0 -317 57.7 0 0 317zm0 -398.1l-57.7 0 0 -58.9 57.7 0 0 58.9zm140.4 81.1l4.1 47.2c10.5,-16.8 23.7,-29.9 39.7,-39.1 15.89,-9.29 34,-14 54.3,-14 34.2,0 60.6,10.1 79.4,30.1 18.7,20 28.1,50.9 28.1,92.7l0 200.1 -57.7 0 0 -198.9c0,-28 -5.5,-47.8 -16.5,-59.5 -11.11,-11.7 -27.9,-17.6 -50.6,-17.6 -17.81,0 -32.81,3.61 -45.21,10.7 -12.5,7.1 -22.3,17.2 -29.5,30l0 235.3 -57.7 0 0 -317 51.6 0zm279.1 164.4c0,-51 10.9,-92.1 32.7,-123.4 21.8,-31.2 52.21,-46.9 91.31,-46.9 20.09,0 37.8,4.1 53,12.2 15.2,8.1 28,19.8 38.4,35l7 -41.3 46 0 0 318.8c0,40.6 -11.8,71.8 -35.4,93.59 -23.7,21.7 -57.8,32.6 -102.3,32.6 -15.2,0 -31.69,-2.1 -49.4,-6.3 -17.59,-4.2 -33.2,-9.9 -46.7,-17.1l8.8 -44.8c11.1,5.8 24.59,10.6 40.3,14.2 15.7,3.6 31.19,5.4 46.4,5.4 28.1,0 48.6,-6.4 61.4,-19.2 12.8,-12.8 19.2,-32.3 19.2,-58.4l0 -36.1c-10.4,13.3 -22.8,23.39 -37.2,30.2 -14.5,6.8 -31.2,10.2 -50.1,10.3 -38.7,-0.1 -68.9,-14.1 -90.7,-42.1 -21.8,-27.99 -32.7,-64.89 -32.7,-110.59l0 -6.11zm57.8 6.11c0,31.9 6.5,57.39 19.6,76.8 13.1,19.3 33.3,29 60.6,29 17.4,0 32,-4 43.7,-11.9 11.7,-7.9 21.4,-19.1 29,-33.51l0 -145.9c-7.4,-13.5 -17.1,-24.19 -29,-32.09 -11.91,-7.9 -26.3,-11.91 -43.11,-11.91 -27.49,0 -47.89,11.4 -61.1,34.3 -13.2,22.9 -19.7,52.49 -19.7,89.1l0 6.11zm486.09 -247.01l0 76.5 60 0 0 42.8 -60 0 0 192.5c0,14.8 3,25.3 9.2,31.29 6.1,6.11 14.3,9.1 24.5,9.1 3.3,0 7,-0.4 11.1,-1.29 4.1,-0.9 7.5,-1.8 10.2,-2.81l7.99 39.5c-4.29,3.61 -10.7,6.4 -19.1,8.7 -8.4,2.2 -16.7,3.3 -24.9,3.4 -23.4,-0.1 -42.1,-7.1 -55.9,-21.3 -13.9,-14.1 -20.8,-36.4 -20.8,-66.59l0 -192.5 -50.4 0 0 -42.8 50.4 0 0 -76.5 57.7 0zm179.5 119c10.9,-15.21 24.41,-27.1 40.3,-35.61 15.9,-8.5 33.51,-12.8 52.9,-12.8 33.8,0 60.1,10.2 78.9,30.5 18.9,20.3 28.3,51.6 28.3,93.8l0 198.6 -57.7 0 0 -199.2c0,-26.2 -5.6,-45.5 -16.9,-58 -11.21,-12.5 -27.9,-18.8 -50.21,-18.8 -17.19,0 -32.09,3.4 -44.8,10.1 -12.7,6.8 -22.99,16.2 -30.8,28.3l0 237.6 -57.7 0 0 -457 57.7 0 0 182.5zm433.3 8.5l-29.6 -1.79c-15.2,0 -28.1,3.6 -38.5,10.89 -10.5,7.2 -18.5,17.31 -24.2,30.4l0 226.5 -57.7 0 0 -317 51.6 0 5.5 46.3c9,-16.4 20.09,-29.19 33.3,-38.4 13.2,-9.2 28.29,-13.8 45.5,-13.8 4.3,0 8.4,0.4 12.3,1.1 3.9,0.71 7.2,1.4 9.7,2.2l-7.9 53.6z"/>
   <path class="fil2" d="M10393.62 6210.74c-45.5,-0.1 -81,-14.6 -106.4,-43.7 -25.49,-29.1 -38.29,-67.4 -38.29,-114.79l0 -12.9c0,-45.5 13.2,-83.2 39.4,-113 26.3,-29.81 58.4,-44.71 96.3,-44.71 42.3,0 74.1,13.2 95.3,39.6 21.2,26.4 31.8,61.4 31.8,105.2l0 30.39 -202.7 0 -0.9 1.51c0,31.8 7,57.7 21.1,77.5 14.1,19.81 35.5,29.7 64.4,29.7 19.6,0 36.7,-2.7 51.5,-8.3 14.7,-5.6 27.41,-13.3 37.9,-23l22.6 37.5c-11.4,10.9 -26.3,20.2 -44.9,27.7 -18.5,7.5 -40.9,11.2 -67.1,11.3zm-9 -283.6c-20.2,0 -36.8,7.7 -50,23.2 -13.2,15.6 -21.2,35.4 -24.19,59.7l0.6 1.4 143 0 0 -4.7c0,-23 -5.7,-42 -17,-57.1 -11.3,-14.99 -28.8,-22.49 -52.4,-22.49zm386.7 277.4c-1.9,-9.6 -3.39,-18 -4.5,-25.3 -1.1,-7.4 -1.7,-14.7 -1.9,-22.2 -10.8,15.3 -24.81,28 -42.1,38.3 -17.2,10.2 -35.9,15.3 -55.8,15.4 -33,-0.1 -58.1,-8.5 -75.4,-25.4 -17.31,-16.9 -25.9,-40.2 -25.9,-69.9 0,-30.2 12.2,-53.9 36.7,-71 24.5,-17.1 57.8,-25.6 99.8,-25.6l62.7 0 0 -31.41c0,-18.5 -5.71,-33.2 -17,-44.09 -11.3,-10.8 -27.4,-16.2 -48.11,-16.2 -18.7,0 -33.9,4.6 -45.39,14 -11.51,9.4 -17.31,20.6 -17.31,33.7l-54.7 0.6 -0.6 -1.79c-1.39,-23 9.41,-44.1 32.31,-63.2 22.99,-19.2 52.6,-28.8 88.99,-28.8 35.9,0 64.81,9.2 86.71,27.4 21.9,18.3 32.8,44.6 32.8,79l0 152.6c0,11.4 0.6,22.3 1.7,32.8 1.2,10.6 3.4,20.9 6.5,31.1l-59.5 0zm-95.8 -42.2c20.9,0 39.8,-5.4 56.6,-16.11 16.8,-10.7 27.7,-23.1 32.8,-36.9l0 -51.6 -64.8 0c-23.2,0 -41.81,5.9 -55.8,17.6 -13.9,11.7 -20.9,25.5 -20.9,41.3 0,14.1 4.41,25.2 13.21,33.39 8.7,8.2 21.69,12.31 38.9,12.31zm311.2 -351.31l0 76.5 60 0 0 42.8 -60 0 0 192.5c0,14.8 3,25.3 9.2,31.29 6.1,6.11 14.3,9.1 24.5,9.1 3.3,0 7,-0.4 11.1,-1.29 4.1,-0.9 7.5,-1.8 10.2,-2.81l7.99 39.5c-4.29,3.61 -10.7,6.4 -19.1,8.7 -8.4,2.2 -16.7,3.3 -24.9,3.4 -23.4,-0.1 -42.1,-7.1 -55.9,-21.3 -13.9,-14.1 -20.8,-36.4 -20.8,-66.59l0 -192.5 -50.4 0 0 -42.8 50.4 0 0 -76.5 57.7 0zm306.11 308.2c0,-12.7 -4.91,-22.99 -14.5,-31 -9.7,-8 -28,-15.1 -55,-21.1 -37.3,-8 -65.91,-19.2 -85.9,-33.7 -20.1,-14.5 -30.1,-33.8 -30.1,-58.01 0,-25.8 11,-47.89 33,-66.19 22,-18.4 50.39,-27.6 85.4,-27.6 35.9,0 65,9.81 87.3,29.3 22.3,19.59 32.9,42.3 31.9,68.3l-0.6 1.8 -55 0c0,-13.7 -6,-26.1 -18.1,-37.2 -12.01,-11.2 -27.2,-16.69 -45.5,-16.69 -20.3,0 -35.5,4.5 -45.6,13.7 -10,9.19 -15.1,20.09 -15.1,32.8 0,12.5 4.41,22.2 13.1,29 8.7,6.9 26.6,13.1 53.69,18.8 38.91,8.2 68.41,19.8 88.5,34.9 20.1,15 30.21,34.59 30.21,58.8 0,28.2 -11.4,51.1 -34.1,68.9 -22.8,17.8 -52.5,26.6 -89.3,26.7 -40.4,-0.1 -72.21,-10.3 -95.5,-30.8 -23.21,-20.49 -34.2,-44.4 -33.11,-71.8l0.6 -1.7 55.1 0c1,20.5 8.6,35.4 22.9,44.9 14.2,9.5 30.9,14.2 50,14.2 20.6,0 36.6,-4.3 48.2,-13 11.7,-8.7 17.5,-19.8 17.5,-33.3zm-9270.13 811.61c-45.5,-0.1 -81,-14.6 -106.4,-43.7 -25.49,-29.1 -38.29,-67.4 -38.29,-114.79l0 -12.9c0,-45.5 13.2,-83.2 39.4,-113 26.3,-29.81 58.4,-44.71 96.3,-44.71 42.3,0 74.1,13.2 95.3,39.6 21.2,26.4 31.8,61.4 31.8,105.2l0 30.39 -202.7 0 -0.9 1.51c0,31.8 7,57.7 21.1,77.5 14.1,19.81 35.5,29.7 64.4,29.7 19.6,0 36.7,-2.7 51.5,-8.3 14.7,-5.6 27.41,-13.3 37.9,-23l22.6 37.5c-11.4,10.9 -26.3,20.2 -44.9,27.7 -18.5,7.5 -40.9,11.2 -67.1,11.3zm-9 -283.6c-20.2,0 -36.8,7.7 -50,23.2 -13.2,15.6 -21.2,35.4 -24.19,59.7l0.6 1.4 143 0 0 -4.7c0,-23 -5.7,-42 -17,-57.1 -11.3,-14.99 -28.8,-22.49 -52.4,-22.49zm429.22 277.4c-1.9,-9.6 -3.39,-18 -4.5,-25.3 -1.1,-7.4 -1.7,-14.7 -1.9,-22.2 -10.8,15.3 -24.81,28 -42.1,38.3 -17.2,10.2 -35.9,15.3 -55.8,15.4 -33,-0.1 -58.1,-8.5 -75.4,-25.4 -17.31,-16.9 -25.9,-40.2 -25.9,-69.9 0,-30.2 12.2,-53.9 36.7,-71 24.5,-17.1 57.8,-25.6 99.8,-25.6l62.7 0 0 -31.41c0,-18.5 -5.71,-33.2 -17,-44.09 -11.3,-10.8 -27.4,-16.2 -48.11,-16.2 -18.7,0 -33.9,4.6 -45.39,14 -11.51,9.4 -17.31,20.6 -17.31,33.7l-54.7 0.6 -0.6 -1.79c-1.39,-23 9.41,-44.1 32.31,-63.2 22.99,-19.2 52.6,-28.8 88.99,-28.8 35.9,0 64.81,9.2 86.71,27.4 21.9,18.3 32.8,44.6 32.8,79l0 152.6c0,11.4 0.6,22.3 1.7,32.8 1.2,10.6 3.4,20.9 6.5,31.1l-59.5 0zm-95.8 -42.2c20.9,0 39.8,-5.4 56.6,-16.11 16.8,-10.7 27.7,-23.1 32.8,-36.9l0 -51.6 -64.8 0c-23.2,0 -41.81,5.9 -55.8,17.6 -13.9,11.7 -20.9,25.5 -20.9,41.3 0,14.1 4.41,25.2 13.21,33.39 8.7,8.2 21.69,12.31 38.9,12.31zm423.42 -223.81l-29.6 -1.79c-15.2,0 -28.1,3.6 -38.5,10.89 -10.5,7.2 -18.5,17.31 -24.2,30.4l0 226.5 -57.7 0 0 -317 51.6 0 5.5 46.3c9,-16.4 20.09,-29.19 33.3,-38.4 13.2,-9.2 28.29,-13.8 45.5,-13.8 4.3,0 8.4,0.4 12.3,1.1 3.9,0.71 7.2,1.4 9.7,2.2l-7.9 53.6zm165.02 266l-57.7 0 0 -457 57.7 0 0 457zm228.32 -117.5l10.2 39.9 1.8 0 77.9 -239.4 64.2 0 -133.3 365.6c-8,21.3 -19.5,39.9 -34.5,55.7 -14.9,15.8 -35.1,23.7 -60.51,23.7 -4.6,0 -10.6,-0.5 -17.8,-1.6 -7.2,-1.11 -12.8,-2.1 -16.7,-3.1l5.8 -45.39c-1.1,-0.2 2.3,0 10.4,0.6 8.1,0.6 13.3,0.9 15.4,0.9 12.31,0 22.4,-5.5 30.21,-16.4 7.8,-10.89 14.4,-23.1 19.59,-36.29l13.8 -33.2 -117.8 -310.5 64.49 0 66.81 199.5zm266.42 103.4l-44 89.7 -34.2 0 20.5 -92.6 0 -47.7 57.7 0 0 50.6zm504.73 -101.3l7.4 40.7 1.7 0 7.6 -40.7 63.29 -201.6 46.3 0 63.6 201.6 8.2 45.39 1.8 0 9.3 -45.39 46.9 -201.6 60.39 0 -92 317 -46.6 0 -62.7 -193.1 -12 -50.4 -1.8 0 -11.1 50.4 -61.5 193.1 -46.6 0 -92 -317 60 0 49.8 201.6zm546.72 121.6c-45.5,-0.1 -81,-14.6 -106.4,-43.7 -25.49,-29.1 -38.29,-67.4 -38.29,-114.79l0 -12.9c0,-45.5 13.2,-83.2 39.4,-113 26.3,-29.81 58.4,-44.71 96.3,-44.71 42.3,0 74.1,13.2 95.3,39.6 21.2,26.4 31.8,61.4 31.8,105.2l0 30.39 -202.7 0 -0.9 1.51c0,31.8 7,57.7 21.1,77.5 14.1,19.81 35.5,29.7 64.4,29.7 19.6,0 36.7,-2.7 51.5,-8.3 14.7,-5.6 27.41,-13.3 37.9,-23l22.6 37.5c-11.4,10.9 -26.3,20.2 -44.9,27.7 -18.5,7.5 -40.9,11.2 -67.1,11.3zm-9 -283.6c-20.2,0 -36.8,7.7 -50,23.2 -13.2,15.6 -21.2,35.4 -24.19,59.7l0.6 1.4 143 0 0 -4.7c0,-23 -5.7,-42 -17,-57.1 -11.3,-14.99 -28.8,-22.49 -52.4,-22.49zm678.72 283.6c-45.5,-0.1 -81,-14.6 -106.4,-43.7 -25.49,-29.1 -38.29,-67.4 -38.29,-114.79l0 -12.9c0,-45.5 13.2,-83.2 39.4,-113 26.3,-29.81 58.4,-44.71 96.3,-44.71 42.3,0 74.1,13.2 95.3,39.6 21.2,26.4 31.8,61.4 31.8,105.2l0 30.39 -202.7 0 -0.9 1.51c0,31.8 7,57.7 21.1,77.5 14.1,19.81 35.5,29.7 64.4,29.7 19.6,0 36.7,-2.7 51.5,-8.3 14.7,-5.6 27.41,-13.3 37.9,-23l22.6 37.5c-11.4,10.9 -26.3,20.2 -44.9,27.7 -18.5,7.5 -40.9,11.2 -67.1,11.3zm-9 -283.6c-20.2,0 -36.8,7.7 -50,23.2 -13.2,15.6 -21.2,35.4 -24.19,59.7l0.6 1.4 143 0 0 -4.7c0,-23 -5.7,-42 -17,-57.1 -11.3,-14.99 -28.8,-22.49 -52.4,-22.49zm286.02 -39.6l4.1 41.6c10.3,-15 23.4,-26.7 39.4,-35 15.9,-8.3 34.4,-12.5 55.51,-12.5 21.1,0 39.19,4.9 54.3,14.7 15.2,9.8 26.5,24.4 34.2,43.9 10.09,-18.1 23.3,-32.4 39.7,-42.9 16.3,-10.4 35.4,-15.7 57.21,-15.7 32.3,0 57.7,11.1 76.49,33.3 18.7,22.2 28.11,55.5 28.11,100l0 189.6 -57.7 0 0 -190.1c0,-31.3 -5.4,-53.4 -16.11,-66.41 -10.7,-12.99 -26.8,-19.5 -48.1,-19.5 -19.7,0 -35.6,6.91 -47.9,20.5 -12.19,13.7 -19.3,31 -21.5,51.9l0 2.3 0 201.31 -58 0 0 -190.1c0,-29.7 -5.5,-51.51 -16.51,-65.21 -11.1,-13.79 -27,-20.7 -47.7,-20.7 -17.5,0 -32,3.61 -43.3,10.9 -11.29,7.2 -19.99,17.3 -26.1,30.4l0 234.7 -57.7 0 0 -317 51.6 0zm785.42 170.5c0,45.7 -10.9,82.6 -32.8,110.59 -21.9,28 -52.1,42 -90.5,42.1 -19.6,-0.1 -36.7,-3.3 -51.4,-9.9 -14.81,-6.5 -27.31,-16.3 -37.71,-29.4l0 155 -57.7 0 0 -438.91 44.2 0 9.1 41c10.4,-15.2 23.3,-26.8 38.7,-34.8 15.4,-8.1 33.39,-12.1 53.9,-12.1 39.3,0 69.8,15.6 91.5,46.8 21.8,31.11 32.7,72.3 32.7,123.5l0 6.11zm-57.7 -6.11c0,-36 -7.1,-65.5 -21.2,-88.7 -14.2,-23.11 -35,-34.7 -62.6,-34.7 -16.6,0 -30.8,3.8 -42.5,11.3 -11.7,7.5 -21.2,17.8 -28.4,30.9l0 153.2c7.2,13.1 16.7,23.3 28.4,30.6 11.7,7.41 26.1,11 43.1,11 27.31,0 48,-10 62.1,-30 14.1,-20 21.1,-45.8 21.1,-77.5l0 -6.11zm157.62 -8.8c0,-46.9 12.7,-85.5 38.1,-115.9 25.4,-30.39 59.9,-45.6 103.4,-45.6 44,0 78.7,15.21 104.2,45.5 25.5,30.2 38.2,68.9 38.2,115.99l0 6.4c0,47.3 -12.7,86 -38.1,116 -25.4,30.1 -59.9,45.1 -103.7,45.2 -43.7,-0.1 -78.41,-15.1 -103.81,-45.3 -25.49,-30.2 -38.29,-68.8 -38.29,-115.9l0 -6.4zm57.7 6.4c0,33.6 7.1,61.3 21.3,83.2 14.1,21.9 35.2,32.8 63.1,32.8 27.6,0 48.4,-10.9 62.7,-32.8 14.3,-21.9 21.4,-49.6 21.4,-83.2l0 -6.4c0,-33.2 -7.19,-60.9 -21.5,-82.9 -14.4,-22.1 -35.4,-33.1 -63.2,-33.1 -27.5,0 -48.4,11 -62.5,33.1 -14.2,22 -21.3,49.7 -21.3,82.9l0 6.4zm420.42 39.6l7.4 40.7 1.7 0 7.6 -40.7 63.29 -201.6 46.3 0 63.6 201.6 8.2 45.39 1.8 0 9.3 -45.39 46.9 -201.6 60.39 0 -92 317 -46.6 0 -62.7 -193.1 -12 -50.4 -1.8 0 -11.1 50.4 -61.5 193.1 -46.6 0 -92 -317 60 0 49.8 201.6zm546.72 121.6c-45.5,-0.1 -81,-14.6 -106.4,-43.7 -25.49,-29.1 -38.29,-67.4 -38.29,-114.79l0 -12.9c0,-45.5 13.2,-83.2 39.4,-113 26.3,-29.81 58.4,-44.71 96.3,-44.71 42.3,0 74.1,13.2 95.3,39.6 21.2,26.4 31.8,61.4 31.8,105.2l0 30.39 -202.7 0 -0.9 1.51c0,31.8 7,57.7 21.1,77.5 14.1,19.81 35.5,29.7 64.4,29.7 19.6,0 36.7,-2.7 51.5,-8.3 14.7,-5.6 27.41,-13.3 37.9,-23l22.6 37.5c-11.4,10.9 -26.3,20.2 -44.9,27.7 -18.5,7.5 -40.9,11.2 -67.1,11.3zm-9 -283.6c-20.2,0 -36.8,7.7 -50,23.2 -13.2,15.6 -21.2,35.4 -24.19,59.7l0.6 1.4 143 0 0 -4.7c0,-23 -5.7,-42 -17,-57.1 -11.3,-14.99 -28.8,-22.49 -52.4,-22.49zm384.42 11.4l-29.6 -1.79c-15.2,0 -28.1,3.6 -38.5,10.89 -10.5,7.2 -18.5,17.31 -24.2,30.4l0 226.5 -57.7 0 0 -317 51.6 0 5.5 46.3c9,-16.4 20.09,-29.19 33.3,-38.4 13.2,-9.2 28.29,-13.8 45.5,-13.8 4.3,0 8.4,0.4 12.3,1.1 3.9,0.71 7.2,1.4 9.7,2.2l-7.9 53.6zm512.73 148.5l10.2 39.9 1.8 0 77.9 -239.4 64.2 0 -133.3 365.6c-8,21.3 -19.5,39.9 -34.5,55.7 -14.9,15.8 -35.1,23.7 -60.51,23.7 -4.6,0 -10.6,-0.5 -17.8,-1.6 -7.2,-1.11 -12.8,-2.1 -16.7,-3.1l5.8 -45.39c-1.1,-0.2 2.3,0 10.4,0.6 8.1,0.6 13.3,0.9 15.4,0.9 12.31,0 22.4,-5.5 30.21,-16.4 7.8,-10.89 14.4,-23.1 19.59,-36.29l13.8 -33.2 -117.8 -310.5 64.49 0 66.81 199.5zm229.43 -43.91c0,-46.9 12.7,-85.5 38.1,-115.9 25.4,-30.39 59.9,-45.6 103.4,-45.6 44,0 78.7,15.21 104.2,45.5 25.5,30.2 38.2,68.9 38.2,115.99l0 6.4c0,47.3 -12.7,86 -38.1,116 -25.4,30.1 -59.9,45.1 -103.7,45.2 -43.7,-0.1 -78.41,-15.1 -103.81,-45.3 -25.49,-30.2 -38.29,-68.8 -38.29,-115.9l0 -6.4zm57.7 6.4c0,33.6 7.1,61.3 21.3,83.2 14.1,21.9 35.2,32.8 63.1,32.8 27.6,0 48.4,-10.9 62.7,-32.8 14.3,-21.9 21.4,-49.6 21.4,-83.2l0 -6.4c0,-33.2 -7.19,-60.9 -21.5,-82.9 -14.4,-22.1 -35.4,-33.1 -63.2,-33.1 -27.5,0 -48.4,11 -62.5,33.1 -14.2,22 -21.3,49.7 -21.3,82.9l0 6.4zm540.62 108.1c-10,17 -22.8,30.1 -38.4,39.3 -15.6,9.2 -33.7,13.7 -54.2,13.8 -34.6,-0.1 -61.5,-11.1 -80.91,-33.2 -19.3,-22 -29,-56.4 -29,-103.1l0 -186.9 57.7 0 0 187.5c0,33.79 5,56.99 15,69.7 9.9,12.7 25.5,19.1 46.6,19.1 20.5,0 37.4,-4.2 50.8,-12.5 13.39,-8.3 23.5,-20 30.3,-35.3l0 -228.5 57.7 0 0 317 -51.8 0 -3.8 -46.9zm575.62 -346.6l0 76.5 60 0 0 42.8 -60 0 0 192.5c0,14.8 3,25.3 9.2,31.29 6.1,6.11 14.3,9.1 24.5,9.1 3.3,0 7,-0.4 11.1,-1.29 4.1,-0.9 7.5,-1.8 10.2,-2.81l7.99 39.5c-4.29,3.61 -10.7,6.4 -19.1,8.7 -8.4,2.2 -16.7,3.3 -24.9,3.4 -23.4,-0.1 -42.1,-7.1 -55.9,-21.3 -13.9,-14.1 -20.8,-36.4 -20.8,-66.59l0 -192.5 -50.4 0 0 -42.8 50.4 0 0 -76.5 57.7 0zm150.83 232.1c0,-46.9 12.7,-85.5 38.1,-115.9 25.4,-30.39 59.9,-45.6 103.4,-45.6 44,0 78.7,15.21 104.2,45.5 25.5,30.2 38.2,68.9 38.2,115.99l0 6.4c0,47.3 -12.7,86 -38.1,116 -25.4,30.1 -59.9,45.1 -103.7,45.2 -43.7,-0.1 -78.41,-15.1 -103.81,-45.3 -25.49,-30.2 -38.29,-68.8 -38.29,-115.9l0 -6.4zm57.7 6.4c0,33.6 7.1,61.3 21.3,83.2 14.1,21.9 35.2,32.8 63.1,32.8 27.6,0 48.4,-10.9 62.7,-32.8 14.3,-21.9 21.4,-49.6 21.4,-83.2l0 -6.4c0,-33.2 -7.19,-60.9 -21.5,-82.9 -14.4,-22.1 -35.4,-33.1 -63.2,-33.1 -27.5,0 -48.4,11 -62.5,33.1 -14.2,22 -21.3,49.7 -21.3,82.9l0 6.4zm847.22 155c-1.9,-9.6 -3.39,-18 -4.5,-25.3 -1.1,-7.4 -1.7,-14.7 -1.9,-22.2 -10.8,15.3 -24.81,28 -42.1,38.3 -17.2,10.2 -35.9,15.3 -55.8,15.4 -33,-0.1 -58.1,-8.5 -75.4,-25.4 -17.31,-16.9 -25.9,-40.2 -25.9,-69.9 0,-30.2 12.2,-53.9 36.7,-71 24.5,-17.1 57.8,-25.6 99.8,-25.6l62.7 0 0 -31.41c0,-18.5 -5.71,-33.2 -17,-44.09 -11.3,-10.8 -27.4,-16.2 -48.11,-16.2 -18.7,0 -33.9,4.6 -45.39,14 -11.51,9.4 -17.31,20.6 -17.31,33.7l-54.7 0.6 -0.6 -1.79c-1.39,-23 9.41,-44.1 32.31,-63.2 22.99,-19.2 52.6,-28.8 88.99,-28.8 35.9,0 64.81,9.2 86.71,27.4 21.9,18.3 32.8,44.6 32.8,79l0 152.6c0,11.4 0.6,22.3 1.7,32.8 1.2,10.6 3.4,20.9 6.5,31.1l-59.5 0zm-95.8 -42.2c20.9,0 39.8,-5.4 56.6,-16.11 16.8,-10.7 27.7,-23.1 32.8,-36.9l0 -51.6 -64.8 0c-23.2,0 -41.81,5.9 -55.8,17.6 -13.9,11.7 -20.9,25.5 -20.9,41.3 0,14.1 4.41,25.2 13.21,33.39 8.7,8.2 21.69,12.31 38.9,12.31zm399.42 3.2c17.7,0 33.3,-5.9 46.6,-17.71 13.2,-11.79 19.9,-26.29 19.9,-43.5l52.1 0 0.9 1.8c0.8,27.3 -10.89,51.6 -35.2,72.8 -24.2,21.2 -52.3,31.69 -84.3,31.8 -44.6,-0.1 -78.9,-15.2 -103.2,-45.5 -24.19,-30.21 -36.29,-67.9 -36.29,-113l0 -12.41c0,-44.7 12.19,-82.2 36.5,-112.6 24.3,-30.39 58.6,-45.6 103,-45.6 35.3,0 64.3,11 86.8,32.9 22.6,21.8 33.5,48.7 32.7,80.5l-0.6 1.8 -52.4 0c0,-19.4 -6.3,-35.8 -18.9,-49.4 -12.59,-13.61 -28.5,-20.3 -47.6,-20.3 -28.3,0 -49,10.89 -62,32.89 -13,22 -19.5,48.6 -19.5,79.8l0 12.41c0,31.8 6.4,58.6 19.2,80.5 12.8,21.9 33.6,32.8 62.3,32.8zm310.92 -354.5l0 76.5 60 0 0 42.8 -60 0 0 192.5c0,14.8 3,25.3 9.2,31.29 6.1,6.11 14.3,9.1 24.5,9.1 3.3,0 7,-0.4 11.1,-1.29 4.1,-0.9 7.5,-1.8 10.2,-2.81l7.99 39.5c-4.29,3.61 -10.7,6.4 -19.1,8.7 -8.4,2.2 -16.7,3.3 -24.9,3.4 -23.4,-0.1 -42.1,-7.1 -55.9,-21.3 -13.9,-14.1 -20.8,-36.4 -20.8,-66.59l0 -192.5 -50.4 0 0 -42.8 50.4 0 0 -76.5 57.7 0zm-9138.89 967.11c0,45.7 -10.9,82.6 -32.8,110.59 -21.9,28 -52.1,42 -90.5,42.1 -19.6,-0.1 -36.7,-3.3 -51.4,-9.9 -14.81,-6.5 -27.31,-16.3 -37.71,-29.4l0 155 -57.7 0 0 -438.91 44.2 0 9.1 41c10.4,-15.2 23.3,-26.8 38.7,-34.8 15.4,-8.1 33.39,-12.1 53.9,-12.1 39.3,0 69.8,15.6 91.5,46.8 21.8,31.11 32.7,72.3 32.7,123.5l0 6.11zm-57.7 -6.11c0,-36 -7.1,-65.5 -21.2,-88.7 -14.2,-23.11 -35,-34.7 -62.6,-34.7 -16.6,0 -30.8,3.8 -42.5,11.3 -11.7,7.5 -21.2,17.8 -28.4,30.9l0 153.2c7.2,13.1 16.7,23.3 28.4,30.6 11.7,7.41 26.1,11 43.1,11 27.31,0 48,-10 62.1,-30 14.1,-20 21.1,-45.8 21.1,-77.5l0 -6.11zm278.6 -113.4l-29.6 -1.79c-15.2,0 -28.1,3.6 -38.5,10.89 -10.5,7.2 -18.5,17.31 -24.2,30.4l0 226.5 -57.7 0 0 -317 51.6 0 5.5 46.3c9,-16.4 20.09,-29.19 33.3,-38.4 13.2,-9.2 28.29,-13.8 45.5,-13.8 4.3,0 8.4,0.4 12.3,1.1 3.9,0.71 7.2,1.4 9.7,2.2l-7.9 53.6zm40.7 104.6c0,-46.9 12.7,-85.5 38.1,-115.9 25.4,-30.39 59.9,-45.6 103.4,-45.6 44,0 78.7,15.21 104.2,45.5 25.5,30.2 38.2,68.9 38.2,115.99l0 6.4c0,47.3 -12.7,86 -38.1,116 -25.4,30.1 -59.9,45.1 -103.7,45.2 -43.7,-0.1 -78.41,-15.1 -103.81,-45.3 -25.49,-30.2 -38.29,-68.8 -38.29,-115.9l0 -6.4zm57.7 6.4c0,33.6 7.1,61.3 21.3,83.2 14.1,21.9 35.2,32.8 63.1,32.8 27.6,0 48.4,-10.9 62.7,-32.8 14.3,-21.9 21.4,-49.6 21.4,-83.2l0 -6.4c0,-33.2 -7.19,-60.9 -21.5,-82.9 -14.4,-22.1 -35.4,-33.1 -63.2,-33.1 -27.5,0 -48.4,11 -62.5,33.1 -14.2,22 -21.3,49.7 -21.3,82.9l0 6.4zm491.6 155c-1.9,-9.6 -3.39,-18 -4.5,-25.3 -1.1,-7.4 -1.7,-14.7 -1.9,-22.2 -10.8,15.3 -24.81,28 -42.1,38.3 -17.2,10.2 -35.9,15.3 -55.8,15.4 -33,-0.1 -58.1,-8.5 -75.4,-25.4 -17.31,-16.9 -25.9,-40.2 -25.9,-69.9 0,-30.2 12.2,-53.9 36.7,-71 24.5,-17.1 57.8,-25.6 99.8,-25.6l62.7 0 0 -31.41c0,-18.5 -5.71,-33.2 -17,-44.09 -11.3,-10.8 -27.4,-16.2 -48.11,-16.2 -18.7,0 -33.9,4.6 -45.39,14 -11.51,9.4 -17.31,20.6 -17.31,33.7l-54.7 0.6 -0.6 -1.79c-1.39,-23 9.41,-44.1 32.31,-63.2 22.99,-19.2 52.6,-28.8 88.99,-28.8 35.9,0 64.81,9.2 86.71,27.4 21.9,18.3 32.8,44.6 32.8,79l0 152.6c0,11.4 0.6,22.3 1.7,32.8 1.2,10.6 3.4,20.9 6.5,31.1l-59.5 0zm-95.8 -42.2c20.9,0 39.8,-5.4 56.6,-16.11 16.8,-10.7 27.7,-23.1 32.8,-36.9l0 -51.6 -64.8 0c-23.2,0 -41.81,5.9 -55.8,17.6 -13.9,11.7 -20.9,25.5 -20.9,41.3 0,14.1 4.41,25.2 13.21,33.39 8.7,8.2 21.69,12.31 38.9,12.31zm356.9 3.2c17.7,0 33.3,-5.9 46.6,-17.71 13.2,-11.79 19.9,-26.29 19.9,-43.5l52.1 0 0.9 1.8c0.8,27.3 -10.89,51.6 -35.2,72.8 -24.2,21.2 -52.3,31.69 -84.3,31.8 -44.6,-0.1 -78.9,-15.2 -103.2,-45.5 -24.19,-30.21 -36.29,-67.9 -36.29,-113l0 -12.41c0,-44.7 12.19,-82.2 36.5,-112.6 24.3,-30.39 58.6,-45.6 103,-45.6 35.3,0 64.3,11 86.8,32.9 22.6,21.8 33.5,48.7 32.7,80.5l-0.6 1.8 -52.4 0c0,-19.4 -6.3,-35.8 -18.9,-49.4 -12.59,-13.61 -28.5,-20.3 -47.6,-20.3 -28.3,0 -49,10.89 -62,32.89 -13,22 -19.5,48.6 -19.5,79.8l0 12.41c0,31.8 6.4,58.6 19.2,80.5 12.8,21.9 33.6,32.8 62.3,32.8zm268.4 -354.5l0 76.5 60 0 0 42.8 -60 0 0 192.5c0,14.8 3,25.3 9.2,31.29 6.1,6.11 14.3,9.1 24.5,9.1 3.3,0 7,-0.4 11.1,-1.29 4.1,-0.9 7.5,-1.8 10.2,-2.81l7.99 39.5c-4.29,3.61 -10.7,6.4 -19.1,8.7 -8.4,2.2 -16.7,3.3 -24.9,3.4 -23.4,-0.1 -42.1,-7.1 -55.9,-21.3 -13.9,-14.1 -20.8,-36.4 -20.8,-66.59l0 -192.5 -50.4 0 0 -42.8 50.4 0 0 -76.5 57.7 0zm184.2 393.5l-57.7 0 0 -317 57.7 0 0 317zm0 -398.1l-57.7 0 0 -58.9 57.7 0 0 58.9zm194.6 304.6l4.9 22.3 1.79 0 5.6 -22.3 72.9 -223.5 58.91 0 -116.61 317 -43.69 0 -118 -317 59.2 0 75 223.5zm323.4 99.7c-45.5,-0.1 -81,-14.6 -106.4,-43.7 -25.49,-29.1 -38.29,-67.4 -38.29,-114.79l0 -12.9c0,-45.5 13.2,-83.2 39.4,-113 26.3,-29.81 58.4,-44.71 96.3,-44.71 42.3,0 74.1,13.2 95.3,39.6 21.2,26.4 31.8,61.4 31.8,105.2l0 30.39 -202.7 0 -0.9 1.51c0,31.8 7,57.7 21.1,77.5 14.1,19.81 35.5,29.7 64.4,29.7 19.6,0 36.7,-2.7 51.5,-8.3 14.7,-5.6 27.41,-13.3 37.9,-23l22.6 37.5c-11.4,10.9 -26.3,20.2 -44.9,27.7 -18.5,7.5 -40.9,11.2 -67.1,11.3zm-9 -283.6c-20.2,0 -36.8,7.7 -50,23.2 -13.2,15.6 -21.2,35.4 -24.19,59.7l0.6 1.4 143 0 0 -4.7c0,-23 -5.7,-42 -17,-57.1 -11.3,-14.99 -28.8,-22.49 -52.4,-22.49zm254.3 277.4l-57.7 0 0 -457 57.7 0 0 457zm185.8 -117.5l10.2 39.9 1.8 0 77.9 -239.4 64.2 0 -133.3 365.6c-8,21.3 -19.5,39.9 -34.5,55.7 -14.9,15.8 -35.1,23.7 -60.51,23.7 -4.6,0 -10.6,-0.5 -17.8,-1.6 -7.2,-1.11 -12.8,-2.1 -16.7,-3.1l5.8 -45.39c-1.1,-0.2 2.3,0 10.4,0.6 8.1,0.6 13.3,0.9 15.4,0.9 12.31,0 22.4,-5.5 30.21,-16.4 7.8,-10.89 14.4,-23.1 19.59,-36.29l13.8 -33.2 -117.8 -310.5 64.49 0 66.81 199.5zm490.7 117.5c-1.9,-9.6 -3.39,-18 -4.5,-25.3 -1.1,-7.4 -1.7,-14.7 -1.9,-22.2 -10.8,15.3 -24.81,28 -42.1,38.3 -17.2,10.2 -35.9,15.3 -55.8,15.4 -33,-0.1 -58.1,-8.5 -75.4,-25.4 -17.31,-16.9 -25.9,-40.2 -25.9,-69.9 0,-30.2 12.2,-53.9 36.7,-71 24.5,-17.1 57.8,-25.6 99.8,-25.6l62.7 0 0 -31.41c0,-18.5 -5.71,-33.2 -17,-44.09 -11.3,-10.8 -27.4,-16.2 -48.11,-16.2 -18.7,0 -33.9,4.6 -45.39,14 -11.51,9.4 -17.31,20.6 -17.31,33.7l-54.7 0.6 -0.6 -1.79c-1.39,-23 9.41,-44.1 32.31,-63.2 22.99,-19.2 52.6,-28.8 88.99,-28.8 35.9,0 64.81,9.2 86.71,27.4 21.9,18.3 32.8,44.6 32.8,79l0 152.6c0,11.4 0.6,22.3 1.7,32.8 1.2,10.6 3.4,20.9 6.5,31.1l-59.5 0zm-95.8 -42.2c20.9,0 39.8,-5.4 56.6,-16.11 16.8,-10.7 27.7,-23.1 32.8,-36.9l0 -51.6 -64.8 0c-23.2,0 -41.81,5.9 -55.8,17.6 -13.9,11.7 -20.9,25.5 -20.9,41.3 0,14.1 4.41,25.2 13.21,33.39 8.7,8.2 21.69,12.31 38.9,12.31zm282.5 -274.8l4.1 47.2c10.5,-16.8 23.7,-29.9 39.7,-39.1 15.89,-9.29 34,-14 54.3,-14 34.2,0 60.6,10.1 79.4,30.1 18.7,20 28.1,50.9 28.1,92.7l0 200.1 -57.7 0 0 -198.9c0,-28 -5.5,-47.8 -16.5,-59.5 -11.11,-11.7 -27.9,-17.6 -50.6,-17.6 -17.81,0 -32.81,3.61 -45.21,10.7 -12.5,7.1 -22.3,17.2 -29.5,30l0 235.3 -57.7 0 0 -317 51.6 0z"/>
   <path class="fil2" d="M5588.92 7492.15c0,-51 10.9,-92.1 32.7,-123.4 21.8,-31.2 52.3,-46.9 91.5,-46.9 18.6,0 35,3.5 49.4,10.3 14.4,6.8 26.6,16.8 36.81,29.9l0 -174.3 57.7 0 0 457 -44.31 0 -8.7 -40.1c-10.4,15.2 -23.2,26.69 -38.4,34.49 -15.31,7.81 -32.9,11.7 -53.11,11.8 -38.6,-0.1 -68.9,-14.1 -90.8,-42.1 -21.8,-27.99 -32.8,-64.89 -32.8,-110.59l0 -6.11zm57.7 6.11c0,32 6.6,57.7 19.7,76.9 12.99,19.3 33.39,28.9 60.9,28.9 17.2,0 31.6,-3.9 43.4,-11.7 11.69,-7.9 21.2,-18.8 28.7,-32.9l0 -147.9c-7.5,-13.1 -17.1,-23.5 -28.9,-31.2 -11.79,-7.7 -26,-11.6 -42.6,-11.6 -27.8,0 -48.2,11.4 -61.41,34.3 -13.2,22.9 -19.8,52.49 -19.8,89.1l0 6.11zm657.7 0c0,45.7 -10.9,82.6 -32.8,110.59 -21.9,28 -52.1,42 -90.5,42.1 -19.6,-0.1 -36.7,-3.3 -51.4,-9.9 -14.81,-6.5 -27.31,-16.3 -37.71,-29.4l0 155 -57.7 0 0 -438.91 44.2 0 9.1 41c10.4,-15.2 23.3,-26.8 38.7,-34.8 15.4,-8.1 33.39,-12.1 53.9,-12.1 39.3,0 69.8,15.6 91.5,46.8 21.8,31.11 32.7,72.3 32.7,123.5l0 6.11zm-57.7 -6.11c0,-36 -7.1,-65.5 -21.2,-88.7 -14.2,-23.11 -35,-34.7 -62.6,-34.7 -16.6,0 -30.8,3.8 -42.5,11.3 -11.7,7.5 -21.2,17.8 -28.4,30.9l0 153.2c7.2,13.1 16.7,23.3 28.4,30.6 11.7,7.41 26.1,11 43.1,11 27.31,0 48,-10 62.1,-30 14.1,-20 21.1,-45.8 21.1,-77.5l0 -6.11zm278.6 -113.4l-29.6 -1.79c-15.2,0 -28.1,3.6 -38.5,10.89 -10.5,7.2 -18.5,17.31 -24.2,30.4l0 226.5 -57.7 0 0 -317 51.6 0 5.5 46.3c9,-16.4 20.09,-29.19 33.3,-38.4 13.2,-9.2 28.29,-13.8 45.5,-13.8 4.3,0 8.4,0.4 12.3,1.1 3.9,0.71 7.2,1.4 9.7,2.2l-7.9 53.6zm185.69 272.2c-45.5,-0.1 -81,-14.6 -106.4,-43.7 -25.49,-29.1 -38.29,-67.4 -38.29,-114.79l0 -12.9c0,-45.5 13.2,-83.2 39.4,-113 26.3,-29.81 58.4,-44.71 96.3,-44.71 42.3,0 74.1,13.2 95.3,39.6 21.2,26.4 31.8,61.4 31.8,105.2l0 30.39 -202.7 0 -0.9 1.51c0,31.8 7,57.7 21.1,77.5 14.1,19.81 35.5,29.7 64.4,29.7 19.6,0 36.7,-2.7 51.5,-8.3 14.7,-5.6 27.41,-13.3 37.9,-23l22.6 37.5c-11.4,10.9 -26.3,20.2 -44.9,27.7 -18.5,7.5 -40.9,11.2 -67.1,11.3zm-9 -283.6c-20.2,0 -36.8,7.7 -50,23.2 -13.2,15.6 -21.2,35.4 -24.19,59.7l0.6 1.4 143 0 0 -4.7c0,-23 -5.7,-42 -17,-57.1 -11.3,-14.99 -28.8,-22.49 -52.4,-22.49zm293.9 183.9l4.9 22.3 1.79 0 5.6 -22.3 72.9 -223.5 58.91 0 -116.61 317 -43.69 0 -118 -317 59.2 0 75 223.5zm323.4 99.7c-45.5,-0.1 -81,-14.6 -106.4,-43.7 -25.49,-29.1 -38.29,-67.4 -38.29,-114.79l0 -12.9c0,-45.5 13.2,-83.2 39.4,-113 26.3,-29.81 58.4,-44.71 96.3,-44.71 42.3,0 74.1,13.2 95.3,39.6 21.2,26.4 31.8,61.4 31.8,105.2l0 30.39 -202.7 0 -0.9 1.51c0,31.8 7,57.7 21.1,77.5 14.1,19.81 35.5,29.7 64.4,29.7 19.6,0 36.7,-2.7 51.5,-8.3 14.7,-5.6 27.41,-13.3 37.9,-23l22.6 37.5c-11.4,10.9 -26.3,20.2 -44.9,27.7 -18.5,7.5 -40.9,11.2 -67.1,11.3zm-9 -283.6c-20.2,0 -36.8,7.7 -50,23.2 -13.2,15.6 -21.2,35.4 -24.19,59.7l0.6 1.4 143 0 0 -4.7c0,-23 -5.7,-42 -17,-57.1 -11.3,-14.99 -28.8,-22.49 -52.4,-22.49zm243.5 -39.6l4.1 47.2c10.5,-16.8 23.7,-29.9 39.7,-39.1 15.89,-9.29 34,-14 54.3,-14 34.2,0 60.6,10.1 79.4,30.1 18.7,20 28.1,50.9 28.1,92.7l0 200.1 -57.7 0 0 -198.9c0,-28 -5.5,-47.8 -16.5,-59.5 -11.11,-11.7 -27.9,-17.6 -50.6,-17.6 -17.81,0 -32.81,3.61 -45.21,10.7 -12.5,7.1 -22.3,17.2 -29.5,30l0 235.3 -57.7 0 0 -317 51.6 0zm369.7 -76.5l0 76.5 60 0 0 42.8 -60 0 0 192.5c0,14.8 3,25.3 9.2,31.29 6.1,6.11 14.3,9.1 24.5,9.1 3.3,0 7,-0.4 11.1,-1.29 4.1,-0.9 7.5,-1.8 10.2,-2.81l7.99 39.5c-4.29,3.61 -10.7,6.4 -19.1,8.7 -8.4,2.2 -16.7,3.3 -24.9,3.4 -23.4,-0.1 -42.1,-7.1 -55.9,-21.3 -13.9,-14.1 -20.8,-36.4 -20.8,-66.59l0 -192.5 -50.4 0 0 -42.8 50.4 0 0 -76.5 57.7 0zm344.1 399.7c-45.5,-0.1 -81,-14.6 -106.4,-43.7 -25.49,-29.1 -38.29,-67.4 -38.29,-114.79l0 -12.9c0,-45.5 13.2,-83.2 39.4,-113 26.3,-29.81 58.4,-44.71 96.3,-44.71 42.3,0 74.1,13.2 95.3,39.6 21.2,26.4 31.8,61.4 31.8,105.2l0 30.39 -202.7 0 -0.9 1.51c0,31.8 7,57.7 21.1,77.5 14.1,19.81 35.5,29.7 64.4,29.7 19.6,0 36.7,-2.7 51.5,-8.3 14.7,-5.6 27.41,-13.3 37.9,-23l22.6 37.5c-11.4,10.9 -26.3,20.2 -44.9,27.7 -18.5,7.5 -40.9,11.2 -67.1,11.3zm-9 -283.6c-20.2,0 -36.8,7.7 -50,23.2 -13.2,15.6 -21.2,35.4 -24.19,59.7l0.6 1.4 143 0 0 -4.7c0,-23 -5.7,-42 -17,-57.1 -11.3,-14.99 -28.8,-22.49 -52.4,-22.49zm299.4 77.3l67.4 -116.9 67.4 0 -102.8 156.7 105.7 160.3 -66.2 0 -70.29 -119.8 -70.3 119.8 -66.8 0 105.7 -160.3 -102.8 -156.7 66.49 0 66.5 116.9zm464.41 53.6c0,45.7 -10.9,82.6 -32.8,110.59 -21.9,28 -52.1,42 -90.5,42.1 -19.6,-0.1 -36.7,-3.3 -51.4,-9.9 -14.81,-6.5 -27.31,-16.3 -37.71,-29.4l0 155 -57.7 0 0 -438.91 44.2 0 9.1 41c10.4,-15.2 23.3,-26.8 38.7,-34.8 15.4,-8.1 33.39,-12.1 53.9,-12.1 39.3,0 69.8,15.6 91.5,46.8 21.8,31.11 32.7,72.3 32.7,123.5l0 6.11zm-57.7 -6.11c0,-36 -7.1,-65.5 -21.2,-88.7 -14.2,-23.11 -35,-34.7 -62.6,-34.7 -16.6,0 -30.8,3.8 -42.5,11.3 -11.7,7.5 -21.2,17.8 -28.4,30.9l0 153.2c7.2,13.1 16.7,23.3 28.4,30.6 11.7,7.41 26.1,11 43.1,11 27.31,0 48,-10 62.1,-30 14.1,-20 21.1,-45.8 21.1,-77.5l0 -6.11zm191 152.6l-57.7 0 0 -457 57.7 0 0 457zm75.3 -161.4c0,-46.9 12.7,-85.5 38.1,-115.9 25.4,-30.39 59.9,-45.6 103.4,-45.6 44,0 78.7,15.21 104.2,45.5 25.5,30.2 38.2,68.9 38.2,115.99l0 6.4c0,47.3 -12.7,86 -38.1,116 -25.4,30.1 -59.9,45.1 -103.7,45.2 -43.7,-0.1 -78.41,-15.1 -103.81,-45.3 -25.49,-30.2 -38.29,-68.8 -38.29,-115.9l0 -6.4zm57.7 6.4c0,33.6 7.1,61.3 21.3,83.2 14.1,21.9 35.2,32.8 63.1,32.8 27.6,0 48.4,-10.9 62.7,-32.8 14.3,-21.9 21.4,-49.6 21.4,-83.2l0 -6.4c0,-33.2 -7.19,-60.9 -21.5,-82.9 -14.4,-22.1 -35.4,-33.1 -63.2,-33.1 -27.5,0 -48.4,11 -62.5,33.1 -14.2,22 -21.3,49.7 -21.3,82.9l0 6.4zm359.2 155l-57.7 0 0 -317 57.7 0 0 317zm0 -398.1l-57.7 0 0 -58.9 57.7 0 0 58.9zm169.1 4.6l0 76.5 60 0 0 42.8 -60 0 0 192.5c0,14.8 3,25.3 9.2,31.29 6.1,6.11 14.3,9.1 24.5,9.1 3.3,0 7,-0.4 11.1,-1.29 4.1,-0.9 7.5,-1.8 10.2,-2.81l7.99 39.5c-4.29,3.61 -10.7,6.4 -19.1,8.7 -8.4,2.2 -16.7,3.3 -24.9,3.4 -23.4,-0.1 -42.1,-7.1 -55.9,-21.3 -13.9,-14.1 -20.8,-36.4 -20.8,-66.59l0 -192.5 -50.4 0 0 -42.8 50.4 0 0 -76.5 57.7 0zm316.6 393.5c-1.9,-9.6 -3.39,-18 -4.5,-25.3 -1.1,-7.4 -1.7,-14.7 -1.9,-22.2 -10.8,15.3 -24.81,28 -42.1,38.3 -17.2,10.2 -35.9,15.3 -55.8,15.4 -33,-0.1 -58.1,-8.5 -75.4,-25.4 -17.31,-16.9 -25.9,-40.2 -25.9,-69.9 0,-30.2 12.2,-53.9 36.7,-71 24.5,-17.1 57.8,-25.6 99.8,-25.6l62.7 0 0 -31.41c0,-18.5 -5.71,-33.2 -17,-44.09 -11.3,-10.8 -27.4,-16.2 -48.11,-16.2 -18.7,0 -33.9,4.6 -45.39,14 -11.51,9.4 -17.31,20.6 -17.31,33.7l-54.7 0.6 -0.6 -1.79c-1.39,-23 9.41,-44.1 32.31,-63.2 22.99,-19.2 52.6,-28.8 88.99,-28.8 35.9,0 64.81,9.2 86.71,27.4 21.9,18.3 32.8,44.6 32.8,79l0 152.6c0,11.4 0.6,22.3 1.7,32.8 1.2,10.6 3.4,20.9 6.5,31.1l-59.5 0zm-95.8 -42.2c20.9,0 39.8,-5.4 56.6,-16.11 16.8,-10.7 27.7,-23.1 32.8,-36.9l0 -51.6 -64.8 0c-23.2,0 -41.81,5.9 -55.8,17.6 -13.9,11.7 -20.9,25.5 -20.9,41.3 0,14.1 4.41,25.2 13.21,33.39 8.7,8.2 21.69,12.31 38.9,12.31zm311.2 -351.31l0 76.5 60 0 0 42.8 -60 0 0 192.5c0,14.8 3,25.3 9.2,31.29 6.1,6.11 14.3,9.1 24.5,9.1 3.3,0 7,-0.4 11.1,-1.29 4.1,-0.9 7.5,-1.8 10.2,-2.81l7.99 39.5c-4.29,3.61 -10.7,6.4 -19.1,8.7 -8.4,2.2 -16.7,3.3 -24.9,3.4 -23.4,-0.1 -42.1,-7.1 -55.9,-21.3 -13.9,-14.1 -20.8,-36.4 -20.8,-66.59l0 -192.5 -50.4 0 0 -42.8 50.4 0 0 -76.5 57.7 0zm184.2 393.5l-57.7 0 0 -317 57.7 0 0 317zm0 -398.1l-57.7 0 0 -58.9 57.7 0 0 58.9zm75.3 236.7c0,-46.9 12.7,-85.5 38.1,-115.9 25.4,-30.39 59.9,-45.6 103.4,-45.6 44,0 78.7,15.21 104.2,45.5 25.5,30.2 38.2,68.9 38.2,115.99l0 6.4c0,47.3 -12.7,86 -38.1,116 -25.4,30.1 -59.9,45.1 -103.7,45.2 -43.7,-0.1 -78.41,-15.1 -103.81,-45.3 -25.49,-30.2 -38.29,-68.8 -38.29,-115.9l0 -6.4zm57.7 6.4c0,33.6 7.1,61.3 21.3,83.2 14.1,21.9 35.2,32.8 63.1,32.8 27.6,0 48.4,-10.9 62.7,-32.8 14.3,-21.9 21.4,-49.6 21.4,-83.2l0 -6.4c0,-33.2 -7.19,-60.9 -21.5,-82.9 -14.4,-22.1 -35.4,-33.1 -63.2,-33.1 -27.5,0 -48.4,11 -62.5,33.1 -14.2,22 -21.3,49.7 -21.3,82.9l0 6.4zm348.4 -162l4.1 47.2c10.5,-16.8 23.7,-29.9 39.7,-39.1 15.89,-9.29 34,-14 54.3,-14 34.2,0 60.6,10.1 79.4,30.1 18.7,20 28.1,50.9 28.1,92.7l0 200.1 -57.7 0 0 -198.9c0,-28 -5.5,-47.8 -16.5,-59.5 -11.11,-11.7 -27.9,-17.6 -50.6,-17.6 -17.81,0 -32.81,3.61 -45.21,10.7 -12.5,7.1 -22.3,17.2 -29.5,30l0 235.3 -57.7 0 0 -317 51.6 0zm339.8 302.9l-44 89.7 -34.2 0 20.5 -92.6 0 -47.7 57.7 0 0 50.6zm-9375.24 588l-29.59 0 0 146.2 -57.71 0 0 -457 57.71 0 0 264.8 29 0 95.2 -124.8 69.2 0 -115.2 146.2 125.1 170.8 -68.2 0 -105.5 -146.2zm345.3 152.4c-45.5,-0.1 -81,-14.6 -106.4,-43.7 -25.49,-29.1 -38.29,-67.4 -38.29,-114.79l0 -12.9c0,-45.5 13.2,-83.2 39.4,-113 26.3,-29.81 58.4,-44.71 96.3,-44.71 42.3,0 74.1,13.2 95.3,39.6 21.2,26.4 31.8,61.4 31.8,105.2l0 30.39 -202.7 0 -0.9 1.51c0,31.8 7,57.7 21.1,77.5 14.1,19.81 35.5,29.7 64.4,29.7 19.6,0 36.7,-2.7 51.5,-8.3 14.7,-5.6 27.41,-13.3 37.9,-23l22.6 37.5c-11.4,10.9 -26.3,20.2 -44.9,27.7 -18.5,7.5 -40.9,11.2 -67.1,11.3zm-9 -283.6c-20.2,0 -36.8,7.7 -50,23.2 -13.2,15.6 -21.2,35.4 -24.19,59.7l0.6 1.4 143 0 0 -4.7c0,-23 -5.7,-42 -17,-57.1 -11.3,-14.99 -28.8,-22.49 -52.4,-22.49zm323.1 283.6c-45.5,-0.1 -81,-14.6 -106.4,-43.7 -25.49,-29.1 -38.29,-67.4 -38.29,-114.79l0 -12.9c0,-45.5 13.2,-83.2 39.4,-113 26.3,-29.81 58.4,-44.71 96.3,-44.71 42.3,0 74.1,13.2 95.3,39.6 21.2,26.4 31.8,61.4 31.8,105.2l0 30.39 -202.7 0 -0.9 1.51c0,31.8 7,57.7 21.1,77.5 14.1,19.81 35.5,29.7 64.4,29.7 19.6,0 36.7,-2.7 51.5,-8.3 14.7,-5.6 27.41,-13.3 37.9,-23l22.6 37.5c-11.4,10.9 -26.3,20.2 -44.9,27.7 -18.5,7.5 -40.9,11.2 -67.1,11.3zm-9 -283.6c-20.2,0 -36.8,7.7 -50,23.2 -13.2,15.6 -21.2,35.4 -24.19,59.7l0.6 1.4 143 0 0 -4.7c0,-23 -5.7,-42 -17,-57.1 -11.3,-14.99 -28.8,-22.49 -52.4,-22.49zm462 130.9c0,45.7 -10.9,82.6 -32.8,110.59 -21.9,28 -52.1,42 -90.5,42.1 -19.6,-0.1 -36.7,-3.3 -51.4,-9.9 -14.81,-6.5 -27.31,-16.3 -37.71,-29.4l0 155 -57.7 0 0 -438.91 44.2 0 9.1 41c10.4,-15.2 23.3,-26.8 38.7,-34.8 15.4,-8.1 33.39,-12.1 53.9,-12.1 39.3,0 69.8,15.6 91.5,46.8 21.8,31.11 32.7,72.3 32.7,123.5l0 6.11zm-57.7 -6.11c0,-36 -7.1,-65.5 -21.2,-88.7 -14.2,-23.11 -35,-34.7 -62.6,-34.7 -16.6,0 -30.8,3.8 -42.5,11.3 -11.7,7.5 -21.2,17.8 -28.4,30.9l0 153.2c7.2,13.1 16.7,23.3 28.4,30.6 11.7,7.41 26.1,11 43.1,11 27.31,0 48,-10 62.1,-30 14.1,-20 21.1,-45.8 21.1,-77.5l0 -6.11zm191 152.6l-57.7 0 0 -317 57.7 0 0 317zm0 -398.1l-57.7 0 0 -58.9 57.7 0 0 58.9zm140.4 81.1l4.1 47.2c10.5,-16.8 23.7,-29.9 39.7,-39.1 15.89,-9.29 34,-14 54.3,-14 34.2,0 60.6,10.1 79.4,30.1 18.7,20 28.1,50.9 28.1,92.7l0 200.1 -57.7 0 0 -198.9c0,-28 -5.5,-47.8 -16.5,-59.5 -11.11,-11.7 -27.9,-17.6 -50.6,-17.6 -17.81,0 -32.81,3.61 -45.21,10.7 -12.5,7.1 -22.3,17.2 -29.5,30l0 235.3 -57.7 0 0 -317 51.6 0zm279.1 164.4c0,-51 10.9,-92.1 32.7,-123.4 21.8,-31.2 52.21,-46.9 91.31,-46.9 20.09,0 37.8,4.1 53,12.2 15.2,8.1 28,19.8 38.4,35l7 -41.3 46 0 0 318.8c0,40.6 -11.8,71.8 -35.4,93.59 -23.7,21.7 -57.8,32.6 -102.3,32.6 -15.2,0 -31.69,-2.1 -49.4,-6.3 -17.59,-4.2 -33.2,-9.9 -46.7,-17.1l8.8 -44.8c11.1,5.8 24.59,10.6 40.3,14.2 15.7,3.6 31.19,5.4 46.4,5.4 28.1,0 48.6,-6.4 61.4,-19.2 12.8,-12.8 19.2,-32.3 19.2,-58.4l0 -36.1c-10.4,13.3 -22.8,23.39 -37.2,30.2 -14.5,6.8 -31.2,10.2 -50.1,10.3 -38.7,-0.1 -68.9,-14.1 -90.7,-42.1 -21.8,-27.99 -32.7,-64.89 -32.7,-110.59l0 -6.11zm57.8 6.11c0,31.9 6.5,57.39 19.6,76.8 13.1,19.3 33.3,29 60.6,29 17.4,0 32,-4 43.7,-11.9 11.7,-7.9 21.4,-19.1 29,-33.51l0 -145.9c-7.4,-13.5 -17.1,-24.19 -29,-32.09 -11.91,-7.9 -26.3,-11.91 -43.11,-11.91 -27.49,0 -47.89,11.4 -61.1,34.3 -13.2,22.9 -19.7,52.49 -19.7,89.1l0 6.11zm626.86 29l10.2 39.9 1.8 0 77.9 -239.4 64.2 0 -133.3 365.6c-8,21.3 -19.5,39.9 -34.5,55.7 -14.9,15.8 -35.1,23.7 -60.51,23.7 -4.6,0 -10.6,-0.5 -17.8,-1.6 -7.2,-1.11 -12.8,-2.1 -16.7,-3.1l5.8 -45.39c-1.1,-0.2 2.3,0 10.4,0.6 8.1,0.6 13.3,0.9 15.4,0.9 12.31,0 22.4,-5.5 30.21,-16.4 7.8,-10.89 14.4,-23.1 19.59,-36.29l13.8 -33.2 -117.8 -310.5 64.49 0 66.81 199.5zm186.91 -43.91c0,-46.9 12.7,-85.5 38.1,-115.9 25.4,-30.39 59.9,-45.6 103.4,-45.6 44,0 78.7,15.21 104.2,45.5 25.5,30.2 38.2,68.9 38.2,115.99l0 6.4c0,47.3 -12.7,86 -38.1,116 -25.4,30.1 -59.9,45.1 -103.7,45.2 -43.7,-0.1 -78.41,-15.1 -103.81,-45.3 -25.49,-30.2 -38.29,-68.8 -38.29,-115.9l0 -6.4zm57.7 6.4c0,33.6 7.1,61.3 21.3,83.2 14.1,21.9 35.2,32.8 63.1,32.8 27.6,0 48.4,-10.9 62.7,-32.8 14.3,-21.9 21.4,-49.6 21.4,-83.2l0 -6.4c0,-33.2 -7.19,-60.9 -21.5,-82.9 -14.4,-22.1 -35.4,-33.1 -63.2,-33.1 -27.5,0 -48.4,11 -62.5,33.1 -14.2,22 -21.3,49.7 -21.3,82.9l0 6.4zm498.1 108.1c-10,17 -22.8,30.1 -38.4,39.3 -15.6,9.2 -33.7,13.7 -54.2,13.8 -34.6,-0.1 -61.5,-11.1 -80.91,-33.2 -19.3,-22 -29,-56.4 -29,-103.1l0 -186.9 57.7 0 0 187.5c0,33.79 5,56.99 15,69.7 9.9,12.7 25.5,19.1 46.6,19.1 20.5,0 37.4,-4.2 50.8,-12.5 13.39,-8.3 23.5,-20 30.3,-35.3l0 -228.5 57.7 0 0 317 -51.8 0 -3.8 -46.9zm289.7 -219.1l-29.6 -1.79c-15.2,0 -28.1,3.6 -38.5,10.89 -10.5,7.2 -18.5,17.31 -24.2,30.4l0 226.5 -57.7 0 0 -317 51.6 0 5.5 46.3c9,-16.4 20.09,-29.19 33.3,-38.4 13.2,-9.2 28.29,-13.8 45.5,-13.8 4.3,0 8.4,0.4 12.3,1.1 3.9,0.71 7.2,1.4 9.7,2.2l-7.9 53.6zm348.06 -51l4.1 41.6c10.3,-15 23.4,-26.7 39.4,-35 15.9,-8.3 34.4,-12.5 55.51,-12.5 21.1,0 39.19,4.9 54.3,14.7 15.2,9.8 26.5,24.4 34.2,43.9 10.09,-18.1 23.3,-32.4 39.7,-42.9 16.3,-10.4 35.4,-15.7 57.21,-15.7 32.3,0 57.7,11.1 76.49,33.3 18.7,22.2 28.11,55.5 28.11,100l0 189.6 -57.7 0 0 -190.1c0,-31.3 -5.4,-53.4 -16.11,-66.41 -10.7,-12.99 -26.8,-19.5 -48.1,-19.5 -19.7,0 -35.6,6.91 -47.9,20.5 -12.19,13.7 -19.3,31 -21.5,51.9l0 2.3 0 201.31 -58 0 0 -190.1c0,-29.7 -5.5,-51.51 -16.51,-65.21 -11.1,-13.79 -27,-20.7 -47.7,-20.7 -17.5,0 -32,3.61 -43.3,10.9 -11.29,7.2 -19.99,17.3 -26.1,30.4l0 234.7 -57.7 0 0 -317 51.6 0zm459.31 155.6c0,-46.9 12.7,-85.5 38.1,-115.9 25.4,-30.39 59.9,-45.6 103.4,-45.6 44,0 78.7,15.21 104.2,45.5 25.5,30.2 38.2,68.9 38.2,115.99l0 6.4c0,47.3 -12.7,86 -38.1,116 -25.4,30.1 -59.9,45.1 -103.7,45.2 -43.7,-0.1 -78.41,-15.1 -103.81,-45.3 -25.49,-30.2 -38.29,-68.8 -38.29,-115.9l0 -6.4zm57.7 6.4c0,33.6 7.1,61.3 21.3,83.2 14.1,21.9 35.2,32.8 63.1,32.8 27.6,0 48.4,-10.9 62.7,-32.8 14.3,-21.9 21.4,-49.6 21.4,-83.2l0 -6.4c0,-33.2 -7.19,-60.9 -21.5,-82.9 -14.4,-22.1 -35.4,-33.1 -63.2,-33.1 -27.5,0 -48.4,11 -62.5,33.1 -14.2,22 -21.3,49.7 -21.3,82.9l0 6.4zm567.5 8.5c0,45.7 -11,82.6 -33,110.59 -21.9,28 -52.2,42 -90.6,42.1 -21.1,-0.1 -39.4,-4.2 -54.99,-12.5 -15.5,-8.3 -28.3,-20.6 -38.51,-36.8l-9.4 43.1 -44.2 0 0 -457 57.7 0 0 177.5c10,-14.1 22.31,-24.81 37.1,-32.2 14.7,-7.4 32,-11.2 51.7,-11.2 39,0 69.49,15.7 91.4,46.9 21.9,31.3 32.8,72.4 32.8,123.4l0 6.11zm-57.7 -6.11c0,-36.4 -6.7,-66 -20.1,-89 -13.4,-22.89 -33.7,-34.4 -61.1,-34.4 -17.7,0 -32.7,4.41 -44.9,13.1 -12.2,8.7 -22,20.3 -29.2,34.99l0 137.41c7.4,15.6 17.2,27.8 29.2,36.6 12,8.8 27.2,13.2 45.5,13.2 27.2,0 47.39,-9.7 60.69,-29 13.21,-19.41 19.91,-44.9 19.91,-76.8l0 -6.11zm190.39 152.6l-57.7 0 0 -317 57.7 0 0 317zm0 -398.1l-57.7 0 0 -58.9 57.7 0 0 58.9zm151.2 398.1l-57.7 0 0 -457 57.7 0 0 457zm220 6.2c-45.5,-0.1 -81,-14.6 -106.4,-43.7 -25.49,-29.1 -38.29,-67.4 -38.29,-114.79l0 -12.9c0,-45.5 13.2,-83.2 39.4,-113 26.3,-29.81 58.4,-44.71 96.3,-44.71 42.3,0 74.1,13.2 95.3,39.6 21.2,26.4 31.8,61.4 31.8,105.2l0 30.39 -202.7 0 -0.9 1.51c0,31.8 7,57.7 21.1,77.5 14.1,19.81 35.5,29.7 64.4,29.7 19.6,0 36.7,-2.7 51.5,-8.3 14.7,-5.6 27.41,-13.3 37.9,-23l22.6 37.5c-11.4,10.9 -26.3,20.2 -44.9,27.7 -18.5,7.5 -40.9,11.2 -67.1,11.3zm-9 -283.6c-20.2,0 -36.8,7.7 -50,23.2 -13.2,15.6 -21.2,35.4 -24.19,59.7l0.6 1.4 143 0 0 -4.7c0,-23 -5.7,-42 -17,-57.1 -11.3,-14.99 -28.8,-22.49 -52.4,-22.49zm623.06 277.4c-1.9,-9.6 -3.39,-18 -4.5,-25.3 -1.1,-7.4 -1.7,-14.7 -1.9,-22.2 -10.8,15.3 -24.81,28 -42.1,38.3 -17.2,10.2 -35.9,15.3 -55.8,15.4 -33,-0.1 -58.1,-8.5 -75.4,-25.4 -17.31,-16.9 -25.9,-40.2 -25.9,-69.9 0,-30.2 12.2,-53.9 36.7,-71 24.5,-17.1 57.8,-25.6 99.8,-25.6l62.7 0 0 -31.41c0,-18.5 -5.71,-33.2 -17,-44.09 -11.3,-10.8 -27.4,-16.2 -48.11,-16.2 -18.7,0 -33.9,4.6 -45.39,14 -11.51,9.4 -17.31,20.6 -17.31,33.7l-54.7 0.6 -0.6 -1.79c-1.39,-23 9.41,-44.1 32.31,-63.2 22.99,-19.2 52.6,-28.8 88.99,-28.8 35.9,0 64.81,9.2 86.71,27.4 21.9,18.3 32.8,44.6 32.8,79l0 152.6c0,11.4 0.6,22.3 1.7,32.8 1.2,10.6 3.4,20.9 6.5,31.1l-59.5 0zm-95.8 -42.2c20.9,0 39.8,-5.4 56.6,-16.11 16.8,-10.7 27.7,-23.1 32.8,-36.9l0 -51.6 -64.8 0c-23.2,0 -41.81,5.9 -55.8,17.6 -13.9,11.7 -20.9,25.5 -20.9,41.3 0,14.1 4.41,25.2 13.21,33.39 8.7,8.2 21.69,12.31 38.9,12.31zm501 -104.3c0,45.7 -10.9,82.6 -32.8,110.59 -21.9,28 -52.1,42 -90.5,42.1 -19.6,-0.1 -36.7,-3.3 -51.4,-9.9 -14.81,-6.5 -27.31,-16.3 -37.71,-29.4l0 155 -57.7 0 0 -438.91 44.2 0 9.1 41c10.4,-15.2 23.3,-26.8 38.7,-34.8 15.4,-8.1 33.39,-12.1 53.9,-12.1 39.3,0 69.8,15.6 91.5,46.8 21.8,31.11 32.7,72.3 32.7,123.5l0 6.11zm-57.7 -6.11c0,-36 -7.1,-65.5 -21.2,-88.7 -14.2,-23.11 -35,-34.7 -62.6,-34.7 -16.6,0 -30.8,3.8 -42.5,11.3 -11.7,7.5 -21.2,17.8 -28.4,30.9l0 153.2c7.2,13.1 16.7,23.3 28.4,30.6 11.7,7.41 26.1,11 43.1,11 27.31,0 48,-10 62.1,-30 14.1,-20 21.1,-45.8 21.1,-77.5l0 -6.11zm398.7 6.11c0,45.7 -10.9,82.6 -32.8,110.59 -21.9,28 -52.1,42 -90.5,42.1 -19.6,-0.1 -36.7,-3.3 -51.4,-9.9 -14.81,-6.5 -27.31,-16.3 -37.71,-29.4l0 155 -57.7 0 0 -438.91 44.2 0 9.1 41c10.4,-15.2 23.3,-26.8 38.7,-34.8 15.4,-8.1 33.39,-12.1 53.9,-12.1 39.3,0 69.8,15.6 91.5,46.8 21.8,31.11 32.7,72.3 32.7,123.5l0 6.11zm-57.7 -6.11c0,-36 -7.1,-65.5 -21.2,-88.7 -14.2,-23.11 -35,-34.7 -62.6,-34.7 -16.6,0 -30.8,3.8 -42.5,11.3 -11.7,7.5 -21.2,17.8 -28.4,30.9l0 153.2c7.2,13.1 16.7,23.3 28.4,30.6 11.7,7.41 26.1,11 43.1,11 27.31,0 48,-10 62.1,-30 14.1,-20 21.1,-45.8 21.1,-77.5l0 -6.11zm312.9 67.3c0,-12.7 -4.91,-22.99 -14.5,-31 -9.7,-8 -28,-15.1 -55,-21.1 -37.3,-8 -65.91,-19.2 -85.9,-33.7 -20.1,-14.5 -30.1,-33.8 -30.1,-58.01 0,-25.8 11,-47.89 33,-66.19 22,-18.4 50.39,-27.6 85.4,-27.6 35.9,0 65,9.81 87.3,29.3 22.3,19.59 32.9,42.3 31.9,68.3l-0.6 1.8 -55 0c0,-13.7 -6,-26.1 -18.1,-37.2 -12.01,-11.2 -27.2,-16.69 -45.5,-16.69 -20.3,0 -35.5,4.5 -45.6,13.7 -10,9.19 -15.1,20.09 -15.1,32.8 0,12.5 4.41,22.2 13.1,29 8.7,6.9 26.6,13.1 53.69,18.8 38.91,8.2 68.41,19.8 88.5,34.9 20.1,15 30.21,34.59 30.21,58.8 0,28.2 -11.4,51.1 -34.1,68.9 -22.8,17.8 -52.5,26.6 -89.3,26.7 -40.4,-0.1 -72.21,-10.3 -95.5,-30.8 -23.21,-20.49 -34.2,-44.4 -33.11,-71.8l0.6 -1.7 55.1 0c1,20.5 8.6,35.4 22.9,44.9 14.2,9.5 30.9,14.2 50,14.2 20.6,0 36.6,-4.3 48.2,-13 11.7,-8.7 17.5,-19.8 17.5,-33.3zm515.86 -180.7l-29.6 -1.79c-15.2,0 -28.1,3.6 -38.5,10.89 -10.5,7.2 -18.5,17.31 -24.2,30.4l0 226.5 -57.7 0 0 -317 51.6 0 5.5 46.3c9,-16.4 20.09,-29.19 33.3,-38.4 13.2,-9.2 28.29,-13.8 45.5,-13.8 4.3,0 8.4,0.4 12.3,1.1 3.9,0.71 7.2,1.4 9.7,2.2l-7.9 53.6zm185.69 272.2c-45.5,-0.1 -81,-14.6 -106.4,-43.7 -25.49,-29.1 -38.29,-67.4 -38.29,-114.79l0 -12.9c0,-45.5 13.2,-83.2 39.4,-113 26.3,-29.81 58.4,-44.71 96.3,-44.71 42.3,0 74.1,13.2 95.3,39.6 21.2,26.4 31.8,61.4 31.8,105.2l0 30.39 -202.7 0 -0.9 1.51c0,31.8 7,57.7 21.1,77.5 14.1,19.81 35.5,29.7 64.4,29.7 19.6,0 36.7,-2.7 51.5,-8.3 14.7,-5.6 27.41,-13.3 37.9,-23l22.6 37.5c-11.4,10.9 -26.3,20.2 -44.9,27.7 -18.5,7.5 -40.9,11.2 -67.1,11.3zm-9 -283.6c-20.2,0 -36.8,7.7 -50,23.2 -13.2,15.6 -21.2,35.4 -24.19,59.7l0.6 1.4 143 0 0 -4.7c0,-23 -5.7,-42 -17,-57.1 -11.3,-14.99 -28.8,-22.49 -52.4,-22.49z"/>
   <path class="fil2" d="M9982.05 8279.55c0,-12.7 -4.91,-22.99 -14.5,-31 -9.7,-8 -28,-15.1 -55,-21.1 -37.3,-8 -65.91,-19.2 -85.9,-33.7 -20.1,-14.5 -30.1,-33.8 -30.1,-58.01 0,-25.8 11,-47.89 33,-66.19 22,-18.4 50.39,-27.6 85.4,-27.6 35.9,0 65,9.81 87.3,29.3 22.3,19.59 32.9,42.3 31.9,68.3l-0.6 1.8 -55 0c0,-13.7 -6,-26.1 -18.1,-37.2 -12.01,-11.2 -27.2,-16.69 -45.5,-16.69 -20.3,0 -35.5,4.5 -45.6,13.7 -10,9.19 -15.1,20.09 -15.1,32.8 0,12.5 4.41,22.2 13.1,29 8.7,6.9 26.6,13.1 53.69,18.8 38.91,8.2 68.41,19.8 88.5,34.9 20.1,15 30.21,34.59 30.21,58.8 0,28.2 -11.4,51.1 -34.1,68.9 -22.8,17.8 -52.5,26.6 -89.3,26.7 -40.4,-0.1 -72.21,-10.3 -95.5,-30.8 -23.21,-20.49 -34.2,-44.4 -33.11,-71.8l0.6 -1.7 55.1 0c1,20.5 8.6,35.4 22.9,44.9 14.2,9.5 30.9,14.2 50,14.2 20.6,0 36.6,-4.3 48.2,-13 11.7,-8.7 17.5,-19.8 17.5,-33.3zm191.9 85.3l-57.7 0 0 -317 57.7 0 0 317zm0 -398.1l-57.7 0 0 -58.9 57.7 0 0 58.9zm151.2 398.1l-57.7 0 0 -457 57.7 0 0 457zm151.2 0l-57.7 0 0 -317 57.7 0 0 317zm0 -398.1l-57.7 0 0 -58.9 57.7 0 0 58.9zm220 404.3c-45.5,-0.1 -81,-14.6 -106.4,-43.7 -25.49,-29.1 -38.29,-67.4 -38.29,-114.79l0 -12.9c0,-45.5 13.2,-83.2 39.4,-113 26.3,-29.81 58.4,-44.71 96.3,-44.71 42.3,0 74.1,13.2 95.3,39.6 21.2,26.4 31.8,61.4 31.8,105.2l0 30.39 -202.7 0 -0.9 1.51c0,31.8 7,57.7 21.1,77.5 14.1,19.81 35.5,29.7 64.4,29.7 19.6,0 36.7,-2.7 51.5,-8.3 14.7,-5.6 27.41,-13.3 37.9,-23l22.6 37.5c-11.4,10.9 -26.3,20.2 -44.9,27.7 -18.5,7.5 -40.9,11.2 -67.1,11.3zm-9 -283.6c-20.2,0 -36.8,7.7 -50,23.2 -13.2,15.6 -21.2,35.4 -24.19,59.7l0.6 1.4 143 0 0 -4.7c0,-23 -5.7,-42 -17,-57.1 -11.3,-14.99 -28.8,-22.49 -52.4,-22.49zm243.5 -39.6l4.1 47.2c10.5,-16.8 23.7,-29.9 39.7,-39.1 15.89,-9.29 34,-14 54.3,-14 34.2,0 60.6,10.1 79.4,30.1 18.7,20 28.1,50.9 28.1,92.7l0 200.1 -57.7 0 0 -198.9c0,-28 -5.5,-47.8 -16.5,-59.5 -11.11,-11.7 -27.9,-17.6 -50.6,-17.6 -17.81,0 -32.81,3.61 -45.21,10.7 -12.5,7.1 -22.3,17.2 -29.5,30l0 235.3 -57.7 0 0 -317 51.6 0zm369.7 -76.5l0 76.5 60 0 0 42.8 -60 0 0 192.5c0,14.8 3,25.3 9.2,31.29 6.1,6.11 14.3,9.1 24.5,9.1 3.3,0 7,-0.4 11.1,-1.29 4.1,-0.9 7.5,-1.8 10.2,-2.81l7.99 39.5c-4.29,3.61 -10.7,6.4 -19.1,8.7 -8.4,2.2 -16.7,3.3 -24.9,3.4 -23.4,-0.1 -42.1,-7.1 -55.9,-21.3 -13.9,-14.1 -20.8,-36.4 -20.8,-66.59l0 -192.5 -50.4 0 0 -42.8 50.4 0 0 -76.5 57.7 0zm-9214.26 1113.61c-1.9,-9.6 -3.39,-18 -4.5,-25.3 -1.1,-7.4 -1.7,-14.7 -1.9,-22.2 -10.8,15.3 -24.81,28 -42.1,38.3 -17.2,10.2 -35.9,15.3 -55.8,15.4 -33,-0.1 -58.1,-8.5 -75.4,-25.4 -17.31,-16.9 -25.9,-40.2 -25.9,-69.9 0,-30.2 12.2,-53.9 36.7,-71 24.5,-17.1 57.8,-25.6 99.8,-25.6l62.7 0 0 -31.41c0,-18.5 -5.71,-33.2 -17,-44.09 -11.3,-10.8 -27.4,-16.2 -48.11,-16.2 -18.7,0 -33.9,4.6 -45.39,14 -11.51,9.4 -17.31,20.6 -17.31,33.7l-54.7 0.6 -0.6 -1.79c-1.39,-23 9.41,-44.1 32.31,-63.2 22.99,-19.2 52.6,-28.8 88.99,-28.8 35.9,0 64.81,9.2 86.71,27.4 21.9,18.3 32.8,44.6 32.8,79l0 152.6c0,11.4 0.6,22.3 1.7,32.8 1.2,10.6 3.4,20.9 6.5,31.1l-59.5 0zm-95.8 -42.2c20.9,0 39.8,-5.4 56.6,-16.11 16.8,-10.7 27.7,-23.1 32.8,-36.9l0 -51.6 -64.8 0c-23.2,0 -41.81,5.9 -55.8,17.6 -13.9,11.7 -20.9,25.5 -20.9,41.3 0,14.1 4.41,25.2 13.21,33.39 8.7,8.2 21.69,12.31 38.9,12.31zm220.6 -110.41c0,-51 10.9,-92.1 32.7,-123.4 21.8,-31.2 52.21,-46.9 91.31,-46.9 20.09,0 37.8,4.1 53,12.2 15.2,8.1 28,19.8 38.4,35l7 -41.3 46 0 0 318.8c0,40.6 -11.8,71.8 -35.4,93.59 -23.7,21.7 -57.8,32.6 -102.3,32.6 -15.2,0 -31.69,-2.1 -49.4,-6.3 -17.59,-4.2 -33.2,-9.9 -46.7,-17.1l8.8 -44.8c11.1,5.8 24.59,10.6 40.3,14.2 15.7,3.6 31.19,5.4 46.4,5.4 28.1,0 48.6,-6.4 61.4,-19.2 12.8,-12.8 19.2,-32.3 19.2,-58.4l0 -36.1c-10.4,13.3 -22.8,23.39 -37.2,30.2 -14.5,6.8 -31.2,10.2 -50.1,10.3 -38.7,-0.1 -68.9,-14.1 -90.7,-42.1 -21.8,-27.99 -32.7,-64.89 -32.7,-110.59l0 -6.11zm57.8 6.11c0,31.9 6.5,57.39 19.6,76.8 13.1,19.3 33.3,29 60.6,29 17.4,0 32,-4 43.7,-11.9 11.7,-7.9 21.4,-19.1 29,-33.51l0 -145.9c-7.4,-13.5 -17.1,-24.19 -29,-32.09 -11.91,-7.9 -26.3,-11.91 -43.11,-11.91 -27.49,0 -47.89,11.4 -61.1,34.3 -13.2,22.9 -19.7,52.49 -19.7,89.1l0 6.11zm488.3 146.5c-1.9,-9.6 -3.39,-18 -4.5,-25.3 -1.1,-7.4 -1.7,-14.7 -1.9,-22.2 -10.8,15.3 -24.81,28 -42.1,38.3 -17.2,10.2 -35.9,15.3 -55.8,15.4 -33,-0.1 -58.1,-8.5 -75.4,-25.4 -17.31,-16.9 -25.9,-40.2 -25.9,-69.9 0,-30.2 12.2,-53.9 36.7,-71 24.5,-17.1 57.8,-25.6 99.8,-25.6l62.7 0 0 -31.41c0,-18.5 -5.71,-33.2 -17,-44.09 -11.3,-10.8 -27.4,-16.2 -48.11,-16.2 -18.7,0 -33.9,4.6 -45.39,14 -11.51,9.4 -17.31,20.6 -17.31,33.7l-54.7 0.6 -0.6 -1.79c-1.39,-23 9.41,-44.1 32.31,-63.2 22.99,-19.2 52.6,-28.8 88.99,-28.8 35.9,0 64.81,9.2 86.71,27.4 21.9,18.3 32.8,44.6 32.8,79l0 152.6c0,11.4 0.6,22.3 1.7,32.8 1.2,10.6 3.4,20.9 6.5,31.1l-59.5 0zm-95.8 -42.2c20.9,0 39.8,-5.4 56.6,-16.11 16.8,-10.7 27.7,-23.1 32.8,-36.9l0 -51.6 -64.8 0c-23.2,0 -41.81,5.9 -55.8,17.6 -13.9,11.7 -20.9,25.5 -20.9,41.3 0,14.1 4.41,25.2 13.21,33.39 8.7,8.2 21.69,12.31 38.9,12.31zm293.3 42.2l-57.7 0 0 -317 57.7 0 0 317zm0 -398.1l-57.7 0 0 -58.9 57.7 0 0 58.9zm140.4 81.1l4.1 47.2c10.5,-16.8 23.7,-29.9 39.7,-39.1 15.89,-9.29 34,-14 54.3,-14 34.2,0 60.6,10.1 79.4,30.1 18.7,20 28.1,50.9 28.1,92.7l0 200.1 -57.7 0 0 -198.9c0,-28 -5.5,-47.8 -16.5,-59.5 -11.11,-11.7 -27.9,-17.6 -50.6,-17.6 -17.81,0 -32.81,3.61 -45.21,10.7 -12.5,7.1 -22.3,17.2 -29.5,30l0 235.3 -57.7 0 0 -317 51.6 0zm473.7 231.7c0,-12.7 -4.91,-22.99 -14.5,-31 -9.7,-8 -28,-15.1 -55,-21.1 -37.3,-8 -65.91,-19.2 -85.9,-33.7 -20.1,-14.5 -30.1,-33.8 -30.1,-58.01 0,-25.8 11,-47.89 33,-66.19 22,-18.4 50.39,-27.6 85.4,-27.6 35.9,0 65,9.81 87.3,29.3 22.3,19.59 32.9,42.3 31.9,68.3l-0.6 1.8 -55 0c0,-13.7 -6,-26.1 -18.1,-37.2 -12.01,-11.2 -27.2,-16.69 -45.5,-16.69 -20.3,0 -35.5,4.5 -45.6,13.7 -10,9.19 -15.1,20.09 -15.1,32.8 0,12.5 4.41,22.2 13.1,29 8.7,6.9 26.6,13.1 53.69,18.8 38.91,8.2 68.41,19.8 88.5,34.9 20.1,15 30.21,34.59 30.21,58.8 0,28.2 -11.4,51.1 -34.1,68.9 -22.8,17.8 -52.5,26.6 -89.3,26.7 -40.4,-0.1 -72.21,-10.3 -95.5,-30.8 -23.21,-20.49 -34.2,-44.4 -33.11,-71.8l0.6 -1.7 55.1 0c1,20.5 8.6,35.4 22.9,44.9 14.2,9.5 30.9,14.2 50,14.2 20.6,0 36.6,-4.3 48.2,-13 11.7,-8.7 17.5,-19.8 17.5,-33.3zm209.8 -308.2l0 76.5 60 0 0 42.8 -60 0 0 192.5c0,14.8 3,25.3 9.2,31.29 6.1,6.11 14.3,9.1 24.5,9.1 3.3,0 7,-0.4 11.1,-1.29 4.1,-0.9 7.5,-1.8 10.2,-2.81l7.99 39.5c-4.29,3.61 -10.7,6.4 -19.1,8.7 -8.4,2.2 -16.7,3.3 -24.9,3.4 -23.4,-0.1 -42.1,-7.1 -55.9,-21.3 -13.9,-14.1 -20.8,-36.4 -20.8,-66.59l0 -192.5 -50.4 0 0 -42.8 50.4 0 0 -76.5 57.7 0zm291.57 0l0 76.5 60 0 0 42.8 -60 0 0 192.5c0,14.8 3,25.3 9.2,31.29 6.1,6.11 14.3,9.1 24.5,9.1 3.3,0 7,-0.4 11.1,-1.29 4.1,-0.9 7.5,-1.8 10.2,-2.81l7.99 39.5c-4.29,3.61 -10.7,6.4 -19.1,8.7 -8.4,2.2 -16.7,3.3 -24.9,3.4 -23.4,-0.1 -42.1,-7.1 -55.9,-21.3 -13.9,-14.1 -20.8,-36.4 -20.8,-66.59l0 -192.5 -50.4 0 0 -42.8 50.4 0 0 -76.5 57.7 0zm271.8 127.5l-29.6 -1.79c-15.2,0 -28.1,3.6 -38.5,10.89 -10.5,7.2 -18.5,17.31 -24.2,30.4l0 226.5 -57.7 0 0 -317 51.6 0 5.5 46.3c9,-16.4 20.09,-29.19 33.3,-38.4 13.2,-9.2 28.29,-13.8 45.5,-13.8 4.3,0 8.4,0.4 12.3,1.1 3.9,0.71 7.2,1.4 9.7,2.2l-7.9 53.6zm40.7 104.6c0,-46.9 12.7,-85.5 38.1,-115.9 25.4,-30.39 59.9,-45.6 103.4,-45.6 44,0 78.7,15.21 104.2,45.5 25.5,30.2 38.2,68.9 38.2,115.99l0 6.4c0,47.3 -12.7,86 -38.1,116 -25.4,30.1 -59.9,45.1 -103.7,45.2 -43.7,-0.1 -78.41,-15.1 -103.81,-45.3 -25.49,-30.2 -38.29,-68.8 -38.29,-115.9l0 -6.4zm57.7 6.4c0,33.6 7.1,61.3 21.3,83.2 14.1,21.9 35.2,32.8 63.1,32.8 27.6,0 48.4,-10.9 62.7,-32.8 14.3,-21.9 21.4,-49.6 21.4,-83.2l0 -6.4c0,-33.2 -7.19,-60.9 -21.5,-82.9 -14.4,-22.1 -35.4,-33.1 -63.2,-33.1 -27.5,0 -48.4,11 -62.5,33.1 -14.2,22 -21.3,49.7 -21.3,82.9l0 6.4zm363.3 -162l0 343.1c0,32.6 -8.4,57.7 -25.2,75.4 -16.8,17.7 -40.1,26.5 -70,26.5 -6.1,0 -11.6,-0.4 -16.6,-1.3 -4.9,-0.9 -10.3,-2.2 -15.9,-3.9l4.11 -45.5c2.7,1 6.6,1.8 11.69,2.5 5.1,0.7 9.3,1.1 12.6,1.1 12.7,0 22.8,-4.29 30.3,-12.9 7.5,-8.6 11.3,-22.59 11.3,-41.9l0 -343.1 57.7 0zm-1.8 -82.3l-57.7 0 0 -57.7 57.7 0 0 57.7zm285.4 399.3c-1.9,-9.6 -3.39,-18 -4.5,-25.3 -1.1,-7.4 -1.7,-14.7 -1.9,-22.2 -10.8,15.3 -24.81,28 -42.1,38.3 -17.2,10.2 -35.9,15.3 -55.8,15.4 -33,-0.1 -58.1,-8.5 -75.4,-25.4 -17.31,-16.9 -25.9,-40.2 -25.9,-69.9 0,-30.2 12.2,-53.9 36.7,-71 24.5,-17.1 57.8,-25.6 99.8,-25.6l62.7 0 0 -31.41c0,-18.5 -5.71,-33.2 -17,-44.09 -11.3,-10.8 -27.4,-16.2 -48.11,-16.2 -18.7,0 -33.9,4.6 -45.39,14 -11.51,9.4 -17.31,20.6 -17.31,33.7l-54.7 0.6 -0.6 -1.79c-1.39,-23 9.41,-44.1 32.31,-63.2 22.99,-19.2 52.6,-28.8 88.99,-28.8 35.9,0 64.81,9.2 86.71,27.4 21.9,18.3 32.8,44.6 32.8,79l0 152.6c0,11.4 0.6,22.3 1.7,32.8 1.2,10.6 3.4,20.9 6.5,31.1l-59.5 0zm-95.8 -42.2c20.9,0 39.8,-5.4 56.6,-16.11 16.8,-10.7 27.7,-23.1 32.8,-36.9l0 -51.6 -64.8 0c-23.2,0 -41.81,5.9 -55.8,17.6 -13.9,11.7 -20.9,25.5 -20.9,41.3 0,14.1 4.41,25.2 13.21,33.39 8.7,8.2 21.69,12.31 38.9,12.31zm282.5 -274.8l4.1 47.2c10.5,-16.8 23.7,-29.9 39.7,-39.1 15.89,-9.29 34,-14 54.3,-14 34.2,0 60.6,10.1 79.4,30.1 18.7,20 28.1,50.9 28.1,92.7l0 200.1 -57.7 0 0 -198.9c0,-28 -5.5,-47.8 -16.5,-59.5 -11.11,-11.7 -27.9,-17.6 -50.6,-17.6 -17.81,0 -32.81,3.61 -45.21,10.7 -12.5,7.1 -22.3,17.2 -29.5,30l0 235.3 -57.7 0 0 -317 51.6 0zm473.7 231.7c0,-12.7 -4.91,-22.99 -14.5,-31 -9.7,-8 -28,-15.1 -55,-21.1 -37.3,-8 -65.91,-19.2 -85.9,-33.7 -20.1,-14.5 -30.1,-33.8 -30.1,-58.01 0,-25.8 11,-47.89 33,-66.19 22,-18.4 50.39,-27.6 85.4,-27.6 35.9,0 65,9.81 87.3,29.3 22.3,19.59 32.9,42.3 31.9,68.3l-0.6 1.8 -55 0c0,-13.7 -6,-26.1 -18.1,-37.2 -12.01,-11.2 -27.2,-16.69 -45.5,-16.69 -20.3,0 -35.5,4.5 -45.6,13.7 -10,9.19 -15.1,20.09 -15.1,32.8 0,12.5 4.41,22.2 13.1,29 8.7,6.9 26.6,13.1 53.69,18.8 38.91,8.2 68.41,19.8 88.5,34.9 20.1,15 30.21,34.59 30.21,58.8 0,28.2 -11.4,51.1 -34.1,68.9 -22.8,17.8 -52.5,26.6 -89.3,26.7 -40.4,-0.1 -72.21,-10.3 -95.5,-30.8 -23.21,-20.49 -34.2,-44.4 -33.11,-71.8l0.6 -1.7 55.1 0c1,20.5 8.6,35.4 22.9,44.9 14.2,9.5 30.9,14.2 50,14.2 20.6,0 36.6,-4.3 48.2,-13 11.7,-8.7 17.5,-19.8 17.5,-33.3zm413.76 85.3c-1.9,-9.6 -3.39,-18 -4.5,-25.3 -1.1,-7.4 -1.7,-14.7 -1.9,-22.2 -10.8,15.3 -24.81,28 -42.1,38.3 -17.2,10.2 -35.9,15.3 -55.8,15.4 -33,-0.1 -58.1,-8.5 -75.4,-25.4 -17.31,-16.9 -25.9,-40.2 -25.9,-69.9 0,-30.2 12.2,-53.9 36.7,-71 24.5,-17.1 57.8,-25.6 99.8,-25.6l62.7 0 0 -31.41c0,-18.5 -5.71,-33.2 -17,-44.09 -11.3,-10.8 -27.4,-16.2 -48.11,-16.2 -18.7,0 -33.9,4.6 -45.39,14 -11.51,9.4 -17.31,20.6 -17.31,33.7l-54.7 0.6 -0.6 -1.79c-1.39,-23 9.41,-44.1 32.31,-63.2 22.99,-19.2 52.6,-28.8 88.99,-28.8 35.9,0 64.81,9.2 86.71,27.4 21.9,18.3 32.8,44.6 32.8,79l0 152.6c0,11.4 0.6,22.3 1.7,32.8 1.2,10.6 3.4,20.9 6.5,31.1l-59.5 0zm-95.8 -42.2c20.9,0 39.8,-5.4 56.6,-16.11 16.8,-10.7 27.7,-23.1 32.8,-36.9l0 -51.6 -64.8 0c-23.2,0 -41.81,5.9 -55.8,17.6 -13.9,11.7 -20.9,25.5 -20.9,41.3 0,14.1 4.41,25.2 13.21,33.39 8.7,8.2 21.69,12.31 38.9,12.31zm282.5 -274.8l4.1 47.2c10.5,-16.8 23.7,-29.9 39.7,-39.1 15.89,-9.29 34,-14 54.3,-14 34.2,0 60.6,10.1 79.4,30.1 18.7,20 28.1,50.9 28.1,92.7l0 200.1 -57.7 0 0 -198.9c0,-28 -5.5,-47.8 -16.5,-59.5 -11.11,-11.7 -27.9,-17.6 -50.6,-17.6 -17.81,0 -32.81,3.61 -45.21,10.7 -12.5,7.1 -22.3,17.2 -29.5,30l0 235.3 -57.7 0 0 -317 51.6 0zm276.2 164.4c0,-51 10.9,-92.1 32.7,-123.4 21.8,-31.2 52.3,-46.9 91.5,-46.9 18.6,0 35,3.5 49.4,10.3 14.4,6.8 26.6,16.8 36.81,29.9l0 -174.3 57.7 0 0 457 -44.31 0 -8.7 -40.1c-10.4,15.2 -23.2,26.69 -38.4,34.49 -15.31,7.81 -32.9,11.7 -53.11,11.8 -38.6,-0.1 -68.9,-14.1 -90.8,-42.1 -21.8,-27.99 -32.8,-64.89 -32.8,-110.59l0 -6.11zm57.7 6.11c0,32 6.6,57.7 19.7,76.9 12.99,19.3 33.39,28.9 60.9,28.9 17.2,0 31.6,-3.9 43.4,-11.7 11.69,-7.9 21.2,-18.8 28.7,-32.9l0 -147.9c-7.5,-13.1 -17.1,-23.5 -28.9,-31.2 -11.79,-7.7 -26,-11.6 -42.6,-11.6 -27.8,0 -48.2,11.4 -61.41,34.3 -13.2,22.9 -19.8,52.49 -19.8,89.1l0 6.11zm372.46 -14.91c0,-46.9 12.7,-85.5 38.1,-115.9 25.4,-30.39 59.9,-45.6 103.4,-45.6 44,0 78.7,15.21 104.2,45.5 25.5,30.2 38.2,68.9 38.2,115.99l0 6.4c0,47.3 -12.7,86 -38.1,116 -25.4,30.1 -59.9,45.1 -103.7,45.2 -43.7,-0.1 -78.41,-15.1 -103.81,-45.3 -25.49,-30.2 -38.29,-68.8 -38.29,-115.9l0 -6.4zm57.7 6.4c0,33.6 7.1,61.3 21.3,83.2 14.1,21.9 35.2,32.8 63.1,32.8 27.6,0 48.4,-10.9 62.7,-32.8 14.3,-21.9 21.4,-49.6 21.4,-83.2l0 -6.4c0,-33.2 -7.19,-60.9 -21.5,-82.9 -14.4,-22.1 -35.4,-33.1 -63.2,-33.1 -27.5,0 -48.4,11 -62.5,33.1 -14.2,22 -21.3,49.7 -21.3,82.9l0 6.4zm377.1 -238.5l0 76.5 60 0 0 42.8 -60 0 0 192.5c0,14.8 3,25.3 9.2,31.29 6.1,6.11 14.3,9.1 24.5,9.1 3.3,0 7,-0.4 11.1,-1.29 4.1,-0.9 7.5,-1.8 10.2,-2.81l7.99 39.5c-4.29,3.61 -10.7,6.4 -19.1,8.7 -8.4,2.2 -16.7,3.3 -24.9,3.4 -23.4,-0.1 -42.1,-7.1 -55.9,-21.3 -13.9,-14.1 -20.8,-36.4 -20.8,-66.59l0 -192.5 -50.4 0 0 -42.8 50.4 0 0 -76.5 57.7 0zm179.5 119c10.9,-15.21 24.41,-27.1 40.3,-35.61 15.9,-8.5 33.51,-12.8 52.9,-12.8 33.8,0 60.1,10.2 78.9,30.5 18.9,20.3 28.3,51.6 28.3,93.8l0 198.6 -57.7 0 0 -199.2c0,-26.2 -5.6,-45.5 -16.9,-58 -11.21,-12.5 -27.9,-18.8 -50.21,-18.8 -17.19,0 -32.09,3.4 -44.8,10.1 -12.7,6.8 -22.99,16.2 -30.8,28.3l0 237.6 -57.7 0 0 -457 57.7 0 0 182.5zm414.5 280.7c-45.5,-0.1 -81,-14.6 -106.4,-43.7 -25.49,-29.1 -38.29,-67.4 -38.29,-114.79l0 -12.9c0,-45.5 13.2,-83.2 39.4,-113 26.3,-29.81 58.4,-44.71 96.3,-44.71 42.3,0 74.1,13.2 95.3,39.6 21.2,26.4 31.8,61.4 31.8,105.2l0 30.39 -202.7 0 -0.9 1.51c0,31.8 7,57.7 21.1,77.5 14.1,19.81 35.5,29.7 64.4,29.7 19.6,0 36.7,-2.7 51.5,-8.3 14.7,-5.6 27.41,-13.3 37.9,-23l22.6 37.5c-11.4,10.9 -26.3,20.2 -44.9,27.7 -18.5,7.5 -40.9,11.2 -67.1,11.3zm-9 -283.6c-20.2,0 -36.8,7.7 -50,23.2 -13.2,15.6 -21.2,35.4 -24.19,59.7l0.6 1.4 143 0 0 -4.7c0,-23 -5.7,-42 -17,-57.1 -11.3,-14.99 -28.8,-22.49 -52.4,-22.49zm341.9 11.4l-29.6 -1.79c-15.2,0 -28.1,3.6 -38.5,10.89 -10.5,7.2 -18.5,17.31 -24.2,30.4l0 226.5 -57.7 0 0 -317 51.6 0 5.5 46.3c9,-16.4 20.09,-29.19 33.3,-38.4 13.2,-9.2 28.29,-13.8 45.5,-13.8 4.3,0 8.4,0.4 12.3,1.1 3.9,0.71 7.2,1.4 9.7,2.2l-7.9 53.6zm299.56 0l-29.6 -1.79c-15.2,0 -28.1,3.6 -38.5,10.89 -10.5,7.2 -18.5,17.31 -24.2,30.4l0 226.5 -57.7 0 0 -317 51.6 0 5.5 46.3c9,-16.4 20.09,-29.19 33.3,-38.4 13.2,-9.2 28.29,-13.8 45.5,-13.8 4.3,0 8.4,0.4 12.3,1.1 3.9,0.71 7.2,1.4 9.7,2.2l-7.9 53.6zm122.5 266l-57.7 0 0 -317 57.7 0 0 317zm0 -398.1l-57.7 0 0 -58.9 57.7 0 0 58.9zm273.1 312.8c0,-12.7 -4.91,-22.99 -14.5,-31 -9.7,-8 -28,-15.1 -55,-21.1 -37.3,-8 -65.91,-19.2 -85.9,-33.7 -20.1,-14.5 -30.1,-33.8 -30.1,-58.01 0,-25.8 11,-47.89 33,-66.19 22,-18.4 50.39,-27.6 85.4,-27.6 35.9,0 65,9.81 87.3,29.3 22.3,19.59 32.9,42.3 31.9,68.3l-0.6 1.8 -55 0c0,-13.7 -6,-26.1 -18.1,-37.2 -12.01,-11.2 -27.2,-16.69 -45.5,-16.69 -20.3,0 -35.5,4.5 -45.6,13.7 -10,9.19 -15.1,20.09 -15.1,32.8 0,12.5 4.41,22.2 13.1,29 8.7,6.9 26.6,13.1 53.69,18.8 38.91,8.2 68.41,19.8 88.5,34.9 20.1,15 30.21,34.59 30.21,58.8 0,28.2 -11.4,51.1 -34.1,68.9 -22.8,17.8 -52.5,26.6 -89.3,26.7 -40.4,-0.1 -72.21,-10.3 -95.5,-30.8 -23.21,-20.49 -34.2,-44.4 -33.11,-71.8l0.6 -1.7 55.1 0c1,20.5 8.6,35.4 22.9,44.9 14.2,9.5 30.9,14.2 50,14.2 20.6,0 36.6,-4.3 48.2,-13 11.7,-8.7 17.5,-19.8 17.5,-33.3zm217.1 -60.9l-29.59 0 0 146.2 -57.71 0 0 -457 57.71 0 0 264.8 29 0 95.2 -124.8 69.2 0 -115.2 146.2 125.1 170.8 -68.2 0 -105.5 -146.2zm404.31 60.9c0,-12.7 -4.91,-22.99 -14.5,-31 -9.7,-8 -28,-15.1 -55,-21.1 -37.3,-8 -65.91,-19.2 -85.9,-33.7 -20.1,-14.5 -30.1,-33.8 -30.1,-58.01 0,-25.8 11,-47.89 33,-66.19 22,-18.4 50.39,-27.6 85.4,-27.6 35.9,0 65,9.81 87.3,29.3 22.3,19.59 32.9,42.3 31.9,68.3l-0.6 1.8 -55 0c0,-13.7 -6,-26.1 -18.1,-37.2 -12.01,-11.2 -27.2,-16.69 -45.5,-16.69 -20.3,0 -35.5,4.5 -45.6,13.7 -10,9.19 -15.1,20.09 -15.1,32.8 0,12.5 4.41,22.2 13.1,29 8.7,6.9 26.6,13.1 53.69,18.8 38.91,8.2 68.41,19.8 88.5,34.9 20.1,15 30.21,34.59 30.21,58.8 0,28.2 -11.4,51.1 -34.1,68.9 -22.8,17.8 -52.5,26.6 -89.3,26.7 -40.4,-0.1 -72.21,-10.3 -95.5,-30.8 -23.21,-20.49 -34.2,-44.4 -33.11,-71.8l0.6 -1.7 55.1 0c1,20.5 8.6,35.4 22.9,44.9 14.2,9.5 30.9,14.2 50,14.2 20.6,0 36.6,-4.3 48.2,-13 11.7,-8.7 17.5,-19.8 17.5,-33.3zm192.5 85.3l-57.71 0 0 -59.2 57.71 0 0 59.2z"/>
  </g>
 </g>
</svg>
