<?xml version="1.0" encoding="UTF-8"?>
<!DOCTYPE svg PUBLIC "-//W3C//DTD SVG 1.1//EN" "http://www.w3.org/Graphics/SVG/1.1/DTD/svg11.dtd">
<!-- Creator: CorelDRAW (Evaluation Version) -->
<svg xmlns="http://www.w3.org/2000/svg" xml:space="preserve" width="210mm" height="297mm" version="1.1" style="shape-rendering:geometricPrecision; text-rendering:geometricPrecision; image-rendering:optimizeQuality; fill-rule:evenodd; clip-rule:evenodd"
viewBox="0 0 21000 12450"
 xmlns:xlink="http://www.w3.org/1999/xlink"
 xmlns:xodm="http://www.corel.com/coreldraw/odm/2003">
 <defs>
  <style type="text/css">
   <![CDATA[
    .fil1 {fill:#FEFEFE;fill-rule:nonzero}
    .fil0 {fill:#1F91CC;fill-rule:nonzero}
    .fil2 {fill:url(#id0);fill-rule:nonzero}
   ]]>
  </style>
  <linearGradient id="id0" gradientUnits="userSpaceOnUse" x1="5976.3" y1="3858.36" x2="10560.19" y2="3858.36">
   <stop offset="0" style="stop-opacity:1; stop-color:#00D7FF"/>
   <stop offset="1" style="stop-opacity:1; stop-color:#015C94"/>
  </linearGradient>
 </defs>
 <g id="Layer_x0020_1">
  <metadata id="CorelCorpID_0Corel-Layer"/>
  <path class="fil0" d="M2595.23 11973.55c1.8,66.6 -18,86.7 -84.3,86.1 -78.6,-0.31 -157.2,-2.7 -235.8,-3.61 -137.41,-1.79 -274.51,2.4 -411.61,3.61 -20.09,0.3 -40.5,1.2 -60.6,-2.7 -27.3,-5.7 -42.6,-22.2 -48.29,-48.6 -3.3,-15.9 -2.7,-31.8 -2.7,-47.7 3.3,-189.6 2.4,-378.9 -1.5,-568.2 -3.3,-144.6 -6.91,-289.2 -12.31,-433.8 -8.39,-214.8 -52.8,-421.2 -150.6,-614.7 -137.1,-271.5 -346.8,-467.1 -621.9,-594.3 -117.3,-54 -240.3,-91.2 -367.5,-113.4 -63.01,-11.11 -126.9,-13.5 -190.8,-14.7 -60.6,-1.5 -71.4,-12.6 -71.4,-74.4 -0.3,-256.2 -0.3,-512.7 -0.6,-769.2 0,-6.3 0,-12.6 0.31,-19.2 0.3,-50.39 14.1,-64.2 64.8,-63.9 355.8,2.7 692.7,81.9 1009.2,246.6 186.9,97.2 362.4,210.3 518.1,352.51 248.1,226.8 422.7,501 526.8,820.2 46.19,141.91 75.9,287.4 96.6,435 23.1,166.5 33.9,333.9 39.6,501.9 4.8,137.4 2.1,274.5 3.3,371.7 0.3,210.3 -3.61,380.7 1.2,550.8z"/>
  <g id="_2766964981584">
   <path class="fil1" d="M6326.48 4624.98c-10.1,15.8 -27.7,30.3 -52.8,43.6 -25.1,13.3 -57.7,19.9 -97.7,20 -49.3,-0.1 -90,-16.4 -122.2,-49 -32.2,-32.6 -48.4,-74.8 -48.4,-126.5l0 -87.9c0,-51.8 15.6,-94 46.6,-126.6 31.1,-32.6 71.1,-48.91 120.19,-48.91 47.4,0 84.9,12.6 112.41,37.9 27.6,25.3 41,57.5 40.2,96.6l-0.6 1.7 -55.4 0c0,-26.01 -8.4,-47.61 -25.2,-64.9 -16.8,-17.31 -40.61,-25.9 -71.41,-25.9 -32.7,0 -58.9,12.2 -78.9,36.6 -19.9,24.4 -29.8,55.4 -29.8,92.9l0 88.5c0,37.9 10.5,69.1 31.6,93.6 21.1,24.5 48,36.7 80.9,36.7 25.21,0 45.1,-3.2 59.9,-9.81 14.7,-6.5 25.7,-14.3 32.9,-23.29l0 -96.1 -96.6 0 0 -45.1 154.3 0 0 155.9zm289.57 57.4c-1.9,-9.6 -3.39,-18 -4.5,-25.3 -1.1,-7.4 -1.7,-14.7 -1.9,-22.2 -10.8,15.3 -24.81,28 -42.1,38.3 -17.2,10.2 -35.9,15.3 -55.8,15.4 -33,-0.1 -58.1,-8.5 -75.4,-25.4 -17.31,-16.9 -25.9,-40.2 -25.9,-69.9 0,-30.2 12.2,-53.9 36.7,-71 24.5,-17.1 57.8,-25.6 99.8,-25.6l62.7 0 0 -31.41c0,-18.5 -5.71,-33.2 -17,-44.09 -11.3,-10.8 -27.4,-16.2 -48.11,-16.2 -18.7,0 -33.9,4.6 -45.39,14 -11.51,9.4 -17.31,20.6 -17.31,33.7l-54.7 0.6 -0.6 -1.79c-1.39,-23 9.41,-44.1 32.31,-63.2 22.99,-19.2 52.6,-28.8 88.99,-28.8 35.9,0 64.81,9.2 86.71,27.4 21.9,18.3 32.8,44.6 32.8,79l0 152.6c0,11.4 0.6,22.3 1.7,32.8 1.2,10.6 3.4,20.9 6.5,31.1l-59.5 0zm-95.8 -42.2c20.9,0 39.8,-5.4 56.6,-16.11 16.8,-10.7 27.7,-23.1 32.8,-36.9l0 -51.6 -64.8 0c-23.2,0 -41.81,5.9 -55.8,17.6 -13.9,11.7 -20.9,25.5 -20.9,41.3 0,14.1 4.41,25.2 13.21,33.39 8.7,8.2 21.69,12.31 38.9,12.31zm296.37 42.2l-57.7 0 0 -317 57.7 0 0 317zm0 -398.1l-57.7 0 0 -58.9 57.7 0 0 58.9zm143.47 81.1l4.1 47.2c10.5,-16.8 23.7,-29.9 39.7,-39.1 15.89,-9.29 34,-14 54.3,-14 34.2,0 60.6,10.1 79.4,30.1 18.7,20 28.1,50.9 28.1,92.7l0 200.1 -57.7 0 0 -198.9c0,-28 -5.5,-47.8 -16.5,-59.5 -11.11,-11.7 -27.9,-17.6 -50.6,-17.6 -17.81,0 -32.81,3.61 -45.21,10.7 -12.5,7.1 -22.3,17.2 -29.5,30l0 235.3 -57.7 0 0 -317 51.6 0zm731.58 278c17.7,0 33.3,-5.9 46.6,-17.71 13.2,-11.79 19.9,-26.29 19.9,-43.5l52.1 0 0.9 1.8c0.8,27.3 -10.89,51.6 -35.2,72.8 -24.2,21.2 -52.3,31.69 -84.3,31.8 -44.6,-0.1 -78.9,-15.2 -103.2,-45.5 -24.19,-30.21 -36.29,-67.9 -36.29,-113l0 -12.41c0,-44.7 12.19,-82.2 36.5,-112.6 24.3,-30.39 58.6,-45.6 103,-45.6 35.3,0 64.3,11 86.8,32.9 22.6,21.8 33.5,48.7 32.7,80.5l-0.6 1.8 -52.4 0c0,-19.4 -6.3,-35.8 -18.9,-49.4 -12.59,-13.61 -28.5,-20.3 -47.6,-20.3 -28.3,0 -49,10.89 -62,32.89 -13,22 -19.5,48.6 -19.5,79.8l0 12.41c0,31.8 6.4,58.6 19.2,80.5 12.8,21.9 33.6,32.8 62.3,32.8zm177.67 -122.41c0,-46.9 12.7,-85.5 38.1,-115.9 25.4,-30.39 59.9,-45.6 103.4,-45.6 44,0 78.7,15.21 104.2,45.5 25.5,30.2 38.2,68.9 38.2,115.99l0 6.4c0,47.3 -12.7,86 -38.1,116 -25.4,30.1 -59.9,45.1 -103.7,45.2 -43.7,-0.1 -78.41,-15.1 -103.81,-45.3 -25.49,-30.2 -38.29,-68.8 -38.29,-115.9l0 -6.4zm57.7 6.4c0,33.6 7.1,61.3 21.3,83.2 14.1,21.9 35.2,32.8 63.1,32.8 27.6,0 48.4,-10.9 62.7,-32.8 14.3,-21.9 21.4,-49.6 21.4,-83.2l0 -6.4c0,-33.2 -7.19,-60.9 -21.5,-82.9 -14.4,-22.1 -35.4,-33.1 -63.2,-33.1 -27.5,0 -48.4,11 -62.5,33.1 -14.2,22 -21.3,49.7 -21.3,82.9l0 6.4zm351.47 -162l4.1 41.6c10.3,-15 23.4,-26.7 39.4,-35 15.9,-8.3 34.4,-12.5 55.51,-12.5 21.1,0 39.19,4.9 54.3,14.7 15.2,9.8 26.5,24.4 34.2,43.9 10.09,-18.1 23.3,-32.4 39.7,-42.9 16.3,-10.4 35.4,-15.7 57.21,-15.7 32.3,0 57.7,11.1 76.49,33.3 18.7,22.2 28.11,55.5 28.11,100l0 189.6 -57.7 0 0 -190.1c0,-31.3 -5.4,-53.4 -16.11,-66.41 -10.7,-12.99 -26.8,-19.5 -48.1,-19.5 -19.7,0 -35.6,6.91 -47.9,20.5 -12.19,13.7 -19.3,31 -21.5,51.9l0 2.3 0 201.31 -58 0 0 -190.1c0,-29.7 -5.5,-51.51 -16.51,-65.21 -11.1,-13.79 -27,-20.7 -47.7,-20.7 -17.5,0 -32,3.61 -43.3,10.9 -11.29,7.2 -19.99,17.3 -26.1,30.4l0 234.7 -57.7 0 0 -317 51.6 0zm745.97 170.5c0,45.7 -10.9,82.6 -32.8,110.59 -21.9,28 -52.1,42 -90.5,42.1 -19.6,-0.1 -36.7,-3.3 -51.4,-9.9 -14.81,-6.5 -27.31,-16.3 -37.71,-29.4l0 155 -57.7 0 0 -438.91 44.2 0 9.1 41c10.4,-15.2 23.3,-26.8 38.7,-34.8 15.4,-8.1 33.39,-12.1 53.9,-12.1 39.3,0 69.8,15.6 91.5,46.8 21.8,31.11 32.7,72.3 32.7,123.5l0 6.11zm-57.7 -6.11c0,-36 -7.1,-65.5 -21.2,-88.7 -14.2,-23.11 -35,-34.7 -62.6,-34.7 -16.6,0 -30.8,3.8 -42.5,11.3 -11.7,7.5 -21.2,17.8 -28.4,30.9l0 153.2c7.2,13.1 16.7,23.3 28.4,30.6 11.7,7.41 26.1,11 43.1,11 27.31,0 48,-10 62.1,-30 14.1,-20 21.1,-45.8 21.1,-77.5l0 -6.11zm194.07 152.6l-57.7 0 0 -457 57.7 0 0 457zm223.07 6.2c-45.5,-0.1 -81,-14.6 -106.4,-43.7 -25.49,-29.1 -38.29,-67.4 -38.29,-114.79l0 -12.9c0,-45.5 13.2,-83.2 39.4,-113 26.3,-29.81 58.4,-44.71 96.3,-44.71 42.3,0 74.1,13.2 95.3,39.6 21.2,26.4 31.8,61.4 31.8,105.2l0 30.39 -202.7 0 -0.9 1.51c0,31.8 7,57.7 21.1,77.5 14.1,19.81 35.5,29.7 64.4,29.7 19.6,0 36.7,-2.7 51.5,-8.3 14.7,-5.6 27.41,-13.3 37.9,-23l22.6 37.5c-11.4,10.9 -26.3,20.2 -44.9,27.7 -18.5,7.5 -40.9,11.2 -67.1,11.3zm-9 -283.6c-20.2,0 -36.8,7.7 -50,23.2 -13.2,15.6 -21.2,35.4 -24.19,59.7l0.6 1.4 143 0 0 -4.7c0,-23 -5.7,-42 -17,-57.1 -11.3,-14.99 -28.8,-22.49 -52.4,-22.49zm275.27 -116.1l0 76.5 60 0 0 42.8 -60 0 0 192.5c0,14.8 3,25.3 9.2,31.29 6.1,6.11 14.3,9.1 24.5,9.1 3.3,0 7,-0.4 11.1,-1.29 4.1,-0.9 7.5,-1.8 10.2,-2.81l7.99 39.5c-4.29,3.61 -10.7,6.4 -19.1,8.7 -8.4,2.2 -16.7,3.3 -24.9,3.4 -23.4,-0.1 -42.1,-7.1 -55.9,-21.3 -13.9,-14.1 -20.8,-36.4 -20.8,-66.59l0 -192.5 -50.4 0 0 -42.8 50.4 0 0 -76.5 57.7 0zm256.07 399.7c-45.5,-0.1 -81,-14.6 -106.4,-43.7 -25.49,-29.1 -38.29,-67.4 -38.29,-114.79l0 -12.9c0,-45.5 13.2,-83.2 39.4,-113 26.3,-29.81 58.4,-44.71 96.3,-44.71 42.3,0 74.1,13.2 95.3,39.6 21.2,26.4 31.8,61.4 31.8,105.2l0 30.39 -202.7 0 -0.9 1.51c0,31.8 7,57.7 21.1,77.5 14.1,19.81 35.5,29.7 64.4,29.7 19.6,0 36.7,-2.7 51.5,-8.3 14.7,-5.6 27.41,-13.3 37.9,-23l22.6 37.5c-11.4,10.9 -26.3,20.2 -44.9,27.7 -18.5,7.5 -40.9,11.2 -67.1,11.3zm-9 -283.6c-20.2,0 -36.8,7.7 -50,23.2 -13.2,15.6 -21.2,35.4 -24.19,59.7l0.6 1.4 143 0 0 -4.7c0,-23 -5.7,-42 -17,-57.1 -11.3,-14.99 -28.8,-22.49 -52.4,-22.49zm634.08 238.4c17.7,0 33.3,-5.9 46.6,-17.71 13.2,-11.79 19.9,-26.29 19.9,-43.5l52.1 0 0.9 1.8c0.8,27.3 -10.89,51.6 -35.2,72.8 -24.2,21.2 -52.3,31.69 -84.3,31.8 -44.6,-0.1 -78.9,-15.2 -103.2,-45.5 -24.19,-30.21 -36.29,-67.9 -36.29,-113l0 -12.41c0,-44.7 12.19,-82.2 36.5,-112.6 24.3,-30.39 58.6,-45.6 103,-45.6 35.3,0 64.3,11 86.8,32.9 22.6,21.8 33.5,48.7 32.7,80.5l-0.6 1.8 -52.4 0c0,-19.4 -6.3,-35.8 -18.9,-49.4 -12.59,-13.61 -28.5,-20.3 -47.6,-20.3 -28.3,0 -49,10.89 -62,32.89 -13,22 -19.5,48.6 -19.5,79.8l0 12.41c0,31.8 6.4,58.6 19.2,80.5 12.8,21.9 33.6,32.8 62.3,32.8zm177.67 -122.41c0,-46.9 12.7,-85.5 38.1,-115.9 25.4,-30.39 59.9,-45.6 103.4,-45.6 44,0 78.7,15.21 104.2,45.5 25.5,30.2 38.2,68.9 38.2,115.99l0 6.4c0,47.3 -12.7,86 -38.1,116 -25.4,30.1 -59.9,45.1 -103.7,45.2 -43.7,-0.1 -78.41,-15.1 -103.81,-45.3 -25.49,-30.2 -38.29,-68.8 -38.29,-115.9l0 -6.4zm57.7 6.4c0,33.6 7.1,61.3 21.3,83.2 14.1,21.9 35.2,32.8 63.1,32.8 27.6,0 48.4,-10.9 62.7,-32.8 14.3,-21.9 21.4,-49.6 21.4,-83.2l0 -6.4c0,-33.2 -7.19,-60.9 -21.5,-82.9 -14.4,-22.1 -35.4,-33.1 -63.2,-33.1 -27.5,0 -48.4,11 -62.5,33.1 -14.2,22 -21.3,49.7 -21.3,82.9l0 6.4zm351.47 -162l4.1 47.2c10.5,-16.8 23.7,-29.9 39.7,-39.1 15.89,-9.29 34,-14 54.3,-14 34.2,0 60.6,10.1 79.4,30.1 18.7,20 28.1,50.9 28.1,92.7l0 200.1 -57.7 0 0 -198.9c0,-28 -5.5,-47.8 -16.5,-59.5 -11.11,-11.7 -27.9,-17.6 -50.6,-17.6 -17.81,0 -32.81,3.61 -45.21,10.7 -12.5,7.1 -22.3,17.2 -29.5,30l0 235.3 -57.7 0 0 -317 51.6 0zm372.77 -76.5l0 76.5 60 0 0 42.8 -60 0 0 192.5c0,14.8 3,25.3 9.2,31.29 6.1,6.11 14.3,9.1 24.5,9.1 3.3,0 7,-0.4 11.1,-1.29 4.1,-0.9 7.5,-1.8 10.2,-2.81l7.99 39.5c-4.29,3.61 -10.7,6.4 -19.1,8.7 -8.4,2.2 -16.7,3.3 -24.9,3.4 -23.4,-0.1 -42.1,-7.1 -55.9,-21.3 -13.9,-14.1 -20.8,-36.4 -20.8,-66.59l0 -192.5 -50.4 0 0 -42.8 50.4 0 0 -76.5 57.7 0zm274.87 127.5l-29.6 -1.79c-15.2,0 -28.1,3.6 -38.5,10.89 -10.5,7.2 -18.5,17.31 -24.2,30.4l0 226.5 -57.7 0 0 -317 51.6 0 5.5 46.3c9,-16.4 20.09,-29.19 33.3,-38.4 13.2,-9.2 28.29,-13.8 45.5,-13.8 4.3,0 8.4,0.4 12.3,1.1 3.9,0.71 7.2,1.4 9.7,2.2l-7.9 53.6zm43.77 104.6c0,-46.9 12.7,-85.5 38.1,-115.9 25.4,-30.39 59.9,-45.6 103.4,-45.6 44,0 78.7,15.21 104.2,45.5 25.5,30.2 38.2,68.9 38.2,115.99l0 6.4c0,47.3 -12.7,86 -38.1,116 -25.4,30.1 -59.9,45.1 -103.7,45.2 -43.7,-0.1 -78.41,-15.1 -103.81,-45.3 -25.49,-30.2 -38.29,-68.8 -38.29,-115.9l0 -6.4zm57.7 6.4c0,33.6 7.1,61.3 21.3,83.2 14.1,21.9 35.2,32.8 63.1,32.8 27.6,0 48.4,-10.9 62.7,-32.8 14.3,-21.9 21.4,-49.6 21.4,-83.2l0 -6.4c0,-33.2 -7.19,-60.9 -21.5,-82.9 -14.4,-22.1 -35.4,-33.1 -63.2,-33.1 -27.5,0 -48.4,11 -62.5,33.1 -14.2,22 -21.3,49.7 -21.3,82.9l0 6.4zm362.27 155l-57.7 0 0 -457 57.7 0 0 457zm486.08 -115.4l7.4 40.7 1.7 0 7.6 -40.7 63.29 -201.6 46.3 0 63.6 201.6 8.2 45.39 1.8 0 9.3 -45.39 46.9 -201.6 60.39 0 -92 317 -46.6 0 -62.7 -193.1 -12 -50.4 -1.8 0 -11.1 50.4 -61.5 193.1 -46.6 0 -92 -317 60 0 49.8 201.6zm438.47 115.4l-57.7 0 0 -317 57.7 0 0 317zm0 -398.1l-57.7 0 0 -58.9 57.7 0 0 58.9zm172.17 4.6l0 76.5 60 0 0 42.8 -60 0 0 192.5c0,14.8 3,25.3 9.2,31.29 6.1,6.11 14.3,9.1 24.5,9.1 3.3,0 7,-0.4 11.1,-1.29 4.1,-0.9 7.5,-1.8 10.2,-2.81l7.99 39.5c-4.29,3.61 -10.7,6.4 -19.1,8.7 -8.4,2.2 -16.7,3.3 -24.9,3.4 -23.4,-0.1 -42.1,-7.1 -55.9,-21.3 -13.9,-14.1 -20.8,-36.4 -20.8,-66.59l0 -192.5 -50.4 0 0 -42.8 50.4 0 0 -76.5 57.7 0zm182.57 119c10.9,-15.21 24.41,-27.1 40.3,-35.61 15.9,-8.5 33.51,-12.8 52.9,-12.8 33.8,0 60.1,10.2 78.9,30.5 18.9,20.3 28.3,51.6 28.3,93.8l0 198.6 -57.7 0 0 -199.2c0,-26.2 -5.6,-45.5 -16.9,-58 -11.21,-12.5 -27.9,-18.8 -50.21,-18.8 -17.19,0 -32.09,3.4 -44.8,10.1 -12.7,6.8 -22.99,16.2 -30.8,28.3l0 237.6 -57.7 0 0 -457 57.7 0 0 182.5zm679.78 -119l0 76.5 60 0 0 42.8 -60 0 0 192.5c0,14.8 3,25.3 9.2,31.29 6.1,6.11 14.3,9.1 24.5,9.1 3.3,0 7,-0.4 11.1,-1.29 4.1,-0.9 7.5,-1.8 10.2,-2.81l7.99 39.5c-4.29,3.61 -10.7,6.4 -19.1,8.7 -8.4,2.2 -16.7,3.3 -24.9,3.4 -23.4,-0.1 -42.1,-7.1 -55.9,-21.3 -13.9,-14.1 -20.8,-36.4 -20.8,-66.59l0 -192.5 -50.4 0 0 -42.8 50.4 0 0 -76.5 57.7 0zm111.38 232.1c0,-46.9 12.7,-85.5 38.1,-115.9 25.4,-30.39 59.9,-45.6 103.4,-45.6 44,0 78.7,15.21 104.2,45.5 25.5,30.2 38.2,68.9 38.2,115.99l0 6.4c0,47.3 -12.7,86 -38.1,116 -25.4,30.1 -59.9,45.1 -103.7,45.2 -43.7,-0.1 -78.41,-15.1 -103.81,-45.3 -25.49,-30.2 -38.29,-68.8 -38.29,-115.9l0 -6.4zm57.7 6.4c0,33.6 7.1,61.3 21.3,83.2 14.1,21.9 35.2,32.8 63.1,32.8 27.6,0 48.4,-10.9 62.7,-32.8 14.3,-21.9 21.4,-49.6 21.4,-83.2l0 -6.4c0,-33.2 -7.19,-60.9 -21.5,-82.9 -14.4,-22.1 -35.4,-33.1 -63.2,-33.1 -27.5,0 -48.4,11 -62.5,33.1 -14.2,22 -21.3,49.7 -21.3,82.9l0 6.4zm286.37 -6.4c0,-46.9 12.7,-85.5 38.1,-115.9 25.4,-30.39 59.9,-45.6 103.4,-45.6 44,0 78.7,15.21 104.2,45.5 25.5,30.2 38.2,68.9 38.2,115.99l0 6.4c0,47.3 -12.7,86 -38.1,116 -25.4,30.1 -59.9,45.1 -103.7,45.2 -43.7,-0.1 -78.41,-15.1 -103.81,-45.3 -25.49,-30.2 -38.29,-68.8 -38.29,-115.9l0 -6.4zm57.7 6.4c0,33.6 7.1,61.3 21.3,83.2 14.1,21.9 35.2,32.8 63.1,32.8 27.6,0 48.4,-10.9 62.7,-32.8 14.3,-21.9 21.4,-49.6 21.4,-83.2l0 -6.4c0,-33.2 -7.19,-60.9 -21.5,-82.9 -14.4,-22.1 -35.4,-33.1 -63.2,-33.1 -27.5,0 -48.4,11 -62.5,33.1 -14.2,22 -21.3,49.7 -21.3,82.9l0 6.4zm362.27 155l-57.7 0 0 -457 57.7 0 0 457zm276.17 -85.3c0,-12.7 -4.91,-22.99 -14.5,-31 -9.7,-8 -28,-15.1 -55,-21.1 -37.3,-8 -65.91,-19.2 -85.9,-33.7 -20.1,-14.5 -30.1,-33.8 -30.1,-58.01 0,-25.8 11,-47.89 33,-66.19 22,-18.4 50.39,-27.6 85.4,-27.6 35.9,0 65,9.81 87.3,29.3 22.3,19.59 32.9,42.3 31.9,68.3l-0.6 1.8 -55 0c0,-13.7 -6,-26.1 -18.1,-37.2 -12.01,-11.2 -27.2,-16.69 -45.5,-16.69 -20.3,0 -35.5,4.5 -45.6,13.7 -10,9.19 -15.1,20.09 -15.1,32.8 0,12.5 4.41,22.2 13.1,29 8.7,6.9 26.6,13.1 53.69,18.8 38.91,8.2 68.41,19.8 88.5,34.9 20.1,15 30.21,34.59 30.21,58.8 0,28.2 -11.4,51.1 -34.1,68.9 -22.8,17.8 -52.5,26.6 -89.3,26.7 -40.4,-0.1 -72.21,-10.3 -95.5,-30.8 -23.21,-20.49 -34.2,-44.4 -33.11,-71.8l0.6 -1.7 55.1 0c1,20.5 8.6,35.4 22.9,44.9 14.2,9.5 30.9,14.2 50,14.2 20.6,0 36.6,-4.3 48.2,-13 11.7,-8.7 17.5,-19.8 17.5,-33.3zm-9248.04 411.91l0 76.5 60 0 0 42.8 -60 0 0 192.5c0,14.8 3,25.3 9.2,31.29 6.1,6.11 14.3,9.1 24.5,9.1 3.3,0 7,-0.4 11.1,-1.29 4.1,-0.9 7.5,-1.8 10.2,-2.81l7.99 39.5c-4.29,3.61 -10.7,6.4 -19.1,8.7 -8.4,2.2 -16.7,3.3 -24.9,3.4 -23.4,-0.1 -42.1,-7.1 -55.9,-21.3 -13.9,-14.1 -20.8,-36.4 -20.8,-66.59l0 -192.5 -50.4 0 0 -42.8 50.4 0 0 -76.5 57.7 0zm179.5 119c10.9,-15.21 24.41,-27.1 40.3,-35.61 15.9,-8.5 33.51,-12.8 52.9,-12.8 33.8,0 60.1,10.2 78.9,30.5 18.9,20.3 28.3,51.6 28.3,93.8l0 198.6 -57.7 0 0 -199.2c0,-26.2 -5.6,-45.5 -16.9,-58 -11.21,-12.5 -27.9,-18.8 -50.21,-18.8 -17.19,0 -32.09,3.4 -44.8,10.1 -12.7,6.8 -22.99,16.2 -30.8,28.3l0 237.6 -57.7 0 0 -457 57.7 0 0 182.5zm478.1 274.5c-1.9,-9.6 -3.39,-18 -4.5,-25.3 -1.1,-7.4 -1.7,-14.7 -1.9,-22.2 -10.8,15.3 -24.81,28 -42.1,38.3 -17.2,10.2 -35.9,15.3 -55.8,15.4 -33,-0.1 -58.1,-8.5 -75.4,-25.4 -17.31,-16.9 -25.9,-40.2 -25.9,-69.9 0,-30.2 12.2,-53.9 36.7,-71 24.5,-17.1 57.8,-25.6 99.8,-25.6l62.7 0 0 -31.41c0,-18.5 -5.71,-33.2 -17,-44.09 -11.3,-10.8 -27.4,-16.2 -48.11,-16.2 -18.7,0 -33.9,4.6 -45.39,14 -11.51,9.4 -17.31,20.6 -17.31,33.7l-54.7 0.6 -0.6 -1.79c-1.39,-23 9.41,-44.1 32.31,-63.2 22.99,-19.2 52.6,-28.8 88.99,-28.8 35.9,0 64.81,9.2 86.71,27.4 21.9,18.3 32.8,44.6 32.8,79l0 152.6c0,11.4 0.6,22.3 1.7,32.8 1.2,10.6 3.4,20.9 6.5,31.1l-59.5 0zm-95.8 -42.2c20.9,0 39.8,-5.4 56.6,-16.11 16.8,-10.7 27.7,-23.1 32.8,-36.9l0 -51.6 -64.8 0c-23.2,0 -41.81,5.9 -55.8,17.6 -13.9,11.7 -20.9,25.5 -20.9,41.3 0,14.1 4.41,25.2 13.21,33.39 8.7,8.2 21.69,12.31 38.9,12.31zm311.2 -351.31l0 76.5 60 0 0 42.8 -60 0 0 192.5c0,14.8 3,25.3 9.2,31.29 6.1,6.11 14.3,9.1 24.5,9.1 3.3,0 7,-0.4 11.1,-1.29 4.1,-0.9 7.5,-1.8 10.2,-2.81l7.99 39.5c-4.29,3.61 -10.7,6.4 -19.1,8.7 -8.4,2.2 -16.7,3.3 -24.9,3.4 -23.4,-0.1 -42.1,-7.1 -55.9,-21.3 -13.9,-14.1 -20.8,-36.4 -20.8,-66.59l0 -192.5 -50.4 0 0 -42.8 50.4 0 0 -76.5 57.7 0zm577.08 247.01c0,45.7 -10.9,82.6 -32.8,110.59 -21.9,28 -52.1,42 -90.5,42.1 -19.6,-0.1 -36.7,-3.3 -51.4,-9.9 -14.81,-6.5 -27.31,-16.3 -37.71,-29.4l0 155 -57.7 0 0 -438.91 44.2 0 9.1 41c10.4,-15.2 23.3,-26.8 38.7,-34.8 15.4,-8.1 33.39,-12.1 53.9,-12.1 39.3,0 69.8,15.6 91.5,46.8 21.8,31.11 32.7,72.3 32.7,123.5l0 6.11zm-57.7 -6.11c0,-36 -7.1,-65.5 -21.2,-88.7 -14.2,-23.11 -35,-34.7 -62.6,-34.7 -16.6,0 -30.8,3.8 -42.5,11.3 -11.7,7.5 -21.2,17.8 -28.4,30.9l0 153.2c7.2,13.1 16.7,23.3 28.4,30.6 11.7,7.41 26.1,11 43.1,11 27.31,0 48,-10 62.1,-30 14.1,-20 21.1,-45.8 21.1,-77.5l0 -6.11zm278.6 -113.4l-29.6 -1.79c-15.2,0 -28.1,3.6 -38.5,10.89 -10.5,7.2 -18.5,17.31 -24.2,30.4l0 226.5 -57.7 0 0 -317 51.6 0 5.5 46.3c9,-16.4 20.09,-29.19 33.3,-38.4 13.2,-9.2 28.29,-13.8 45.5,-13.8 4.3,0 8.4,0.4 12.3,1.1 3.9,0.71 7.2,1.4 9.7,2.2l-7.9 53.6zm40.7 104.6c0,-46.9 12.7,-85.5 38.1,-115.9 25.4,-30.39 59.9,-45.6 103.4,-45.6 44,0 78.7,15.21 104.2,45.5 25.5,30.2 38.2,68.9 38.2,115.99l0 6.4c0,47.3 -12.7,86 -38.1,116 -25.4,30.1 -59.9,45.1 -103.7,45.2 -43.7,-0.1 -78.41,-15.1 -103.81,-45.3 -25.49,-30.2 -38.29,-68.8 -38.29,-115.9l0 -6.4zm57.7 6.4c0,33.6 7.1,61.3 21.3,83.2 14.1,21.9 35.2,32.8 63.1,32.8 27.6,0 48.4,-10.9 62.7,-32.8 14.3,-21.9 21.4,-49.6 21.4,-83.2l0 -6.4c0,-33.2 -7.19,-60.9 -21.5,-82.9 -14.4,-22.1 -35.4,-33.1 -63.2,-33.1 -27.5,0 -48.4,11 -62.5,33.1 -14.2,22 -21.3,49.7 -21.3,82.9l0 6.4zm398.21 61.5l4.9 22.3 1.79 0 5.6 -22.3 72.9 -223.5 58.91 0 -116.61 317 -43.69 0 -118 -317 59.2 0 75 223.5zm258.4 93.5l-57.7 0 0 -317 57.7 0 0 317zm0 -398.1l-57.7 0 0 -58.9 57.7 0 0 58.9zm75.6 245.5c0,-51 10.9,-92.1 32.7,-123.4 21.8,-31.2 52.3,-46.9 91.5,-46.9 18.6,0 35,3.5 49.4,10.3 14.4,6.8 26.6,16.8 36.81,29.9l0 -174.3 57.7 0 0 457 -44.31 0 -8.7 -40.1c-10.4,15.2 -23.2,26.69 -38.4,34.49 -15.31,7.81 -32.9,11.7 -53.11,11.8 -38.6,-0.1 -68.9,-14.1 -90.8,-42.1 -21.8,-27.99 -32.8,-64.89 -32.8,-110.59l0 -6.11zm57.7 6.11c0,32 6.6,57.7 19.7,76.9 12.99,19.3 33.39,28.9 60.9,28.9 17.2,0 31.6,-3.9 43.4,-11.7 11.69,-7.9 21.2,-18.8 28.7,-32.9l0 -147.9c-7.5,-13.1 -17.1,-23.5 -28.9,-31.2 -11.79,-7.7 -26,-11.6 -42.6,-11.6 -27.8,0 -48.2,11.4 -61.41,34.3 -13.2,22.9 -19.8,52.49 -19.8,89.1l0 6.11zm427.7 152.7c-45.5,-0.1 -81,-14.6 -106.4,-43.7 -25.49,-29.1 -38.29,-67.4 -38.29,-114.79l0 -12.9c0,-45.5 13.2,-83.2 39.4,-113 26.3,-29.81 58.4,-44.71 96.3,-44.71 42.3,0 74.1,13.2 95.3,39.6 21.2,26.4 31.8,61.4 31.8,105.2l0 30.39 -202.7 0 -0.9 1.51c0,31.8 7,57.7 21.1,77.5 14.1,19.81 35.5,29.7 64.4,29.7 19.6,0 36.7,-2.7 51.5,-8.3 14.7,-5.6 27.41,-13.3 37.9,-23l22.6 37.5c-11.4,10.9 -26.3,20.2 -44.9,27.7 -18.5,7.5 -40.9,11.2 -67.1,11.3zm-9 -283.6c-20.2,0 -36.8,7.7 -50,23.2 -13.2,15.6 -21.2,35.4 -24.19,59.7l0.6 1.4 143 0 0 -4.7c0,-23 -5.7,-42 -17,-57.1 -11.3,-14.99 -28.8,-22.49 -52.4,-22.49zm527.07 11.4l-29.6 -1.79c-15.2,0 -28.1,3.6 -38.5,10.89 -10.5,7.2 -18.5,17.31 -24.2,30.4l0 226.5 -57.7 0 0 -317 51.6 0 5.5 46.3c9,-16.4 20.09,-29.19 33.3,-38.4 13.2,-9.2 28.29,-13.8 45.5,-13.8 4.3,0 8.4,0.4 12.3,1.1 3.9,0.71 7.2,1.4 9.7,2.2l-7.9 53.6zm185.69 272.2c-45.5,-0.1 -81,-14.6 -106.4,-43.7 -25.49,-29.1 -38.29,-67.4 -38.29,-114.79l0 -12.9c0,-45.5 13.2,-83.2 39.4,-113 26.3,-29.81 58.4,-44.71 96.3,-44.71 42.3,0 74.1,13.2 95.3,39.6 21.2,26.4 31.8,61.4 31.8,105.2l0 30.39 -202.7 0 -0.9 1.51c0,31.8 7,57.7 21.1,77.5 14.1,19.81 35.5,29.7 64.4,29.7 19.6,0 36.7,-2.7 51.5,-8.3 14.7,-5.6 27.41,-13.3 37.9,-23l22.6 37.5c-11.4,10.9 -26.3,20.2 -44.9,27.7 -18.5,7.5 -40.9,11.2 -67.1,11.3zm-9 -283.6c-20.2,0 -36.8,7.7 -50,23.2 -13.2,15.6 -21.2,35.4 -24.19,59.7l0.6 1.4 143 0 0 -4.7c0,-23 -5.7,-42 -17,-57.1 -11.3,-14.99 -28.8,-22.49 -52.4,-22.49zm386.7 277.4c-1.9,-9.6 -3.39,-18 -4.5,-25.3 -1.1,-7.4 -1.7,-14.7 -1.9,-22.2 -10.8,15.3 -24.81,28 -42.1,38.3 -17.2,10.2 -35.9,15.3 -55.8,15.4 -33,-0.1 -58.1,-8.5 -75.4,-25.4 -17.31,-16.9 -25.9,-40.2 -25.9,-69.9 0,-30.2 12.2,-53.9 36.7,-71 24.5,-17.1 57.8,-25.6 99.8,-25.6l62.7 0 0 -31.41c0,-18.5 -5.71,-33.2 -17,-44.09 -11.3,-10.8 -27.4,-16.2 -48.11,-16.2 -18.7,0 -33.9,4.6 -45.39,14 -11.51,9.4 -17.31,20.6 -17.31,33.7l-54.7 0.6 -0.6 -1.79c-1.39,-23 9.41,-44.1 32.31,-63.2 22.99,-19.2 52.6,-28.8 88.99,-28.8 35.9,0 64.81,9.2 86.71,27.4 21.9,18.3 32.8,44.6 32.8,79l0 152.6c0,11.4 0.6,22.3 1.7,32.8 1.2,10.6 3.4,20.9 6.5,31.1l-59.5 0zm-95.8 -42.2c20.9,0 39.8,-5.4 56.6,-16.11 16.8,-10.7 27.7,-23.1 32.8,-36.9l0 -51.6 -64.8 0c-23.2,0 -41.81,5.9 -55.8,17.6 -13.9,11.7 -20.9,25.5 -20.9,41.3 0,14.1 4.41,25.2 13.21,33.39 8.7,8.2 21.69,12.31 38.9,12.31zm293.3 42.2l-57.7 0 0 -457 57.7 0 0 457zm268.7 -157.6l-172.9 0 0 -45.1 172.9 0 0 45.1zm170.8 -235.9l0 76.5 60 0 0 42.8 -60 0 0 192.5c0,14.8 3,25.3 9.2,31.29 6.1,6.11 14.3,9.1 24.5,9.1 3.3,0 7,-0.4 11.1,-1.29 4.1,-0.9 7.5,-1.8 10.2,-2.81l7.99 39.5c-4.29,3.61 -10.7,6.4 -19.1,8.7 -8.4,2.2 -16.7,3.3 -24.9,3.4 -23.4,-0.1 -42.1,-7.1 -55.9,-21.3 -13.9,-14.1 -20.8,-36.4 -20.8,-66.59l0 -192.5 -50.4 0 0 -42.8 50.4 0 0 -76.5 57.7 0zm184.2 393.5l-57.7 0 0 -317 57.7 0 0 317zm0 -398.1l-57.7 0 0 -58.9 57.7 0 0 58.9z"/>
   <path class="fil1" d="M11122.24 5085.48l4.1 41.6c10.3,-15 23.4,-26.7 39.4,-35 15.9,-8.3 34.4,-12.5 55.51,-12.5 21.1,0 39.19,4.9 54.3,14.7 15.2,9.8 26.5,24.4 34.2,43.9 10.09,-18.1 23.3,-32.4 39.7,-42.9 16.3,-10.4 35.4,-15.7 57.21,-15.7 32.3,0 57.7,11.1 76.49,33.3 18.7,22.2 28.11,55.5 28.11,100l0 189.6 -57.7 0 0 -190.1c0,-31.3 -5.4,-53.4 -16.11,-66.41 -10.7,-12.99 -26.8,-19.5 -48.1,-19.5 -19.7,0 -35.6,6.91 -47.9,20.5 -12.19,13.7 -19.3,31 -21.5,51.9l0 2.3 0 201.31 -58 0 0 -190.1c0,-29.7 -5.5,-51.51 -16.51,-65.21 -11.1,-13.79 -27,-20.7 -47.7,-20.7 -17.5,0 -32,3.61 -43.3,10.9 -11.29,7.2 -19.99,17.3 -26.1,30.4l0 234.7 -57.7 0 0 -317 51.6 0zm604 323.2c-45.5,-0.1 -81,-14.6 -106.4,-43.7 -25.49,-29.1 -38.29,-67.4 -38.29,-114.79l0 -12.9c0,-45.5 13.2,-83.2 39.4,-113 26.3,-29.81 58.4,-44.71 96.3,-44.71 42.3,0 74.1,13.2 95.3,39.6 21.2,26.4 31.8,61.4 31.8,105.2l0 30.39 -202.7 0 -0.9 1.51c0,31.8 7,57.7 21.1,77.5 14.1,19.81 35.5,29.7 64.4,29.7 19.6,0 36.7,-2.7 51.5,-8.3 14.7,-5.6 27.41,-13.3 37.9,-23l22.6 37.5c-11.4,10.9 -26.3,20.2 -44.9,27.7 -18.5,7.5 -40.9,11.2 -67.1,11.3zm-9 -283.6c-20.2,0 -36.8,7.7 -50,23.2 -13.2,15.6 -21.2,35.4 -24.19,59.7l0.6 1.4 143 0 0 -4.7c0,-23 -5.7,-42 -17,-57.1 -11.3,-14.99 -28.8,-22.49 -52.4,-22.49zm439.48 277.4l-57.7 0 0 -317 57.7 0 0 317zm0 -398.1l-57.7 0 0 -58.9 57.7 0 0 58.9zm140.4 81.1l4.1 47.2c10.5,-16.8 23.7,-29.9 39.7,-39.1 15.89,-9.29 34,-14 54.3,-14 34.2,0 60.6,10.1 79.4,30.1 18.7,20 28.1,50.9 28.1,92.7l0 200.1 -57.7 0 0 -198.9c0,-28 -5.5,-47.8 -16.5,-59.5 -11.11,-11.7 -27.9,-17.6 -50.6,-17.6 -17.81,0 -32.81,3.61 -45.21,10.7 -12.5,7.1 -22.3,17.2 -29.5,30l0 235.3 -57.7 0 0 -317 51.6 0zm473.7 231.7c0,-12.7 -4.91,-22.99 -14.5,-31 -9.7,-8 -28,-15.1 -55,-21.1 -37.3,-8 -65.91,-19.2 -85.9,-33.7 -20.1,-14.5 -30.1,-33.8 -30.1,-58.01 0,-25.8 11,-47.89 33,-66.19 22,-18.4 50.39,-27.6 85.4,-27.6 35.9,0 65,9.81 87.3,29.3 22.3,19.59 32.9,42.3 31.9,68.3l-0.6 1.8 -55 0c0,-13.7 -6,-26.1 -18.1,-37.2 -12.01,-11.2 -27.2,-16.69 -45.5,-16.69 -20.3,0 -35.5,4.5 -45.6,13.7 -10,9.19 -15.1,20.09 -15.1,32.8 0,12.5 4.41,22.2 13.1,29 8.7,6.9 26.6,13.1 53.69,18.8 38.91,8.2 68.41,19.8 88.5,34.9 20.1,15 30.21,34.59 30.21,58.8 0,28.2 -11.4,51.1 -34.1,68.9 -22.8,17.8 -52.5,26.6 -89.3,26.7 -40.4,-0.1 -72.21,-10.3 -95.5,-30.8 -23.21,-20.49 -34.2,-44.4 -33.11,-71.8l0.6 -1.7 55.1 0c1,20.5 8.6,35.4 22.9,44.9 14.2,9.5 30.9,14.2 50,14.2 20.6,0 36.6,-4.3 48.2,-13 11.7,-8.7 17.5,-19.8 17.5,-33.3zm191.9 85.3l-57.7 0 0 -317 57.7 0 0 317zm0 -398.1l-57.7 0 0 -58.9 57.7 0 0 58.9zm78.5 245.5c0,-51 10.9,-92.1 32.7,-123.4 21.8,-31.2 52.21,-46.9 91.31,-46.9 20.09,0 37.8,4.1 53,12.2 15.2,8.1 28,19.8 38.4,35l7 -41.3 46 0 0 318.8c0,40.6 -11.8,71.8 -35.4,93.59 -23.7,21.7 -57.8,32.6 -102.3,32.6 -15.2,0 -31.69,-2.1 -49.4,-6.3 -17.59,-4.2 -33.2,-9.9 -46.7,-17.1l8.8 -44.8c11.1,5.8 24.59,10.6 40.3,14.2 15.7,3.6 31.19,5.4 46.4,5.4 28.1,0 48.6,-6.4 61.4,-19.2 12.8,-12.8 19.2,-32.3 19.2,-58.4l0 -36.1c-10.4,13.3 -22.8,23.39 -37.2,30.2 -14.5,6.8 -31.2,10.2 -50.1,10.3 -38.7,-0.1 -68.9,-14.1 -90.7,-42.1 -21.8,-27.99 -32.7,-64.89 -32.7,-110.59l0 -6.11zm57.8 6.11c0,31.9 6.5,57.39 19.6,76.8 13.1,19.3 33.3,29 60.6,29 17.4,0 32,-4 43.7,-11.9 11.7,-7.9 21.4,-19.1 29,-33.51l0 -145.9c-7.4,-13.5 -17.1,-24.19 -29,-32.09 -11.91,-7.9 -26.3,-11.91 -43.11,-11.91 -27.49,0 -47.89,11.4 -61.1,34.3 -13.2,22.9 -19.7,52.49 -19.7,89.1l0 6.11zm351.2 -128c10.9,-15.21 24.41,-27.1 40.3,-35.61 15.9,-8.5 33.51,-12.8 52.9,-12.8 33.8,0 60.1,10.2 78.9,30.5 18.9,20.3 28.3,51.6 28.3,93.8l0 198.6 -57.7 0 0 -199.2c0,-26.2 -5.6,-45.5 -16.9,-58 -11.21,-12.5 -27.9,-18.8 -50.21,-18.8 -17.19,0 -32.09,3.4 -44.8,10.1 -12.7,6.8 -22.99,16.2 -30.8,28.3l0 237.6 -57.7 0 0 -457 57.7 0 0 182.5zm363.6 -119l0 76.5 60 0 0 42.8 -60 0 0 192.5c0,14.8 3,25.3 9.2,31.29 6.1,6.11 14.3,9.1 24.5,9.1 3.3,0 7,-0.4 11.1,-1.29 4.1,-0.9 7.5,-1.8 10.2,-2.81l7.99 39.5c-4.29,3.61 -10.7,6.4 -19.1,8.7 -8.4,2.2 -16.7,3.3 -24.9,3.4 -23.4,-0.1 -42.1,-7.1 -55.9,-21.3 -13.9,-14.1 -20.8,-36.4 -20.8,-66.59l0 -192.5 -50.4 0 0 -42.8 50.4 0 0 -76.5 57.7 0zm306.11 308.2c0,-12.7 -4.91,-22.99 -14.5,-31 -9.7,-8 -28,-15.1 -55,-21.1 -37.3,-8 -65.91,-19.2 -85.9,-33.7 -20.1,-14.5 -30.1,-33.8 -30.1,-58.01 0,-25.8 11,-47.89 33,-66.19 22,-18.4 50.39,-27.6 85.4,-27.6 35.9,0 65,9.81 87.3,29.3 22.3,19.59 32.9,42.3 31.9,68.3l-0.6 1.8 -55 0c0,-13.7 -6,-26.1 -18.1,-37.2 -12.01,-11.2 -27.2,-16.69 -45.5,-16.69 -20.3,0 -35.5,4.5 -45.6,13.7 -10,9.19 -15.1,20.09 -15.1,32.8 0,12.5 4.41,22.2 13.1,29 8.7,6.9 26.6,13.1 53.69,18.8 38.91,8.2 68.41,19.8 88.5,34.9 20.1,15 30.21,34.59 30.21,58.8 0,28.2 -11.4,51.1 -34.1,68.9 -22.8,17.8 -52.5,26.6 -89.3,26.7 -40.4,-0.1 -72.21,-10.3 -95.5,-30.8 -23.21,-20.49 -34.2,-44.4 -33.11,-71.8l0.6 -1.7 55.1 0c1,20.5 8.6,35.4 22.9,44.9 14.2,9.5 30.9,14.2 50,14.2 20.6,0 36.6,-4.3 48.2,-13 11.7,-8.7 17.5,-19.8 17.5,-33.3zm377.07 85.3l-57.7 0 0 -317 57.7 0 0 317zm0 -398.1l-57.7 0 0 -58.9 57.7 0 0 58.9zm140.4 81.1l4.1 47.2c10.5,-16.8 23.7,-29.9 39.7,-39.1 15.89,-9.29 34,-14 54.3,-14 34.2,0 60.6,10.1 79.4,30.1 18.7,20 28.1,50.9 28.1,92.7l0 200.1 -57.7 0 0 -198.9c0,-28 -5.5,-47.8 -16.5,-59.5 -11.11,-11.7 -27.9,-17.6 -50.6,-17.6 -17.81,0 -32.81,3.61 -45.21,10.7 -12.5,7.1 -22.3,17.2 -29.5,30l0 235.3 -57.7 0 0 -317 51.6 0zm369.7 -76.5l0 76.5 60 0 0 42.8 -60 0 0 192.5c0,14.8 3,25.3 9.2,31.29 6.1,6.11 14.3,9.1 24.5,9.1 3.3,0 7,-0.4 11.1,-1.29 4.1,-0.9 7.5,-1.8 10.2,-2.81l7.99 39.5c-4.29,3.61 -10.7,6.4 -19.1,8.7 -8.4,2.2 -16.7,3.3 -24.9,3.4 -23.4,-0.1 -42.1,-7.1 -55.9,-21.3 -13.9,-14.1 -20.8,-36.4 -20.8,-66.59l0 -192.5 -50.4 0 0 -42.8 50.4 0 0 -76.5 57.7 0zm108.31 232.1c0,-46.9 12.7,-85.5 38.1,-115.9 25.4,-30.39 59.9,-45.6 103.4,-45.6 44,0 78.7,15.21 104.2,45.5 25.5,30.2 38.2,68.9 38.2,115.99l0 6.4c0,47.3 -12.7,86 -38.1,116 -25.4,30.1 -59.9,45.1 -103.7,45.2 -43.7,-0.1 -78.41,-15.1 -103.81,-45.3 -25.49,-30.2 -38.29,-68.8 -38.29,-115.9l0 -6.4zm57.7 6.4c0,33.6 7.1,61.3 21.3,83.2 14.1,21.9 35.2,32.8 63.1,32.8 27.6,0 48.4,-10.9 62.7,-32.8 14.3,-21.9 21.4,-49.6 21.4,-83.2l0 -6.4c0,-33.2 -7.19,-60.9 -21.5,-82.9 -14.4,-22.1 -35.4,-33.1 -63.2,-33.1 -27.5,0 -48.4,11 -62.5,33.1 -14.2,22 -21.3,49.7 -21.3,82.9l0 6.4zm-9064.23 757.61l10.2 39.9 1.8 0 77.9 -239.4 64.2 0 -133.3 365.6c-8,21.3 -19.5,39.9 -34.5,55.7 -14.9,15.8 -35.1,23.7 -60.51,23.7 -4.6,0 -10.6,-0.5 -17.8,-1.6 -7.2,-1.11 -12.8,-2.1 -16.7,-3.1l5.8 -45.39c-1.1,-0.2 2.3,0 10.4,0.6 8.1,0.6 13.3,0.9 15.4,0.9 12.31,0 22.4,-5.5 30.21,-16.4 7.8,-10.89 14.4,-23.1 19.59,-36.29l13.8 -33.2 -117.8 -310.5 64.49 0 66.81 199.5zm186.91 -43.91c0,-46.9 12.7,-85.5 38.1,-115.9 25.4,-30.39 59.9,-45.6 103.4,-45.6 44,0 78.7,15.21 104.2,45.5 25.5,30.2 38.2,68.9 38.2,115.99l0 6.4c0,47.3 -12.7,86 -38.1,116 -25.4,30.1 -59.9,45.1 -103.7,45.2 -43.7,-0.1 -78.41,-15.1 -103.81,-45.3 -25.49,-30.2 -38.29,-68.8 -38.29,-115.9l0 -6.4zm57.7 6.4c0,33.6 7.1,61.3 21.3,83.2 14.1,21.9 35.2,32.8 63.1,32.8 27.6,0 48.4,-10.9 62.7,-32.8 14.3,-21.9 21.4,-49.6 21.4,-83.2l0 -6.4c0,-33.2 -7.19,-60.9 -21.5,-82.9 -14.4,-22.1 -35.4,-33.1 -63.2,-33.1 -27.5,0 -48.4,11 -62.5,33.1 -14.2,22 -21.3,49.7 -21.3,82.9l0 6.4zm498.1 108.1c-10,17 -22.8,30.1 -38.4,39.3 -15.6,9.2 -33.7,13.7 -54.2,13.8 -34.6,-0.1 -61.5,-11.1 -80.91,-33.2 -19.3,-22 -29,-56.4 -29,-103.1l0 -186.9 57.7 0 0 187.5c0,33.79 5,56.99 15,69.7 9.9,12.7 25.5,19.1 46.6,19.1 20.5,0 37.4,-4.2 50.8,-12.5 13.39,-8.3 23.5,-20 30.3,-35.3l0 -228.5 57.7 0 0 317 -51.8 0 -3.8 -46.9zm289.7 -219.1l-29.6 -1.79c-15.2,0 -28.1,3.6 -38.5,10.89 -10.5,7.2 -18.5,17.31 -24.2,30.4l0 226.5 -57.7 0 0 -317 51.6 0 5.5 46.3c9,-16.4 20.09,-29.19 33.3,-38.4 13.2,-9.2 28.29,-13.8 45.5,-13.8 4.3,0 8.4,0.4 12.3,1.1 3.9,0.71 7.2,1.4 9.7,2.2l-7.9 53.6zm464.6 266c-1.9,-9.6 -3.39,-18 -4.5,-25.3 -1.1,-7.4 -1.7,-14.7 -1.9,-22.2 -10.8,15.3 -24.81,28 -42.1,38.3 -17.2,10.2 -35.9,15.3 -55.8,15.4 -33,-0.1 -58.1,-8.5 -75.4,-25.4 -17.31,-16.9 -25.9,-40.2 -25.9,-69.9 0,-30.2 12.2,-53.9 36.7,-71 24.5,-17.1 57.8,-25.6 99.8,-25.6l62.7 0 0 -31.41c0,-18.5 -5.71,-33.2 -17,-44.09 -11.3,-10.8 -27.4,-16.2 -48.11,-16.2 -18.7,0 -33.9,4.6 -45.39,14 -11.51,9.4 -17.31,20.6 -17.31,33.7l-54.7 0.6 -0.6 -1.79c-1.39,-23 9.41,-44.1 32.31,-63.2 22.99,-19.2 52.6,-28.8 88.99,-28.8 35.9,0 64.81,9.2 86.71,27.4 21.9,18.3 32.8,44.6 32.8,79l0 152.6c0,11.4 0.6,22.3 1.7,32.8 1.2,10.6 3.4,20.9 6.5,31.1l-59.5 0zm-95.8 -42.2c20.9,0 39.8,-5.4 56.6,-16.11 16.8,-10.7 27.7,-23.1 32.8,-36.9l0 -51.6 -64.8 0c-23.2,0 -41.81,5.9 -55.8,17.6 -13.9,11.7 -20.9,25.5 -20.9,41.3 0,14.1 4.41,25.2 13.21,33.39 8.7,8.2 21.69,12.31 38.9,12.31zm501 -104.3c0,45.7 -10.9,82.6 -32.8,110.59 -21.9,28 -52.1,42 -90.5,42.1 -19.6,-0.1 -36.7,-3.3 -51.4,-9.9 -14.81,-6.5 -27.31,-16.3 -37.71,-29.4l0 155 -57.7 0 0 -438.91 44.2 0 9.1 41c10.4,-15.2 23.3,-26.8 38.7,-34.8 15.4,-8.1 33.39,-12.1 53.9,-12.1 39.3,0 69.8,15.6 91.5,46.8 21.8,31.11 32.7,72.3 32.7,123.5l0 6.11zm-57.7 -6.11c0,-36 -7.1,-65.5 -21.2,-88.7 -14.2,-23.11 -35,-34.7 -62.6,-34.7 -16.6,0 -30.8,3.8 -42.5,11.3 -11.7,7.5 -21.2,17.8 -28.4,30.9l0 153.2c7.2,13.1 16.7,23.3 28.4,30.6 11.7,7.41 26.1,11 43.1,11 27.31,0 48,-10 62.1,-30 14.1,-20 21.1,-45.8 21.1,-77.5l0 -6.11zm398.7 6.11c0,45.7 -10.9,82.6 -32.8,110.59 -21.9,28 -52.1,42 -90.5,42.1 -19.6,-0.1 -36.7,-3.3 -51.4,-9.9 -14.81,-6.5 -27.31,-16.3 -37.71,-29.4l0 155 -57.7 0 0 -438.91 44.2 0 9.1 41c10.4,-15.2 23.3,-26.8 38.7,-34.8 15.4,-8.1 33.39,-12.1 53.9,-12.1 39.3,0 69.8,15.6 91.5,46.8 21.8,31.11 32.7,72.3 32.7,123.5l0 6.11zm-57.7 -6.11c0,-36 -7.1,-65.5 -21.2,-88.7 -14.2,-23.11 -35,-34.7 -62.6,-34.7 -16.6,0 -30.8,3.8 -42.5,11.3 -11.7,7.5 -21.2,17.8 -28.4,30.9l0 153.2c7.2,13.1 16.7,23.3 28.4,30.6 11.7,7.41 26.1,11 43.1,11 27.31,0 48,-10 62.1,-30 14.1,-20 21.1,-45.8 21.1,-77.5l0 -6.11zm173.1 -208.6l-29.6 82.6 -28.4 0 0.3 -77.7 0 -70.29 57.71 0 0 65.4zm249.4 275.9c0,-12.7 -4.91,-22.99 -14.5,-31 -9.7,-8 -28,-15.1 -55,-21.1 -37.3,-8 -65.91,-19.2 -85.9,-33.7 -20.1,-14.5 -30.1,-33.8 -30.1,-58.01 0,-25.8 11,-47.89 33,-66.19 22,-18.4 50.39,-27.6 85.4,-27.6 35.9,0 65,9.81 87.3,29.3 22.3,19.59 32.9,42.3 31.9,68.3l-0.6 1.8 -55 0c0,-13.7 -6,-26.1 -18.1,-37.2 -12.01,-11.2 -27.2,-16.69 -45.5,-16.69 -20.3,0 -35.5,4.5 -45.6,13.7 -10,9.19 -15.1,20.09 -15.1,32.8 0,12.5 4.41,22.2 13.1,29 8.7,6.9 26.6,13.1 53.69,18.8 38.91,8.2 68.41,19.8 88.5,34.9 20.1,15 30.21,34.59 30.21,58.8 0,28.2 -11.4,51.1 -34.1,68.9 -22.8,17.8 -52.5,26.6 -89.3,26.7 -40.4,-0.1 -72.21,-10.3 -95.5,-30.8 -23.21,-20.49 -34.2,-44.4 -33.11,-71.8l0.6 -1.7 55.1 0c1,20.5 8.6,35.4 22.9,44.9 14.2,9.5 30.9,14.2 50,14.2 20.6,0 36.6,-4.3 48.2,-13 11.7,-8.7 17.5,-19.8 17.5,-33.3zm523.5 0c0,-12.7 -4.91,-22.99 -14.5,-31 -9.7,-8 -28,-15.1 -55,-21.1 -37.3,-8 -65.91,-19.2 -85.9,-33.7 -20.1,-14.5 -30.1,-33.8 -30.1,-58.01 0,-25.8 11,-47.89 33,-66.19 22,-18.4 50.39,-27.6 85.4,-27.6 35.9,0 65,9.81 87.3,29.3 22.3,19.59 32.9,42.3 31.9,68.3l-0.6 1.8 -55 0c0,-13.7 -6,-26.1 -18.1,-37.2 -12.01,-11.2 -27.2,-16.69 -45.5,-16.69 -20.3,0 -35.5,4.5 -45.6,13.7 -10,9.19 -15.1,20.09 -15.1,32.8 0,12.5 4.41,22.2 13.1,29 8.7,6.9 26.6,13.1 53.69,18.8 38.91,8.2 68.41,19.8 88.5,34.9 20.1,15 30.21,34.59 30.21,58.8 0,28.2 -11.4,51.1 -34.1,68.9 -22.8,17.8 -52.5,26.6 -89.3,26.7 -40.4,-0.1 -72.21,-10.3 -95.5,-30.8 -23.21,-20.49 -34.2,-44.4 -33.11,-71.8l0.6 -1.7 55.1 0c1,20.5 8.6,35.4 22.9,44.9 14.2,9.5 30.9,14.2 50,14.2 20.6,0 36.6,-4.3 48.2,-13 11.7,-8.7 17.5,-19.8 17.5,-33.3zm260.7 91.5c-45.5,-0.1 -81,-14.6 -106.4,-43.7 -25.49,-29.1 -38.29,-67.4 -38.29,-114.79l0 -12.9c0,-45.5 13.2,-83.2 39.4,-113 26.3,-29.81 58.4,-44.71 96.3,-44.71 42.3,0 74.1,13.2 95.3,39.6 21.2,26.4 31.8,61.4 31.8,105.2l0 30.39 -202.7 0 -0.9 1.51c0,31.8 7,57.7 21.1,77.5 14.1,19.81 35.5,29.7 64.4,29.7 19.6,0 36.7,-2.7 51.5,-8.3 14.7,-5.6 27.41,-13.3 37.9,-23l22.6 37.5c-11.4,10.9 -26.3,20.2 -44.9,27.7 -18.5,7.5 -40.9,11.2 -67.1,11.3zm-9 -283.6c-20.2,0 -36.8,7.7 -50,23.2 -13.2,15.6 -21.2,35.4 -24.19,59.7l0.6 1.4 143 0 0 -4.7c0,-23 -5.7,-42 -17,-57.1 -11.3,-14.99 -28.8,-22.49 -52.4,-22.49zm317.9 238.4c17.7,0 33.3,-5.9 46.6,-17.71 13.2,-11.79 19.9,-26.29 19.9,-43.5l52.1 0 0.9 1.8c0.8,27.3 -10.89,51.6 -35.2,72.8 -24.2,21.2 -52.3,31.69 -84.3,31.8 -44.6,-0.1 -78.9,-15.2 -103.2,-45.5 -24.19,-30.21 -36.29,-67.9 -36.29,-113l0 -12.41c0,-44.7 12.19,-82.2 36.5,-112.6 24.3,-30.39 58.6,-45.6 103,-45.6 35.3,0 64.3,11 86.8,32.9 22.6,21.8 33.5,48.7 32.7,80.5l-0.6 1.8 -52.4 0c0,-19.4 -6.3,-35.8 -18.9,-49.4 -12.59,-13.61 -28.5,-20.3 -47.6,-20.3 -28.3,0 -49,10.89 -62,32.89 -13,22 -19.5,48.6 -19.5,79.8l0 12.41c0,31.8 6.4,58.6 19.2,80.5 12.8,21.9 33.6,32.8 62.3,32.8zm389.4 -7.9c-10,17 -22.8,30.1 -38.4,39.3 -15.6,9.2 -33.7,13.7 -54.2,13.8 -34.6,-0.1 -61.5,-11.1 -80.91,-33.2 -19.3,-22 -29,-56.4 -29,-103.1l0 -186.9 57.7 0 0 187.5c0,33.79 5,56.99 15,69.7 9.9,12.7 25.5,19.1 46.6,19.1 20.5,0 37.4,-4.2 50.8,-12.5 13.39,-8.3 23.5,-20 30.3,-35.3l0 -228.5 57.7 0 0 317 -51.8 0 -3.8 -46.9zm289.7 -219.1l-29.6 -1.79c-15.2,0 -28.1,3.6 -38.5,10.89 -10.5,7.2 -18.5,17.31 -24.2,30.4l0 226.5 -57.7 0 0 -317 51.6 0 5.5 46.3c9,-16.4 20.09,-29.19 33.3,-38.4 13.2,-9.2 28.29,-13.8 45.5,-13.8 4.3,0 8.4,0.4 12.3,1.1 3.9,0.71 7.2,1.4 9.7,2.2l-7.9 53.6zm122.5 266l-57.7 0 0 -317 57.7 0 0 317zm0 -398.1l-57.7 0 0 -58.9 57.7 0 0 58.9zm169.1 4.6l0 76.5 60 0 0 42.8 -60 0 0 192.5c0,14.8 3,25.3 9.2,31.29 6.1,6.11 14.3,9.1 24.5,9.1 3.3,0 7,-0.4 11.1,-1.29 4.1,-0.9 7.5,-1.8 10.2,-2.81l7.99 39.5c-4.29,3.61 -10.7,6.4 -19.1,8.7 -8.4,2.2 -16.7,3.3 -24.9,3.4 -23.4,-0.1 -42.1,-7.1 -55.9,-21.3 -13.9,-14.1 -20.8,-36.4 -20.8,-66.59l0 -192.5 -50.4 0 0 -42.8 50.4 0 0 -76.5 57.7 0zm218.81 276l10.2 39.9 1.8 0 77.9 -239.4 64.2 0 -133.3 365.6c-8,21.3 -19.5,39.9 -34.5,55.7 -14.9,15.8 -35.1,23.7 -60.51,23.7 -4.6,0 -10.6,-0.5 -17.8,-1.6 -7.2,-1.11 -12.8,-2.1 -16.7,-3.1l5.8 -45.39c-1.1,-0.2 2.3,0 10.4,0.6 8.1,0.6 13.3,0.9 15.4,0.9 12.31,0 22.4,-5.5 30.21,-16.4 7.8,-10.89 14.4,-23.1 19.59,-36.29l13.8 -33.2 -117.8 -310.5 64.49 0 66.81 199.5zm236.5 117.5l-57.71 0 0 -59.2 57.71 0 0 59.2zm526.6 -80l1.8 0 136.2 -346.6 71.8 0 0 426.6 -57.7 0 0 -319.6 -1.8 -0.3 -129.2 319.9 -40.1 0 -133 -330.51 -1.8 0.31 0 330.2 -57.7 0 0 -426.6 75.9 0 135.6 346.6zm288.31 -81.41c0,-46.9 12.7,-85.5 38.1,-115.9 25.4,-30.39 59.9,-45.6 103.4,-45.6 44,0 78.7,15.21 104.2,45.5 25.5,30.2 38.2,68.9 38.2,115.99l0 6.4c0,47.3 -12.7,86 -38.1,116 -25.4,30.1 -59.9,45.1 -103.7,45.2 -43.7,-0.1 -78.41,-15.1 -103.81,-45.3 -25.49,-30.2 -38.29,-68.8 -38.29,-115.9l0 -6.4zm57.7 6.4c0,33.6 7.1,61.3 21.3,83.2 14.1,21.9 35.2,32.8 63.1,32.8 27.6,0 48.4,-10.9 62.7,-32.8 14.3,-21.9 21.4,-49.6 21.4,-83.2l0 -6.4c0,-33.2 -7.19,-60.9 -21.5,-82.9 -14.4,-22.1 -35.4,-33.1 -63.2,-33.1 -27.5,0 -48.4,11 -62.5,33.1 -14.2,22 -21.3,49.7 -21.3,82.9l0 6.4zm348.4 -162l4.1 47.2c10.5,-16.8 23.7,-29.9 39.7,-39.1 15.89,-9.29 34,-14 54.3,-14 34.2,0 60.6,10.1 79.4,30.1 18.7,20 28.1,50.9 28.1,92.7l0 200.1 -57.7 0 0 -198.9c0,-28 -5.5,-47.8 -16.5,-59.5 -11.11,-11.7 -27.9,-17.6 -50.6,-17.6 -17.81,0 -32.81,3.61 -45.21,10.7 -12.5,7.1 -22.3,17.2 -29.5,30l0 235.3 -57.7 0 0 -317 51.6 0zm351.8 317l-57.7 0 0 -317 57.7 0 0 317zm0 -398.1l-57.7 0 0 -58.9 57.7 0 0 58.9zm169.1 4.6l0 76.5 60 0 0 42.8 -60 0 0 192.5c0,14.8 3,25.3 9.2,31.29 6.1,6.11 14.3,9.1 24.5,9.1 3.3,0 7,-0.4 11.1,-1.29 4.1,-0.9 7.5,-1.8 10.2,-2.81l7.99 39.5c-4.29,3.61 -10.7,6.4 -19.1,8.7 -8.4,2.2 -16.7,3.3 -24.9,3.4 -23.4,-0.1 -42.1,-7.1 -55.9,-21.3 -13.9,-14.1 -20.8,-36.4 -20.8,-66.59l0 -192.5 -50.4 0 0 -42.8 50.4 0 0 -76.5 57.7 0zm108.31 232.1c0,-46.9 12.7,-85.5 38.1,-115.9 25.4,-30.39 59.9,-45.6 103.4,-45.6 44,0 78.7,15.21 104.2,45.5 25.5,30.2 38.2,68.9 38.2,115.99l0 6.4c0,47.3 -12.7,86 -38.1,116 -25.4,30.1 -59.9,45.1 -103.7,45.2 -43.7,-0.1 -78.41,-15.1 -103.81,-45.3 -25.49,-30.2 -38.29,-68.8 -38.29,-115.9l0 -6.4zm57.7 6.4c0,33.6 7.1,61.3 21.3,83.2 14.1,21.9 35.2,32.8 63.1,32.8 27.6,0 48.4,-10.9 62.7,-32.8 14.3,-21.9 21.4,-49.6 21.4,-83.2l0 -6.4c0,-33.2 -7.19,-60.9 -21.5,-82.9 -14.4,-22.1 -35.4,-33.1 -63.2,-33.1 -27.5,0 -48.4,11 -62.5,33.1 -14.2,22 -21.3,49.7 -21.3,82.9l0 6.4zm446.8 -111l-29.6 -1.79c-15.2,0 -28.1,3.6 -38.5,10.89 -10.5,7.2 -18.5,17.31 -24.2,30.4l0 226.5 -57.7 0 0 -317 51.6 0 5.5 46.3c9,-16.4 20.09,-29.19 33.3,-38.4 13.2,-9.2 28.29,-13.8 45.5,-13.8 4.3,0 8.4,0.4 12.3,1.1 3.9,0.71 7.2,1.4 9.7,2.2l-7.9 53.6zm464.6 266c-1.9,-9.6 -3.39,-18 -4.5,-25.3 -1.1,-7.4 -1.7,-14.7 -1.9,-22.2 -10.8,15.3 -24.81,28 -42.1,38.3 -17.2,10.2 -35.9,15.3 -55.8,15.4 -33,-0.1 -58.1,-8.5 -75.4,-25.4 -17.31,-16.9 -25.9,-40.2 -25.9,-69.9 0,-30.2 12.2,-53.9 36.7,-71 24.5,-17.1 57.8,-25.6 99.8,-25.6l62.7 0 0 -31.41c0,-18.5 -5.71,-33.2 -17,-44.09 -11.3,-10.8 -27.4,-16.2 -48.11,-16.2 -18.7,0 -33.9,4.6 -45.39,14 -11.51,9.4 -17.31,20.6 -17.31,33.7l-54.7 0.6 -0.6 -1.79c-1.39,-23 9.41,-44.1 32.31,-63.2 22.99,-19.2 52.6,-28.8 88.99,-28.8 35.9,0 64.81,9.2 86.71,27.4 21.9,18.3 32.8,44.6 32.8,79l0 152.6c0,11.4 0.6,22.3 1.7,32.8 1.2,10.6 3.4,20.9 6.5,31.1l-59.5 0zm-95.8 -42.2c20.9,0 39.8,-5.4 56.6,-16.11 16.8,-10.7 27.7,-23.1 32.8,-36.9l0 -51.6 -64.8 0c-23.2,0 -41.81,5.9 -55.8,17.6 -13.9,11.7 -20.9,25.5 -20.9,41.3 0,14.1 4.41,25.2 13.21,33.39 8.7,8.2 21.69,12.31 38.9,12.31zm356.9 3.2c17.7,0 33.3,-5.9 46.6,-17.71 13.2,-11.79 19.9,-26.29 19.9,-43.5l52.1 0 0.9 1.8c0.8,27.3 -10.89,51.6 -35.2,72.8 -24.2,21.2 -52.3,31.69 -84.3,31.8 -44.6,-0.1 -78.9,-15.2 -103.2,-45.5 -24.19,-30.21 -36.29,-67.9 -36.29,-113l0 -12.41c0,-44.7 12.19,-82.2 36.5,-112.6 24.3,-30.39 58.6,-45.6 103,-45.6 35.3,0 64.3,11 86.8,32.9 22.6,21.8 33.5,48.7 32.7,80.5l-0.6 1.8 -52.4 0c0,-19.4 -6.3,-35.8 -18.9,-49.4 -12.59,-13.61 -28.5,-20.3 -47.6,-20.3 -28.3,0 -49,10.89 -62,32.89 -13,22 -19.5,48.6 -19.5,79.8l0 12.41c0,31.8 6.4,58.6 19.2,80.5 12.8,21.9 33.6,32.8 62.3,32.8zm268.4 -354.5l0 76.5 60 0 0 42.8 -60 0 0 192.5c0,14.8 3,25.3 9.2,31.29 6.1,6.11 14.3,9.1 24.5,9.1 3.3,0 7,-0.4 11.1,-1.29 4.1,-0.9 7.5,-1.8 10.2,-2.81l7.99 39.5c-4.29,3.61 -10.7,6.4 -19.1,8.7 -8.4,2.2 -16.7,3.3 -24.9,3.4 -23.4,-0.1 -42.1,-7.1 -55.9,-21.3 -13.9,-14.1 -20.8,-36.4 -20.8,-66.59l0 -192.5 -50.4 0 0 -42.8 50.4 0 0 -76.5 57.7 0zm184.2 393.5l-57.7 0 0 -317 57.7 0 0 317zm0 -398.1l-57.7 0 0 -58.9 57.7 0 0 58.9zm194.6 304.6l4.9 22.3 1.79 0 5.6 -22.3 72.9 -223.5 58.91 0 -116.61 317 -43.69 0 -118 -317 59.2 0 75 223.5zm323.4 99.7c-45.5,-0.1 -81,-14.6 -106.4,-43.7 -25.49,-29.1 -38.29,-67.4 -38.29,-114.79l0 -12.9c0,-45.5 13.2,-83.2 39.4,-113 26.3,-29.81 58.4,-44.71 96.3,-44.71 42.3,0 74.1,13.2 95.3,39.6 21.2,26.4 31.8,61.4 31.8,105.2l0 30.39 -202.7 0 -0.9 1.51c0,31.8 7,57.7 21.1,77.5 14.1,19.81 35.5,29.7 64.4,29.7 19.6,0 36.7,-2.7 51.5,-8.3 14.7,-5.6 27.41,-13.3 37.9,-23l22.6 37.5c-11.4,10.9 -26.3,20.2 -44.9,27.7 -18.5,7.5 -40.9,11.2 -67.1,11.3zm-9 -283.6c-20.2,0 -36.8,7.7 -50,23.2 -13.2,15.6 -21.2,35.4 -24.19,59.7l0.6 1.4 143 0 0 -4.7c0,-23 -5.7,-42 -17,-57.1 -11.3,-14.99 -28.8,-22.49 -52.4,-22.49z"/>
   <path class="fil1" d="M6092.18 6449.19l0 76.5 60 0 0 42.8 -60 0 0 192.5c0,14.8 3,25.3 9.2,31.29 6.1,6.11 14.3,9.1 24.5,9.1 3.3,0 7,-0.4 11.1,-1.29 4.1,-0.9 7.5,-1.8 10.2,-2.81l7.99 39.5c-4.29,3.61 -10.7,6.4 -19.1,8.7 -8.4,2.2 -16.7,3.3 -24.9,3.4 -23.4,-0.1 -42.1,-7.1 -55.9,-21.3 -13.9,-14.1 -20.8,-36.4 -20.8,-66.59l0 -192.5 -50.4 0 0 -42.8 50.4 0 0 -76.5 57.7 0zm179.5 119c10.9,-15.21 24.41,-27.1 40.3,-35.61 15.9,-8.5 33.51,-12.8 52.9,-12.8 33.8,0 60.1,10.2 78.9,30.5 18.9,20.3 28.3,51.6 28.3,93.8l0 198.6 -57.7 0 0 -199.2c0,-26.2 -5.6,-45.5 -16.9,-58 -11.21,-12.5 -27.9,-18.8 -50.21,-18.8 -17.19,0 -32.09,3.4 -44.8,10.1 -12.7,6.8 -22.99,16.2 -30.8,28.3l0 237.6 -57.7 0 0 -457 57.7 0 0 182.5zm433.3 8.5l-29.6 -1.79c-15.2,0 -28.1,3.6 -38.5,10.89 -10.5,7.2 -18.5,17.31 -24.2,30.4l0 226.5 -57.7 0 0 -317 51.6 0 5.5 46.3c9,-16.4 20.09,-29.19 33.3,-38.4 13.2,-9.2 28.29,-13.8 45.5,-13.8 4.3,0 8.4,0.4 12.3,1.1 3.9,0.71 7.2,1.4 9.7,2.2l-7.9 53.6zm185.69 272.2c-45.5,-0.1 -81,-14.6 -106.4,-43.7 -25.49,-29.1 -38.29,-67.4 -38.29,-114.79l0 -12.9c0,-45.5 13.2,-83.2 39.4,-113 26.3,-29.81 58.4,-44.71 96.3,-44.71 42.3,0 74.1,13.2 95.3,39.6 21.2,26.4 31.8,61.4 31.8,105.2l0 30.39 -202.7 0 -0.9 1.51c0,31.8 7,57.7 21.1,77.5 14.1,19.81 35.5,29.7 64.4,29.7 19.6,0 36.7,-2.7 51.5,-8.3 14.7,-5.6 27.41,-13.3 37.9,-23l22.6 37.5c-11.4,10.9 -26.3,20.2 -44.9,27.7 -18.5,7.5 -40.9,11.2 -67.1,11.3zm-9 -283.6c-20.2,0 -36.8,7.7 -50,23.2 -13.2,15.6 -21.2,35.4 -24.19,59.7l0.6 1.4 143 0 0 -4.7c0,-23 -5.7,-42 -17,-57.1 -11.3,-14.99 -28.8,-22.49 -52.4,-22.49zm386.7 277.4c-1.9,-9.6 -3.39,-18 -4.5,-25.3 -1.1,-7.4 -1.7,-14.7 -1.9,-22.2 -10.8,15.3 -24.81,28 -42.1,38.3 -17.2,10.2 -35.9,15.3 -55.8,15.4 -33,-0.1 -58.1,-8.5 -75.4,-25.4 -17.31,-16.9 -25.9,-40.2 -25.9,-69.9 0,-30.2 12.2,-53.9 36.7,-71 24.5,-17.1 57.8,-25.6 99.8,-25.6l62.7 0 0 -31.41c0,-18.5 -5.71,-33.2 -17,-44.09 -11.3,-10.8 -27.4,-16.2 -48.11,-16.2 -18.7,0 -33.9,4.6 -45.39,14 -11.51,9.4 -17.31,20.6 -17.31,33.7l-54.7 0.6 -0.6 -1.79c-1.39,-23 9.41,-44.1 32.31,-63.2 22.99,-19.2 52.6,-28.8 88.99,-28.8 35.9,0 64.81,9.2 86.71,27.4 21.9,18.3 32.8,44.6 32.8,79l0 152.6c0,11.4 0.6,22.3 1.7,32.8 1.2,10.6 3.4,20.9 6.5,31.1l-59.5 0zm-95.8 -42.2c20.9,0 39.8,-5.4 56.6,-16.11 16.8,-10.7 27.7,-23.1 32.8,-36.9l0 -51.6 -64.8 0c-23.2,0 -41.81,5.9 -55.8,17.6 -13.9,11.7 -20.9,25.5 -20.9,41.3 0,14.1 4.41,25.2 13.21,33.39 8.7,8.2 21.69,12.31 38.9,12.31zm311.2 -351.31l0 76.5 60 0 0 42.8 -60 0 0 192.5c0,14.8 3,25.3 9.2,31.29 6.1,6.11 14.3,9.1 24.5,9.1 3.3,0 7,-0.4 11.1,-1.29 4.1,-0.9 7.5,-1.8 10.2,-2.81l7.99 39.5c-4.29,3.61 -10.7,6.4 -19.1,8.7 -8.4,2.2 -16.7,3.3 -24.9,3.4 -23.4,-0.1 -42.1,-7.1 -55.9,-21.3 -13.9,-14.1 -20.8,-36.4 -20.8,-66.59l0 -192.5 -50.4 0 0 -42.8 50.4 0 0 -76.5 57.7 0zm306.11 308.2c0,-12.7 -4.91,-22.99 -14.5,-31 -9.7,-8 -28,-15.1 -55,-21.1 -37.3,-8 -65.91,-19.2 -85.9,-33.7 -20.1,-14.5 -30.1,-33.8 -30.1,-58.01 0,-25.8 11,-47.89 33,-66.19 22,-18.4 50.39,-27.6 85.4,-27.6 35.9,0 65,9.81 87.3,29.3 22.3,19.59 32.9,42.3 31.9,68.3l-0.6 1.8 -55 0c0,-13.7 -6,-26.1 -18.1,-37.2 -12.01,-11.2 -27.2,-16.69 -45.5,-16.69 -20.3,0 -35.5,4.5 -45.6,13.7 -10,9.19 -15.1,20.09 -15.1,32.8 0,12.5 4.41,22.2 13.1,29 8.7,6.9 26.6,13.1 53.69,18.8 38.91,8.2 68.41,19.8 88.5,34.9 20.1,15 30.21,34.59 30.21,58.8 0,28.2 -11.4,51.1 -34.1,68.9 -22.8,17.8 -52.5,26.6 -89.3,26.7 -40.4,-0.1 -72.21,-10.3 -95.5,-30.8 -23.21,-20.49 -34.2,-44.4 -33.11,-71.8l0.6 -1.7 55.1 0c1,20.5 8.6,35.4 22.9,44.9 14.2,9.5 30.9,14.2 50,14.2 20.6,0 36.6,-4.3 48.2,-13 11.7,-8.7 17.5,-19.8 17.5,-33.3zm179.9 71.2l-44 89.7 -34.2 0 20.5 -92.6 0 -47.7 57.7 0 0 50.6zm268.3 -379.4l0 76.5 60 0 0 42.8 -60 0 0 192.5c0,14.8 3,25.3 9.2,31.29 6.1,6.11 14.3,9.1 24.5,9.1 3.3,0 7,-0.4 11.1,-1.29 4.1,-0.9 7.5,-1.8 10.2,-2.81l7.99 39.5c-4.29,3.61 -10.7,6.4 -19.1,8.7 -8.4,2.2 -16.7,3.3 -24.9,3.4 -23.4,-0.1 -42.1,-7.1 -55.9,-21.3 -13.9,-14.1 -20.8,-36.4 -20.8,-66.59l0 -192.5 -50.4 0 0 -42.8 50.4 0 0 -76.5 57.7 0zm271.8 127.5l-29.6 -1.79c-15.2,0 -28.1,3.6 -38.5,10.89 -10.5,7.2 -18.5,17.31 -24.2,30.4l0 226.5 -57.7 0 0 -317 51.6 0 5.5 46.3c9,-16.4 20.09,-29.19 33.3,-38.4 13.2,-9.2 28.29,-13.8 45.5,-13.8 4.3,0 8.4,0.4 12.3,1.1 3.9,0.71 7.2,1.4 9.7,2.2l-7.9 53.6zm254.9 266c-1.9,-9.6 -3.39,-18 -4.5,-25.3 -1.1,-7.4 -1.7,-14.7 -1.9,-22.2 -10.8,15.3 -24.81,28 -42.1,38.3 -17.2,10.2 -35.9,15.3 -55.8,15.4 -33,-0.1 -58.1,-8.5 -75.4,-25.4 -17.31,-16.9 -25.9,-40.2 -25.9,-69.9 0,-30.2 12.2,-53.9 36.7,-71 24.5,-17.1 57.8,-25.6 99.8,-25.6l62.7 0 0 -31.41c0,-18.5 -5.71,-33.2 -17,-44.09 -11.3,-10.8 -27.4,-16.2 -48.11,-16.2 -18.7,0 -33.9,4.6 -45.39,14 -11.51,9.4 -17.31,20.6 -17.31,33.7l-54.7 0.6 -0.6 -1.79c-1.39,-23 9.41,-44.1 32.31,-63.2 22.99,-19.2 52.6,-28.8 88.99,-28.8 35.9,0 64.81,9.2 86.71,27.4 21.9,18.3 32.8,44.6 32.8,79l0 152.6c0,11.4 0.6,22.3 1.7,32.8 1.2,10.6 3.4,20.9 6.5,31.1l-59.5 0zm-95.8 -42.2c20.9,0 39.8,-5.4 56.6,-16.11 16.8,-10.7 27.7,-23.1 32.8,-36.9l0 -51.6 -64.8 0c-23.2,0 -41.81,5.9 -55.8,17.6 -13.9,11.7 -20.9,25.5 -20.9,41.3 0,14.1 4.41,25.2 13.21,33.39 8.7,8.2 21.69,12.31 38.9,12.31zm356.9 3.2c17.7,0 33.3,-5.9 46.6,-17.71 13.2,-11.79 19.9,-26.29 19.9,-43.5l52.1 0 0.9 1.8c0.8,27.3 -10.89,51.6 -35.2,72.8 -24.2,21.2 -52.3,31.69 -84.3,31.8 -44.6,-0.1 -78.9,-15.2 -103.2,-45.5 -24.19,-30.21 -36.29,-67.9 -36.29,-113l0 -12.41c0,-44.7 12.19,-82.2 36.5,-112.6 24.3,-30.39 58.6,-45.6 103,-45.6 35.3,0 64.3,11 86.8,32.9 22.6,21.8 33.5,48.7 32.7,80.5l-0.6 1.8 -52.4 0c0,-19.4 -6.3,-35.8 -18.9,-49.4 -12.59,-13.61 -28.5,-20.3 -47.6,-20.3 -28.3,0 -49,10.89 -62,32.89 -13,22 -19.5,48.6 -19.5,79.8l0 12.41c0,31.8 6.4,58.6 19.2,80.5 12.8,21.9 33.6,32.8 62.3,32.8zm275.7 -107.2l-29.59 0 0 146.2 -57.71 0 0 -457 57.71 0 0 264.8 29 0 95.2 -124.8 69.2 0 -115.2 146.2 125.1 170.8 -68.2 0 -105.5 -146.2zm524.31 60.9c0,-12.7 -4.91,-22.99 -14.5,-31 -9.7,-8 -28,-15.1 -55,-21.1 -37.3,-8 -65.91,-19.2 -85.9,-33.7 -20.1,-14.5 -30.1,-33.8 -30.1,-58.01 0,-25.8 11,-47.89 33,-66.19 22,-18.4 50.39,-27.6 85.4,-27.6 35.9,0 65,9.81 87.3,29.3 22.3,19.59 32.9,42.3 31.9,68.3l-0.6 1.8 -55 0c0,-13.7 -6,-26.1 -18.1,-37.2 -12.01,-11.2 -27.2,-16.69 -45.5,-16.69 -20.3,0 -35.5,4.5 -45.6,13.7 -10,9.19 -15.1,20.09 -15.1,32.8 0,12.5 4.41,22.2 13.1,29 8.7,6.9 26.6,13.1 53.69,18.8 38.91,8.2 68.41,19.8 88.5,34.9 20.1,15 30.21,34.59 30.21,58.8 0,28.2 -11.4,51.1 -34.1,68.9 -22.8,17.8 -52.5,26.6 -89.3,26.7 -40.4,-0.1 -72.21,-10.3 -95.5,-30.8 -23.21,-20.49 -34.2,-44.4 -33.11,-71.8l0.6 -1.7 55.1 0c1,20.5 8.6,35.4 22.9,44.9 14.2,9.5 30.9,14.2 50,14.2 20.6,0 36.6,-4.3 48.2,-13 11.7,-8.7 17.5,-19.8 17.5,-33.3zm260.7 91.5c-45.5,-0.1 -81,-14.6 -106.4,-43.7 -25.49,-29.1 -38.29,-67.4 -38.29,-114.79l0 -12.9c0,-45.5 13.2,-83.2 39.4,-113 26.3,-29.81 58.4,-44.71 96.3,-44.71 42.3,0 74.1,13.2 95.3,39.6 21.2,26.4 31.8,61.4 31.8,105.2l0 30.39 -202.7 0 -0.9 1.51c0,31.8 7,57.7 21.1,77.5 14.1,19.81 35.5,29.7 64.4,29.7 19.6,0 36.7,-2.7 51.5,-8.3 14.7,-5.6 27.41,-13.3 37.9,-23l22.6 37.5c-11.4,10.9 -26.3,20.2 -44.9,27.7 -18.5,7.5 -40.9,11.2 -67.1,11.3zm-9 -283.6c-20.2,0 -36.8,7.7 -50,23.2 -13.2,15.6 -21.2,35.4 -24.19,59.7l0.6 1.4 143 0 0 -4.7c0,-23 -5.7,-42 -17,-57.1 -11.3,-14.99 -28.8,-22.49 -52.4,-22.49zm317.9 238.4c17.7,0 33.3,-5.9 46.6,-17.71 13.2,-11.79 19.9,-26.29 19.9,-43.5l52.1 0 0.9 1.8c0.8,27.3 -10.89,51.6 -35.2,72.8 -24.2,21.2 -52.3,31.69 -84.3,31.8 -44.6,-0.1 -78.9,-15.2 -103.2,-45.5 -24.19,-30.21 -36.29,-67.9 -36.29,-113l0 -12.41c0,-44.7 12.19,-82.2 36.5,-112.6 24.3,-30.39 58.6,-45.6 103,-45.6 35.3,0 64.3,11 86.8,32.9 22.6,21.8 33.5,48.7 32.7,80.5l-0.6 1.8 -52.4 0c0,-19.4 -6.3,-35.8 -18.9,-49.4 -12.59,-13.61 -28.5,-20.3 -47.6,-20.3 -28.3,0 -49,10.89 -62,32.89 -13,22 -19.5,48.6 -19.5,79.8l0 12.41c0,31.8 6.4,58.6 19.2,80.5 12.8,21.9 33.6,32.8 62.3,32.8zm389.4 -7.9c-10,17 -22.8,30.1 -38.4,39.3 -15.6,9.2 -33.7,13.7 -54.2,13.8 -34.6,-0.1 -61.5,-11.1 -80.91,-33.2 -19.3,-22 -29,-56.4 -29,-103.1l0 -186.9 57.7 0 0 187.5c0,33.79 5,56.99 15,69.7 9.9,12.7 25.5,19.1 46.6,19.1 20.5,0 37.4,-4.2 50.8,-12.5 13.39,-8.3 23.5,-20 30.3,-35.3l0 -228.5 57.7 0 0 317 -51.8 0 -3.8 -46.9zm289.7 -219.1l-29.6 -1.79c-15.2,0 -28.1,3.6 -38.5,10.89 -10.5,7.2 -18.5,17.31 -24.2,30.4l0 226.5 -57.7 0 0 -317 51.6 0 5.5 46.3c9,-16.4 20.09,-29.19 33.3,-38.4 13.2,-9.2 28.29,-13.8 45.5,-13.8 4.3,0 8.4,0.4 12.3,1.1 3.9,0.71 7.2,1.4 9.7,2.2l-7.9 53.6zm122.5 266l-57.7 0 0 -317 57.7 0 0 317zm0 -398.1l-57.7 0 0 -58.9 57.7 0 0 58.9zm169.1 4.6l0 76.5 60 0 0 42.8 -60 0 0 192.5c0,14.8 3,25.3 9.2,31.29 6.1,6.11 14.3,9.1 24.5,9.1 3.3,0 7,-0.4 11.1,-1.29 4.1,-0.9 7.5,-1.8 10.2,-2.81l7.99 39.5c-4.29,3.61 -10.7,6.4 -19.1,8.7 -8.4,2.2 -16.7,3.3 -24.9,3.4 -23.4,-0.1 -42.1,-7.1 -55.9,-21.3 -13.9,-14.1 -20.8,-36.4 -20.8,-66.59l0 -192.5 -50.4 0 0 -42.8 50.4 0 0 -76.5 57.7 0zm218.81 276l10.2 39.9 1.8 0 77.9 -239.4 64.2 0 -133.3 365.6c-8,21.3 -19.5,39.9 -34.5,55.7 -14.9,15.8 -35.1,23.7 -60.51,23.7 -4.6,0 -10.6,-0.5 -17.8,-1.6 -7.2,-1.11 -12.8,-2.1 -16.7,-3.1l5.8 -45.39c-1.1,-0.2 2.3,0 10.4,0.6 8.1,0.6 13.3,0.9 15.4,0.9 12.31,0 22.4,-5.5 30.21,-16.4 7.8,-10.89 14.4,-23.1 19.59,-36.29l13.8 -33.2 -117.8 -310.5 64.49 0 66.81 199.5zm594.9 -29c0,45.7 -10.9,82.6 -32.8,110.59 -21.9,28 -52.1,42 -90.5,42.1 -19.6,-0.1 -36.7,-3.3 -51.4,-9.9 -14.81,-6.5 -27.31,-16.3 -37.71,-29.4l0 155 -57.7 0 0 -438.91 44.2 0 9.1 41c10.4,-15.2 23.3,-26.8 38.7,-34.8 15.4,-8.1 33.39,-12.1 53.9,-12.1 39.3,0 69.8,15.6 91.5,46.8 21.8,31.11 32.7,72.3 32.7,123.5l0 6.11zm-57.7 -6.11c0,-36 -7.1,-65.5 -21.2,-88.7 -14.2,-23.11 -35,-34.7 -62.6,-34.7 -16.6,0 -30.8,3.8 -42.5,11.3 -11.7,7.5 -21.2,17.8 -28.4,30.9l0 153.2c7.2,13.1 16.7,23.3 28.4,30.6 11.7,7.41 26.1,11 43.1,11 27.31,0 48,-10 62.1,-30 14.1,-20 21.1,-45.8 21.1,-77.5l0 -6.11zm259.8 158.8c-45.5,-0.1 -81,-14.6 -106.4,-43.7 -25.49,-29.1 -38.29,-67.4 -38.29,-114.79l0 -12.9c0,-45.5 13.2,-83.2 39.4,-113 26.3,-29.81 58.4,-44.71 96.3,-44.71 42.3,0 74.1,13.2 95.3,39.6 21.2,26.4 31.8,61.4 31.8,105.2l0 30.39 -202.7 0 -0.9 1.51c0,31.8 7,57.7 21.1,77.5 14.1,19.81 35.5,29.7 64.4,29.7 19.6,0 36.7,-2.7 51.5,-8.3 14.7,-5.6 27.41,-13.3 37.9,-23l22.6 37.5c-11.4,10.9 -26.3,20.2 -44.9,27.7 -18.5,7.5 -40.9,11.2 -67.1,11.3zm-9 -283.6c-20.2,0 -36.8,7.7 -50,23.2 -13.2,15.6 -21.2,35.4 -24.19,59.7l0.6 1.4 143 0 0 -4.7c0,-23 -5.7,-42 -17,-57.1 -11.3,-14.99 -28.8,-22.49 -52.4,-22.49zm341.9 11.4l-29.6 -1.79c-15.2,0 -28.1,3.6 -38.5,10.89 -10.5,7.2 -18.5,17.31 -24.2,30.4l0 226.5 -57.7 0 0 -317 51.6 0 5.5 46.3c9,-16.4 20.09,-29.19 33.3,-38.4 13.2,-9.2 28.29,-13.8 45.5,-13.8 4.3,0 8.4,0.4 12.3,1.1 3.9,0.71 7.2,1.4 9.7,2.2l-7.9 53.6zm88.49 266l0 -274.2 -49.49 0 0 -42.8 49.49 0 0 -40.1c0,-33.79 8.9,-59.89 26.51,-78.4 17.7,-18.5 42.4,-27.7 74,-27.7 6.69,0 13.3,0.6 20.09,1.6 6.7,1.1 14.2,2.6 22.4,4.6l-7 43.9c-3.6,-0.8 -7.8,-1.5 -12.8,-2 -5,-0.6 -10.2,-0.9 -15.7,-0.9 -16.8,0 -29.3,5 -37.5,15.1 -8.2,10 -12.3,24.6 -12.3,43.8l0 40.1 57.5 0 0 42.8 -57.5 0 0 274.2 -57.71 0zm160.01 -161.4c0,-46.9 12.7,-85.5 38.1,-115.9 25.4,-30.39 59.9,-45.6 103.4,-45.6 44,0 78.7,15.21 104.2,45.5 25.5,30.2 38.2,68.9 38.2,115.99l0 6.4c0,47.3 -12.7,86 -38.1,116 -25.4,30.1 -59.9,45.1 -103.7,45.2 -43.7,-0.1 -78.41,-15.1 -103.81,-45.3 -25.49,-30.2 -38.29,-68.8 -38.29,-115.9l0 -6.4zm57.7 6.4c0,33.6 7.1,61.3 21.3,83.2 14.1,21.9 35.2,32.8 63.1,32.8 27.6,0 48.4,-10.9 62.7,-32.8 14.3,-21.9 21.4,-49.6 21.4,-83.2l0 -6.4c0,-33.2 -7.19,-60.9 -21.5,-82.9 -14.4,-22.1 -35.4,-33.1 -63.2,-33.1 -27.5,0 -48.4,11 -62.5,33.1 -14.2,22 -21.3,49.7 -21.3,82.9l0 6.4zm446.8 -111l-29.6 -1.79c-15.2,0 -28.1,3.6 -38.5,10.89 -10.5,7.2 -18.5,17.31 -24.2,30.4l0 226.5 -57.7 0 0 -317 51.6 0 5.5 46.3c9,-16.4 20.09,-29.19 33.3,-38.4 13.2,-9.2 28.29,-13.8 45.5,-13.8 4.3,0 8.4,0.4 12.3,1.1 3.9,0.71 7.2,1.4 9.7,2.2l-7.9 53.6zm111.7 -51l4.1 41.6c10.3,-15 23.4,-26.7 39.4,-35 15.9,-8.3 34.4,-12.5 55.51,-12.5 21.1,0 39.19,4.9 54.3,14.7 15.2,9.8 26.5,24.4 34.2,43.9 10.09,-18.1 23.3,-32.4 39.7,-42.9 16.3,-10.4 35.4,-15.7 57.21,-15.7 32.3,0 57.7,11.1 76.49,33.3 18.7,22.2 28.11,55.5 28.11,100l0 189.6 -57.7 0 0 -190.1c0,-31.3 -5.4,-53.4 -16.11,-66.41 -10.7,-12.99 -26.8,-19.5 -48.1,-19.5 -19.7,0 -35.6,6.91 -47.9,20.5 -12.19,13.7 -19.3,31 -21.5,51.9l0 2.3 0 201.31 -58 0 0 -190.1c0,-29.7 -5.5,-51.51 -16.51,-65.21 -11.1,-13.79 -27,-20.7 -47.7,-20.7 -17.5,0 -32,3.61 -43.3,10.9 -11.29,7.2 -19.99,17.3 -26.1,30.4l0 234.7 -57.7 0 0 -317 51.6 0zm667.6 317c-1.9,-9.6 -3.39,-18 -4.5,-25.3 -1.1,-7.4 -1.7,-14.7 -1.9,-22.2 -10.8,15.3 -24.81,28 -42.1,38.3 -17.2,10.2 -35.9,15.3 -55.8,15.4 -33,-0.1 -58.1,-8.5 -75.4,-25.4 -17.31,-16.9 -25.9,-40.2 -25.9,-69.9 0,-30.2 12.2,-53.9 36.7,-71 24.5,-17.1 57.8,-25.6 99.8,-25.6l62.7 0 0 -31.41c0,-18.5 -5.71,-33.2 -17,-44.09 -11.3,-10.8 -27.4,-16.2 -48.11,-16.2 -18.7,0 -33.9,4.6 -45.39,14 -11.51,9.4 -17.31,20.6 -17.31,33.7l-54.7 0.6 -0.6 -1.79c-1.39,-23 9.41,-44.1 32.31,-63.2 22.99,-19.2 52.6,-28.8 88.99,-28.8 35.9,0 64.81,9.2 86.71,27.4 21.9,18.3 32.8,44.6 32.8,79l0 152.6c0,11.4 0.6,22.3 1.7,32.8 1.2,10.6 3.4,20.9 6.5,31.1l-59.5 0zm-95.8 -42.2c20.9,0 39.8,-5.4 56.6,-16.11 16.8,-10.7 27.7,-23.1 32.8,-36.9l0 -51.6 -64.8 0c-23.2,0 -41.81,5.9 -55.8,17.6 -13.9,11.7 -20.9,25.5 -20.9,41.3 0,14.1 4.41,25.2 13.21,33.39 8.7,8.2 21.69,12.31 38.9,12.31zm282.5 -274.8l4.1 47.2c10.5,-16.8 23.7,-29.9 39.7,-39.1 15.89,-9.29 34,-14 54.3,-14 34.2,0 60.6,10.1 79.4,30.1 18.7,20 28.1,50.9 28.1,92.7l0 200.1 -57.7 0 0 -198.9c0,-28 -5.5,-47.8 -16.5,-59.5 -11.11,-11.7 -27.9,-17.6 -50.6,-17.6 -17.81,0 -32.81,3.61 -45.21,10.7 -12.5,7.1 -22.3,17.2 -29.5,30l0 235.3 -57.7 0 0 -317 51.6 0zm415.4 278c17.7,0 33.3,-5.9 46.6,-17.71 13.2,-11.79 19.9,-26.29 19.9,-43.5l52.1 0 0.9 1.8c0.8,27.3 -10.89,51.6 -35.2,72.8 -24.2,21.2 -52.3,31.69 -84.3,31.8 -44.6,-0.1 -78.9,-15.2 -103.2,-45.5 -24.19,-30.21 -36.29,-67.9 -36.29,-113l0 -12.41c0,-44.7 12.19,-82.2 36.5,-112.6 24.3,-30.39 58.6,-45.6 103,-45.6 35.3,0 64.3,11 86.8,32.9 22.6,21.8 33.5,48.7 32.7,80.5l-0.6 1.8 -52.4 0c0,-19.4 -6.3,-35.8 -18.9,-49.4 -12.59,-13.61 -28.5,-20.3 -47.6,-20.3 -28.3,0 -49,10.89 -62,32.89 -13,22 -19.5,48.6 -19.5,79.8l0 12.41c0,31.8 6.4,58.6 19.2,80.5 12.8,21.9 33.6,32.8 62.3,32.8zm319.3 45.2c-45.5,-0.1 -81,-14.6 -106.4,-43.7 -25.49,-29.1 -38.29,-67.4 -38.29,-114.79l0 -12.9c0,-45.5 13.2,-83.2 39.4,-113 26.3,-29.81 58.4,-44.71 96.3,-44.71 42.3,0 74.1,13.2 95.3,39.6 21.2,26.4 31.8,61.4 31.8,105.2l0 30.39 -202.7 0 -0.9 1.51c0,31.8 7,57.7 21.1,77.5 14.1,19.81 35.5,29.7 64.4,29.7 19.6,0 36.7,-2.7 51.5,-8.3 14.7,-5.6 27.41,-13.3 37.9,-23l22.6 37.5c-11.4,10.9 -26.3,20.2 -44.9,27.7 -18.5,7.5 -40.9,11.2 -67.1,11.3zm-9 -283.6c-20.2,0 -36.8,7.7 -50,23.2 -13.2,15.6 -21.2,35.4 -24.19,59.7l0.6 1.4 143 0 0 -4.7c0,-23 -5.7,-42 -17,-57.1 -11.3,-14.99 -28.8,-22.49 -52.4,-22.49zm242.3 263.3l-44 89.7 -34.2 0 20.5 -92.6 0 -47.7 57.7 0 0 50.6zm-9195.24 734.2c-1.9,-9.6 -3.39,-18 -4.5,-25.3 -1.1,-7.4 -1.7,-14.7 -1.9,-22.2 -10.8,15.3 -24.81,28 -42.1,38.3 -17.2,10.2 -35.9,15.3 -55.8,15.4 -33,-0.1 -58.1,-8.5 -75.4,-25.4 -17.31,-16.9 -25.9,-40.2 -25.9,-69.9 0,-30.2 12.2,-53.9 36.7,-71 24.5,-17.1 57.8,-25.6 99.8,-25.6l62.7 0 0 -31.41c0,-18.5 -5.71,-33.2 -17,-44.09 -11.3,-10.8 -27.4,-16.2 -48.11,-16.2 -18.7,0 -33.9,4.6 -45.39,14 -11.51,9.4 -17.31,20.6 -17.31,33.7l-54.7 0.6 -0.6 -1.79c-1.39,-23 9.41,-44.1 32.31,-63.2 22.99,-19.2 52.6,-28.8 88.99,-28.8 35.9,0 64.81,9.2 86.71,27.4 21.9,18.3 32.8,44.6 32.8,79l0 152.6c0,11.4 0.6,22.3 1.7,32.8 1.2,10.6 3.4,20.9 6.5,31.1l-59.5 0zm-95.8 -42.2c20.9,0 39.8,-5.4 56.6,-16.11 16.8,-10.7 27.7,-23.1 32.8,-36.9l0 -51.6 -64.8 0c-23.2,0 -41.81,5.9 -55.8,17.6 -13.9,11.7 -20.9,25.5 -20.9,41.3 0,14.1 4.41,25.2 13.21,33.39 8.7,8.2 21.69,12.31 38.9,12.31zm282.5 -274.8l4.1 47.2c10.5,-16.8 23.7,-29.9 39.7,-39.1 15.89,-9.29 34,-14 54.3,-14 34.2,0 60.6,10.1 79.4,30.1 18.7,20 28.1,50.9 28.1,92.7l0 200.1 -57.7 0 0 -198.9c0,-28 -5.5,-47.8 -16.5,-59.5 -11.11,-11.7 -27.9,-17.6 -50.6,-17.6 -17.81,0 -32.81,3.61 -45.21,10.7 -12.5,7.1 -22.3,17.2 -29.5,30l0 235.3 -57.7 0 0 -317 51.6 0zm276.2 164.4c0,-51 10.9,-92.1 32.7,-123.4 21.8,-31.2 52.3,-46.9 91.5,-46.9 18.6,0 35,3.5 49.4,10.3 14.4,6.8 26.6,16.8 36.81,29.9l0 -174.3 57.7 0 0 457 -44.31 0 -8.7 -40.1c-10.4,15.2 -23.2,26.69 -38.4,34.49 -15.31,7.81 -32.9,11.7 -53.11,11.8 -38.6,-0.1 -68.9,-14.1 -90.8,-42.1 -21.8,-27.99 -32.8,-64.89 -32.8,-110.59l0 -6.11zm57.7 6.11c0,32 6.6,57.7 19.7,76.9 12.99,19.3 33.39,28.9 60.9,28.9 17.2,0 31.6,-3.9 43.4,-11.7 11.69,-7.9 21.2,-18.8 28.7,-32.9l0 -147.9c-7.5,-13.1 -17.1,-23.5 -28.9,-31.2 -11.79,-7.7 -26,-11.6 -42.6,-11.6 -27.8,0 -48.2,11.4 -61.41,34.3 -13.2,22.9 -19.8,52.49 -19.8,89.1l0 6.11zm621 -119.51l-29.6 -1.79c-15.2,0 -28.1,3.6 -38.5,10.89 -10.5,7.2 -18.5,17.31 -24.2,30.4l0 226.5 -57.7 0 0 -317 51.6 0 5.5 46.3c9,-16.4 20.09,-29.19 33.3,-38.4 13.2,-9.2 28.29,-13.8 45.5,-13.8 4.3,0 8.4,0.4 12.3,1.1 3.9,0.71 7.2,1.4 9.7,2.2l-7.9 53.6zm185.69 272.2c-45.5,-0.1 -81,-14.6 -106.4,-43.7 -25.49,-29.1 -38.29,-67.4 -38.29,-114.79l0 -12.9c0,-45.5 13.2,-83.2 39.4,-113 26.3,-29.81 58.4,-44.71 96.3,-44.71 42.3,0 74.1,13.2 95.3,39.6 21.2,26.4 31.8,61.4 31.8,105.2l0 30.39 -202.7 0 -0.9 1.51c0,31.8 7,57.7 21.1,77.5 14.1,19.81 35.5,29.7 64.4,29.7 19.6,0 36.7,-2.7 51.5,-8.3 14.7,-5.6 27.41,-13.3 37.9,-23l22.6 37.5c-11.4,10.9 -26.3,20.2 -44.9,27.7 -18.5,7.5 -40.9,11.2 -67.1,11.3zm-9 -283.6c-20.2,0 -36.8,7.7 -50,23.2 -13.2,15.6 -21.2,35.4 -24.19,59.7l0.6 1.4 143 0 0 -4.7c0,-23 -5.7,-42 -17,-57.1 -11.3,-14.99 -28.8,-22.49 -52.4,-22.49zm293.9 183.9l4.9 22.3 1.79 0 5.6 -22.3 72.9 -223.5 58.91 0 -116.61 317 -43.69 0 -118 -317 59.2 0 75 223.5zm258.4 93.5l-57.7 0 0 -317 57.7 0 0 317zm0 -398.1l-57.7 0 0 -58.9 57.7 0 0 58.9zm220 404.3c-45.5,-0.1 -81,-14.6 -106.4,-43.7 -25.49,-29.1 -38.29,-67.4 -38.29,-114.79l0 -12.9c0,-45.5 13.2,-83.2 39.4,-113 26.3,-29.81 58.4,-44.71 96.3,-44.71 42.3,0 74.1,13.2 95.3,39.6 21.2,26.4 31.8,61.4 31.8,105.2l0 30.39 -202.7 0 -0.9 1.51c0,31.8 7,57.7 21.1,77.5 14.1,19.81 35.5,29.7 64.4,29.7 19.6,0 36.7,-2.7 51.5,-8.3 14.7,-5.6 27.41,-13.3 37.9,-23l22.6 37.5c-11.4,10.9 -26.3,20.2 -44.9,27.7 -18.5,7.5 -40.9,11.2 -67.1,11.3zm-9 -283.6c-20.2,0 -36.8,7.7 -50,23.2 -13.2,15.6 -21.2,35.4 -24.19,59.7l0.6 1.4 143 0 0 -4.7c0,-23 -5.7,-42 -17,-57.1 -11.3,-14.99 -28.8,-22.49 -52.4,-22.49zm273 162l7.4 40.7 1.7 0 7.6 -40.7 63.29 -201.6 46.3 0 63.6 201.6 8.2 45.39 1.8 0 9.3 -45.39 46.9 -201.6 60.39 0 -92 317 -46.6 0 -62.7 -193.1 -12 -50.4 -1.8 0 -11.1 50.4 -61.5 193.1 -46.6 0 -92 -317 60 0 49.8 201.6z"/>
   <path class="fil1" d="M9303.58 7562.8c-1.9,-9.6 -3.39,-18 -4.5,-25.3 -1.1,-7.4 -1.7,-14.7 -1.9,-22.2 -10.8,15.3 -24.81,28 -42.1,38.3 -17.2,10.2 -35.9,15.3 -55.8,15.4 -33,-0.1 -58.1,-8.5 -75.4,-25.4 -17.31,-16.9 -25.9,-40.2 -25.9,-69.9 0,-30.2 12.2,-53.9 36.7,-71 24.5,-17.1 57.8,-25.6 99.8,-25.6l62.7 0 0 -31.41c0,-18.5 -5.71,-33.2 -17,-44.09 -11.3,-10.8 -27.4,-16.2 -48.11,-16.2 -18.7,0 -33.9,4.6 -45.39,14 -11.51,9.4 -17.31,20.6 -17.31,33.7l-54.7 0.6 -0.6 -1.79c-1.39,-23 9.41,-44.1 32.31,-63.2 22.99,-19.2 52.6,-28.8 88.99,-28.8 35.9,0 64.81,9.2 86.71,27.4 21.9,18.3 32.8,44.6 32.8,79l0 152.6c0,11.4 0.6,22.3 1.7,32.8 1.2,10.6 3.4,20.9 6.5,31.1l-59.5 0zm-95.8 -42.2c20.9,0 39.8,-5.4 56.6,-16.11 16.8,-10.7 27.7,-23.1 32.8,-36.9l0 -51.6 -64.8 0c-23.2,0 -41.81,5.9 -55.8,17.6 -13.9,11.7 -20.9,25.5 -20.9,41.3 0,14.1 4.41,25.2 13.21,33.39 8.7,8.2 21.69,12.31 38.9,12.31zm356.9 3.2c17.7,0 33.3,-5.9 46.6,-17.71 13.2,-11.79 19.9,-26.29 19.9,-43.5l52.1 0 0.9 1.8c0.8,27.3 -10.89,51.6 -35.2,72.8 -24.2,21.2 -52.3,31.69 -84.3,31.8 -44.6,-0.1 -78.9,-15.2 -103.2,-45.5 -24.19,-30.21 -36.29,-67.9 -36.29,-113l0 -12.41c0,-44.7 12.19,-82.2 36.5,-112.6 24.3,-30.39 58.6,-45.6 103,-45.6 35.3,0 64.3,11 86.8,32.9 22.6,21.8 33.5,48.7 32.7,80.5l-0.6 1.8 -52.4 0c0,-19.4 -6.3,-35.8 -18.9,-49.4 -12.59,-13.61 -28.5,-20.3 -47.6,-20.3 -28.3,0 -49,10.89 -62,32.89 -13,22 -19.5,48.6 -19.5,79.8l0 12.41c0,31.8 6.4,58.6 19.2,80.5 12.8,21.9 33.6,32.8 62.3,32.8zm268.4 -354.5l0 76.5 60 0 0 42.8 -60 0 0 192.5c0,14.8 3,25.3 9.2,31.29 6.1,6.11 14.3,9.1 24.5,9.1 3.3,0 7,-0.4 11.1,-1.29 4.1,-0.9 7.5,-1.8 10.2,-2.81l7.99 39.5c-4.29,3.61 -10.7,6.4 -19.1,8.7 -8.4,2.2 -16.7,3.3 -24.9,3.4 -23.4,-0.1 -42.1,-7.1 -55.9,-21.3 -13.9,-14.1 -20.8,-36.4 -20.8,-66.59l0 -192.5 -50.4 0 0 -42.8 50.4 0 0 -76.5 57.7 0zm184.2 393.5l-57.7 0 0 -317 57.7 0 0 317zm0 -398.1l-57.7 0 0 -58.9 57.7 0 0 58.9zm75.3 236.7c0,-46.9 12.7,-85.5 38.1,-115.9 25.4,-30.39 59.9,-45.6 103.4,-45.6 44,0 78.7,15.21 104.2,45.5 25.5,30.2 38.2,68.9 38.2,115.99l0 6.4c0,47.3 -12.7,86 -38.1,116 -25.4,30.1 -59.9,45.1 -103.7,45.2 -43.7,-0.1 -78.41,-15.1 -103.81,-45.3 -25.49,-30.2 -38.29,-68.8 -38.29,-115.9l0 -6.4zm57.7 6.4c0,33.6 7.1,61.3 21.3,83.2 14.1,21.9 35.2,32.8 63.1,32.8 27.6,0 48.4,-10.9 62.7,-32.8 14.3,-21.9 21.4,-49.6 21.4,-83.2l0 -6.4c0,-33.2 -7.19,-60.9 -21.5,-82.9 -14.4,-22.1 -35.4,-33.1 -63.2,-33.1 -27.5,0 -48.4,11 -62.5,33.1 -14.2,22 -21.3,49.7 -21.3,82.9l0 6.4zm348.4 -162l4.1 47.2c10.5,-16.8 23.7,-29.9 39.7,-39.1 15.89,-9.29 34,-14 54.3,-14 34.2,0 60.6,10.1 79.4,30.1 18.7,20 28.1,50.9 28.1,92.7l0 200.1 -57.7 0 0 -198.9c0,-28 -5.5,-47.8 -16.5,-59.5 -11.11,-11.7 -27.9,-17.6 -50.6,-17.6 -17.81,0 -32.81,3.61 -45.21,10.7 -12.5,7.1 -22.3,17.2 -29.5,30l0 235.3 -57.7 0 0 -317 51.6 0zm473.7 231.7c0,-12.7 -4.91,-22.99 -14.5,-31 -9.7,-8 -28,-15.1 -55,-21.1 -37.3,-8 -65.91,-19.2 -85.9,-33.7 -20.1,-14.5 -30.1,-33.8 -30.1,-58.01 0,-25.8 11,-47.89 33,-66.19 22,-18.4 50.39,-27.6 85.4,-27.6 35.9,0 65,9.81 87.3,29.3 22.3,19.59 32.9,42.3 31.9,68.3l-0.6 1.8 -55 0c0,-13.7 -6,-26.1 -18.1,-37.2 -12.01,-11.2 -27.2,-16.69 -45.5,-16.69 -20.3,0 -35.5,4.5 -45.6,13.7 -10,9.19 -15.1,20.09 -15.1,32.8 0,12.5 4.41,22.2 13.1,29 8.7,6.9 26.6,13.1 53.69,18.8 38.91,8.2 68.41,19.8 88.5,34.9 20.1,15 30.21,34.59 30.21,58.8 0,28.2 -11.4,51.1 -34.1,68.9 -22.8,17.8 -52.5,26.6 -89.3,26.7 -40.4,-0.1 -72.21,-10.3 -95.5,-30.8 -23.21,-20.49 -34.2,-44.4 -33.11,-71.8l0.6 -1.7 55.1 0c1,20.5 8.6,35.4 22.9,44.9 14.2,9.5 30.9,14.2 50,14.2 20.6,0 36.6,-4.3 48.2,-13 11.7,-8.7 17.5,-19.8 17.5,-33.3zm384.3 -308.2l0 76.5 60 0 0 42.8 -60 0 0 192.5c0,14.8 3,25.3 9.2,31.29 6.1,6.11 14.3,9.1 24.5,9.1 3.3,0 7,-0.4 11.1,-1.29 4.1,-0.9 7.5,-1.8 10.2,-2.81l7.99 39.5c-4.29,3.61 -10.7,6.4 -19.1,8.7 -8.4,2.2 -16.7,3.3 -24.9,3.4 -23.4,-0.1 -42.1,-7.1 -55.9,-21.3 -13.9,-14.1 -20.8,-36.4 -20.8,-66.59l0 -192.5 -50.4 0 0 -42.8 50.4 0 0 -76.5 57.7 0zm316.6 393.5c-1.9,-9.6 -3.39,-18 -4.5,-25.3 -1.1,-7.4 -1.7,-14.7 -1.9,-22.2 -10.8,15.3 -24.81,28 -42.1,38.3 -17.2,10.2 -35.9,15.3 -55.8,15.4 -33,-0.1 -58.1,-8.5 -75.4,-25.4 -17.31,-16.9 -25.9,-40.2 -25.9,-69.9 0,-30.2 12.2,-53.9 36.7,-71 24.5,-17.1 57.8,-25.6 99.8,-25.6l62.7 0 0 -31.41c0,-18.5 -5.71,-33.2 -17,-44.09 -11.3,-10.8 -27.4,-16.2 -48.11,-16.2 -18.7,0 -33.9,4.6 -45.39,14 -11.51,9.4 -17.31,20.6 -17.31,33.7l-54.7 0.6 -0.6 -1.79c-1.39,-23 9.41,-44.1 32.31,-63.2 22.99,-19.2 52.6,-28.8 88.99,-28.8 35.9,0 64.81,9.2 86.71,27.4 21.9,18.3 32.8,44.6 32.8,79l0 152.6c0,11.4 0.6,22.3 1.7,32.8 1.2,10.6 3.4,20.9 6.5,31.1l-59.5 0zm-95.8 -42.2c20.9,0 39.8,-5.4 56.6,-16.11 16.8,-10.7 27.7,-23.1 32.8,-36.9l0 -51.6 -64.8 0c-23.2,0 -41.81,5.9 -55.8,17.6 -13.9,11.7 -20.9,25.5 -20.9,41.3 0,14.1 4.41,25.2 13.21,33.39 8.7,8.2 21.69,12.31 38.9,12.31zm318.5 -104l-29.59 0 0 146.2 -57.71 0 0 -457 57.71 0 0 264.8 29 0 95.2 -124.8 69.2 0 -115.2 146.2 125.1 170.8 -68.2 0 -105.5 -146.2zm345.3 152.4c-45.5,-0.1 -81,-14.6 -106.4,-43.7 -25.49,-29.1 -38.29,-67.4 -38.29,-114.79l0 -12.9c0,-45.5 13.2,-83.2 39.4,-113 26.3,-29.81 58.4,-44.71 96.3,-44.71 42.3,0 74.1,13.2 95.3,39.6 21.2,26.4 31.8,61.4 31.8,105.2l0 30.39 -202.7 0 -0.9 1.51c0,31.8 7,57.7 21.1,77.5 14.1,19.81 35.5,29.7 64.4,29.7 19.6,0 36.7,-2.7 51.5,-8.3 14.7,-5.6 27.41,-13.3 37.9,-23l22.6 37.5c-11.4,10.9 -26.3,20.2 -44.9,27.7 -18.5,7.5 -40.9,11.2 -67.1,11.3zm-9 -283.6c-20.2,0 -36.8,7.7 -50,23.2 -13.2,15.6 -21.2,35.4 -24.19,59.7l0.6 1.4 143 0 0 -4.7c0,-23 -5.7,-42 -17,-57.1 -11.3,-14.99 -28.8,-22.49 -52.4,-22.49zm243.5 -39.6l4.1 47.2c10.5,-16.8 23.7,-29.9 39.7,-39.1 15.89,-9.29 34,-14 54.3,-14 34.2,0 60.6,10.1 79.4,30.1 18.7,20 28.1,50.9 28.1,92.7l0 200.1 -57.7 0 0 -198.9c0,-28 -5.5,-47.8 -16.5,-59.5 -11.11,-11.7 -27.9,-17.6 -50.6,-17.6 -17.81,0 -32.81,3.61 -45.21,10.7 -12.5,7.1 -22.3,17.2 -29.5,30l0 235.3 -57.7 0 0 -317 51.6 0zm693.6 127.2l-391.3 0 0 -45.4 391.3 0 0 45.4zm276.91 189.8c-1.9,-9.6 -3.39,-18 -4.5,-25.3 -1.1,-7.4 -1.7,-14.7 -1.9,-22.2 -10.8,15.3 -24.81,28 -42.1,38.3 -17.2,10.2 -35.9,15.3 -55.8,15.4 -33,-0.1 -58.1,-8.5 -75.4,-25.4 -17.31,-16.9 -25.9,-40.2 -25.9,-69.9 0,-30.2 12.2,-53.9 36.7,-71 24.5,-17.1 57.8,-25.6 99.8,-25.6l62.7 0 0 -31.41c0,-18.5 -5.71,-33.2 -17,-44.09 -11.3,-10.8 -27.4,-16.2 -48.11,-16.2 -18.7,0 -33.9,4.6 -45.39,14 -11.51,9.4 -17.31,20.6 -17.31,33.7l-54.7 0.6 -0.6 -1.79c-1.39,-23 9.41,-44.1 32.31,-63.2 22.99,-19.2 52.6,-28.8 88.99,-28.8 35.9,0 64.81,9.2 86.71,27.4 21.9,18.3 32.8,44.6 32.8,79l0 152.6c0,11.4 0.6,22.3 1.7,32.8 1.2,10.6 3.4,20.9 6.5,31.1l-59.5 0zm-95.8 -42.2c20.9,0 39.8,-5.4 56.6,-16.11 16.8,-10.7 27.7,-23.1 32.8,-36.9l0 -51.6 -64.8 0c-23.2,0 -41.81,5.9 -55.8,17.6 -13.9,11.7 -20.9,25.5 -20.9,41.3 0,14.1 4.41,25.2 13.21,33.39 8.7,8.2 21.69,12.31 38.9,12.31zm293.3 42.2l-57.7 0 0 -457 57.7 0 0 457zm151.2 0l-57.7 0 0 -457 57.7 0 0 457zm344.4 -115.4l7.4 40.7 1.7 0 7.6 -40.7 63.29 -201.6 46.3 0 63.6 201.6 8.2 45.39 1.8 0 9.3 -45.39 46.9 -201.6 60.39 0 -92 317 -46.6 0 -62.7 -193.1 -12 -50.4 -1.8 0 -11.1 50.4 -61.5 193.1 -46.6 0 -92 -317 60 0 49.8 201.6zm430.7 -159.1c10.9,-15.21 24.41,-27.1 40.3,-35.61 15.9,-8.5 33.51,-12.8 52.9,-12.8 33.8,0 60.1,10.2 78.9,30.5 18.9,20.3 28.3,51.6 28.3,93.8l0 198.6 -57.7 0 0 -199.2c0,-26.2 -5.6,-45.5 -16.9,-58 -11.21,-12.5 -27.9,-18.8 -50.21,-18.8 -17.19,0 -32.09,3.4 -44.8,10.1 -12.7,6.8 -22.99,16.2 -30.8,28.3l0 237.6 -57.7 0 0 -457 57.7 0 0 182.5zm345.7 274.5l-57.7 0 0 -317 57.7 0 0 317zm0 -398.1l-57.7 0 0 -58.9 57.7 0 0 58.9zm151.2 398.1l-57.7 0 0 -457 57.7 0 0 457zm220 6.2c-45.5,-0.1 -81,-14.6 -106.4,-43.7 -25.49,-29.1 -38.29,-67.4 -38.29,-114.79l0 -12.9c0,-45.5 13.2,-83.2 39.4,-113 26.3,-29.81 58.4,-44.71 96.3,-44.71 42.3,0 74.1,13.2 95.3,39.6 21.2,26.4 31.8,61.4 31.8,105.2l0 30.39 -202.7 0 -0.9 1.51c0,31.8 7,57.7 21.1,77.5 14.1,19.81 35.5,29.7 64.4,29.7 19.6,0 36.7,-2.7 51.5,-8.3 14.7,-5.6 27.41,-13.3 37.9,-23l22.6 37.5c-11.4,10.9 -26.3,20.2 -44.9,27.7 -18.5,7.5 -40.9,11.2 -67.1,11.3zm-9 -283.6c-20.2,0 -36.8,7.7 -50,23.2 -13.2,15.6 -21.2,35.4 -24.19,59.7l0.6 1.4 143 0 0 -4.7c0,-23 -5.7,-42 -17,-57.1 -11.3,-14.99 -28.8,-22.49 -52.4,-22.49zm-9214.54 680.5l4.1 41.6c10.3,-15 23.4,-26.7 39.4,-35 15.9,-8.3 34.4,-12.5 55.51,-12.5 21.1,0 39.19,4.9 54.3,14.7 15.2,9.8 26.5,24.4 34.2,43.9 10.09,-18.1 23.3,-32.4 39.7,-42.9 16.3,-10.4 35.4,-15.7 57.21,-15.7 32.3,0 57.7,11.1 76.49,33.3 18.7,22.2 28.11,55.5 28.11,100l0 189.6 -57.7 0 0 -190.1c0,-31.3 -5.4,-53.4 -16.11,-66.41 -10.7,-12.99 -26.8,-19.5 -48.1,-19.5 -19.7,0 -35.6,6.91 -47.9,20.5 -12.19,13.7 -19.3,31 -21.5,51.9l0 2.3 0 201.31 -58 0 0 -190.1c0,-29.7 -5.5,-51.51 -16.51,-65.21 -11.1,-13.79 -27,-20.7 -47.7,-20.7 -17.5,0 -32,3.61 -43.3,10.9 -11.29,7.2 -19.99,17.3 -26.1,30.4l0 234.7 -57.7 0 0 -317 51.6 0zm694.75 317c-1.9,-9.6 -3.39,-18 -4.5,-25.3 -1.1,-7.4 -1.7,-14.7 -1.9,-22.2 -10.8,15.3 -24.81,28 -42.1,38.3 -17.2,10.2 -35.9,15.3 -55.8,15.4 -33,-0.1 -58.1,-8.5 -75.4,-25.4 -17.31,-16.9 -25.9,-40.2 -25.9,-69.9 0,-30.2 12.2,-53.9 36.7,-71 24.5,-17.1 57.8,-25.6 99.8,-25.6l62.7 0 0 -31.41c0,-18.5 -5.71,-33.2 -17,-44.09 -11.3,-10.8 -27.4,-16.2 -48.11,-16.2 -18.7,0 -33.9,4.6 -45.39,14 -11.51,9.4 -17.31,20.6 -17.31,33.7l-54.7 0.6 -0.6 -1.79c-1.39,-23 9.41,-44.1 32.31,-63.2 22.99,-19.2 52.6,-28.8 88.99,-28.8 35.9,0 64.81,9.2 86.71,27.4 21.9,18.3 32.8,44.6 32.8,79l0 152.6c0,11.4 0.6,22.3 1.7,32.8 1.2,10.6 3.4,20.9 6.5,31.1l-59.5 0zm-95.8 -42.2c20.9,0 39.8,-5.4 56.6,-16.11 16.8,-10.7 27.7,-23.1 32.8,-36.9l0 -51.6 -64.8 0c-23.2,0 -41.81,5.9 -55.8,17.6 -13.9,11.7 -20.9,25.5 -20.9,41.3 0,14.1 4.41,25.2 13.21,33.39 8.7,8.2 21.69,12.31 38.9,12.31zm320.45 42.2l-57.7 0 0 -317 57.7 0 0 317zm0 -398.1l-57.7 0 0 -58.9 57.7 0 0 58.9zm167.54 81.1l4.1 47.2c10.5,-16.8 23.7,-29.9 39.7,-39.1 15.89,-9.29 34,-14 54.3,-14 34.2,0 60.6,10.1 79.4,30.1 18.7,20 28.1,50.9 28.1,92.7l0 200.1 -57.7 0 0 -198.9c0,-28 -5.5,-47.8 -16.5,-59.5 -11.11,-11.7 -27.9,-17.6 -50.6,-17.6 -17.81,0 -32.81,3.61 -45.21,10.7 -12.5,7.1 -22.3,17.2 -29.5,30l0 235.3 -57.7 0 0 -317 51.6 0zm396.84 -76.5l0 76.5 60 0 0 42.8 -60 0 0 192.5c0,14.8 3,25.3 9.2,31.29 6.1,6.11 14.3,9.1 24.5,9.1 3.3,0 7,-0.4 11.1,-1.29 4.1,-0.9 7.5,-1.8 10.2,-2.81l7.99 39.5c-4.29,3.61 -10.7,6.4 -19.1,8.7 -8.4,2.2 -16.7,3.3 -24.9,3.4 -23.4,-0.1 -42.1,-7.1 -55.9,-21.3 -13.9,-14.1 -20.8,-36.4 -20.8,-66.59l0 -192.5 -50.4 0 0 -42.8 50.4 0 0 -76.5 57.7 0zm343.75 393.5c-1.9,-9.6 -3.39,-18 -4.5,-25.3 -1.1,-7.4 -1.7,-14.7 -1.9,-22.2 -10.8,15.3 -24.81,28 -42.1,38.3 -17.2,10.2 -35.9,15.3 -55.8,15.4 -33,-0.1 -58.1,-8.5 -75.4,-25.4 -17.31,-16.9 -25.9,-40.2 -25.9,-69.9 0,-30.2 12.2,-53.9 36.7,-71 24.5,-17.1 57.8,-25.6 99.8,-25.6l62.7 0 0 -31.41c0,-18.5 -5.71,-33.2 -17,-44.09 -11.3,-10.8 -27.4,-16.2 -48.11,-16.2 -18.7,0 -33.9,4.6 -45.39,14 -11.51,9.4 -17.31,20.6 -17.31,33.7l-54.7 0.6 -0.6 -1.79c-1.39,-23 9.41,-44.1 32.31,-63.2 22.99,-19.2 52.6,-28.8 88.99,-28.8 35.9,0 64.81,9.2 86.71,27.4 21.9,18.3 32.8,44.6 32.8,79l0 152.6c0,11.4 0.6,22.3 1.7,32.8 1.2,10.6 3.4,20.9 6.5,31.1l-59.5 0zm-95.8 -42.2c20.9,0 39.8,-5.4 56.6,-16.11 16.8,-10.7 27.7,-23.1 32.8,-36.9l0 -51.6 -64.8 0c-23.2,0 -41.81,5.9 -55.8,17.6 -13.9,11.7 -20.9,25.5 -20.9,41.3 0,14.1 4.41,25.2 13.21,33.39 8.7,8.2 21.69,12.31 38.9,12.31zm320.45 42.2l-57.7 0 0 -317 57.7 0 0 317zm0 -398.1l-57.7 0 0 -58.9 57.7 0 0 58.9zm167.54 81.1l4.1 47.2c10.5,-16.8 23.7,-29.9 39.7,-39.1 15.89,-9.29 34,-14 54.3,-14 34.2,0 60.6,10.1 79.4,30.1 18.7,20 28.1,50.9 28.1,92.7l0 200.1 -57.7 0 0 -198.9c0,-28 -5.5,-47.8 -16.5,-59.5 -11.11,-11.7 -27.9,-17.6 -50.6,-17.6 -17.81,0 -32.81,3.61 -45.21,10.7 -12.5,7.1 -22.3,17.2 -29.5,30l0 235.3 -57.7 0 0 -317 51.6 0zm378.94 317l-57.7 0 0 -317 57.7 0 0 317zm0 -398.1l-57.7 0 0 -58.9 57.7 0 0 58.9zm167.54 81.1l4.1 47.2c10.5,-16.8 23.7,-29.9 39.7,-39.1 15.89,-9.29 34,-14 54.3,-14 34.2,0 60.6,10.1 79.4,30.1 18.7,20 28.1,50.9 28.1,92.7l0 200.1 -57.7 0 0 -198.9c0,-28 -5.5,-47.8 -16.5,-59.5 -11.11,-11.7 -27.9,-17.6 -50.6,-17.6 -17.81,0 -32.81,3.61 -45.21,10.7 -12.5,7.1 -22.3,17.2 -29.5,30l0 235.3 -57.7 0 0 -317 51.6 0zm306.24 164.4c0,-51 10.9,-92.1 32.7,-123.4 21.8,-31.2 52.21,-46.9 91.31,-46.9 20.09,0 37.8,4.1 53,12.2 15.2,8.1 28,19.8 38.4,35l7 -41.3 46 0 0 318.8c0,40.6 -11.8,71.8 -35.4,93.59 -23.7,21.7 -57.8,32.6 -102.3,32.6 -15.2,0 -31.69,-2.1 -49.4,-6.3 -17.59,-4.2 -33.2,-9.9 -46.7,-17.1l8.8 -44.8c11.1,5.8 24.59,10.6 40.3,14.2 15.7,3.6 31.19,5.4 46.4,5.4 28.1,0 48.6,-6.4 61.4,-19.2 12.8,-12.8 19.2,-32.3 19.2,-58.4l0 -36.1c-10.4,13.3 -22.8,23.39 -37.2,30.2 -14.5,6.8 -31.2,10.2 -50.1,10.3 -38.7,-0.1 -68.9,-14.1 -90.7,-42.1 -21.8,-27.99 -32.7,-64.89 -32.7,-110.59l0 -6.11zm57.8 6.11c0,31.9 6.5,57.39 19.6,76.8 13.1,19.3 33.3,29 60.6,29 17.4,0 32,-4 43.7,-11.9 11.7,-7.9 21.4,-19.1 29,-33.51l0 -145.9c-7.4,-13.5 -17.1,-24.19 -29,-32.09 -11.91,-7.9 -26.3,-11.91 -43.11,-11.91 -27.49,0 -47.89,11.4 -61.1,34.3 -13.2,22.9 -19.7,52.49 -19.7,89.1l0 6.11zm759.75 107.5c17.7,0 33.3,-5.9 46.6,-17.71 13.2,-11.79 19.9,-26.29 19.9,-43.5l52.1 0 0.9 1.8c0.8,27.3 -10.89,51.6 -35.2,72.8 -24.2,21.2 -52.3,31.69 -84.3,31.8 -44.6,-0.1 -78.9,-15.2 -103.2,-45.5 -24.19,-30.21 -36.29,-67.9 -36.29,-113l0 -12.41c0,-44.7 12.19,-82.2 36.5,-112.6 24.3,-30.39 58.6,-45.6 103,-45.6 35.3,0 64.3,11 86.8,32.9 22.6,21.8 33.5,48.7 32.7,80.5l-0.6 1.8 -52.4 0c0,-19.4 -6.3,-35.8 -18.9,-49.4 -12.59,-13.61 -28.5,-20.3 -47.6,-20.3 -28.3,0 -49,10.89 -62,32.89 -13,22 -19.5,48.6 -19.5,79.8l0 12.41c0,31.8 6.4,58.6 19.2,80.5 12.8,21.9 33.6,32.8 62.3,32.8zm201.75 -122.41c0,-46.9 12.7,-85.5 38.1,-115.9 25.4,-30.39 59.9,-45.6 103.4,-45.6 44,0 78.7,15.21 104.2,45.5 25.5,30.2 38.2,68.9 38.2,115.99l0 6.4c0,47.3 -12.7,86 -38.1,116 -25.4,30.1 -59.9,45.1 -103.7,45.2 -43.7,-0.1 -78.41,-15.1 -103.81,-45.3 -25.49,-30.2 -38.29,-68.8 -38.29,-115.9l0 -6.4zm57.7 6.4c0,33.6 7.1,61.3 21.3,83.2 14.1,21.9 35.2,32.8 63.1,32.8 27.6,0 48.4,-10.9 62.7,-32.8 14.3,-21.9 21.4,-49.6 21.4,-83.2l0 -6.4c0,-33.2 -7.19,-60.9 -21.5,-82.9 -14.4,-22.1 -35.4,-33.1 -63.2,-33.1 -27.5,0 -48.4,11 -62.5,33.1 -14.2,22 -21.3,49.7 -21.3,82.9l0 6.4zm375.54 -162l4.1 47.2c10.5,-16.8 23.7,-29.9 39.7,-39.1 15.89,-9.29 34,-14 54.3,-14 34.2,0 60.6,10.1 79.4,30.1 18.7,20 28.1,50.9 28.1,92.7l0 200.1 -57.7 0 0 -198.9c0,-28 -5.5,-47.8 -16.5,-59.5 -11.11,-11.7 -27.9,-17.6 -50.6,-17.6 -17.81,0 -32.81,3.61 -45.21,10.7 -12.5,7.1 -22.3,17.2 -29.5,30l0 235.3 -57.7 0 0 -317 51.6 0zm332.64 317l0 -274.2 -49.8 0 0 -42.8 49.8 0 0 -34.3c0,-35.5 10.4,-63.1 31.2,-82.6 20.8,-19.5 49.71,-29.3 86.6,-29.3 13.1,0 26,1.5 38.7,4.6 12.59,2.99 27.6,7.4 44.8,13.3l-10 46.9c-10.3,-4.1 -21.4,-7.7 -33.1,-10.6 -11.7,-2.9 -23.7,-4.4 -36.01,-4.4 -22.9,0 -39.3,5.1 -49.4,15.3 -10,10.1 -15.09,25.7 -15.09,46.8l0 34.3 63 0 0 42.8 -63 0 0 274.2 -57.71 0zm229.4 0l-58 0 0 -317 58 0 0 317zm102.45 -152.6c0,-51 10.9,-92.1 32.7,-123.4 21.8,-31.2 52.3,-46.9 91.5,-46.9 18.6,0 35,3.5 49.4,10.3 14.4,6.8 26.6,16.8 36.81,29.9l0 -174.3 57.7 0 0 457 -44.31 0 -8.7 -40.1c-10.4,15.2 -23.2,26.69 -38.4,34.49 -15.31,7.81 -32.9,11.7 -53.11,11.8 -38.6,-0.1 -68.9,-14.1 -90.8,-42.1 -21.8,-27.99 -32.8,-64.89 -32.8,-110.59l0 -6.11zm57.7 6.11c0,32 6.6,57.7 19.7,76.9 12.99,19.3 33.39,28.9 60.9,28.9 17.2,0 31.6,-3.9 43.4,-11.7 11.69,-7.9 21.2,-18.8 28.7,-32.9l0 -147.9c-7.5,-13.1 -17.1,-23.5 -28.9,-31.2 -11.79,-7.7 -26,-11.6 -42.6,-11.6 -27.8,0 -48.2,11.4 -61.41,34.3 -13.2,22.9 -19.8,52.49 -19.8,89.1l0 6.11zm454.84 152.7c-45.5,-0.1 -81,-14.6 -106.4,-43.7 -25.49,-29.1 -38.29,-67.4 -38.29,-114.79l0 -12.9c0,-45.5 13.2,-83.2 39.4,-113 26.3,-29.81 58.4,-44.71 96.3,-44.71 42.3,0 74.1,13.2 95.3,39.6 21.2,26.4 31.8,61.4 31.8,105.2l0 30.39 -202.7 0 -0.9 1.51c0,31.8 7,57.7 21.1,77.5 14.1,19.81 35.5,29.7 64.4,29.7 19.6,0 36.7,-2.7 51.5,-8.3 14.7,-5.6 27.41,-13.3 37.9,-23l22.6 37.5c-11.4,10.9 -26.3,20.2 -44.9,27.7 -18.5,7.5 -40.9,11.2 -67.1,11.3zm-9 -283.6c-20.2,0 -36.8,7.7 -50,23.2 -13.2,15.6 -21.2,35.4 -24.19,59.7l0.6 1.4 143 0 0 -4.7c0,-23 -5.7,-42 -17,-57.1 -11.3,-14.99 -28.8,-22.49 -52.4,-22.49zm270.65 -39.6l4.1 47.2c10.5,-16.8 23.7,-29.9 39.7,-39.1 15.89,-9.29 34,-14 54.3,-14 34.2,0 60.6,10.1 79.4,30.1 18.7,20 28.1,50.9 28.1,92.7l0 200.1 -57.7 0 0 -198.9c0,-28 -5.5,-47.8 -16.5,-59.5 -11.11,-11.7 -27.9,-17.6 -50.6,-17.6 -17.81,0 -32.81,3.61 -45.21,10.7 -12.5,7.1 -22.3,17.2 -29.5,30l0 235.3 -57.7 0 0 -317 51.6 0zm442.54 278c17.7,0 33.3,-5.9 46.6,-17.71 13.2,-11.79 19.9,-26.29 19.9,-43.5l52.1 0 0.9 1.8c0.8,27.3 -10.89,51.6 -35.2,72.8 -24.2,21.2 -52.3,31.69 -84.3,31.8 -44.6,-0.1 -78.9,-15.2 -103.2,-45.5 -24.19,-30.21 -36.29,-67.9 -36.29,-113l0 -12.41c0,-44.7 12.19,-82.2 36.5,-112.6 24.3,-30.39 58.6,-45.6 103,-45.6 35.3,0 64.3,11 86.8,32.9 22.6,21.8 33.5,48.7 32.7,80.5l-0.6 1.8 -52.4 0c0,-19.4 -6.3,-35.8 -18.9,-49.4 -12.59,-13.61 -28.5,-20.3 -47.6,-20.3 -28.3,0 -49,10.89 -62,32.89 -13,22 -19.5,48.6 -19.5,79.8l0 12.41c0,31.8 6.4,58.6 19.2,80.5 12.8,21.9 33.6,32.8 62.3,32.8zm346.44 45.2c-45.5,-0.1 -81,-14.6 -106.4,-43.7 -25.49,-29.1 -38.29,-67.4 -38.29,-114.79l0 -12.9c0,-45.5 13.2,-83.2 39.4,-113 26.3,-29.81 58.4,-44.71 96.3,-44.71 42.3,0 74.1,13.2 95.3,39.6 21.2,26.4 31.8,61.4 31.8,105.2l0 30.39 -202.7 0 -0.9 1.51c0,31.8 7,57.7 21.1,77.5 14.1,19.81 35.5,29.7 64.4,29.7 19.6,0 36.7,-2.7 51.5,-8.3 14.7,-5.6 27.41,-13.3 37.9,-23l22.6 37.5c-11.4,10.9 -26.3,20.2 -44.9,27.7 -18.5,7.5 -40.9,11.2 -67.1,11.3zm-9 -283.6c-20.2,0 -36.8,7.7 -50,23.2 -13.2,15.6 -21.2,35.4 -24.19,59.7l0.6 1.4 143 0 0 -4.7c0,-23 -5.7,-42 -17,-57.1 -11.3,-14.99 -28.8,-22.49 -52.4,-22.49zm594.55 277.4l-57.7 0 0 -317 57.7 0 0 317zm0 -398.1l-57.7 0 0 -58.9 57.7 0 0 58.9zm167.54 81.1l4.1 47.2c10.5,-16.8 23.7,-29.9 39.7,-39.1 15.89,-9.29 34,-14 54.3,-14 34.2,0 60.6,10.1 79.4,30.1 18.7,20 28.1,50.9 28.1,92.7l0 200.1 -57.7 0 0 -198.9c0,-28 -5.5,-47.8 -16.5,-59.5 -11.11,-11.7 -27.9,-17.6 -50.6,-17.6 -17.81,0 -32.81,3.61 -45.21,10.7 -12.5,7.1 -22.3,17.2 -29.5,30l0 235.3 -57.7 0 0 -317 51.6 0zm726.65 199.5l10.2 39.9 1.8 0 77.9 -239.4 64.2 0 -133.3 365.6c-8,21.3 -19.5,39.9 -34.5,55.7 -14.9,15.8 -35.1,23.7 -60.51,23.7 -4.6,0 -10.6,-0.5 -17.8,-1.6 -7.2,-1.11 -12.8,-2.1 -16.7,-3.1l5.8 -45.39c-1.1,-0.2 2.3,0 10.4,0.6 8.1,0.6 13.3,0.9 15.4,0.9 12.31,0 22.4,-5.5 30.21,-16.4 7.8,-10.89 14.4,-23.1 19.59,-36.29l13.8 -33.2 -117.8 -310.5 64.49 0 66.81 199.5zm214.05 -43.91c0,-46.9 12.7,-85.5 38.1,-115.9 25.4,-30.39 59.9,-45.6 103.4,-45.6 44,0 78.7,15.21 104.2,45.5 25.5,30.2 38.2,68.9 38.2,115.99l0 6.4c0,47.3 -12.7,86 -38.1,116 -25.4,30.1 -59.9,45.1 -103.7,45.2 -43.7,-0.1 -78.41,-15.1 -103.81,-45.3 -25.49,-30.2 -38.29,-68.8 -38.29,-115.9l0 -6.4zm57.7 6.4c0,33.6 7.1,61.3 21.3,83.2 14.1,21.9 35.2,32.8 63.1,32.8 27.6,0 48.4,-10.9 62.7,-32.8 14.3,-21.9 21.4,-49.6 21.4,-83.2l0 -6.4c0,-33.2 -7.19,-60.9 -21.5,-82.9 -14.4,-22.1 -35.4,-33.1 -63.2,-33.1 -27.5,0 -48.4,11 -62.5,33.1 -14.2,22 -21.3,49.7 -21.3,82.9l0 6.4zm525.25 108.1c-10,17 -22.8,30.1 -38.4,39.3 -15.6,9.2 -33.7,13.7 -54.2,13.8 -34.6,-0.1 -61.5,-11.1 -80.91,-33.2 -19.3,-22 -29,-56.4 -29,-103.1l0 -186.9 57.7 0 0 187.5c0,33.79 5,56.99 15,69.7 9.9,12.7 25.5,19.1 46.6,19.1 20.5,0 37.4,-4.2 50.8,-12.5 13.39,-8.3 23.5,-20 30.3,-35.3l0 -228.5 57.7 0 0 317 -51.8 0 -3.8 -46.9zm316.84 -219.1l-29.6 -1.79c-15.2,0 -28.1,3.6 -38.5,10.89 -10.5,7.2 -18.5,17.31 -24.2,30.4l0 226.5 -57.7 0 0 -317 51.6 0 5.5 46.3c9,-16.4 20.09,-29.19 33.3,-38.4 13.2,-9.2 28.29,-13.8 45.5,-13.8 4.3,0 8.4,0.4 12.3,1.1 3.9,0.71 7.2,1.4 9.7,2.2l-7.9 53.6z"/>
   <path class="fil1" d="M6196.18 8917.71c0,-12.7 -4.91,-22.99 -14.5,-31 -9.7,-8 -28,-15.1 -55,-21.1 -37.3,-8 -65.91,-19.2 -85.9,-33.7 -20.1,-14.5 -30.1,-33.8 -30.1,-58.01 0,-25.8 11,-47.89 33,-66.19 22,-18.4 50.39,-27.6 85.4,-27.6 35.9,0 65,9.81 87.3,29.3 22.3,19.59 32.9,42.3 31.9,68.3l-0.6 1.8 -55 0c0,-13.7 -6,-26.1 -18.1,-37.2 -12.01,-11.2 -27.2,-16.69 -45.5,-16.69 -20.3,0 -35.5,4.5 -45.6,13.7 -10,9.19 -15.1,20.09 -15.1,32.8 0,12.5 4.41,22.2 13.1,29 8.7,6.9 26.6,13.1 53.69,18.8 38.91,8.2 68.41,19.8 88.5,34.9 20.1,15 30.21,34.59 30.21,58.8 0,28.2 -11.4,51.1 -34.1,68.9 -22.8,17.8 -52.5,26.6 -89.3,26.7 -40.4,-0.1 -72.21,-10.3 -95.5,-30.8 -23.21,-20.49 -34.2,-44.4 -33.11,-71.8l0.6 -1.7 55.1 0c1,20.5 8.6,35.4 22.9,44.9 14.2,9.5 30.9,14.2 50,14.2 20.6,0 36.6,-4.3 48.2,-13 11.7,-8.7 17.5,-19.8 17.5,-33.3zm260.7 91.5c-45.5,-0.1 -81,-14.6 -106.4,-43.7 -25.49,-29.1 -38.29,-67.4 -38.29,-114.79l0 -12.9c0,-45.5 13.2,-83.2 39.4,-113 26.3,-29.81 58.4,-44.71 96.3,-44.71 42.3,0 74.1,13.2 95.3,39.6 21.2,26.4 31.8,61.4 31.8,105.2l0 30.39 -202.7 0 -0.9 1.51c0,31.8 7,57.7 21.1,77.5 14.1,19.81 35.5,29.7 64.4,29.7 19.6,0 36.7,-2.7 51.5,-8.3 14.7,-5.6 27.41,-13.3 37.9,-23l22.6 37.5c-11.4,10.9 -26.3,20.2 -44.9,27.7 -18.5,7.5 -40.9,11.2 -67.1,11.3zm-9 -283.6c-20.2,0 -36.8,7.7 -50,23.2 -13.2,15.6 -21.2,35.4 -24.19,59.7l0.6 1.4 143 0 0 -4.7c0,-23 -5.7,-42 -17,-57.1 -11.3,-14.99 -28.8,-22.49 -52.4,-22.49zm317.9 238.4c17.7,0 33.3,-5.9 46.6,-17.71 13.2,-11.79 19.9,-26.29 19.9,-43.5l52.1 0 0.9 1.8c0.8,27.3 -10.89,51.6 -35.2,72.8 -24.2,21.2 -52.3,31.69 -84.3,31.8 -44.6,-0.1 -78.9,-15.2 -103.2,-45.5 -24.19,-30.21 -36.29,-67.9 -36.29,-113l0 -12.41c0,-44.7 12.19,-82.2 36.5,-112.6 24.3,-30.39 58.6,-45.6 103,-45.6 35.3,0 64.3,11 86.8,32.9 22.6,21.8 33.5,48.7 32.7,80.5l-0.6 1.8 -52.4 0c0,-19.4 -6.3,-35.8 -18.9,-49.4 -12.59,-13.61 -28.5,-20.3 -47.6,-20.3 -28.3,0 -49,10.89 -62,32.89 -13,22 -19.5,48.6 -19.5,79.8l0 12.41c0,31.8 6.4,58.6 19.2,80.5 12.8,21.9 33.6,32.8 62.3,32.8zm389.4 -7.9c-10,17 -22.8,30.1 -38.4,39.3 -15.6,9.2 -33.7,13.7 -54.2,13.8 -34.6,-0.1 -61.5,-11.1 -80.91,-33.2 -19.3,-22 -29,-56.4 -29,-103.1l0 -186.9 57.7 0 0 187.5c0,33.79 5,56.99 15,69.7 9.9,12.7 25.5,19.1 46.6,19.1 20.5,0 37.4,-4.2 50.8,-12.5 13.39,-8.3 23.5,-20 30.3,-35.3l0 -228.5 57.7 0 0 317 -51.8 0 -3.8 -46.9zm289.7 -219.1l-29.6 -1.79c-15.2,0 -28.1,3.6 -38.5,10.89 -10.5,7.2 -18.5,17.31 -24.2,30.4l0 226.5 -57.7 0 0 -317 51.6 0 5.5 46.3c9,-16.4 20.09,-29.19 33.3,-38.4 13.2,-9.2 28.29,-13.8 45.5,-13.8 4.3,0 8.4,0.4 12.3,1.1 3.9,0.71 7.2,1.4 9.7,2.2l-7.9 53.6zm122.5 266l-57.7 0 0 -317 57.7 0 0 317zm0 -398.1l-57.7 0 0 -58.9 57.7 0 0 58.9zm169.1 4.6l0 76.5 60 0 0 42.8 -60 0 0 192.5c0,14.8 3,25.3 9.2,31.29 6.1,6.11 14.3,9.1 24.5,9.1 3.3,0 7,-0.4 11.1,-1.29 4.1,-0.9 7.5,-1.8 10.2,-2.81l7.99 39.5c-4.29,3.61 -10.7,6.4 -19.1,8.7 -8.4,2.2 -16.7,3.3 -24.9,3.4 -23.4,-0.1 -42.1,-7.1 -55.9,-21.3 -13.9,-14.1 -20.8,-36.4 -20.8,-66.59l0 -192.5 -50.4 0 0 -42.8 50.4 0 0 -76.5 57.7 0zm218.81 276l10.2 39.9 1.8 0 77.9 -239.4 64.2 0 -133.3 365.6c-8,21.3 -19.5,39.9 -34.5,55.7 -14.9,15.8 -35.1,23.7 -60.51,23.7 -4.6,0 -10.6,-0.5 -17.8,-1.6 -7.2,-1.11 -12.8,-2.1 -16.7,-3.1l5.8 -45.39c-1.1,-0.2 2.3,0 10.4,0.6 8.1,0.6 13.3,0.9 15.4,0.9 12.31,0 22.4,-5.5 30.21,-16.4 7.8,-10.89 14.4,-23.1 19.59,-36.29l13.8 -33.2 -117.8 -310.5 64.49 0 66.81 199.5zm345.86 -199.5l4.1 41.6c10.3,-15 23.4,-26.7 39.4,-35 15.9,-8.3 34.4,-12.5 55.51,-12.5 21.1,0 39.19,4.9 54.3,14.7 15.2,9.8 26.5,24.4 34.2,43.9 10.09,-18.1 23.3,-32.4 39.7,-42.9 16.3,-10.4 35.4,-15.7 57.21,-15.7 32.3,0 57.7,11.1 76.49,33.3 18.7,22.2 28.11,55.5 28.11,100l0 189.6 -57.7 0 0 -190.1c0,-31.3 -5.4,-53.4 -16.11,-66.41 -10.7,-12.99 -26.8,-19.5 -48.1,-19.5 -19.7,0 -35.6,6.91 -47.9,20.5 -12.19,13.7 -19.3,31 -21.5,51.9l0 2.3 0 201.31 -58 0 0 -190.1c0,-29.7 -5.5,-51.51 -16.51,-65.21 -11.1,-13.79 -27,-20.7 -47.7,-20.7 -17.5,0 -32,3.61 -43.3,10.9 -11.29,7.2 -19.99,17.3 -26.1,30.4l0 234.7 -57.7 0 0 -317 51.6 0zm604 323.2c-45.5,-0.1 -81,-14.6 -106.4,-43.7 -25.49,-29.1 -38.29,-67.4 -38.29,-114.79l0 -12.9c0,-45.5 13.2,-83.2 39.4,-113 26.3,-29.81 58.4,-44.71 96.3,-44.71 42.3,0 74.1,13.2 95.3,39.6 21.2,26.4 31.8,61.4 31.8,105.2l0 30.39 -202.7 0 -0.9 1.51c0,31.8 7,57.7 21.1,77.5 14.1,19.81 35.5,29.7 64.4,29.7 19.6,0 36.7,-2.7 51.5,-8.3 14.7,-5.6 27.41,-13.3 37.9,-23l22.6 37.5c-11.4,10.9 -26.3,20.2 -44.9,27.7 -18.5,7.5 -40.9,11.2 -67.1,11.3zm-9 -283.6c-20.2,0 -36.8,7.7 -50,23.2 -13.2,15.6 -21.2,35.4 -24.19,59.7l0.6 1.4 143 0 0 -4.7c0,-23 -5.7,-42 -17,-57.1 -11.3,-14.99 -28.8,-22.49 -52.4,-22.49zm386.7 277.4c-1.9,-9.6 -3.39,-18 -4.5,-25.3 -1.1,-7.4 -1.7,-14.7 -1.9,-22.2 -10.8,15.3 -24.81,28 -42.1,38.3 -17.2,10.2 -35.9,15.3 -55.8,15.4 -33,-0.1 -58.1,-8.5 -75.4,-25.4 -17.31,-16.9 -25.9,-40.2 -25.9,-69.9 0,-30.2 12.2,-53.9 36.7,-71 24.5,-17.1 57.8,-25.6 99.8,-25.6l62.7 0 0 -31.41c0,-18.5 -5.71,-33.2 -17,-44.09 -11.3,-10.8 -27.4,-16.2 -48.11,-16.2 -18.7,0 -33.9,4.6 -45.39,14 -11.51,9.4 -17.31,20.6 -17.31,33.7l-54.7 0.6 -0.6 -1.79c-1.39,-23 9.41,-44.1 32.31,-63.2 22.99,-19.2 52.6,-28.8 88.99,-28.8 35.9,0 64.81,9.2 86.71,27.4 21.9,18.3 32.8,44.6 32.8,79l0 152.6c0,11.4 0.6,22.3 1.7,32.8 1.2,10.6 3.4,20.9 6.5,31.1l-59.5 0zm-95.8 -42.2c20.9,0 39.8,-5.4 56.6,-16.11 16.8,-10.7 27.7,-23.1 32.8,-36.9l0 -51.6 -64.8 0c-23.2,0 -41.81,5.9 -55.8,17.6 -13.9,11.7 -20.9,25.5 -20.9,41.3 0,14.1 4.41,25.2 13.21,33.39 8.7,8.2 21.69,12.31 38.9,12.31zm415.2 -43.11c0,-12.7 -4.91,-22.99 -14.5,-31 -9.7,-8 -28,-15.1 -55,-21.1 -37.3,-8 -65.91,-19.2 -85.9,-33.7 -20.1,-14.5 -30.1,-33.8 -30.1,-58.01 0,-25.8 11,-47.89 33,-66.19 22,-18.4 50.39,-27.6 85.4,-27.6 35.9,0 65,9.81 87.3,29.3 22.3,19.59 32.9,42.3 31.9,68.3l-0.6 1.8 -55 0c0,-13.7 -6,-26.1 -18.1,-37.2 -12.01,-11.2 -27.2,-16.69 -45.5,-16.69 -20.3,0 -35.5,4.5 -45.6,13.7 -10,9.19 -15.1,20.09 -15.1,32.8 0,12.5 4.41,22.2 13.1,29 8.7,6.9 26.6,13.1 53.69,18.8 38.91,8.2 68.41,19.8 88.5,34.9 20.1,15 30.21,34.59 30.21,58.8 0,28.2 -11.4,51.1 -34.1,68.9 -22.8,17.8 -52.5,26.6 -89.3,26.7 -40.4,-0.1 -72.21,-10.3 -95.5,-30.8 -23.21,-20.49 -34.2,-44.4 -33.11,-71.8l0.6 -1.7 55.1 0c1,20.5 8.6,35.4 22.9,44.9 14.2,9.5 30.9,14.2 50,14.2 20.6,0 36.6,-4.3 48.2,-13 11.7,-8.7 17.5,-19.8 17.5,-33.3zm330.8 38.4c-10,17 -22.8,30.1 -38.4,39.3 -15.6,9.2 -33.7,13.7 -54.2,13.8 -34.6,-0.1 -61.5,-11.1 -80.91,-33.2 -19.3,-22 -29,-56.4 -29,-103.1l0 -186.9 57.7 0 0 187.5c0,33.79 5,56.99 15,69.7 9.9,12.7 25.5,19.1 46.6,19.1 20.5,0 37.4,-4.2 50.8,-12.5 13.39,-8.3 23.5,-20 30.3,-35.3l0 -228.5 57.7 0 0 317 -51.8 0 -3.8 -46.9zm289.7 -219.1l-29.6 -1.79c-15.2,0 -28.1,3.6 -38.5,10.89 -10.5,7.2 -18.5,17.31 -24.2,30.4l0 226.5 -57.7 0 0 -317 51.6 0 5.5 46.3c9,-16.4 20.09,-29.19 33.3,-38.4 13.2,-9.2 28.29,-13.8 45.5,-13.8 4.3,0 8.4,0.4 12.3,1.1 3.9,0.71 7.2,1.4 9.7,2.2l-7.9 53.6zm185.69 272.2c-45.5,-0.1 -81,-14.6 -106.4,-43.7 -25.49,-29.1 -38.29,-67.4 -38.29,-114.79l0 -12.9c0,-45.5 13.2,-83.2 39.4,-113 26.3,-29.81 58.4,-44.71 96.3,-44.71 42.3,0 74.1,13.2 95.3,39.6 21.2,26.4 31.8,61.4 31.8,105.2l0 30.39 -202.7 0 -0.9 1.51c0,31.8 7,57.7 21.1,77.5 14.1,19.81 35.5,29.7 64.4,29.7 19.6,0 36.7,-2.7 51.5,-8.3 14.7,-5.6 27.41,-13.3 37.9,-23l22.6 37.5c-11.4,10.9 -26.3,20.2 -44.9,27.7 -18.5,7.5 -40.9,11.2 -67.1,11.3zm-9 -283.6c-20.2,0 -36.8,7.7 -50,23.2 -13.2,15.6 -21.2,35.4 -24.19,59.7l0.6 1.4 143 0 0 -4.7c0,-23 -5.7,-42 -17,-57.1 -11.3,-14.99 -28.8,-22.49 -52.4,-22.49zm376.21 192.1c0,-12.7 -4.91,-22.99 -14.5,-31 -9.7,-8 -28,-15.1 -55,-21.1 -37.3,-8 -65.91,-19.2 -85.9,-33.7 -20.1,-14.5 -30.1,-33.8 -30.1,-58.01 0,-25.8 11,-47.89 33,-66.19 22,-18.4 50.39,-27.6 85.4,-27.6 35.9,0 65,9.81 87.3,29.3 22.3,19.59 32.9,42.3 31.9,68.3l-0.6 1.8 -55 0c0,-13.7 -6,-26.1 -18.1,-37.2 -12.01,-11.2 -27.2,-16.69 -45.5,-16.69 -20.3,0 -35.5,4.5 -45.6,13.7 -10,9.19 -15.1,20.09 -15.1,32.8 0,12.5 4.41,22.2 13.1,29 8.7,6.9 26.6,13.1 53.69,18.8 38.91,8.2 68.41,19.8 88.5,34.9 20.1,15 30.21,34.59 30.21,58.8 0,28.2 -11.4,51.1 -34.1,68.9 -22.8,17.8 -52.5,26.6 -89.3,26.7 -40.4,-0.1 -72.21,-10.3 -95.5,-30.8 -23.21,-20.49 -34.2,-44.4 -33.11,-71.8l0.6 -1.7 55.1 0c1,20.5 8.6,35.4 22.9,44.9 14.2,9.5 30.9,14.2 50,14.2 20.6,0 36.6,-4.3 48.2,-13 11.7,-8.7 17.5,-19.8 17.5,-33.3zm192.5 85.3l-57.71 0 0 -59.2 57.71 0 0 59.2z"/>
   <path class="fil2" d="M6340.24 3550.62l-134.09 0 0 396.66 -94.05 0 0 -396.66 -132.11 0 0 -72.6 360.25 0 0 72.6zm136.29 92.07c11,-15.84 24.41,-28.28 40.26,-37.19 15.94,-8.9 33.55,-13.42 52.91,-13.42 36.29,0 64.78,12.1 85.58,36.3 20.68,24.2 31.02,61.49 31.02,111.98l0 206.91 -94.05 0 0 -207.57c0,-27.06 -4.4,-46.19 -13.09,-57.53 -8.69,-11.22 -21.78,-16.94 -39.16,-16.94 -14.41,0 -26.84,2.31 -37.51,6.93 -10.66,4.62 -19.24,11.33 -25.95,19.91l0 255.2 -94.05 0 0 -502.7 94.05 0 0 198.12zm464.09 36.74l-34.43 -0.88c-13.97,0 -25.52,2.87 -34.54,8.69 -9.01,5.72 -15.83,13.97 -20.57,24.42l0 235.62 -93.82 0 0 -348.7 87.34 0 4.18 51.58c8.14,-18.26 18.81,-32.56 31.79,-42.68 12.98,-10.23 27.94,-15.4 44.88,-15.4 4.73,0 9.12,0.44 13.09,1.22 3.96,0.77 8.03,1.65 12.1,2.75l-10.01 83.38zm193.93 274.67c-51.93,-0.11 -92.62,-16.06 -121.78,-47.96 -29.25,-31.9 -43.89,-72.93 -43.89,-123.2l0 -12.87c0,-52.25 14.19,-95.04 42.57,-128.26 28.38,-33.33 67.33,-49.94 117.04,-49.72 46.75,0 82.72,14.41 107.69,43.12 25.08,28.6 37.62,67.21 37.62,115.83l0 48.62 -207.9 0 -0.99 1.98c1.54,23.87 8.8,43.11 21.78,57.97 12.98,14.85 32.34,22.22 57.86,22.22 21,0 38.94,-2.09 53.68,-6.39 14.74,-4.29 29.92,-10.89 45.54,-19.69l25.52 57.97c-13.97,11.44 -32.88,21 -56.76,28.71 -23.87,7.7 -49.83,11.55 -77.99,11.66zm-6.05 -289.41c-18.92,0 -33.55,6.49 -43.67,19.47 -10.23,12.98 -16.39,30.25 -18.59,51.7l0.66 1.65 114.73 0 0 -7.15c0,-20.35 -4.18,-36.41 -12.54,-48.18 -8.47,-11.66 -22,-17.48 -40.59,-17.48zm405.69 282.59c-3.41,-7.92 -6.39,-16.28 -8.8,-25.19 -2.53,-8.8 -4.29,-17.82 -5.39,-27.06 -9.68,17.05 -22.44,31.12 -38.28,42.24 -15.94,11.22 -34.87,16.72 -56.76,16.83 -36.52,-0.11 -64.68,-9.46 -84.37,-28.27 -19.81,-18.81 -29.7,-44.44 -29.7,-76.89 0,-34.1 13.2,-60.61 39.49,-79.42 26.29,-18.81 64.68,-28.17 115.17,-28.17l52.91 0 0 -27.71c0,-16.72 -4.41,-29.81 -13.2,-39.05 -8.8,-9.13 -22,-13.75 -39.38,-13.75 -15.18,0 -26.95,3.63 -35.31,11.11 -8.26,7.37 -12.32,17.49 -12.32,30.36l-90.64 0 -0.54 -1.87c-1.54,-29.47 11.33,-54.88 38.5,-76.23 27.17,-21.34 62.59,-32.12 106.48,-32.12 41.91,0 75.8,10.56 101.64,31.69 25.85,21 38.83,51.15 38.83,90.52l0 143.99c0,16.4 1.22,31.69 3.74,46.09 2.42,14.41 6.38,28.71 11.77,42.9l-93.82 0zm-86.03 -62.81c16.4,0 30.91,-4.07 43.89,-12.32 12.87,-8.14 21.68,-17.59 26.4,-28.27l0 -49.39 -52.91 0c-19.91,0 -35.09,4.95 -45.21,14.85 -10.23,9.9 -15.4,22 -15.4,36.41 0,11.88 3.84,21.23 11.44,28.16 7.7,7.04 18.26,10.56 31.79,10.56zm347.82 -371.25l0 85.36 58.96 0 0 66.11 -58.96 0 0 177.54c0,13.53 2.76,23.21 8.47,29.04 5.72,5.71 13.2,8.69 22.44,8.69 4.95,0 9.24,-0.33 12.87,-0.88 3.63,-0.54 7.82,-1.43 12.54,-2.75l7.81 68.09c-9.46,3.19 -18.7,5.6 -27.6,7.25 -8.91,1.54 -18.59,2.31 -29.15,2.42 -32.45,-0.11 -57.42,-9.02 -74.91,-26.84 -17.49,-17.82 -26.29,-46.09 -26.29,-84.7l0 -177.87 -50.93 0 0 -66.11 50.93 0 0 -85.36 93.82 0zm382.52 306.79l5.72 25.74 1.98 0 5.5 -24.75 102.18 -342.97 99.22 0 -159.5 469.26 -96.69 0 -159.17 -469.26 99.22 0 101.53 341.99zm351.89 127.27l-94.16 0 0 -348.7 94.16 0 0 348.7zm0 -432.19l-94.16 0 0 -70.51 94.16 0 0 70.51zm265.88 335.5c0,-10.34 -4.95,-19.14 -14.97,-26.62 -10.01,-7.37 -28.49,-13.86 -55.66,-19.47 -40.81,-8.14 -71.71,-20.46 -92.95,-37.07 -21.12,-16.5 -31.68,-38.94 -31.68,-67.32 0,-29.93 12.65,-55.34 37.94,-76.34 25.41,-21.12 59.08,-31.69 101.21,-31.69 44.11,0 79.31,10.56 105.93,31.69 26.52,21 39.27,47.19 38.17,78.53l-0.66 1.98 -90.86 0c0,-13.97 -4.52,-25.3 -13.53,-34.21 -9.02,-8.79 -22,-13.2 -39.05,-13.2 -14.97,0 -26.95,3.85 -35.75,11.33 -8.8,7.48 -13.2,16.73 -13.2,27.72 0,10.67 4.51,19.47 13.63,26.29 9.13,6.71 27.72,12.76 55.67,18.15 42.68,8.58 74.58,21.23 95.47,37.84 21.01,16.72 31.46,39.59 31.46,68.86 0,31.35 -13.42,56.98 -40.26,77 -26.85,20.02 -62.27,29.92 -106.38,30.03 -46.41,-0.11 -83.05,-11.77 -110,-35.31 -26.95,-23.54 -39.82,-50.39 -38.5,-80.41l0.54 -1.98 86.14 0c0.54,18.7 6.71,32.23 18.37,40.59 11.55,8.37 26.73,12.65 45.43,12.65 17.38,0 30.58,-3.52 39.71,-10.56 9.12,-6.93 13.75,-16.5 13.75,-28.49zm250.79 96.69l-94.16 0 0 -348.7 94.16 0 0 348.7zm0 -432.19l-94.16 0 0 -70.51 94.16 0 0 70.51zm391.93 267.52c0,52.03 -11.66,93.61 -34.87,124.74 -23.21,31.12 -56.76,46.64 -100.54,46.75 -20.46,-0.11 -38.17,-4.4 -53.35,-12.98 -15.18,-8.58 -27.94,-21.12 -38.51,-37.62l-7.7 43.78 -79.64 0 0 -502.7 93.82 0 0 191.07c10.12,-13.97 22.11,-24.75 36.19,-32.23 14.08,-7.48 30.25,-11.34 48.51,-11.34 44.32,0 77.99,16.72 101.2,50.16 23.21,33.44 34.87,77.99 34.87,133.54l0 6.82zm-93.82 -6.82c0,-33.88 -4.95,-60.83 -14.97,-80.74 -10.01,-19.81 -27.06,-29.81 -51.14,-29.81 -14.52,0 -26.96,3.08 -37.08,9.24 -10.01,6.16 -18.04,14.85 -23.76,26.29l0 147.62c5.72,10.45 13.75,18.48 23.98,24.09 10.23,5.61 22.66,8.36 37.51,8.36 24.31,0 41.25,-8.47 50.93,-25.52 9.68,-17.16 14.52,-41.35 14.52,-72.71l0 -6.82zm250.79 171.49l-94.16 0 0 -348.7 94.16 0 0 348.7zm0 -432.19l-94.16 0 0 -70.51 94.16 0 0 70.51zm176.33 432.19l-94.16 0 0 -502.7 94.16 0 0 502.7zm176.33 0l-94.16 0 0 -348.7 94.16 0 0 348.7zm0 -432.19l-94.16 0 0 -70.51 94.16 0 0 70.51zm190.19 -1.87l0 85.36 58.96 0 0 66.11 -58.96 0 0 177.54c0,13.53 2.76,23.21 8.47,29.04 5.72,5.71 13.2,8.69 22.44,8.69 4.95,0 9.24,-0.33 12.87,-0.88 3.63,-0.54 7.82,-1.43 12.54,-2.75l7.81 68.09c-9.46,3.19 -18.7,5.6 -27.6,7.25 -8.91,1.54 -18.59,2.31 -29.15,2.42 -32.45,-0.11 -57.42,-9.02 -74.91,-26.84 -17.49,-17.82 -26.29,-46.09 -26.29,-84.7l0 -177.87 -50.93 0 0 -66.11 50.93 0 0 -85.36 93.82 0zm242.67 287.76l3.84 19.36 1.87 0 66.77 -221.76 101.2 0 -141.45 400.94c-9.91,24.87 -23.33,45.87 -40.38,62.92 -16.94,17.16 -42.35,25.63 -76.34,25.63 -7.92,0 -15.29,-0.66 -22.11,-1.87 -6.71,-1.32 -14.96,-3.19 -24.64,-5.5l11 -68.64c2.76,0.44 5.83,0.88 9.02,1.32 3.19,0.44 6.17,0.55 8.69,0.55 15.51,0 27.39,-3.74 35.75,-11.45 8.36,-7.59 14.85,-17.04 19.36,-28.49l11 -27.06 -123.75 -348.36 101.2 0 58.97 202.39z"/>
  </g>
 </g>
</svg>
