<?xml version="1.0" encoding="UTF-8"?>
<!DOCTYPE svg PUBLIC "-//W3C//DTD SVG 1.1//EN" "http://www.w3.org/Graphics/SVG/1.1/DTD/svg11.dtd">
<!-- Creator: CorelDRAW (Evaluation Version) -->
<svg xmlns="http://www.w3.org/2000/svg" xml:space="preserve" width="210mm" height="297mm" version="1.1" style="shape-rendering:geometricPrecision; text-rendering:geometricPrecision; image-rendering:optimizeQuality; fill-rule:evenodd; clip-rule:evenodd"
viewBox="0 0 21000 12450"
 xmlns:xlink="http://www.w3.org/1999/xlink"
 xmlns:xodm="http://www.corel.com/coreldraw/odm/2003">
 <defs>
  <style type="text/css">
   <![CDATA[
    .fil1 {fill:#FEFEFE;fill-rule:nonzero}
    .fil0 {fill:#1F91CC;fill-rule:nonzero}
    .fil2 {fill:url(#id0);fill-rule:nonzero}
   ]]>
  </style>
  <linearGradient id="id0" gradientUnits="userSpaceOnUse" x1="1712.81" y1="2117.22" x2="6719.8" y2="2117.22">
   <stop offset="0" style="stop-opacity:1; stop-color:#00D7FF"/>
   <stop offset="1" style="stop-opacity:1; stop-color:#015C94"/>
  </linearGradient>
 </defs>
 <g id="Layer_x0020_1">
  <metadata id="CorelCorpID_0Corel-Layer"/>
  <path class="fil0" d="M15548.72 0.64l-925.32 0 -2.72 -12.77 924.82 0c1.03,4.29 2.1,8.55 3.22,12.77z"/>
  <path class="fil0" d="M20881.74 445.92c-1.51,379.79 -3.3,759.6 -3.61,1139.4 -0.6,729 -0.3,1458 -0.3,2187l0 3291.3c0,20.4 0.3,40.5 -0.9,60.6 -2.7,49.8 -18.6,67.5 -67.8,70.51 -37.2,2.1 -74.7,1.5 -111.89,-0.6 -76.2,-4.2 -152.71,-7.8 -228.9,-15.6 -193.2,-19.5 -382.5,-56.41 -568.51,-111.9 -330.29,-99 -630.9,-258 -912.9,-454.2 -381.89,-266.1 -699.9,-596.99 -972.3,-972.89 -334.2,-460.2 -580.8,-964.2 -757.8,-1503.9 -40.2,-123 -78,-247.2 -114.3,-371.7 -5.4,-18.3 -10.8,-36.9 -20.09,-53.7 -12.9,-23.39 -26.4,-30.89 -52.5,-24.9 -19.5,4.5 -38.7,11.7 -57,19.5 -265.49,115.2 -530.4,230.7 -795.59,346.2 -116.1,50.39 -232.2,100.2 -348.3,150.6 -7.8,3.3 -15.6,6.6 -23.7,9.9 -102.9,44.1 -154.8,123.31 -166.2,233.71 -12,117.29 -27.89,234.3 -42,351.3 -13.5,114 -26.69,228 -40.5,342 -13.8,115.19 -28.5,230.1 -42.6,345 -11.4,94.8 -22.5,189.9 -34.2,285 -13.8,113.7 -27.9,227.7 -41.7,341.7 -11.7,96 -23.1,192 -34.5,288 -12,101.4 -24,202.8 -36,303.91 -11.4,99.29 -22.2,198.59 -34.5,297.89 -16.2,129.6 -24.9,260.4 -51.6,388.5 -31.5,152.4 -115.8,268.5 -260.4,333.9 -174.3,78.9 -405,46.2 -539.4,-98.7 -78.6,-84.9 -117.01,-186.3 -124.2,-300.6 -4.5,-70.2 5.4,-140.1 14.4,-209.71 12.3,-91.49 24,-183.29 35.7,-274.8 13.8,-108.6 27.3,-217.2 41.1,-325.8 12,-93 23.7,-185.7 35.7,-278.4 14.1,-109.5 28.2,-219.3 42,-328.8 13.8,-106.5 27,-213 40.8,-319.5 14.1,-111.89 28.5,-223.5 42.6,-335.1 13.8,-107.7 27,-215.4 40.5,-322.8 14.1,-110.7 28.5,-221.4 42.3,-332.1 11.7,-93.9 23.1,-187.8 34.5,-281.7 12,-100.2 24,-200.4 35.7,-300.61 7.5,-64.49 14.7,-129 21.3,-193.5 2.99,-27.6 7.8,-54.6 15.3,-81.3 23.7,-81 77.7,-135.3 153,-169.5 47.39,-21.6 95.69,-41.4 143.7,-61.8 361.49,-154.5 723.29,-309.31 1084.8,-463.8 177.9,-75.9 356.1,-151.5 534.3,-227.4 23.39,-9.9 46.8,-19.81 69.3,-31.8 85.2,-45.3 126.9,-117 126.3,-213 -0.3,-84.9 -1.2,-170.1 -3.3,-255.3 -4.2,-191.41 -2.4,-383.1 -1.51,-574.5 0.31,-57.61 2.41,-114.91 3.3,-172.2 0.31,-12.9 -0.3,-25.8 -1.5,-38.4 -4.2,-41.41 -26.4,-69.3 -66.3,-81 -51.9,-15.3 -104.4,-29.1 -156.6,-43.2 -578.11,-154.2 -1156.2,-308.11 -1734.3,-462.3 -13.5,-3.61 -26.7,-7.81 -39.6,-12.6 -73.2,-26.4 -121.2,-77.4 -141,-152.7 -21.3,-82.51 -40.8,-165 -60.91,-247.8 -44.1,-181.18 -87.89,-362.37 -131.69,-543.85l926.41 0c20.4,66.88 55.2,125.37 115.48,168.25 36.9,26.4 78,43.2 121.5,54.6 409.8,105.3 818.39,214.2 1226.4,325.2 13.2,3.6 26.4,7.8 40.8,7.8 22.2,-0.3 30,-5.4 37.8,-26.69 3.6,-10.2 4.5,-20.71 5.7,-31.2 8.1,-90.3 60,-145.5 149.7,-160.21 41.1,-6.9 82.5,-7.8 123.89,-6.6 120.31,3.3 240.6,2.1 360.6,2.1 588.6,-0.3 1176.9,0 1765.5,-0.3 423.3,0 846.9,-0.6 1270.2,-0.9 21.3,0 42.3,0 63.6,5.1 29.4,6.9 45.9,25.49 51.3,54 4.19,21.9 5.4,44.4 5.4,66.9z"/>
  <path class="fil0" d="M21007.4 7771.86c-2.68,-2.98 -4.76,-6.57 -6.25,-11.05 -3.89,-11.67 -0.92,-20.95 6.25,-28.45l0 39.49z"/>
  <g id="_2766965014896">
   <path class="fil1" d="M2083.63 2766.04c0,52.1 -16.2,95.4 -48.5,129.8 -32.3,34.4 -74.3,51.5 -125.8,51.6 -49.81,-0.1 -90.3,-17.2 -121.5,-51.6 -31.1,-34.4 -46.7,-77.7 -46.7,-129.8l0 -75.91c0,-51.9 15.6,-95.2 46.7,-129.8 31.2,-34.5 71.7,-51.81 121.5,-51.81 51.5,0 93.5,17.2 125.8,51.7 32.3,34.5 48.5,77.8 48.5,129.9l0 75.91zm-57.7 -76.5c0,-39 -10.6,-71.1 -31.7,-96.1 -21.1,-25 -49.4,-37.5 -84.89,-37.5 -33.61,0 -60.4,12.5 -80.4,37.5 -20.1,25 -30.1,57.1 -30.1,96.1l0 76.5c0,39.5 10,71.7 30.1,96.7 20,25 46.8,37.5 80.4,37.5 35.7,0 64.09,-12.5 85.1,-37.4 21,-24.9 31.5,-57.21 31.5,-96.8l0 -76.5zm222.73 -65.3l4.1 47.2c10.5,-16.8 23.7,-29.9 39.7,-39.1 15.89,-9.29 34,-14 54.3,-14 34.2,0 60.6,10.1 79.4,30.1 18.7,20 28.1,50.9 28.1,92.7l0 200.1 -57.7 0 0 -198.9c0,-28 -5.5,-47.8 -16.5,-59.5 -11.11,-11.7 -27.9,-17.6 -50.6,-17.6 -17.81,0 -32.81,3.61 -45.21,10.7 -12.5,7.1 -22.3,17.2 -29.5,30l0 235.3 -57.7 0 0 -317 51.6 0zm453.52 278c17.7,0 33.3,-5.9 46.6,-17.71 13.2,-11.79 19.9,-26.29 19.9,-43.5l52.1 0 0.9 1.8c0.8,27.3 -10.89,51.6 -35.2,72.8 -24.2,21.2 -52.3,31.69 -84.3,31.8 -44.6,-0.1 -78.9,-15.2 -103.2,-45.5 -24.19,-30.21 -36.29,-67.9 -36.29,-113l0 -12.41c0,-44.7 12.19,-82.2 36.5,-112.6 24.3,-30.39 58.6,-45.6 103,-45.6 35.3,0 64.3,11 86.8,32.9 22.6,21.8 33.5,48.7 32.7,80.5l-0.6 1.8 -52.4 0c0,-19.4 -6.3,-35.8 -18.9,-49.4 -12.59,-13.61 -28.5,-20.3 -47.6,-20.3 -28.3,0 -49,10.89 -62,32.89 -13,22 -19.5,48.6 -19.5,79.8l0 12.41c0,31.8 6.4,58.6 19.2,80.5 12.8,21.9 33.6,32.8 62.3,32.8zm357.42 45.2c-45.5,-0.1 -81,-14.6 -106.4,-43.7 -25.49,-29.1 -38.29,-67.4 -38.29,-114.79l0 -12.9c0,-45.5 13.2,-83.2 39.4,-113 26.3,-29.81 58.4,-44.71 96.3,-44.71 42.3,0 74.1,13.2 95.3,39.6 21.2,26.4 31.8,61.4 31.8,105.2l0 30.39 -202.7 0 -0.9 1.51c0,31.8 7,57.7 21.1,77.5 14.1,19.81 35.5,29.7 64.4,29.7 19.6,0 36.7,-2.7 51.5,-8.3 14.7,-5.6 27.41,-13.3 37.9,-23l22.6 37.5c-11.4,10.9 -26.3,20.2 -44.9,27.7 -18.5,7.5 -40.9,11.2 -67.1,11.3zm-9 -283.6c-20.2,0 -36.8,7.7 -50,23.2 -13.2,15.6 -21.2,35.4 -24.19,59.7l0.6 1.4 143 0 0 -4.7c0,-23 -5.7,-42 -17,-57.1 -11.3,-14.99 -28.8,-22.49 -52.4,-22.49zm737.93 277.4c-1.9,-9.6 -3.39,-18 -4.5,-25.3 -1.1,-7.4 -1.7,-14.7 -1.9,-22.2 -10.8,15.3 -24.81,28 -42.1,38.3 -17.2,10.2 -35.9,15.3 -55.8,15.4 -33,-0.1 -58.1,-8.5 -75.4,-25.4 -17.31,-16.9 -25.9,-40.2 -25.9,-69.9 0,-30.2 12.2,-53.9 36.7,-71 24.5,-17.1 57.8,-25.6 99.8,-25.6l62.7 0 0 -31.41c0,-18.5 -5.71,-33.2 -17,-44.09 -11.3,-10.8 -27.4,-16.2 -48.11,-16.2 -18.7,0 -33.9,4.6 -45.39,14 -11.51,9.4 -17.31,20.6 -17.31,33.7l-54.7 0.6 -0.6 -1.79c-1.39,-23 9.41,-44.1 32.31,-63.2 22.99,-19.2 52.6,-28.8 88.99,-28.8 35.9,0 64.81,9.2 86.71,27.4 21.9,18.3 32.8,44.6 32.8,79l0 152.6c0,11.4 0.6,22.3 1.7,32.8 1.2,10.6 3.4,20.9 6.5,31.1l-59.5 0zm-95.8 -42.2c20.9,0 39.8,-5.4 56.6,-16.11 16.8,-10.7 27.7,-23.1 32.8,-36.9l0 -51.6 -64.8 0c-23.2,0 -41.81,5.9 -55.8,17.6 -13.9,11.7 -20.9,25.5 -20.9,41.3 0,14.1 4.41,25.2 13.21,33.39 8.7,8.2 21.69,12.31 38.9,12.31zm662.43 -351.31l0 76.5 60 0 0 42.8 -60 0 0 192.5c0,14.8 3,25.3 9.2,31.29 6.1,6.11 14.3,9.1 24.5,9.1 3.3,0 7,-0.4 11.1,-1.29 4.1,-0.9 7.5,-1.8 10.2,-2.81l7.99 39.5c-4.29,3.61 -10.7,6.4 -19.1,8.7 -8.4,2.2 -16.7,3.3 -24.9,3.4 -23.4,-0.1 -42.1,-7.1 -55.9,-21.3 -13.9,-14.1 -20.8,-36.4 -20.8,-66.59l0 -192.5 -50.4 0 0 -42.8 50.4 0 0 -76.5 57.7 0zm217.62 119c10.9,-15.21 24.41,-27.1 40.3,-35.61 15.9,-8.5 33.51,-12.8 52.9,-12.8 33.8,0 60.1,10.2 78.9,30.5 18.9,20.3 28.3,51.6 28.3,93.8l0 198.6 -57.7 0 0 -199.2c0,-26.2 -5.6,-45.5 -16.9,-58 -11.21,-12.5 -27.9,-18.8 -50.21,-18.8 -17.19,0 -32.09,3.4 -44.8,10.1 -12.7,6.8 -22.99,16.2 -30.8,28.3l0 237.6 -57.7 0 0 -457 57.7 0 0 182.5zm471.42 8.5l-29.6 -1.79c-15.2,0 -28.1,3.6 -38.5,10.89 -10.5,7.2 -18.5,17.31 -24.2,30.4l0 226.5 -57.7 0 0 -317 51.6 0 5.5 46.3c9,-16.4 20.09,-29.19 33.3,-38.4 13.2,-9.2 28.29,-13.8 45.5,-13.8 4.3,0 8.4,0.4 12.3,1.1 3.9,0.71 7.2,1.4 9.7,2.2l-7.9 53.6zm223.82 272.2c-45.5,-0.1 -81,-14.6 -106.4,-43.7 -25.49,-29.1 -38.29,-67.4 -38.29,-114.79l0 -12.9c0,-45.5 13.2,-83.2 39.4,-113 26.3,-29.81 58.4,-44.71 96.3,-44.71 42.3,0 74.1,13.2 95.3,39.6 21.2,26.4 31.8,61.4 31.8,105.2l0 30.39 -202.7 0 -0.9 1.51c0,31.8 7,57.7 21.1,77.5 14.1,19.81 35.5,29.7 64.4,29.7 19.6,0 36.7,-2.7 51.5,-8.3 14.7,-5.6 27.41,-13.3 37.9,-23l22.6 37.5c-11.4,10.9 -26.3,20.2 -44.9,27.7 -18.5,7.5 -40.9,11.2 -67.1,11.3zm-9 -283.6c-20.2,0 -36.8,7.7 -50,23.2 -13.2,15.6 -21.2,35.4 -24.19,59.7l0.6 1.4 143 0 0 -4.7c0,-23 -5.7,-42 -17,-57.1 -11.3,-14.99 -28.8,-22.49 -52.4,-22.49zm424.82 277.4c-1.9,-9.6 -3.39,-18 -4.5,-25.3 -1.1,-7.4 -1.7,-14.7 -1.9,-22.2 -10.8,15.3 -24.81,28 -42.1,38.3 -17.2,10.2 -35.9,15.3 -55.8,15.4 -33,-0.1 -58.1,-8.5 -75.4,-25.4 -17.31,-16.9 -25.9,-40.2 -25.9,-69.9 0,-30.2 12.2,-53.9 36.7,-71 24.5,-17.1 57.8,-25.6 99.8,-25.6l62.7 0 0 -31.41c0,-18.5 -5.71,-33.2 -17,-44.09 -11.3,-10.8 -27.4,-16.2 -48.11,-16.2 -18.7,0 -33.9,4.6 -45.39,14 -11.51,9.4 -17.31,20.6 -17.31,33.7l-54.7 0.6 -0.6 -1.79c-1.39,-23 9.41,-44.1 32.31,-63.2 22.99,-19.2 52.6,-28.8 88.99,-28.8 35.9,0 64.81,9.2 86.71,27.4 21.9,18.3 32.8,44.6 32.8,79l0 152.6c0,11.4 0.6,22.3 1.7,32.8 1.2,10.6 3.4,20.9 6.5,31.1l-59.5 0zm-95.8 -42.2c20.9,0 39.8,-5.4 56.6,-16.11 16.8,-10.7 27.7,-23.1 32.8,-36.9l0 -51.6 -64.8 0c-23.2,0 -41.81,5.9 -55.8,17.6 -13.9,11.7 -20.9,25.5 -20.9,41.3 0,14.1 4.41,25.2 13.21,33.39 8.7,8.2 21.69,12.31 38.9,12.31zm349.32 -351.31l0 76.5 60 0 0 42.8 -60 0 0 192.5c0,14.8 3,25.3 9.2,31.29 6.1,6.11 14.3,9.1 24.5,9.1 3.3,0 7,-0.4 11.1,-1.29 4.1,-0.9 7.5,-1.8 10.2,-2.81l7.99 39.5c-4.29,3.61 -10.7,6.4 -19.1,8.7 -8.4,2.2 -16.7,3.3 -24.9,3.4 -23.4,-0.1 -42.1,-7.1 -55.9,-21.3 -13.9,-14.1 -20.8,-36.4 -20.8,-66.59l0 -192.5 -50.4 0 0 -42.8 50.4 0 0 -76.5 57.7 0zm535.43 393.5l-57.7 0 0 -317 57.7 0 0 317zm0 -398.1l-57.7 0 0 -58.9 57.7 0 0 58.9zm311.23 312.8c0,-12.7 -4.91,-22.99 -14.5,-31 -9.7,-8 -28,-15.1 -55,-21.1 -37.3,-8 -65.91,-19.2 -85.9,-33.7 -20.1,-14.5 -30.1,-33.8 -30.1,-58.01 0,-25.8 11,-47.89 33,-66.19 22,-18.4 50.39,-27.6 85.4,-27.6 35.9,0 65,9.81 87.3,29.3 22.3,19.59 32.9,42.3 31.9,68.3l-0.6 1.8 -55 0c0,-13.7 -6,-26.1 -18.1,-37.2 -12.01,-11.2 -27.2,-16.69 -45.5,-16.69 -20.3,0 -35.5,4.5 -45.6,13.7 -10,9.19 -15.1,20.09 -15.1,32.8 0,12.5 4.41,22.2 13.1,29 8.7,6.9 26.6,13.1 53.69,18.8 38.91,8.2 68.41,19.8 88.5,34.9 20.1,15 30.21,34.59 30.21,58.8 0,28.2 -11.4,51.1 -34.1,68.9 -22.8,17.8 -52.5,26.6 -89.3,26.7 -40.4,-0.1 -72.21,-10.3 -95.5,-30.8 -23.21,-20.49 -34.2,-44.4 -33.11,-71.8l0.6 -1.7 55.1 0c1,20.5 8.6,35.4 22.9,44.9 14.2,9.5 30.9,14.2 50,14.2 20.6,0 36.6,-4.3 48.2,-13 11.7,-8.7 17.5,-19.8 17.5,-33.3zm467.53 -67.3c0,-51 10.9,-92.1 32.7,-123.4 21.8,-31.2 52.3,-46.9 91.5,-46.9 18.6,0 35,3.5 49.4,10.3 14.4,6.8 26.6,16.8 36.81,29.9l0 -174.3 57.7 0 0 457 -44.31 0 -8.7 -40.1c-10.4,15.2 -23.2,26.69 -38.4,34.49 -15.31,7.81 -32.9,11.7 -53.11,11.8 -38.6,-0.1 -68.9,-14.1 -90.8,-42.1 -21.8,-27.99 -32.8,-64.89 -32.8,-110.59l0 -6.11zm57.7 6.11c0,32 6.6,57.7 19.7,76.9 12.99,19.3 33.39,28.9 60.9,28.9 17.2,0 31.6,-3.9 43.4,-11.7 11.69,-7.9 21.2,-18.8 28.7,-32.9l0 -147.9c-7.5,-13.1 -17.1,-23.5 -28.9,-31.2 -11.79,-7.7 -26,-11.6 -42.6,-11.6 -27.8,0 -48.2,11.4 -61.41,34.3 -13.2,22.9 -19.8,52.49 -19.8,89.1l0 6.11zm465.82 152.7c-45.5,-0.1 -81,-14.6 -106.4,-43.7 -25.49,-29.1 -38.29,-67.4 -38.29,-114.79l0 -12.9c0,-45.5 13.2,-83.2 39.4,-113 26.3,-29.81 58.4,-44.71 96.3,-44.71 42.3,0 74.1,13.2 95.3,39.6 21.2,26.4 31.8,61.4 31.8,105.2l0 30.39 -202.7 0 -0.9 1.51c0,31.8 7,57.7 21.1,77.5 14.1,19.81 35.5,29.7 64.4,29.7 19.6,0 36.7,-2.7 51.5,-8.3 14.7,-5.6 27.41,-13.3 37.9,-23l22.6 37.5c-11.4,10.9 -26.3,20.2 -44.9,27.7 -18.5,7.5 -40.9,11.2 -67.1,11.3zm-9 -283.6c-20.2,0 -36.8,7.7 -50,23.2 -13.2,15.6 -21.2,35.4 -24.19,59.7l0.6 1.4 143 0 0 -4.7c0,-23 -5.7,-42 -17,-57.1 -11.3,-14.99 -28.8,-22.49 -52.4,-22.49zm310.33 -116.1l0 76.5 60 0 0 42.8 -60 0 0 192.5c0,14.8 3,25.3 9.2,31.29 6.1,6.11 14.3,9.1 24.5,9.1 3.3,0 7,-0.4 11.1,-1.29 4.1,-0.9 7.5,-1.8 10.2,-2.81l7.99 39.5c-4.29,3.61 -10.7,6.4 -19.1,8.7 -8.4,2.2 -16.7,3.3 -24.9,3.4 -23.4,-0.1 -42.1,-7.1 -55.9,-21.3 -13.9,-14.1 -20.8,-36.4 -20.8,-66.59l0 -192.5 -50.4 0 0 -42.8 50.4 0 0 -76.5 57.7 0zm291.12 399.7c-45.5,-0.1 -81,-14.6 -106.4,-43.7 -25.49,-29.1 -38.29,-67.4 -38.29,-114.79l0 -12.9c0,-45.5 13.2,-83.2 39.4,-113 26.3,-29.81 58.4,-44.71 96.3,-44.71 42.3,0 74.1,13.2 95.3,39.6 21.2,26.4 31.8,61.4 31.8,105.2l0 30.39 -202.7 0 -0.9 1.51c0,31.8 7,57.7 21.1,77.5 14.1,19.81 35.5,29.7 64.4,29.7 19.6,0 36.7,-2.7 51.5,-8.3 14.7,-5.6 27.41,-13.3 37.9,-23l22.6 37.5c-11.4,10.9 -26.3,20.2 -44.9,27.7 -18.5,7.5 -40.9,11.2 -67.1,11.3zm-9 -283.6c-20.2,0 -36.8,7.7 -50,23.2 -13.2,15.6 -21.2,35.4 -24.19,59.7l0.6 1.4 143 0 0 -4.7c0,-23 -5.7,-42 -17,-57.1 -11.3,-14.99 -28.8,-22.49 -52.4,-22.49zm356.03 238.4c17.7,0 33.3,-5.9 46.6,-17.71 13.2,-11.79 19.9,-26.29 19.9,-43.5l52.1 0 0.9 1.8c0.8,27.3 -10.89,51.6 -35.2,72.8 -24.2,21.2 -52.3,31.69 -84.3,31.8 -44.6,-0.1 -78.9,-15.2 -103.2,-45.5 -24.19,-30.21 -36.29,-67.9 -36.29,-113l0 -12.41c0,-44.7 12.19,-82.2 36.5,-112.6 24.3,-30.39 58.6,-45.6 103,-45.6 35.3,0 64.3,11 86.8,32.9 22.6,21.8 33.5,48.7 32.7,80.5l-0.6 1.8 -52.4 0c0,-19.4 -6.3,-35.8 -18.9,-49.4 -12.59,-13.61 -28.5,-20.3 -47.6,-20.3 -28.3,0 -49,10.89 -62,32.89 -13,22 -19.5,48.6 -19.5,79.8l0 12.41c0,31.8 6.4,58.6 19.2,80.5 12.8,21.9 33.6,32.8 62.3,32.8zm306.52 -354.5l0 76.5 60 0 0 42.8 -60 0 0 192.5c0,14.8 3,25.3 9.2,31.29 6.1,6.11 14.3,9.1 24.5,9.1 3.3,0 7,-0.4 11.1,-1.29 4.1,-0.9 7.5,-1.8 10.2,-2.81l7.99 39.5c-4.29,3.61 -10.7,6.4 -19.1,8.7 -8.4,2.2 -16.7,3.3 -24.9,3.4 -23.4,-0.1 -42.1,-7.1 -55.9,-21.3 -13.9,-14.1 -20.8,-36.4 -20.8,-66.59l0 -192.5 -50.4 0 0 -42.8 50.4 0 0 -76.5 57.7 0zm291.12 399.7c-45.5,-0.1 -81,-14.6 -106.4,-43.7 -25.49,-29.1 -38.29,-67.4 -38.29,-114.79l0 -12.9c0,-45.5 13.2,-83.2 39.4,-113 26.3,-29.81 58.4,-44.71 96.3,-44.71 42.3,0 74.1,13.2 95.3,39.6 21.2,26.4 31.8,61.4 31.8,105.2l0 30.39 -202.7 0 -0.9 1.51c0,31.8 7,57.7 21.1,77.5 14.1,19.81 35.5,29.7 64.4,29.7 19.6,0 36.7,-2.7 51.5,-8.3 14.7,-5.6 27.41,-13.3 37.9,-23l22.6 37.5c-11.4,10.9 -26.3,20.2 -44.9,27.7 -18.5,7.5 -40.9,11.2 -67.1,11.3zm-9 -283.6c-20.2,0 -36.8,7.7 -50,23.2 -13.2,15.6 -21.2,35.4 -24.19,59.7l0.6 1.4 143 0 0 -4.7c0,-23 -5.7,-42 -17,-57.1 -11.3,-14.99 -28.8,-22.49 -52.4,-22.49zm216.82 124.8c0,-51 10.9,-92.1 32.7,-123.4 21.8,-31.2 52.3,-46.9 91.5,-46.9 18.6,0 35,3.5 49.4,10.3 14.4,6.8 26.6,16.8 36.81,29.9l0 -174.3 57.7 0 0 457 -44.31 0 -8.7 -40.1c-10.4,15.2 -23.2,26.69 -38.4,34.49 -15.31,7.81 -32.9,11.7 -53.11,11.8 -38.6,-0.1 -68.9,-14.1 -90.8,-42.1 -21.8,-27.99 -32.8,-64.89 -32.8,-110.59l0 -6.11zm57.7 6.11c0,32 6.6,57.7 19.7,76.9 12.99,19.3 33.39,28.9 60.9,28.9 17.2,0 31.6,-3.9 43.4,-11.7 11.69,-7.9 21.2,-18.8 28.7,-32.9l0 -147.9c-7.5,-13.1 -17.1,-23.5 -28.9,-31.2 -11.79,-7.7 -26,-11.6 -42.6,-11.6 -27.8,0 -48.2,11.4 -61.41,34.3 -13.2,22.9 -19.8,52.49 -19.8,89.1l0 6.11zm385.02 132.4l-44 89.7 -34.2 0 20.5 -92.6 0 -47.7 57.7 0 0 50.6zm405.73 -147.31c0,-46.9 12.7,-85.5 38.1,-115.9 25.4,-30.39 59.9,-45.6 103.4,-45.6 44,0 78.7,15.21 104.2,45.5 25.5,30.2 38.2,68.9 38.2,115.99l0 6.4c0,47.3 -12.7,86 -38.1,116 -25.4,30.1 -59.9,45.1 -103.7,45.2 -43.7,-0.1 -78.41,-15.1 -103.81,-45.3 -25.49,-30.2 -38.29,-68.8 -38.29,-115.9l0 -6.4zm57.7 6.4c0,33.6 7.1,61.3 21.3,83.2 14.1,21.9 35.2,32.8 63.1,32.8 27.6,0 48.4,-10.9 62.7,-32.8 14.3,-21.9 21.4,-49.6 21.4,-83.2l0 -6.4c0,-33.2 -7.19,-60.9 -21.5,-82.9 -14.4,-22.1 -35.4,-33.1 -63.2,-33.1 -27.5,0 -48.4,11 -62.5,33.1 -14.2,22 -21.3,49.7 -21.3,82.9l0 6.4zm536.22 108.1c-10,17 -22.8,30.1 -38.4,39.3 -15.6,9.2 -33.7,13.7 -54.2,13.8 -34.6,-0.1 -61.5,-11.1 -80.91,-33.2 -19.3,-22 -29,-56.4 -29,-103.1l0 -186.9 57.7 0 0 187.5c0,33.79 5,56.99 15,69.7 9.9,12.7 25.5,19.1 46.6,19.1 20.5,0 37.4,-4.2 50.8,-12.5 13.39,-8.3 23.5,-20 30.3,-35.3l0 -228.5 57.7 0 0 317 -51.8 0 -3.8 -46.9zm327.82 -219.1l-29.6 -1.79c-15.2,0 -28.1,3.6 -38.5,10.89 -10.5,7.2 -18.5,17.31 -24.2,30.4l0 226.5 -57.7 0 0 -317 51.6 0 5.5 46.3c9,-16.4 20.09,-29.19 33.3,-38.4 13.2,-9.2 28.29,-13.8 45.5,-13.8 4.3,0 8.4,0.4 12.3,1.1 3.9,0.71 7.2,1.4 9.7,2.2l-7.9 53.6zm-9356.02 900.81c0,-12.7 -4.91,-22.99 -14.5,-31 -9.7,-8 -28,-15.1 -55,-21.1 -37.3,-8 -65.91,-19.2 -85.9,-33.7 -20.1,-14.5 -30.1,-33.8 -30.1,-58.01 0,-25.8 11,-47.89 33,-66.19 22,-18.4 50.39,-27.6 85.4,-27.6 35.9,0 65,9.81 87.3,29.3 22.3,19.59 32.9,42.3 31.9,68.3l-0.6 1.8 -55 0c0,-13.7 -6,-26.1 -18.1,-37.2 -12.01,-11.2 -27.2,-16.69 -45.5,-16.69 -20.3,0 -35.5,4.5 -45.6,13.7 -10,9.19 -15.1,20.09 -15.1,32.8 0,12.5 4.41,22.2 13.1,29 8.7,6.9 26.6,13.1 53.69,18.8 38.91,8.2 68.41,19.8 88.5,34.9 20.1,15 30.21,34.59 30.21,58.8 0,28.2 -11.4,51.1 -34.1,68.9 -22.8,17.8 -52.5,26.6 -89.3,26.7 -40.4,-0.1 -72.21,-10.3 -95.5,-30.8 -23.21,-20.49 -34.2,-44.4 -33.11,-71.8l0.6 -1.7 55.1 0c1,20.5 8.6,35.4 22.9,44.9 14.2,9.5 30.9,14.2 50,14.2 20.6,0 36.6,-4.3 48.2,-13 11.7,-8.7 17.5,-19.8 17.5,-33.3zm127.7 -76.1c0,-46.9 12.7,-85.5 38.1,-115.9 25.4,-30.39 59.9,-45.6 103.4,-45.6 44,0 78.7,15.21 104.2,45.5 25.5,30.2 38.2,68.9 38.2,115.99l0 6.4c0,47.3 -12.7,86 -38.1,116 -25.4,30.1 -59.9,45.1 -103.7,45.2 -43.7,-0.1 -78.41,-15.1 -103.81,-45.3 -25.49,-30.2 -38.29,-68.8 -38.29,-115.9l0 -6.4zm57.7 6.4c0,33.6 7.1,61.3 21.3,83.2 14.1,21.9 35.2,32.8 63.1,32.8 27.6,0 48.4,-10.9 62.7,-32.8 14.3,-21.9 21.4,-49.6 21.4,-83.2l0 -6.4c0,-33.2 -7.19,-60.9 -21.5,-82.9 -14.4,-22.1 -35.4,-33.1 -63.2,-33.1 -27.5,0 -48.4,11 -62.5,33.1 -14.2,22 -21.3,49.7 -21.3,82.9l0 6.4zm370.89 155l-57.7 0 0 -457 57.7 0 0 457zm301.8 -46.9c-10,17 -22.8,30.1 -38.4,39.3 -15.6,9.2 -33.7,13.7 -54.2,13.8 -34.6,-0.1 -61.5,-11.1 -80.91,-33.2 -19.3,-22 -29,-56.4 -29,-103.1l0 -186.9 57.7 0 0 187.5c0,33.79 5,56.99 15,69.7 9.9,12.7 25.5,19.1 46.6,19.1 20.5,0 37.4,-4.2 50.8,-12.5 13.39,-8.3 23.5,-20 30.3,-35.3l0 -228.5 57.7 0 0 317 -51.8 0 -3.8 -46.9zm231.69 -346.6l0 76.5 60 0 0 42.8 -60 0 0 192.5c0,14.8 3,25.3 9.2,31.29 6.1,6.11 14.3,9.1 24.5,9.1 3.3,0 7,-0.4 11.1,-1.29 4.1,-0.9 7.5,-1.8 10.2,-2.81l7.99 39.5c-4.29,3.61 -10.7,6.4 -19.1,8.7 -8.4,2.2 -16.7,3.3 -24.9,3.4 -23.4,-0.1 -42.1,-7.1 -55.9,-21.3 -13.9,-14.1 -20.8,-36.4 -20.8,-66.59l0 -192.5 -50.4 0 0 -42.8 50.4 0 0 -76.5 57.7 0zm195.9 393.5l-57.7 0 0 -317 57.7 0 0 317zm0 -398.1l-57.7 0 0 -58.9 57.7 0 0 58.9zm87 236.7c0,-46.9 12.7,-85.5 38.1,-115.9 25.4,-30.39 59.9,-45.6 103.4,-45.6 44,0 78.7,15.21 104.2,45.5 25.5,30.2 38.2,68.9 38.2,115.99l0 6.4c0,47.3 -12.7,86 -38.1,116 -25.4,30.1 -59.9,45.1 -103.7,45.2 -43.7,-0.1 -78.41,-15.1 -103.81,-45.3 -25.49,-30.2 -38.29,-68.8 -38.29,-115.9l0 -6.4zm57.7 6.4c0,33.6 7.1,61.3 21.3,83.2 14.1,21.9 35.2,32.8 63.1,32.8 27.6,0 48.4,-10.9 62.7,-32.8 14.3,-21.9 21.4,-49.6 21.4,-83.2l0 -6.4c0,-33.2 -7.19,-60.9 -21.5,-82.9 -14.4,-22.1 -35.4,-33.1 -63.2,-33.1 -27.5,0 -48.4,11 -62.5,33.1 -14.2,22 -21.3,49.7 -21.3,82.9l0 6.4zm360.09 -162l4.1 47.2c10.5,-16.8 23.7,-29.9 39.7,-39.1 15.89,-9.29 34,-14 54.3,-14 34.2,0 60.6,10.1 79.4,30.1 18.7,20 28.1,50.9 28.1,92.7l0 200.1 -57.7 0 0 -198.9c0,-28 -5.5,-47.8 -16.5,-59.5 -11.11,-11.7 -27.9,-17.6 -50.6,-17.6 -17.81,0 -32.81,3.61 -45.21,10.7 -12.5,7.1 -22.3,17.2 -29.5,30l0 235.3 -57.7 0 0 -317 51.6 0zm485.4 231.7c0,-12.7 -4.91,-22.99 -14.5,-31 -9.7,-8 -28,-15.1 -55,-21.1 -37.3,-8 -65.91,-19.2 -85.9,-33.7 -20.1,-14.5 -30.1,-33.8 -30.1,-58.01 0,-25.8 11,-47.89 33,-66.19 22,-18.4 50.39,-27.6 85.4,-27.6 35.9,0 65,9.81 87.3,29.3 22.3,19.59 32.9,42.3 31.9,68.3l-0.6 1.8 -55 0c0,-13.7 -6,-26.1 -18.1,-37.2 -12.01,-11.2 -27.2,-16.69 -45.5,-16.69 -20.3,0 -35.5,4.5 -45.6,13.7 -10,9.19 -15.1,20.09 -15.1,32.8 0,12.5 4.41,22.2 13.1,29 8.7,6.9 26.6,13.1 53.69,18.8 38.91,8.2 68.41,19.8 88.5,34.9 20.1,15 30.21,34.59 30.21,58.8 0,28.2 -11.4,51.1 -34.1,68.9 -22.8,17.8 -52.5,26.6 -89.3,26.7 -40.4,-0.1 -72.21,-10.3 -95.5,-30.8 -23.21,-20.49 -34.2,-44.4 -33.11,-71.8l0.6 -1.7 55.1 0c1,20.5 8.6,35.4 22.9,44.9 14.2,9.5 30.9,14.2 50,14.2 20.6,0 36.6,-4.3 48.2,-13 11.7,-8.7 17.5,-19.8 17.5,-33.3zm638.6 0c0,-12.7 -4.91,-22.99 -14.5,-31 -9.7,-8 -28,-15.1 -55,-21.1 -37.3,-8 -65.91,-19.2 -85.9,-33.7 -20.1,-14.5 -30.1,-33.8 -30.1,-58.01 0,-25.8 11,-47.89 33,-66.19 22,-18.4 50.39,-27.6 85.4,-27.6 35.9,0 65,9.81 87.3,29.3 22.3,19.59 32.9,42.3 31.9,68.3l-0.6 1.8 -55 0c0,-13.7 -6,-26.1 -18.1,-37.2 -12.01,-11.2 -27.2,-16.69 -45.5,-16.69 -20.3,0 -35.5,4.5 -45.6,13.7 -10,9.19 -15.1,20.09 -15.1,32.8 0,12.5 4.41,22.2 13.1,29 8.7,6.9 26.6,13.1 53.69,18.8 38.91,8.2 68.41,19.8 88.5,34.9 20.1,15 30.21,34.59 30.21,58.8 0,28.2 -11.4,51.1 -34.1,68.9 -22.8,17.8 -52.5,26.6 -89.3,26.7 -40.4,-0.1 -72.21,-10.3 -95.5,-30.8 -23.21,-20.49 -34.2,-44.4 -33.11,-71.8l0.6 -1.7 55.1 0c1,20.5 8.6,35.4 22.9,44.9 14.2,9.5 30.9,14.2 50,14.2 20.6,0 36.6,-4.3 48.2,-13 11.7,-8.7 17.5,-19.8 17.5,-33.3zm221.49 -308.2l0 76.5 60 0 0 42.8 -60 0 0 192.5c0,14.8 3,25.3 9.2,31.29 6.1,6.11 14.3,9.1 24.5,9.1 3.3,0 7,-0.4 11.1,-1.29 4.1,-0.9 7.5,-1.8 10.2,-2.81l7.99 39.5c-4.29,3.61 -10.7,6.4 -19.1,8.7 -8.4,2.2 -16.7,3.3 -24.9,3.4 -23.4,-0.1 -42.1,-7.1 -55.9,-21.3 -13.9,-14.1 -20.8,-36.4 -20.8,-66.59l0 -192.5 -50.4 0 0 -42.8 50.4 0 0 -76.5 57.7 0zm264.69 399.7c-45.5,-0.1 -81,-14.6 -106.4,-43.7 -25.49,-29.1 -38.29,-67.4 -38.29,-114.79l0 -12.9c0,-45.5 13.2,-83.2 39.4,-113 26.3,-29.81 58.4,-44.71 96.3,-44.71 42.3,0 74.1,13.2 95.3,39.6 21.2,26.4 31.8,61.4 31.8,105.2l0 30.39 -202.7 0 -0.9 1.51c0,31.8 7,57.7 21.1,77.5 14.1,19.81 35.5,29.7 64.4,29.7 19.6,0 36.7,-2.7 51.5,-8.3 14.7,-5.6 27.41,-13.3 37.9,-23l22.6 37.5c-11.4,10.9 -26.3,20.2 -44.9,27.7 -18.5,7.5 -40.9,11.2 -67.1,11.3zm-9 -283.6c-20.2,0 -36.8,7.7 -50,23.2 -13.2,15.6 -21.2,35.4 -24.19,59.7l0.6 1.4 143 0 0 -4.7c0,-23 -5.7,-42 -17,-57.1 -11.3,-14.99 -28.8,-22.49 -52.4,-22.49zm473.69 130.9c0,45.7 -10.9,82.6 -32.8,110.59 -21.9,28 -52.1,42 -90.5,42.1 -19.6,-0.1 -36.7,-3.3 -51.4,-9.9 -14.81,-6.5 -27.31,-16.3 -37.71,-29.4l0 155 -57.7 0 0 -438.91 44.2 0 9.1 41c10.4,-15.2 23.3,-26.8 38.7,-34.8 15.4,-8.1 33.39,-12.1 53.9,-12.1 39.3,0 69.8,15.6 91.5,46.8 21.8,31.11 32.7,72.3 32.7,123.5l0 6.11zm-57.7 -6.11c0,-36 -7.1,-65.5 -21.2,-88.7 -14.2,-23.11 -35,-34.7 -62.6,-34.7 -16.6,0 -30.8,3.8 -42.5,11.3 -11.7,7.5 -21.2,17.8 -28.4,30.9l0 153.2c7.2,13.1 16.7,23.3 28.4,30.6 11.7,7.41 26.1,11 43.1,11 27.31,0 48,-10 62.1,-30 14.1,-20 21.1,-45.8 21.1,-77.5l0 -6.11zm515.8 152.6l-57.7 0 0 -317 57.7 0 0 317zm0 -398.1l-57.7 0 0 -58.9 57.7 0 0 58.9z"/>
   <path class="fil1" d="M6409.76 3344.34l4.1 47.2c10.5,-16.8 23.7,-29.9 39.7,-39.1 15.89,-9.29 34,-14 54.3,-14 34.2,0 60.6,10.1 79.4,30.1 18.7,20 28.1,50.9 28.1,92.7l0 200.1 -57.7 0 0 -198.9c0,-28 -5.5,-47.8 -16.5,-59.5 -11.11,-11.7 -27.9,-17.6 -50.6,-17.6 -17.81,0 -32.81,3.61 -45.21,10.7 -12.5,7.1 -22.3,17.2 -29.5,30l0 235.3 -57.7 0 0 -317 51.6 0zm694.5 -76.5l0 76.5 60 0 0 42.8 -60 0 0 192.5c0,14.8 3,25.3 9.2,31.29 6.1,6.11 14.3,9.1 24.5,9.1 3.3,0 7,-0.4 11.1,-1.29 4.1,-0.9 7.5,-1.8 10.2,-2.81l7.99 39.5c-4.29,3.61 -10.7,6.4 -19.1,8.7 -8.4,2.2 -16.7,3.3 -24.9,3.4 -23.4,-0.1 -42.1,-7.1 -55.9,-21.3 -13.9,-14.1 -20.8,-36.4 -20.8,-66.59l0 -192.5 -50.4 0 0 -42.8 50.4 0 0 -76.5 57.7 0zm120 232.1c0,-46.9 12.7,-85.5 38.1,-115.9 25.4,-30.39 59.9,-45.6 103.4,-45.6 44,0 78.7,15.21 104.2,45.5 25.5,30.2 38.2,68.9 38.2,115.99l0 6.4c0,47.3 -12.7,86 -38.1,116 -25.4,30.1 -59.9,45.1 -103.7,45.2 -43.7,-0.1 -78.41,-15.1 -103.81,-45.3 -25.49,-30.2 -38.29,-68.8 -38.29,-115.9l0 -6.4zm57.7 6.4c0,33.6 7.1,61.3 21.3,83.2 14.1,21.9 35.2,32.8 63.1,32.8 27.6,0 48.4,-10.9 62.7,-32.8 14.3,-21.9 21.4,-49.6 21.4,-83.2l0 -6.4c0,-33.2 -7.19,-60.9 -21.5,-82.9 -14.4,-22.1 -35.4,-33.1 -63.2,-33.1 -27.5,0 -48.4,11 -62.5,33.1 -14.2,22 -21.3,49.7 -21.3,82.9l0 6.4zm673.2 -162l4.1 47.2c10.5,-16.8 23.7,-29.9 39.7,-39.1 15.89,-9.29 34,-14 54.3,-14 34.2,0 60.6,10.1 79.4,30.1 18.7,20 28.1,50.9 28.1,92.7l0 200.1 -57.7 0 0 -198.9c0,-28 -5.5,-47.8 -16.5,-59.5 -11.11,-11.7 -27.9,-17.6 -50.6,-17.6 -17.81,0 -32.81,3.61 -45.21,10.7 -12.5,7.1 -22.3,17.2 -29.5,30l0 235.3 -57.7 0 0 -317 51.6 0zm432.29 323.2c-45.5,-0.1 -81,-14.6 -106.4,-43.7 -25.49,-29.1 -38.29,-67.4 -38.29,-114.79l0 -12.9c0,-45.5 13.2,-83.2 39.4,-113 26.3,-29.81 58.4,-44.71 96.3,-44.71 42.3,0 74.1,13.2 95.3,39.6 21.2,26.4 31.8,61.4 31.8,105.2l0 30.39 -202.7 0 -0.9 1.51c0,31.8 7,57.7 21.1,77.5 14.1,19.81 35.5,29.7 64.4,29.7 19.6,0 36.7,-2.7 51.5,-8.3 14.7,-5.6 27.41,-13.3 37.9,-23l22.6 37.5c-11.4,10.9 -26.3,20.2 -44.9,27.7 -18.5,7.5 -40.9,11.2 -67.1,11.3zm-9 -283.6c-20.2,0 -36.8,7.7 -50,23.2 -13.2,15.6 -21.2,35.4 -24.19,59.7l0.6 1.4 143 0 0 -4.7c0,-23 -5.7,-42 -17,-57.1 -11.3,-14.99 -28.8,-22.49 -52.4,-22.49zm404.9 230.5c-10,17 -22.8,30.1 -38.4,39.3 -15.6,9.2 -33.7,13.7 -54.2,13.8 -34.6,-0.1 -61.5,-11.1 -80.91,-33.2 -19.3,-22 -29,-56.4 -29,-103.1l0 -186.9 57.7 0 0 187.5c0,33.79 5,56.99 15,69.7 9.9,12.7 25.5,19.1 46.6,19.1 20.5,0 37.4,-4.2 50.8,-12.5 13.39,-8.3 23.5,-20 30.3,-35.3l0 -228.5 57.7 0 0 317 -51.8 0 -3.8 -46.9zm231.69 -346.6l0 76.5 60 0 0 42.8 -60 0 0 192.5c0,14.8 3,25.3 9.2,31.29 6.1,6.11 14.3,9.1 24.5,9.1 3.3,0 7,-0.4 11.1,-1.29 4.1,-0.9 7.5,-1.8 10.2,-2.81l7.99 39.5c-4.29,3.61 -10.7,6.4 -19.1,8.7 -8.4,2.2 -16.7,3.3 -24.9,3.4 -23.4,-0.1 -42.1,-7.1 -55.9,-21.3 -13.9,-14.1 -20.8,-36.4 -20.8,-66.59l0 -192.5 -50.4 0 0 -42.8 50.4 0 0 -76.5 57.7 0zm283.5 127.5l-29.6 -1.79c-15.2,0 -28.1,3.6 -38.5,10.89 -10.5,7.2 -18.5,17.31 -24.2,30.4l0 226.5 -57.7 0 0 -317 51.6 0 5.5 46.3c9,-16.4 20.09,-29.19 33.3,-38.4 13.2,-9.2 28.29,-13.8 45.5,-13.8 4.3,0 8.4,0.4 12.3,1.1 3.9,0.71 7.2,1.4 9.7,2.2l-7.9 53.6zm266.59 266c-1.9,-9.6 -3.39,-18 -4.5,-25.3 -1.1,-7.4 -1.7,-14.7 -1.9,-22.2 -10.8,15.3 -24.81,28 -42.1,38.3 -17.2,10.2 -35.9,15.3 -55.8,15.4 -33,-0.1 -58.1,-8.5 -75.4,-25.4 -17.31,-16.9 -25.9,-40.2 -25.9,-69.9 0,-30.2 12.2,-53.9 36.7,-71 24.5,-17.1 57.8,-25.6 99.8,-25.6l62.7 0 0 -31.41c0,-18.5 -5.71,-33.2 -17,-44.09 -11.3,-10.8 -27.4,-16.2 -48.11,-16.2 -18.7,0 -33.9,4.6 -45.39,14 -11.51,9.4 -17.31,20.6 -17.31,33.7l-54.7 0.6 -0.6 -1.79c-1.39,-23 9.41,-44.1 32.31,-63.2 22.99,-19.2 52.6,-28.8 88.99,-28.8 35.9,0 64.81,9.2 86.71,27.4 21.9,18.3 32.8,44.6 32.8,79l0 152.6c0,11.4 0.6,22.3 1.7,32.8 1.2,10.6 3.4,20.9 6.5,31.1l-59.5 0zm-95.8 -42.2c20.9,0 39.8,-5.4 56.6,-16.11 16.8,-10.7 27.7,-23.1 32.8,-36.9l0 -51.6 -64.8 0c-23.2,0 -41.81,5.9 -55.8,17.6 -13.9,11.7 -20.9,25.5 -20.9,41.3 0,14.1 4.41,25.2 13.21,33.39 8.7,8.2 21.69,12.31 38.9,12.31zm304.99 42.2l-57.7 0 0 -457 57.7 0 0 457zm162.89 0l-57.7 0 0 -317 57.7 0 0 317zm0 -398.1l-57.7 0 0 -58.9 57.7 0 0 58.9zm154.99 353.01l183.1 0 0 45.1 -252 0 0 -40.4 171.4 -230.9 -169.3 0 0 -45.7 239.9 0 0 39.3 -173.1 232.61zm385.49 51.3c-45.5,-0.1 -81,-14.6 -106.4,-43.7 -25.49,-29.1 -38.29,-67.4 -38.29,-114.79l0 -12.9c0,-45.5 13.2,-83.2 39.4,-113 26.3,-29.81 58.4,-44.71 96.3,-44.71 42.3,0 74.1,13.2 95.3,39.6 21.2,26.4 31.8,61.4 31.8,105.2l0 30.39 -202.7 0 -0.9 1.51c0,31.8 7,57.7 21.1,77.5 14.1,19.81 35.5,29.7 64.4,29.7 19.6,0 36.7,-2.7 51.5,-8.3 14.7,-5.6 27.41,-13.3 37.9,-23l22.6 37.5c-11.4,10.9 -26.3,20.2 -44.9,27.7 -18.5,7.5 -40.9,11.2 -67.1,11.3zm-9 -283.6c-20.2,0 -36.8,7.7 -50,23.2 -13.2,15.6 -21.2,35.4 -24.19,59.7l0.6 1.4 143 0 0 -4.7c0,-23 -5.7,-42 -17,-57.1 -11.3,-14.99 -28.8,-22.49 -52.4,-22.49zm579.1 277.4l-57.7 0 0 -317 57.7 0 0 317zm0 -398.1l-57.7 0 0 -58.9 57.7 0 0 58.9zm180.79 4.6l0 76.5 60 0 0 42.8 -60 0 0 192.5c0,14.8 3,25.3 9.2,31.29 6.1,6.11 14.3,9.1 24.5,9.1 3.3,0 7,-0.4 11.1,-1.29 4.1,-0.9 7.5,-1.8 10.2,-2.81l7.99 39.5c-4.29,3.61 -10.7,6.4 -19.1,8.7 -8.4,2.2 -16.7,3.3 -24.9,3.4 -23.4,-0.1 -42.1,-7.1 -55.9,-21.3 -13.9,-14.1 -20.8,-36.4 -20.8,-66.59l0 -192.5 -50.4 0 0 -42.8 50.4 0 0 -76.5 57.7 0zm-9491.87 961c0,-51 10.9,-92.1 32.7,-123.4 21.8,-31.2 52.3,-46.9 91.5,-46.9 19.2,0 36.1,3.7 50.7,11 14.7,7.4 27.2,17.99 37.5,31.8l8.2 -36.9 44.3 0 0 438.91 -57.79 0 0 -151.8c-10.1,11.9 -22.1,20.9 -36.01,27 -13.9,6 -29.7,9 -47.5,9.1 -38.6,-0.1 -68.9,-14.1 -90.8,-42.1 -21.8,-27.99 -32.8,-64.89 -32.8,-110.59l0 -6.11zm57.7 6.11c0,32 6.6,58 19.8,77.79 13.21,19.81 33.51,29.7 60.8,29.7 15.8,0 29.3,-3.5 40.6,-10.5 11.2,-7 20.61,-16.9 28.21,-29.6l0 -160c-7.6,-11.9 -17.01,-21.29 -28.21,-28.1 -11.29,-6.8 -24.59,-10.2 -39.99,-10.2 -27.6,0 -48,11.6 -61.2,34.99 -13.3,23.3 -20,53.2 -20,89.8l0 6.11zm497.8 99.6c-10,17 -22.8,30.1 -38.4,39.3 -15.6,9.2 -33.7,13.7 -54.2,13.8 -34.6,-0.1 -61.5,-11.1 -80.91,-33.2 -19.3,-22 -29,-56.4 -29,-103.1l0 -186.9 57.7 0 0 187.5c0,33.79 5,56.99 15,69.7 9.9,12.7 25.5,19.1 46.6,19.1 20.5,0 37.4,-4.2 50.8,-12.5 13.39,-8.3 23.5,-20 30.3,-35.3l0 -228.5 57.7 0 0 317 -51.8 0 -3.8 -46.9zm202.1 46.9l-57.7 0 0 -317 57.7 0 0 317zm0 -398.1l-57.7 0 0 -58.9 57.7 0 0 58.9zm214.8 359.1c17.7,0 33.3,-5.9 46.6,-17.71 13.2,-11.79 19.9,-26.29 19.9,-43.5l52.1 0 0.9 1.8c0.8,27.3 -10.89,51.6 -35.2,72.8 -24.2,21.2 -52.3,31.69 -84.3,31.8 -44.6,-0.1 -78.9,-15.2 -103.2,-45.5 -24.19,-30.21 -36.29,-67.9 -36.29,-113l0 -12.41c0,-44.7 12.19,-82.2 36.5,-112.6 24.3,-30.39 58.6,-45.6 103,-45.6 35.3,0 64.3,11 86.8,32.9 22.6,21.8 33.5,48.7 32.7,80.5l-0.6 1.8 -52.4 0c0,-19.4 -6.3,-35.8 -18.9,-49.4 -12.59,-13.61 -28.5,-20.3 -47.6,-20.3 -28.3,0 -49,10.89 -62,32.89 -13,22 -19.5,48.6 -19.5,79.8l0 12.41c0,31.8 6.4,58.6 19.2,80.5 12.8,21.9 33.6,32.8 62.3,32.8zm275.7 -107.2l-29.59 0 0 146.2 -57.71 0 0 -457 57.71 0 0 264.8 29 0 95.2 -124.8 69.2 0 -115.2 146.2 125.1 170.8 -68.2 0 -105.5 -146.2zm282.41 146.2l-57.7 0 0 -457 57.7 0 0 457zm185.8 -117.5l10.2 39.9 1.8 0 77.9 -239.4 64.2 0 -133.3 365.6c-8,21.3 -19.5,39.9 -34.5,55.7 -14.9,15.8 -35.1,23.7 -60.51,23.7 -4.6,0 -10.6,-0.5 -17.8,-1.6 -7.2,-1.11 -12.8,-2.1 -16.7,-3.1l5.8 -45.39c-1.1,-0.2 2.3,0 10.4,0.6 8.1,0.6 13.3,0.9 15.4,0.9 12.31,0 22.4,-5.5 30.21,-16.4 7.8,-10.89 14.4,-23.1 19.59,-36.29l13.8 -33.2 -117.8 -310.5 64.49 0 66.81 199.5zm611.8 117.5c-1.9,-9.6 -3.39,-18 -4.5,-25.3 -1.1,-7.4 -1.7,-14.7 -1.9,-22.2 -10.8,15.3 -24.81,28 -42.1,38.3 -17.2,10.2 -35.9,15.3 -55.8,15.4 -33,-0.1 -58.1,-8.5 -75.4,-25.4 -17.31,-16.9 -25.9,-40.2 -25.9,-69.9 0,-30.2 12.2,-53.9 36.7,-71 24.5,-17.1 57.8,-25.6 99.8,-25.6l62.7 0 0 -31.41c0,-18.5 -5.71,-33.2 -17,-44.09 -11.3,-10.8 -27.4,-16.2 -48.11,-16.2 -18.7,0 -33.9,4.6 -45.39,14 -11.51,9.4 -17.31,20.6 -17.31,33.7l-54.7 0.6 -0.6 -1.79c-1.39,-23 9.41,-44.1 32.31,-63.2 22.99,-19.2 52.6,-28.8 88.99,-28.8 35.9,0 64.81,9.2 86.71,27.4 21.9,18.3 32.8,44.6 32.8,79l0 152.6c0,11.4 0.6,22.3 1.7,32.8 1.2,10.6 3.4,20.9 6.5,31.1l-59.5 0zm-95.8 -42.2c20.9,0 39.8,-5.4 56.6,-16.11 16.8,-10.7 27.7,-23.1 32.8,-36.9l0 -51.6 -64.8 0c-23.2,0 -41.81,5.9 -55.8,17.6 -13.9,11.7 -20.9,25.5 -20.9,41.3 0,14.1 4.41,25.2 13.21,33.39 8.7,8.2 21.69,12.31 38.9,12.31zm282.5 -274.8l4.1 47.2c10.5,-16.8 23.7,-29.9 39.7,-39.1 15.89,-9.29 34,-14 54.3,-14 34.2,0 60.6,10.1 79.4,30.1 18.7,20 28.1,50.9 28.1,92.7l0 200.1 -57.7 0 0 -198.9c0,-28 -5.5,-47.8 -16.5,-59.5 -11.11,-11.7 -27.9,-17.6 -50.6,-17.6 -17.81,0 -32.81,3.61 -45.21,10.7 -12.5,7.1 -22.3,17.2 -29.5,30l0 235.3 -57.7 0 0 -317 51.6 0zm276.2 164.4c0,-51 10.9,-92.1 32.7,-123.4 21.8,-31.2 52.3,-46.9 91.5,-46.9 18.6,0 35,3.5 49.4,10.3 14.4,6.8 26.6,16.8 36.81,29.9l0 -174.3 57.7 0 0 457 -44.31 0 -8.7 -40.1c-10.4,15.2 -23.2,26.69 -38.4,34.49 -15.31,7.81 -32.9,11.7 -53.11,11.8 -38.6,-0.1 -68.9,-14.1 -90.8,-42.1 -21.8,-27.99 -32.8,-64.89 -32.8,-110.59l0 -6.11zm57.7 6.11c0,32 6.6,57.7 19.7,76.9 12.99,19.3 33.39,28.9 60.9,28.9 17.2,0 31.6,-3.9 43.4,-11.7 11.69,-7.9 21.2,-18.8 28.7,-32.9l0 -147.9c-7.5,-13.1 -17.1,-23.5 -28.9,-31.2 -11.79,-7.7 -26,-11.6 -42.6,-11.6 -27.8,0 -48.2,11.4 -61.41,34.3 -13.2,22.9 -19.8,52.49 -19.8,89.1l0 6.11zm639.9 152.7c-45.5,-0.1 -81,-14.6 -106.4,-43.7 -25.49,-29.1 -38.29,-67.4 -38.29,-114.79l0 -12.9c0,-45.5 13.2,-83.2 39.4,-113 26.3,-29.81 58.4,-44.71 96.3,-44.71 42.3,0 74.1,13.2 95.3,39.6 21.2,26.4 31.8,61.4 31.8,105.2l0 30.39 -202.7 0 -0.9 1.51c0,31.8 7,57.7 21.1,77.5 14.1,19.81 35.5,29.7 64.4,29.7 19.6,0 36.7,-2.7 51.5,-8.3 14.7,-5.6 27.41,-13.3 37.9,-23l22.6 37.5c-11.4,10.9 -26.3,20.2 -44.9,27.7 -18.5,7.5 -40.9,11.2 -67.1,11.3zm-9 -283.6c-20.2,0 -36.8,7.7 -50,23.2 -13.2,15.6 -21.2,35.4 -24.19,59.7l0.6 1.4 143 0 0 -4.7c0,-23 -5.7,-42 -17,-57.1 -11.3,-14.99 -28.8,-22.49 -52.4,-22.49zm215.9 277.4l0 -274.2 -49.49 0 0 -42.8 49.49 0 0 -40.1c0,-33.79 8.9,-59.89 26.51,-78.4 17.7,-18.5 42.4,-27.7 74,-27.7 6.69,0 13.3,0.6 20.09,1.6 6.7,1.1 14.2,2.6 22.4,4.6l-7 43.9c-3.6,-0.8 -7.8,-1.5 -12.8,-2 -5,-0.6 -10.2,-0.9 -15.7,-0.9 -16.8,0 -29.3,5 -37.5,15.1 -8.2,10 -12.3,24.6 -12.3,43.8l0 40.1 57.5 0 0 42.8 -57.5 0 0 274.2 -57.71 0zm197.5 0l0 -274.2 -49.49 0 0 -42.8 49.49 0 0 -40.1c0,-33.79 8.9,-59.89 26.51,-78.4 17.7,-18.5 42.4,-27.7 74,-27.7 6.69,0 13.3,0.6 20.09,1.6 6.7,1.1 14.2,2.6 22.4,4.6l-7 43.9c-3.6,-0.8 -7.8,-1.5 -12.8,-2 -5,-0.6 -10.2,-0.9 -15.7,-0.9 -16.8,0 -29.3,5 -37.5,15.1 -8.2,10 -12.3,24.6 -12.3,43.8l0 40.1 57.5 0 0 42.8 -57.5 0 0 274.2 -57.71 0zm297.71 6.2c-45.5,-0.1 -81,-14.6 -106.4,-43.7 -25.49,-29.1 -38.29,-67.4 -38.29,-114.79l0 -12.9c0,-45.5 13.2,-83.2 39.4,-113 26.3,-29.81 58.4,-44.71 96.3,-44.71 42.3,0 74.1,13.2 95.3,39.6 21.2,26.4 31.8,61.4 31.8,105.2l0 30.39 -202.7 0 -0.9 1.51c0,31.8 7,57.7 21.1,77.5 14.1,19.81 35.5,29.7 64.4,29.7 19.6,0 36.7,-2.7 51.5,-8.3 14.7,-5.6 27.41,-13.3 37.9,-23l22.6 37.5c-11.4,10.9 -26.3,20.2 -44.9,27.7 -18.5,7.5 -40.9,11.2 -67.1,11.3zm-9 -283.6c-20.2,0 -36.8,7.7 -50,23.2 -13.2,15.6 -21.2,35.4 -24.19,59.7l0.6 1.4 143 0 0 -4.7c0,-23 -5.7,-42 -17,-57.1 -11.3,-14.99 -28.8,-22.49 -52.4,-22.49zm317.9 238.4c17.7,0 33.3,-5.9 46.6,-17.71 13.2,-11.79 19.9,-26.29 19.9,-43.5l52.1 0 0.9 1.8c0.8,27.3 -10.89,51.6 -35.2,72.8 -24.2,21.2 -52.3,31.69 -84.3,31.8 -44.6,-0.1 -78.9,-15.2 -103.2,-45.5 -24.19,-30.21 -36.29,-67.9 -36.29,-113l0 -12.41c0,-44.7 12.19,-82.2 36.5,-112.6 24.3,-30.39 58.6,-45.6 103,-45.6 35.3,0 64.3,11 86.8,32.9 22.6,21.8 33.5,48.7 32.7,80.5l-0.6 1.8 -52.4 0c0,-19.4 -6.3,-35.8 -18.9,-49.4 -12.59,-13.61 -28.5,-20.3 -47.6,-20.3 -28.3,0 -49,10.89 -62,32.89 -13,22 -19.5,48.6 -19.5,79.8l0 12.41c0,31.8 6.4,58.6 19.2,80.5 12.8,21.9 33.6,32.8 62.3,32.8zm268.4 -354.5l0 76.5 60 0 0 42.8 -60 0 0 192.5c0,14.8 3,25.3 9.2,31.29 6.1,6.11 14.3,9.1 24.5,9.1 3.3,0 7,-0.4 11.1,-1.29 4.1,-0.9 7.5,-1.8 10.2,-2.81l7.99 39.5c-4.29,3.61 -10.7,6.4 -19.1,8.7 -8.4,2.2 -16.7,3.3 -24.9,3.4 -23.4,-0.1 -42.1,-7.1 -55.9,-21.3 -13.9,-14.1 -20.8,-36.4 -20.8,-66.59l0 -192.5 -50.4 0 0 -42.8 50.4 0 0 -76.5 57.7 0zm184.2 393.5l-57.7 0 0 -317 57.7 0 0 317zm0 -398.1l-57.7 0 0 -58.9 57.7 0 0 58.9zm194.6 304.6l4.9 22.3 1.79 0 5.6 -22.3 72.9 -223.5 58.91 0 -116.61 317 -43.69 0 -118 -317 59.2 0 75 223.5zm323.4 99.7c-45.5,-0.1 -81,-14.6 -106.4,-43.7 -25.49,-29.1 -38.29,-67.4 -38.29,-114.79l0 -12.9c0,-45.5 13.2,-83.2 39.4,-113 26.3,-29.81 58.4,-44.71 96.3,-44.71 42.3,0 74.1,13.2 95.3,39.6 21.2,26.4 31.8,61.4 31.8,105.2l0 30.39 -202.7 0 -0.9 1.51c0,31.8 7,57.7 21.1,77.5 14.1,19.81 35.5,29.7 64.4,29.7 19.6,0 36.7,-2.7 51.5,-8.3 14.7,-5.6 27.41,-13.3 37.9,-23l22.6 37.5c-11.4,10.9 -26.3,20.2 -44.9,27.7 -18.5,7.5 -40.9,11.2 -67.1,11.3zm-9 -283.6c-20.2,0 -36.8,7.7 -50,23.2 -13.2,15.6 -21.2,35.4 -24.19,59.7l0.6 1.4 143 0 0 -4.7c0,-23 -5.7,-42 -17,-57.1 -11.3,-14.99 -28.8,-22.49 -52.4,-22.49zm254.3 277.4l-57.7 0 0 -457 57.7 0 0 457zm185.8 -117.5l10.2 39.9 1.8 0 77.9 -239.4 64.2 0 -133.3 365.6c-8,21.3 -19.5,39.9 -34.5,55.7 -14.9,15.8 -35.1,23.7 -60.51,23.7 -4.6,0 -10.6,-0.5 -17.8,-1.6 -7.2,-1.11 -12.8,-2.1 -16.7,-3.1l5.8 -45.39c-1.1,-0.2 2.3,0 10.4,0.6 8.1,0.6 13.3,0.9 15.4,0.9 12.31,0 22.4,-5.5 30.21,-16.4 7.8,-10.89 14.4,-23.1 19.59,-36.29l13.8 -33.2 -117.8 -310.5 64.49 0 66.81 199.5zm236.5 117.5l-57.71 0 0 -59.2 57.71 0 0 59.2zm403.2 -147.9l7.3 55.9 1.69 0.31 10 -56.2 75.6 -278.7 56.5 0 76.2 278.7 10 57.1 1.7 0 7.9 -57.1 61 -278.7 62.7 0 -103.2 426.6 -51.5 0 -85.3 -295.9 -6.4 -38.4 -1.79 0 -6.11 38.4 -86.5 295.9 -51.5 0 -102.9 -426.6 62.4 0 62.2 278.7zm485.4 147.9l-57.7 0 0 -317 57.7 0 0 317zm0 -398.1l-57.7 0 0 -58.9 57.7 0 0 58.9zm169.1 4.6l0 76.5 60 0 0 42.8 -60 0 0 192.5c0,14.8 3,25.3 9.2,31.29 6.1,6.11 14.3,9.1 24.5,9.1 3.3,0 7,-0.4 11.1,-1.29 4.1,-0.9 7.5,-1.8 10.2,-2.81l7.99 39.5c-4.29,3.61 -10.7,6.4 -19.1,8.7 -8.4,2.2 -16.7,3.3 -24.9,3.4 -23.4,-0.1 -42.1,-7.1 -55.9,-21.3 -13.9,-14.1 -20.8,-36.4 -20.8,-66.59l0 -192.5 -50.4 0 0 -42.8 50.4 0 0 -76.5 57.7 0zm179.5 119c10.9,-15.21 24.41,-27.1 40.3,-35.61 15.9,-8.5 33.51,-12.8 52.9,-12.8 33.8,0 60.1,10.2 78.9,30.5 18.9,20.3 28.3,51.6 28.3,93.8l0 198.6 -57.7 0 0 -199.2c0,-26.2 -5.6,-45.5 -16.9,-58 -11.21,-12.5 -27.9,-18.8 -50.21,-18.8 -17.19,0 -32.09,3.4 -44.8,10.1 -12.7,6.8 -22.99,16.2 -30.8,28.3l0 237.6 -57.7 0 0 -457 57.7 0 0 182.5zm645.5 8.5l-29.6 -1.79c-15.2,0 -28.1,3.6 -38.5,10.89 -10.5,7.2 -18.5,17.31 -24.2,30.4l0 226.5 -57.7 0 0 -317 51.6 0 5.5 46.3c9,-16.4 20.09,-29.19 33.3,-38.4 13.2,-9.2 28.29,-13.8 45.5,-13.8 4.3,0 8.4,0.4 12.3,1.1 3.9,0.71 7.2,1.4 9.7,2.2l-7.9 53.6zm40.7 104.6c0,-46.9 12.7,-85.5 38.1,-115.9 25.4,-30.39 59.9,-45.6 103.4,-45.6 44,0 78.7,15.21 104.2,45.5 25.5,30.2 38.2,68.9 38.2,115.99l0 6.4c0,47.3 -12.7,86 -38.1,116 -25.4,30.1 -59.9,45.1 -103.7,45.2 -43.7,-0.1 -78.41,-15.1 -103.81,-45.3 -25.49,-30.2 -38.29,-68.8 -38.29,-115.9l0 -6.4zm57.7 6.4c0,33.6 7.1,61.3 21.3,83.2 14.1,21.9 35.2,32.8 63.1,32.8 27.6,0 48.4,-10.9 62.7,-32.8 14.3,-21.9 21.4,-49.6 21.4,-83.2l0 -6.4c0,-33.2 -7.19,-60.9 -21.5,-82.9 -14.4,-22.1 -35.4,-33.1 -63.2,-33.1 -27.5,0 -48.4,11 -62.5,33.1 -14.2,22 -21.3,49.7 -21.3,82.9l0 6.4zm567.5 8.5c0,45.7 -11,82.6 -33,110.59 -21.9,28 -52.2,42 -90.6,42.1 -21.1,-0.1 -39.4,-4.2 -54.99,-12.5 -15.5,-8.3 -28.3,-20.6 -38.51,-36.8l-9.4 43.1 -44.2 0 0 -457 57.7 0 0 177.5c10,-14.1 22.31,-24.81 37.1,-32.2 14.7,-7.4 32,-11.2 51.7,-11.2 39,0 69.49,15.7 91.4,46.9 21.9,31.3 32.8,72.4 32.8,123.4l0 6.11zm-57.7 -6.11c0,-36.4 -6.7,-66 -20.1,-89 -13.4,-22.89 -33.7,-34.4 -61.1,-34.4 -17.7,0 -32.7,4.41 -44.9,13.1 -12.2,8.7 -22,20.3 -29.2,34.99l0 137.41c7.4,15.6 17.2,27.8 29.2,36.6 12,8.8 27.2,13.2 45.5,13.2 27.2,0 47.39,-9.7 60.69,-29 13.21,-19.41 19.91,-44.9 19.91,-76.8l0 -6.11zm329.3 105.7c-10,17 -22.8,30.1 -38.4,39.3 -15.6,9.2 -33.7,13.7 -54.2,13.8 -34.6,-0.1 -61.5,-11.1 -80.91,-33.2 -19.3,-22 -29,-56.4 -29,-103.1l0 -186.9 57.7 0 0 187.5c0,33.79 5,56.99 15,69.7 9.9,12.7 25.5,19.1 46.6,19.1 20.5,0 37.4,-4.2 50.8,-12.5 13.39,-8.3 23.5,-20 30.3,-35.3l0 -228.5 57.7 0 0 317 -51.8 0 -3.8 -46.9zm324 -38.4c0,-12.7 -4.91,-22.99 -14.5,-31 -9.7,-8 -28,-15.1 -55,-21.1 -37.3,-8 -65.91,-19.2 -85.9,-33.7 -20.1,-14.5 -30.1,-33.8 -30.1,-58.01 0,-25.8 11,-47.89 33,-66.19 22,-18.4 50.39,-27.6 85.4,-27.6 35.9,0 65,9.81 87.3,29.3 22.3,19.59 32.9,42.3 31.9,68.3l-0.6 1.8 -55 0c0,-13.7 -6,-26.1 -18.1,-37.2 -12.01,-11.2 -27.2,-16.69 -45.5,-16.69 -20.3,0 -35.5,4.5 -45.6,13.7 -10,9.19 -15.1,20.09 -15.1,32.8 0,12.5 4.41,22.2 13.1,29 8.7,6.9 26.6,13.1 53.69,18.8 38.91,8.2 68.41,19.8 88.5,34.9 20.1,15 30.21,34.59 30.21,58.8 0,28.2 -11.4,51.1 -34.1,68.9 -22.8,17.8 -52.5,26.6 -89.3,26.7 -40.4,-0.1 -72.21,-10.3 -95.5,-30.8 -23.21,-20.49 -34.2,-44.4 -33.11,-71.8l0.6 -1.7 55.1 0c1,20.5 8.6,35.4 22.9,44.9 14.2,9.5 30.9,14.2 50,14.2 20.6,0 36.6,-4.3 48.2,-13 11.7,-8.7 17.5,-19.8 17.5,-33.3zm209.8 -308.2l0 76.5 60 0 0 42.8 -60 0 0 192.5c0,14.8 3,25.3 9.2,31.29 6.1,6.11 14.3,9.1 24.5,9.1 3.3,0 7,-0.4 11.1,-1.29 4.1,-0.9 7.5,-1.8 10.2,-2.81l7.99 39.5c-4.29,3.61 -10.7,6.4 -19.1,8.7 -8.4,2.2 -16.7,3.3 -24.9,3.4 -23.4,-0.1 -42.1,-7.1 -55.9,-21.3 -13.9,-14.1 -20.8,-36.4 -20.8,-66.59l0 -192.5 -50.4 0 0 -42.8 50.4 0 0 -76.5 57.7 0zm-9294.34 1028.3c0,-12.7 -4.91,-22.99 -14.5,-31 -9.7,-8 -28,-15.1 -55,-21.1 -37.3,-8 -65.91,-19.2 -85.9,-33.7 -20.1,-14.5 -30.1,-33.8 -30.1,-58.01 0,-25.8 11,-47.89 33,-66.19 22,-18.4 50.39,-27.6 85.4,-27.6 35.9,0 65,9.81 87.3,29.3 22.3,19.59 32.9,42.3 31.9,68.3l-0.6 1.8 -55 0c0,-13.7 -6,-26.1 -18.1,-37.2 -12.01,-11.2 -27.2,-16.69 -45.5,-16.69 -20.3,0 -35.5,4.5 -45.6,13.7 -10,9.19 -15.1,20.09 -15.1,32.8 0,12.5 4.41,22.2 13.1,29 8.7,6.9 26.6,13.1 53.69,18.8 38.91,8.2 68.41,19.8 88.5,34.9 20.1,15 30.21,34.59 30.21,58.8 0,28.2 -11.4,51.1 -34.1,68.9 -22.8,17.8 -52.5,26.6 -89.3,26.7 -40.4,-0.1 -72.21,-10.3 -95.5,-30.8 -23.21,-20.49 -34.2,-44.4 -33.11,-71.8l0.6 -1.7 55.1 0c1,20.5 8.6,35.4 22.9,44.9 14.2,9.5 30.9,14.2 50,14.2 20.6,0 36.6,-4.3 48.2,-13 11.7,-8.7 17.5,-19.8 17.5,-33.3zm257.28 -308.2l0 76.5 60 0 0 42.8 -60 0 0 192.5c0,14.8 3,25.3 9.2,31.29 6.1,6.11 14.3,9.1 24.5,9.1 3.3,0 7,-0.4 11.1,-1.29 4.1,-0.9 7.5,-1.8 10.2,-2.81l7.99 39.5c-4.29,3.61 -10.7,6.4 -19.1,8.7 -8.4,2.2 -16.7,3.3 -24.9,3.4 -23.4,-0.1 -42.1,-7.1 -55.9,-21.3 -13.9,-14.1 -20.8,-36.4 -20.8,-66.59l0 -192.5 -50.4 0 0 -42.8 50.4 0 0 -76.5 57.7 0zm319.28 127.5l-29.6 -1.79c-15.2,0 -28.1,3.6 -38.5,10.89 -10.5,7.2 -18.5,17.31 -24.2,30.4l0 226.5 -57.7 0 0 -317 51.6 0 5.5 46.3c9,-16.4 20.09,-29.19 33.3,-38.4 13.2,-9.2 28.29,-13.8 45.5,-13.8 4.3,0 8.4,0.4 12.3,1.1 3.9,0.71 7.2,1.4 9.7,2.2l-7.9 53.6zm302.37 266c-1.9,-9.6 -3.39,-18 -4.5,-25.3 -1.1,-7.4 -1.7,-14.7 -1.9,-22.2 -10.8,15.3 -24.81,28 -42.1,38.3 -17.2,10.2 -35.9,15.3 -55.8,15.4 -33,-0.1 -58.1,-8.5 -75.4,-25.4 -17.31,-16.9 -25.9,-40.2 -25.9,-69.9 0,-30.2 12.2,-53.9 36.7,-71 24.5,-17.1 57.8,-25.6 99.8,-25.6l62.7 0 0 -31.41c0,-18.5 -5.71,-33.2 -17,-44.09 -11.3,-10.8 -27.4,-16.2 -48.11,-16.2 -18.7,0 -33.9,4.6 -45.39,14 -11.51,9.4 -17.31,20.6 -17.31,33.7l-54.7 0.6 -0.6 -1.79c-1.39,-23 9.41,-44.1 32.31,-63.2 22.99,-19.2 52.6,-28.8 88.99,-28.8 35.9,0 64.81,9.2 86.71,27.4 21.9,18.3 32.8,44.6 32.8,79l0 152.6c0,11.4 0.6,22.3 1.7,32.8 1.2,10.6 3.4,20.9 6.5,31.1l-59.5 0zm-95.8 -42.2c20.9,0 39.8,-5.4 56.6,-16.11 16.8,-10.7 27.7,-23.1 32.8,-36.9l0 -51.6 -64.8 0c-23.2,0 -41.81,5.9 -55.8,17.6 -13.9,11.7 -20.9,25.5 -20.9,41.3 0,14.1 4.41,25.2 13.21,33.39 8.7,8.2 21.69,12.31 38.9,12.31zm358.68 -351.31l0 76.5 60 0 0 42.8 -60 0 0 192.5c0,14.8 3,25.3 9.2,31.29 6.1,6.11 14.3,9.1 24.5,9.1 3.3,0 7,-0.4 11.1,-1.29 4.1,-0.9 7.5,-1.8 10.2,-2.81l7.99 39.5c-4.29,3.61 -10.7,6.4 -19.1,8.7 -8.4,2.2 -16.7,3.3 -24.9,3.4 -23.4,-0.1 -42.1,-7.1 -55.9,-21.3 -13.9,-14.1 -20.8,-36.4 -20.8,-66.59l0 -192.5 -50.4 0 0 -42.8 50.4 0 0 -76.5 57.7 0z"/>
   <path class="fil1" d="M3376.52 5107.75c-45.5,-0.1 -81,-14.6 -106.4,-43.7 -25.49,-29.1 -38.29,-67.4 -38.29,-114.79l0 -12.9c0,-45.5 13.2,-83.2 39.4,-113 26.3,-29.81 58.4,-44.71 96.3,-44.71 42.3,0 74.1,13.2 95.3,39.6 21.2,26.4 31.8,61.4 31.8,105.2l0 30.39 -202.7 0 -0.9 1.51c0,31.8 7,57.7 21.1,77.5 14.1,19.81 35.5,29.7 64.4,29.7 19.6,0 36.7,-2.7 51.5,-8.3 14.7,-5.6 27.41,-13.3 37.9,-23l22.6 37.5c-11.4,10.9 -26.3,20.2 -44.9,27.7 -18.5,7.5 -40.9,11.2 -67.1,11.3zm-9 -283.6c-20.2,0 -36.8,7.7 -50,23.2 -13.2,15.6 -21.2,35.4 -24.19,59.7l0.6 1.4 143 0 0 -4.7c0,-23 -5.7,-42 -17,-57.1 -11.3,-14.99 -28.8,-22.49 -52.4,-22.49zm229.08 124.8c0,-51 10.9,-92.1 32.7,-123.4 21.8,-31.2 52.21,-46.9 91.31,-46.9 20.09,0 37.8,4.1 53,12.2 15.2,8.1 28,19.8 38.4,35l7 -41.3 46 0 0 318.8c0,40.6 -11.8,71.8 -35.4,93.59 -23.7,21.7 -57.8,32.6 -102.3,32.6 -15.2,0 -31.69,-2.1 -49.4,-6.3 -17.59,-4.2 -33.2,-9.9 -46.7,-17.1l8.8 -44.8c11.1,5.8 24.59,10.6 40.3,14.2 15.7,3.6 31.19,5.4 46.4,5.4 28.1,0 48.6,-6.4 61.4,-19.2 12.8,-12.8 19.2,-32.3 19.2,-58.4l0 -36.1c-10.4,13.3 -22.8,23.39 -37.2,30.2 -14.5,6.8 -31.2,10.2 -50.1,10.3 -38.7,-0.1 -68.9,-14.1 -90.7,-42.1 -21.8,-27.99 -32.7,-64.89 -32.7,-110.59l0 -6.11zm57.8 6.11c0,31.9 6.5,57.39 19.6,76.8 13.1,19.3 33.3,29 60.6,29 17.4,0 32,-4 43.7,-11.9 11.7,-7.9 21.4,-19.1 29,-33.51l0 -145.9c-7.4,-13.5 -17.1,-24.19 -29,-32.09 -11.91,-7.9 -26.3,-11.91 -43.11,-11.91 -27.49,0 -47.89,11.4 -61.1,34.3 -13.2,22.9 -19.7,52.49 -19.7,89.1l0 6.11zm403.38 146.5l-57.7 0 0 -317 57.7 0 0 317zm0 -398.1l-57.7 0 0 -58.9 57.7 0 0 58.9zm267.47 404.3c-45.5,-0.1 -81,-14.6 -106.4,-43.7 -25.49,-29.1 -38.29,-67.4 -38.29,-114.79l0 -12.9c0,-45.5 13.2,-83.2 39.4,-113 26.3,-29.81 58.4,-44.71 96.3,-44.71 42.3,0 74.1,13.2 95.3,39.6 21.2,26.4 31.8,61.4 31.8,105.2l0 30.39 -202.7 0 -0.9 1.51c0,31.8 7,57.7 21.1,77.5 14.1,19.81 35.5,29.7 64.4,29.7 19.6,0 36.7,-2.7 51.5,-8.3 14.7,-5.6 27.41,-13.3 37.9,-23l22.6 37.5c-11.4,10.9 -26.3,20.2 -44.9,27.7 -18.5,7.5 -40.9,11.2 -67.1,11.3zm-9 -283.6c-20.2,0 -36.8,7.7 -50,23.2 -13.2,15.6 -21.2,35.4 -24.19,59.7l0.6 1.4 143 0 0 -4.7c0,-23 -5.7,-42 -17,-57.1 -11.3,-14.99 -28.8,-22.49 -52.4,-22.49zm423.68 192.1c0,-12.7 -4.91,-22.99 -14.5,-31 -9.7,-8 -28,-15.1 -55,-21.1 -37.3,-8 -65.91,-19.2 -85.9,-33.7 -20.1,-14.5 -30.1,-33.8 -30.1,-58.01 0,-25.8 11,-47.89 33,-66.19 22,-18.4 50.39,-27.6 85.4,-27.6 35.9,0 65,9.81 87.3,29.3 22.3,19.59 32.9,42.3 31.9,68.3l-0.6 1.8 -55 0c0,-13.7 -6,-26.1 -18.1,-37.2 -12.01,-11.2 -27.2,-16.69 -45.5,-16.69 -20.3,0 -35.5,4.5 -45.6,13.7 -10,9.19 -15.1,20.09 -15.1,32.8 0,12.5 4.41,22.2 13.1,29 8.7,6.9 26.6,13.1 53.69,18.8 38.91,8.2 68.41,19.8 88.5,34.9 20.1,15 30.21,34.59 30.21,58.8 0,28.2 -11.4,51.1 -34.1,68.9 -22.8,17.8 -52.5,26.6 -89.3,26.7 -40.4,-0.1 -72.21,-10.3 -95.5,-30.8 -23.21,-20.49 -34.2,-44.4 -33.11,-71.8l0.6 -1.7 55.1 0c1,20.5 8.6,35.4 22.9,44.9 14.2,9.5 30.9,14.2 50,14.2 20.6,0 36.6,-4.3 48.2,-13 11.7,-8.7 17.5,-19.8 17.5,-33.3zm227.38 71.2l-44 89.7 -34.2 0 20.5 -92.6 0 -47.7 57.7 0 0 50.6zm509.68 -101.3l7.4 40.7 1.7 0 7.6 -40.7 63.29 -201.6 46.3 0 63.6 201.6 8.2 45.39 1.8 0 9.3 -45.39 46.9 -201.6 60.39 0 -92 317 -46.6 0 -62.7 -193.1 -12 -50.4 -1.8 0 -11.1 50.4 -61.5 193.1 -46.6 0 -92 -317 60 0 49.8 201.6zm551.68 121.6c-45.5,-0.1 -81,-14.6 -106.4,-43.7 -25.49,-29.1 -38.29,-67.4 -38.29,-114.79l0 -12.9c0,-45.5 13.2,-83.2 39.4,-113 26.3,-29.81 58.4,-44.71 96.3,-44.71 42.3,0 74.1,13.2 95.3,39.6 21.2,26.4 31.8,61.4 31.8,105.2l0 30.39 -202.7 0 -0.9 1.51c0,31.8 7,57.7 21.1,77.5 14.1,19.81 35.5,29.7 64.4,29.7 19.6,0 36.7,-2.7 51.5,-8.3 14.7,-5.6 27.41,-13.3 37.9,-23l22.6 37.5c-11.4,10.9 -26.3,20.2 -44.9,27.7 -18.5,7.5 -40.9,11.2 -67.1,11.3zm-9 -283.6c-20.2,0 -36.8,7.7 -50,23.2 -13.2,15.6 -21.2,35.4 -24.19,59.7l0.6 1.4 143 0 0 -4.7c0,-23 -5.7,-42 -17,-57.1 -11.3,-14.99 -28.8,-22.49 -52.4,-22.49zm736.79 192.1c0,-12.7 -4.91,-22.99 -14.5,-31 -9.7,-8 -28,-15.1 -55,-21.1 -37.3,-8 -65.91,-19.2 -85.9,-33.7 -20.1,-14.5 -30.1,-33.8 -30.1,-58.01 0,-25.8 11,-47.89 33,-66.19 22,-18.4 50.39,-27.6 85.4,-27.6 35.9,0 65,9.81 87.3,29.3 22.3,19.59 32.9,42.3 31.9,68.3l-0.6 1.8 -55 0c0,-13.7 -6,-26.1 -18.1,-37.2 -12.01,-11.2 -27.2,-16.69 -45.5,-16.69 -20.3,0 -35.5,4.5 -45.6,13.7 -10,9.19 -15.1,20.09 -15.1,32.8 0,12.5 4.41,22.2 13.1,29 8.7,6.9 26.6,13.1 53.69,18.8 38.91,8.2 68.41,19.8 88.5,34.9 20.1,15 30.21,34.59 30.21,58.8 0,28.2 -11.4,51.1 -34.1,68.9 -22.8,17.8 -52.5,26.6 -89.3,26.7 -40.4,-0.1 -72.21,-10.3 -95.5,-30.8 -23.21,-20.49 -34.2,-44.4 -33.11,-71.8l0.6 -1.7 55.1 0c1,20.5 8.6,35.4 22.9,44.9 14.2,9.5 30.9,14.2 50,14.2 20.6,0 36.6,-4.3 48.2,-13 11.7,-8.7 17.5,-19.8 17.5,-33.3zm371.78 85.3c-1.9,-9.6 -3.39,-18 -4.5,-25.3 -1.1,-7.4 -1.7,-14.7 -1.9,-22.2 -10.8,15.3 -24.81,28 -42.1,38.3 -17.2,10.2 -35.9,15.3 -55.8,15.4 -33,-0.1 -58.1,-8.5 -75.4,-25.4 -17.31,-16.9 -25.9,-40.2 -25.9,-69.9 0,-30.2 12.2,-53.9 36.7,-71 24.5,-17.1 57.8,-25.6 99.8,-25.6l62.7 0 0 -31.41c0,-18.5 -5.71,-33.2 -17,-44.09 -11.3,-10.8 -27.4,-16.2 -48.11,-16.2 -18.7,0 -33.9,4.6 -45.39,14 -11.51,9.4 -17.31,20.6 -17.31,33.7l-54.7 0.6 -0.6 -1.79c-1.39,-23 9.41,-44.1 32.31,-63.2 22.99,-19.2 52.6,-28.8 88.99,-28.8 35.9,0 64.81,9.2 86.71,27.4 21.9,18.3 32.8,44.6 32.8,79l0 152.6c0,11.4 0.6,22.3 1.7,32.8 1.2,10.6 3.4,20.9 6.5,31.1l-59.5 0zm-95.8 -42.2c20.9,0 39.8,-5.4 56.6,-16.11 16.8,-10.7 27.7,-23.1 32.8,-36.9l0 -51.6 -64.8 0c-23.2,0 -41.81,5.9 -55.8,17.6 -13.9,11.7 -20.9,25.5 -20.9,41.3 0,14.1 4.41,25.2 13.21,33.39 8.7,8.2 21.69,12.31 38.9,12.31zm302.37 42.2l0 -274.2 -49.49 0 0 -42.8 49.49 0 0 -40.1c0,-33.79 8.9,-59.89 26.51,-78.4 17.7,-18.5 42.4,-27.7 74,-27.7 6.69,0 13.3,0.6 20.09,1.6 6.7,1.1 14.2,2.6 22.4,4.6l-7 43.9c-3.6,-0.8 -7.8,-1.5 -12.8,-2 -5,-0.6 -10.2,-0.9 -15.7,-0.9 -16.8,0 -29.3,5 -37.5,15.1 -8.2,10 -12.3,24.6 -12.3,43.8l0 40.1 57.5 0 0 42.8 -57.5 0 0 274.2 -57.71 0zm345.18 6.2c-45.5,-0.1 -81,-14.6 -106.4,-43.7 -25.49,-29.1 -38.29,-67.4 -38.29,-114.79l0 -12.9c0,-45.5 13.2,-83.2 39.4,-113 26.3,-29.81 58.4,-44.71 96.3,-44.71 42.3,0 74.1,13.2 95.3,39.6 21.2,26.4 31.8,61.4 31.8,105.2l0 30.39 -202.7 0 -0.9 1.51c0,31.8 7,57.7 21.1,77.5 14.1,19.81 35.5,29.7 64.4,29.7 19.6,0 36.7,-2.7 51.5,-8.3 14.7,-5.6 27.41,-13.3 37.9,-23l22.6 37.5c-11.4,10.9 -26.3,20.2 -44.9,27.7 -18.5,7.5 -40.9,11.2 -67.1,11.3zm-9 -283.6c-20.2,0 -36.8,7.7 -50,23.2 -13.2,15.6 -21.2,35.4 -24.19,59.7l0.6 1.4 143 0 0 -4.7c0,-23 -5.7,-42 -17,-57.1 -11.3,-14.99 -28.8,-22.49 -52.4,-22.49zm229.08 124.8c0,-51 10.9,-92.1 32.7,-123.4 21.8,-31.2 52.21,-46.9 91.31,-46.9 20.09,0 37.8,4.1 53,12.2 15.2,8.1 28,19.8 38.4,35l7 -41.3 46 0 0 318.8c0,40.6 -11.8,71.8 -35.4,93.59 -23.7,21.7 -57.8,32.6 -102.3,32.6 -15.2,0 -31.69,-2.1 -49.4,-6.3 -17.59,-4.2 -33.2,-9.9 -46.7,-17.1l8.8 -44.8c11.1,5.8 24.59,10.6 40.3,14.2 15.7,3.6 31.19,5.4 46.4,5.4 28.1,0 48.6,-6.4 61.4,-19.2 12.8,-12.8 19.2,-32.3 19.2,-58.4l0 -36.1c-10.4,13.3 -22.8,23.39 -37.2,30.2 -14.5,6.8 -31.2,10.2 -50.1,10.3 -38.7,-0.1 -68.9,-14.1 -90.7,-42.1 -21.8,-27.99 -32.7,-64.89 -32.7,-110.59l0 -6.11zm57.8 6.11c0,31.9 6.5,57.39 19.6,76.8 13.1,19.3 33.3,29 60.6,29 17.4,0 32,-4 43.7,-11.9 11.7,-7.9 21.4,-19.1 29,-33.51l0 -145.9c-7.4,-13.5 -17.1,-24.19 -29,-32.09 -11.91,-7.9 -26.3,-11.91 -43.11,-11.91 -27.49,0 -47.89,11.4 -61.1,34.3 -13.2,22.9 -19.7,52.49 -19.7,89.1l0 6.11zm542.28 99.6c-10,17 -22.8,30.1 -38.4,39.3 -15.6,9.2 -33.7,13.7 -54.2,13.8 -34.6,-0.1 -61.5,-11.1 -80.91,-33.2 -19.3,-22 -29,-56.4 -29,-103.1l0 -186.9 57.7 0 0 187.5c0,33.79 5,56.99 15,69.7 9.9,12.7 25.5,19.1 46.6,19.1 20.5,0 37.4,-4.2 50.8,-12.5 13.39,-8.3 23.5,-20 30.3,-35.3l0 -228.5 57.7 0 0 317 -51.8 0 -3.8 -46.9zm381.97 46.9c-1.9,-9.6 -3.39,-18 -4.5,-25.3 -1.1,-7.4 -1.7,-14.7 -1.9,-22.2 -10.8,15.3 -24.81,28 -42.1,38.3 -17.2,10.2 -35.9,15.3 -55.8,15.4 -33,-0.1 -58.1,-8.5 -75.4,-25.4 -17.31,-16.9 -25.9,-40.2 -25.9,-69.9 0,-30.2 12.2,-53.9 36.7,-71 24.5,-17.1 57.8,-25.6 99.8,-25.6l62.7 0 0 -31.41c0,-18.5 -5.71,-33.2 -17,-44.09 -11.3,-10.8 -27.4,-16.2 -48.11,-16.2 -18.7,0 -33.9,4.6 -45.39,14 -11.51,9.4 -17.31,20.6 -17.31,33.7l-54.7 0.6 -0.6 -1.79c-1.39,-23 9.41,-44.1 32.31,-63.2 22.99,-19.2 52.6,-28.8 88.99,-28.8 35.9,0 64.81,9.2 86.71,27.4 21.9,18.3 32.8,44.6 32.8,79l0 152.6c0,11.4 0.6,22.3 1.7,32.8 1.2,10.6 3.4,20.9 6.5,31.1l-59.5 0zm-95.8 -42.2c20.9,0 39.8,-5.4 56.6,-16.11 16.8,-10.7 27.7,-23.1 32.8,-36.9l0 -51.6 -64.8 0c-23.2,0 -41.81,5.9 -55.8,17.6 -13.9,11.7 -20.9,25.5 -20.9,41.3 0,14.1 4.41,25.2 13.21,33.39 8.7,8.2 21.69,12.31 38.9,12.31zm428.38 -223.81l-29.6 -1.79c-15.2,0 -28.1,3.6 -38.5,10.89 -10.5,7.2 -18.5,17.31 -24.2,30.4l0 226.5 -57.7 0 0 -317 51.6 0 5.5 46.3c9,-16.4 20.09,-29.19 33.3,-38.4 13.2,-9.2 28.29,-13.8 45.5,-13.8 4.3,0 8.4,0.4 12.3,1.1 3.9,0.71 7.2,1.4 9.7,2.2l-7.9 53.6zm88.77 113.4c0,-51 10.9,-92.1 32.7,-123.4 21.8,-31.2 52.3,-46.9 91.5,-46.9 18.6,0 35,3.5 49.4,10.3 14.4,6.8 26.6,16.8 36.81,29.9l0 -174.3 57.7 0 0 457 -44.31 0 -8.7 -40.1c-10.4,15.2 -23.2,26.69 -38.4,34.49 -15.31,7.81 -32.9,11.7 -53.11,11.8 -38.6,-0.1 -68.9,-14.1 -90.8,-42.1 -21.8,-27.99 -32.8,-64.89 -32.8,-110.59l0 -6.11zm57.7 6.11c0,32 6.6,57.7 19.7,76.9 12.99,19.3 33.39,28.9 60.9,28.9 17.2,0 31.6,-3.9 43.4,-11.7 11.69,-7.9 21.2,-18.8 28.7,-32.9l0 -147.9c-7.5,-13.1 -17.1,-23.5 -28.9,-31.2 -11.79,-7.7 -26,-11.6 -42.6,-11.6 -27.8,0 -48.2,11.4 -61.41,34.3 -13.2,22.9 -19.8,52.49 -19.8,89.1l0 6.11zm754.09 29l10.2 39.9 1.8 0 77.9 -239.4 64.2 0 -133.3 365.6c-8,21.3 -19.5,39.9 -34.5,55.7 -14.9,15.8 -35.1,23.7 -60.51,23.7 -4.6,0 -10.6,-0.5 -17.8,-1.6 -7.2,-1.11 -12.8,-2.1 -16.7,-3.1l5.8 -45.39c-1.1,-0.2 2.3,0 10.4,0.6 8.1,0.6 13.3,0.9 15.4,0.9 12.31,0 22.4,-5.5 30.21,-16.4 7.8,-10.89 14.4,-23.1 19.59,-36.29l13.8 -33.2 -117.8 -310.5 64.49 0 66.81 199.5zm234.39 -43.91c0,-46.9 12.7,-85.5 38.1,-115.9 25.4,-30.39 59.9,-45.6 103.4,-45.6 44,0 78.7,15.21 104.2,45.5 25.5,30.2 38.2,68.9 38.2,115.99l0 6.4c0,47.3 -12.7,86 -38.1,116 -25.4,30.1 -59.9,45.1 -103.7,45.2 -43.7,-0.1 -78.41,-15.1 -103.81,-45.3 -25.49,-30.2 -38.29,-68.8 -38.29,-115.9l0 -6.4zm57.7 6.4c0,33.6 7.1,61.3 21.3,83.2 14.1,21.9 35.2,32.8 63.1,32.8 27.6,0 48.4,-10.9 62.7,-32.8 14.3,-21.9 21.4,-49.6 21.4,-83.2l0 -6.4c0,-33.2 -7.19,-60.9 -21.5,-82.9 -14.4,-22.1 -35.4,-33.1 -63.2,-33.1 -27.5,0 -48.4,11 -62.5,33.1 -14.2,22 -21.3,49.7 -21.3,82.9l0 6.4zm545.58 108.1c-10,17 -22.8,30.1 -38.4,39.3 -15.6,9.2 -33.7,13.7 -54.2,13.8 -34.6,-0.1 -61.5,-11.1 -80.91,-33.2 -19.3,-22 -29,-56.4 -29,-103.1l0 -186.9 57.7 0 0 187.5c0,33.79 5,56.99 15,69.7 9.9,12.7 25.5,19.1 46.6,19.1 20.5,0 37.4,-4.2 50.8,-12.5 13.39,-8.3 23.5,-20 30.3,-35.3l0 -228.5 57.7 0 0 317 -51.8 0 -3.8 -46.9zm337.17 -219.1l-29.6 -1.79c-15.2,0 -28.1,3.6 -38.5,10.89 -10.5,7.2 -18.5,17.31 -24.2,30.4l0 226.5 -57.7 0 0 -317 51.6 0 5.5 46.3c9,-16.4 20.09,-29.19 33.3,-38.4 13.2,-9.2 28.29,-13.8 45.5,-13.8 4.3,0 8.4,0.4 12.3,1.1 3.9,0.71 7.2,1.4 9.7,2.2l-7.9 53.6zm-9488.59 669.11l4.1 41.6c10.3,-15 23.4,-26.7 39.4,-35 15.9,-8.3 34.4,-12.5 55.51,-12.5 21.1,0 39.19,4.9 54.3,14.7 15.2,9.8 26.5,24.4 34.2,43.9 10.09,-18.1 23.3,-32.4 39.7,-42.9 16.3,-10.4 35.4,-15.7 57.21,-15.7 32.3,0 57.7,11.1 76.49,33.3 18.7,22.2 28.11,55.5 28.11,100l0 189.6 -57.7 0 0 -190.1c0,-31.3 -5.4,-53.4 -16.11,-66.41 -10.7,-12.99 -26.8,-19.5 -48.1,-19.5 -19.7,0 -35.6,6.91 -47.9,20.5 -12.19,13.7 -19.3,31 -21.5,51.9l0 2.3 0 201.31 -58 0 0 -190.1c0,-29.7 -5.5,-51.51 -16.51,-65.21 -11.1,-13.79 -27,-20.7 -47.7,-20.7 -17.5,0 -32,3.61 -43.3,10.9 -11.29,7.2 -19.99,17.3 -26.1,30.4l0 234.7 -57.7 0 0 -317 51.6 0zm479.9 155.6c0,-46.9 12.7,-85.5 38.1,-115.9 25.4,-30.39 59.9,-45.6 103.4,-45.6 44,0 78.7,15.21 104.2,45.5 25.5,30.2 38.2,68.9 38.2,115.99l0 6.4c0,47.3 -12.7,86 -38.1,116 -25.4,30.1 -59.9,45.1 -103.7,45.2 -43.7,-0.1 -78.41,-15.1 -103.81,-45.3 -25.49,-30.2 -38.29,-68.8 -38.29,-115.9l0 -6.4zm57.7 6.4c0,33.6 7.1,61.3 21.3,83.2 14.1,21.9 35.2,32.8 63.1,32.8 27.6,0 48.4,-10.9 62.7,-32.8 14.3,-21.9 21.4,-49.6 21.4,-83.2l0 -6.4c0,-33.2 -7.19,-60.9 -21.5,-82.9 -14.4,-22.1 -35.4,-33.1 -63.2,-33.1 -27.5,0 -48.4,11 -62.5,33.1 -14.2,22 -21.3,49.7 -21.3,82.9l0 6.4zm588.1 8.5c0,45.7 -11,82.6 -33,110.59 -21.9,28 -52.2,42 -90.6,42.1 -21.1,-0.1 -39.4,-4.2 -54.99,-12.5 -15.5,-8.3 -28.3,-20.6 -38.51,-36.8l-9.4 43.1 -44.2 0 0 -457 57.7 0 0 177.5c10,-14.1 22.31,-24.81 37.1,-32.2 14.7,-7.4 32,-11.2 51.7,-11.2 39,0 69.49,15.7 91.4,46.9 21.9,31.3 32.8,72.4 32.8,123.4l0 6.11zm-57.7 -6.11c0,-36.4 -6.7,-66 -20.1,-89 -13.4,-22.89 -33.7,-34.4 -61.1,-34.4 -17.7,0 -32.7,4.41 -44.9,13.1 -12.2,8.7 -22,20.3 -29.2,34.99l0 137.41c7.4,15.6 17.2,27.8 29.2,36.6 12,8.8 27.2,13.2 45.5,13.2 27.2,0 47.39,-9.7 60.69,-29 13.21,-19.41 19.91,-44.9 19.91,-76.8l0 -6.11zm210.99 152.6l-57.7 0 0 -317 57.7 0 0 317zm0 -398.1l-57.7 0 0 -58.9 57.7 0 0 58.9zm171.8 398.1l-57.7 0 0 -457 57.7 0 0 457zm240.59 6.2c-45.5,-0.1 -81,-14.6 -106.4,-43.7 -25.49,-29.1 -38.29,-67.4 -38.29,-114.79l0 -12.9c0,-45.5 13.2,-83.2 39.4,-113 26.3,-29.81 58.4,-44.71 96.3,-44.71 42.3,0 74.1,13.2 95.3,39.6 21.2,26.4 31.8,61.4 31.8,105.2l0 30.39 -202.7 0 -0.9 1.51c0,31.8 7,57.7 21.1,77.5 14.1,19.81 35.5,29.7 64.4,29.7 19.6,0 36.7,-2.7 51.5,-8.3 14.7,-5.6 27.41,-13.3 37.9,-23l22.6 37.5c-11.4,10.9 -26.3,20.2 -44.9,27.7 -18.5,7.5 -40.9,11.2 -67.1,11.3zm-9 -283.6c-20.2,0 -36.8,7.7 -50,23.2 -13.2,15.6 -21.2,35.4 -24.19,59.7l0.6 1.4 143 0 0 -4.7c0,-23 -5.7,-42 -17,-57.1 -11.3,-14.99 -28.8,-22.49 -52.4,-22.49zm720.4 277.4c-1.9,-9.6 -3.39,-18 -4.5,-25.3 -1.1,-7.4 -1.7,-14.7 -1.9,-22.2 -10.8,15.3 -24.81,28 -42.1,38.3 -17.2,10.2 -35.9,15.3 -55.8,15.4 -33,-0.1 -58.1,-8.5 -75.4,-25.4 -17.31,-16.9 -25.9,-40.2 -25.9,-69.9 0,-30.2 12.2,-53.9 36.7,-71 24.5,-17.1 57.8,-25.6 99.8,-25.6l62.7 0 0 -31.41c0,-18.5 -5.71,-33.2 -17,-44.09 -11.3,-10.8 -27.4,-16.2 -48.11,-16.2 -18.7,0 -33.9,4.6 -45.39,14 -11.51,9.4 -17.31,20.6 -17.31,33.7l-54.7 0.6 -0.6 -1.79c-1.39,-23 9.41,-44.1 32.31,-63.2 22.99,-19.2 52.6,-28.8 88.99,-28.8 35.9,0 64.81,9.2 86.71,27.4 21.9,18.3 32.8,44.6 32.8,79l0 152.6c0,11.4 0.6,22.3 1.7,32.8 1.2,10.6 3.4,20.9 6.5,31.1l-59.5 0zm-95.8 -42.2c20.9,0 39.8,-5.4 56.6,-16.11 16.8,-10.7 27.7,-23.1 32.8,-36.9l0 -51.6 -64.8 0c-23.2,0 -41.81,5.9 -55.8,17.6 -13.9,11.7 -20.9,25.5 -20.9,41.3 0,14.1 4.41,25.2 13.21,33.39 8.7,8.2 21.69,12.31 38.9,12.31zm521.6 -104.3c0,45.7 -10.9,82.6 -32.8,110.59 -21.9,28 -52.1,42 -90.5,42.1 -19.6,-0.1 -36.7,-3.3 -51.4,-9.9 -14.81,-6.5 -27.31,-16.3 -37.71,-29.4l0 155 -57.7 0 0 -438.91 44.2 0 9.1 41c10.4,-15.2 23.3,-26.8 38.7,-34.8 15.4,-8.1 33.39,-12.1 53.9,-12.1 39.3,0 69.8,15.6 91.5,46.8 21.8,31.11 32.7,72.3 32.7,123.5l0 6.11zm-57.7 -6.11c0,-36 -7.1,-65.5 -21.2,-88.7 -14.2,-23.11 -35,-34.7 -62.6,-34.7 -16.6,0 -30.8,3.8 -42.5,11.3 -11.7,7.5 -21.2,17.8 -28.4,30.9l0 153.2c7.2,13.1 16.7,23.3 28.4,30.6 11.7,7.41 26.1,11 43.1,11 27.31,0 48,-10 62.1,-30 14.1,-20 21.1,-45.8 21.1,-77.5l0 -6.11zm419.3 6.11c0,45.7 -10.9,82.6 -32.8,110.59 -21.9,28 -52.1,42 -90.5,42.1 -19.6,-0.1 -36.7,-3.3 -51.4,-9.9 -14.81,-6.5 -27.31,-16.3 -37.71,-29.4l0 155 -57.7 0 0 -438.91 44.2 0 9.1 41c10.4,-15.2 23.3,-26.8 38.7,-34.8 15.4,-8.1 33.39,-12.1 53.9,-12.1 39.3,0 69.8,15.6 91.5,46.8 21.8,31.11 32.7,72.3 32.7,123.5l0 6.11zm-57.7 -6.11c0,-36 -7.1,-65.5 -21.2,-88.7 -14.2,-23.11 -35,-34.7 -62.6,-34.7 -16.6,0 -30.8,3.8 -42.5,11.3 -11.7,7.5 -21.2,17.8 -28.4,30.9l0 153.2c7.2,13.1 16.7,23.3 28.4,30.6 11.7,7.41 26.1,11 43.1,11 27.31,0 48,-10 62.1,-30 14.1,-20 21.1,-45.8 21.1,-77.5l0 -6.11zm657.1 152.6c-1.9,-9.6 -3.39,-18 -4.5,-25.3 -1.1,-7.4 -1.7,-14.7 -1.9,-22.2 -10.8,15.3 -24.81,28 -42.1,38.3 -17.2,10.2 -35.9,15.3 -55.8,15.4 -33,-0.1 -58.1,-8.5 -75.4,-25.4 -17.31,-16.9 -25.9,-40.2 -25.9,-69.9 0,-30.2 12.2,-53.9 36.7,-71 24.5,-17.1 57.8,-25.6 99.8,-25.6l62.7 0 0 -31.41c0,-18.5 -5.71,-33.2 -17,-44.09 -11.3,-10.8 -27.4,-16.2 -48.11,-16.2 -18.7,0 -33.9,4.6 -45.39,14 -11.51,9.4 -17.31,20.6 -17.31,33.7l-54.7 0.6 -0.6 -1.79c-1.39,-23 9.41,-44.1 32.31,-63.2 22.99,-19.2 52.6,-28.8 88.99,-28.8 35.9,0 64.81,9.2 86.71,27.4 21.9,18.3 32.8,44.6 32.8,79l0 152.6c0,11.4 0.6,22.3 1.7,32.8 1.2,10.6 3.4,20.9 6.5,31.1l-59.5 0zm-95.8 -42.2c20.9,0 39.8,-5.4 56.6,-16.11 16.8,-10.7 27.7,-23.1 32.8,-36.9l0 -51.6 -64.8 0c-23.2,0 -41.81,5.9 -55.8,17.6 -13.9,11.7 -20.9,25.5 -20.9,41.3 0,14.1 4.41,25.2 13.21,33.39 8.7,8.2 21.69,12.31 38.9,12.31zm241.2 -110.41c0,-51 10.9,-92.1 32.7,-123.4 21.8,-31.2 52.21,-46.9 91.31,-46.9 20.09,0 37.8,4.1 53,12.2 15.2,8.1 28,19.8 38.4,35l7 -41.3 46 0 0 318.8c0,40.6 -11.8,71.8 -35.4,93.59 -23.7,21.7 -57.8,32.6 -102.3,32.6 -15.2,0 -31.69,-2.1 -49.4,-6.3 -17.59,-4.2 -33.2,-9.9 -46.7,-17.1l8.8 -44.8c11.1,5.8 24.59,10.6 40.3,14.2 15.7,3.6 31.19,5.4 46.4,5.4 28.1,0 48.6,-6.4 61.4,-19.2 12.8,-12.8 19.2,-32.3 19.2,-58.4l0 -36.1c-10.4,13.3 -22.8,23.39 -37.2,30.2 -14.5,6.8 -31.2,10.2 -50.1,10.3 -38.7,-0.1 -68.9,-14.1 -90.7,-42.1 -21.8,-27.99 -32.7,-64.89 -32.7,-110.59l0 -6.11zm57.8 6.11c0,31.9 6.5,57.39 19.6,76.8 13.1,19.3 33.3,29 60.6,29 17.4,0 32,-4 43.7,-11.9 11.7,-7.9 21.4,-19.1 29,-33.51l0 -145.9c-7.4,-13.5 -17.1,-24.19 -29,-32.09 -11.91,-7.9 -26.3,-11.91 -43.11,-11.91 -27.49,0 -47.89,11.4 -61.1,34.3 -13.2,22.9 -19.7,52.49 -19.7,89.1l0 6.11zm508.89 146.5c-1.9,-9.6 -3.39,-18 -4.5,-25.3 -1.1,-7.4 -1.7,-14.7 -1.9,-22.2 -10.8,15.3 -24.81,28 -42.1,38.3 -17.2,10.2 -35.9,15.3 -55.8,15.4 -33,-0.1 -58.1,-8.5 -75.4,-25.4 -17.31,-16.9 -25.9,-40.2 -25.9,-69.9 0,-30.2 12.2,-53.9 36.7,-71 24.5,-17.1 57.8,-25.6 99.8,-25.6l62.7 0 0 -31.41c0,-18.5 -5.71,-33.2 -17,-44.09 -11.3,-10.8 -27.4,-16.2 -48.11,-16.2 -18.7,0 -33.9,4.6 -45.39,14 -11.51,9.4 -17.31,20.6 -17.31,33.7l-54.7 0.6 -0.6 -1.79c-1.39,-23 9.41,-44.1 32.31,-63.2 22.99,-19.2 52.6,-28.8 88.99,-28.8 35.9,0 64.81,9.2 86.71,27.4 21.9,18.3 32.8,44.6 32.8,79l0 152.6c0,11.4 0.6,22.3 1.7,32.8 1.2,10.6 3.4,20.9 6.5,31.1l-59.5 0zm-95.8 -42.2c20.9,0 39.8,-5.4 56.6,-16.11 16.8,-10.7 27.7,-23.1 32.8,-36.9l0 -51.6 -64.8 0c-23.2,0 -41.81,5.9 -55.8,17.6 -13.9,11.7 -20.9,25.5 -20.9,41.3 0,14.1 4.41,25.2 13.21,33.39 8.7,8.2 21.69,12.31 38.9,12.31zm313.9 42.2l-57.7 0 0 -317 57.7 0 0 317zm0 -398.1l-57.7 0 0 -58.9 57.7 0 0 58.9zm161 81.1l4.1 47.2c10.5,-16.8 23.7,-29.9 39.7,-39.1 15.89,-9.29 34,-14 54.3,-14 34.2,0 60.6,10.1 79.4,30.1 18.7,20 28.1,50.9 28.1,92.7l0 200.1 -57.7 0 0 -198.9c0,-28 -5.5,-47.8 -16.5,-59.5 -11.11,-11.7 -27.9,-17.6 -50.6,-17.6 -17.81,0 -32.81,3.61 -45.21,10.7 -12.5,7.1 -22.3,17.2 -29.5,30l0 235.3 -57.7 0 0 -317 51.6 0z"/>
   <path class="fil1" d="M7176.6 5736.36c0,-12.7 -4.91,-22.99 -14.5,-31 -9.7,-8 -28,-15.1 -55,-21.1 -37.3,-8 -65.91,-19.2 -85.9,-33.7 -20.1,-14.5 -30.1,-33.8 -30.1,-58.01 0,-25.8 11,-47.89 33,-66.19 22,-18.4 50.39,-27.6 85.4,-27.6 35.9,0 65,9.81 87.3,29.3 22.3,19.59 32.9,42.3 31.9,68.3l-0.6 1.8 -55 0c0,-13.7 -6,-26.1 -18.1,-37.2 -12.01,-11.2 -27.2,-16.69 -45.5,-16.69 -20.3,0 -35.5,4.5 -45.6,13.7 -10,9.19 -15.1,20.09 -15.1,32.8 0,12.5 4.41,22.2 13.1,29 8.7,6.9 26.6,13.1 53.69,18.8 38.91,8.2 68.41,19.8 88.5,34.9 20.1,15 30.21,34.59 30.21,58.8 0,28.2 -11.4,51.1 -34.1,68.9 -22.8,17.8 -52.5,26.6 -89.3,26.7 -40.4,-0.1 -72.21,-10.3 -95.5,-30.8 -23.21,-20.49 -34.2,-44.4 -33.11,-71.8l0.6 -1.7 55.1 0c1,20.5 8.6,35.4 22.9,44.9 14.2,9.5 30.9,14.2 50,14.2 20.6,0 36.6,-4.3 48.2,-13 11.7,-8.7 17.5,-19.8 17.5,-33.3zm230.4 -308.2l0 76.5 60 0 0 42.8 -60 0 0 192.5c0,14.8 3,25.3 9.2,31.29 6.1,6.11 14.3,9.1 24.5,9.1 3.3,0 7,-0.4 11.1,-1.29 4.1,-0.9 7.5,-1.8 10.2,-2.81l7.99 39.5c-4.29,3.61 -10.7,6.4 -19.1,8.7 -8.4,2.2 -16.7,3.3 -24.9,3.4 -23.4,-0.1 -42.1,-7.1 -55.9,-21.3 -13.9,-14.1 -20.8,-36.4 -20.8,-66.59l0 -192.5 -50.4 0 0 -42.8 50.4 0 0 -76.5 57.7 0zm726.21 247.01c0,45.7 -11,82.6 -33,110.59 -21.9,28 -52.2,42 -90.6,42.1 -21.1,-0.1 -39.4,-4.2 -54.99,-12.5 -15.5,-8.3 -28.3,-20.6 -38.51,-36.8l-9.4 43.1 -44.2 0 0 -457 57.7 0 0 177.5c10,-14.1 22.31,-24.81 37.1,-32.2 14.7,-7.4 32,-11.2 51.7,-11.2 39,0 69.49,15.7 91.4,46.9 21.9,31.3 32.8,72.4 32.8,123.4l0 6.11zm-57.7 -6.11c0,-36.4 -6.7,-66 -20.1,-89 -13.4,-22.89 -33.7,-34.4 -61.1,-34.4 -17.7,0 -32.7,4.41 -44.9,13.1 -12.2,8.7 -22,20.3 -29.2,34.99l0 137.41c7.4,15.6 17.2,27.8 29.2,36.6 12,8.8 27.2,13.2 45.5,13.2 27.2,0 47.39,-9.7 60.69,-29 13.21,-19.41 19.91,-44.9 19.91,-76.8l0 -6.11zm135.09 -8.8c0,-46.9 12.7,-85.5 38.1,-115.9 25.4,-30.39 59.9,-45.6 103.4,-45.6 44,0 78.7,15.21 104.2,45.5 25.5,30.2 38.2,68.9 38.2,115.99l0 6.4c0,47.3 -12.7,86 -38.1,116 -25.4,30.1 -59.9,45.1 -103.7,45.2 -43.7,-0.1 -78.41,-15.1 -103.81,-45.3 -25.49,-30.2 -38.29,-68.8 -38.29,-115.9l0 -6.4zm57.7 6.4c0,33.6 7.1,61.3 21.3,83.2 14.1,21.9 35.2,32.8 63.1,32.8 27.6,0 48.4,-10.9 62.7,-32.8 14.3,-21.9 21.4,-49.6 21.4,-83.2l0 -6.4c0,-33.2 -7.19,-60.9 -21.5,-82.9 -14.4,-22.1 -35.4,-33.1 -63.2,-33.1 -27.5,0 -48.4,11 -62.5,33.1 -14.2,22 -21.3,49.7 -21.3,82.9l0 6.4zm397.7 -238.5l0 76.5 60 0 0 42.8 -60 0 0 192.5c0,14.8 3,25.3 9.2,31.29 6.1,6.11 14.3,9.1 24.5,9.1 3.3,0 7,-0.4 11.1,-1.29 4.1,-0.9 7.5,-1.8 10.2,-2.81l7.99 39.5c-4.29,3.61 -10.7,6.4 -19.1,8.7 -8.4,2.2 -16.7,3.3 -24.9,3.4 -23.4,-0.1 -42.1,-7.1 -55.9,-21.3 -13.9,-14.1 -20.8,-36.4 -20.8,-66.59l0 -192.5 -50.4 0 0 -42.8 50.4 0 0 -76.5 57.7 0zm200.1 119c10.9,-15.21 24.41,-27.1 40.3,-35.61 15.9,-8.5 33.51,-12.8 52.9,-12.8 33.8,0 60.1,10.2 78.9,30.5 18.9,20.3 28.3,51.6 28.3,93.8l0 198.6 -57.7 0 0 -199.2c0,-26.2 -5.6,-45.5 -16.9,-58 -11.21,-12.5 -27.9,-18.8 -50.21,-18.8 -17.19,0 -32.09,3.4 -44.8,10.1 -12.7,6.8 -22.99,16.2 -30.8,28.3l0 237.6 -57.7 0 0 -457 57.7 0 0 182.5zm704.6 128.3l-29.59 0 0 146.2 -57.71 0 0 -457 57.71 0 0 264.8 29 0 95.2 -124.8 69.2 0 -115.2 146.2 125.1 170.8 -68.2 0 -105.5 -146.2zm292.2 -170.8l4.1 47.2c10.5,-16.8 23.7,-29.9 39.7,-39.1 15.89,-9.29 34,-14 54.3,-14 34.2,0 60.6,10.1 79.4,30.1 18.7,20 28.1,50.9 28.1,92.7l0 200.1 -57.7 0 0 -198.9c0,-28 -5.5,-47.8 -16.5,-59.5 -11.11,-11.7 -27.9,-17.6 -50.6,-17.6 -17.81,0 -32.81,3.61 -45.21,10.7 -12.5,7.1 -22.3,17.2 -29.5,30l0 235.3 -57.7 0 0 -317 51.6 0zm296.5 155.6c0,-46.9 12.7,-85.5 38.1,-115.9 25.4,-30.39 59.9,-45.6 103.4,-45.6 44,0 78.7,15.21 104.2,45.5 25.5,30.2 38.2,68.9 38.2,115.99l0 6.4c0,47.3 -12.7,86 -38.1,116 -25.4,30.1 -59.9,45.1 -103.7,45.2 -43.7,-0.1 -78.41,-15.1 -103.81,-45.3 -25.49,-30.2 -38.29,-68.8 -38.29,-115.9l0 -6.4zm57.7 6.4c0,33.6 7.1,61.3 21.3,83.2 14.1,21.9 35.2,32.8 63.1,32.8 27.6,0 48.4,-10.9 62.7,-32.8 14.3,-21.9 21.4,-49.6 21.4,-83.2l0 -6.4c0,-33.2 -7.19,-60.9 -21.5,-82.9 -14.4,-22.1 -35.4,-33.1 -63.2,-33.1 -27.5,0 -48.4,11 -62.5,33.1 -14.2,22 -21.3,49.7 -21.3,82.9l0 6.4zm398.49 39.6l7.4 40.7 1.7 0 7.6 -40.7 63.29 -201.6 46.3 0 63.6 201.6 8.2 45.39 1.8 0 9.3 -45.39 46.9 -201.6 60.39 0 -92 317 -46.6 0 -62.7 -193.1 -12 -50.4 -1.8 0 -11.1 50.4 -61.5 193.1 -46.6 0 -92 -317 60 0 49.8 201.6zm445.2 -201.6l4.1 47.2c10.5,-16.8 23.7,-29.9 39.7,-39.1 15.89,-9.29 34,-14 54.3,-14 34.2,0 60.6,10.1 79.4,30.1 18.7,20 28.1,50.9 28.1,92.7l0 200.1 -57.7 0 0 -198.9c0,-28 -5.5,-47.8 -16.5,-59.5 -11.11,-11.7 -27.9,-17.6 -50.6,-17.6 -17.81,0 -32.81,3.61 -45.21,10.7 -12.5,7.1 -22.3,17.2 -29.5,30l0 235.3 -57.7 0 0 -317 51.6 0zm-9205.06 943.61l4.9 22.3 1.79 0 5.6 -22.3 72.9 -223.5 58.91 0 -116.61 317 -43.69 0 -118 -317 59.2 0 75 223.5zm397.3 46.6c-10,17 -22.8,30.1 -38.4,39.3 -15.6,9.2 -33.7,13.7 -54.2,13.8 -34.6,-0.1 -61.5,-11.1 -80.91,-33.2 -19.3,-22 -29,-56.4 -29,-103.1l0 -186.9 57.7 0 0 187.5c0,33.79 5,56.99 15,69.7 9.9,12.7 25.5,19.1 46.6,19.1 20.5,0 37.4,-4.2 50.8,-12.5 13.39,-8.3 23.5,-20 30.3,-35.3l0 -228.5 57.7 0 0 317 -51.8 0 -3.8 -46.9zm202.1 46.9l-57.7 0 0 -457 57.7 0 0 457zm140.4 -317l4.1 47.2c10.5,-16.8 23.7,-29.9 39.7,-39.1 15.89,-9.29 34,-14 54.3,-14 34.2,0 60.6,10.1 79.4,30.1 18.7,20 28.1,50.9 28.1,92.7l0 200.1 -57.7 0 0 -198.9c0,-28 -5.5,-47.8 -16.5,-59.5 -11.11,-11.7 -27.9,-17.6 -50.6,-17.6 -17.81,0 -32.81,3.61 -45.21,10.7 -12.5,7.1 -22.3,17.2 -29.5,30l0 235.3 -57.7 0 0 -317 51.6 0zm420.6 323.2c-45.5,-0.1 -81,-14.6 -106.4,-43.7 -25.49,-29.1 -38.29,-67.4 -38.29,-114.79l0 -12.9c0,-45.5 13.2,-83.2 39.4,-113 26.3,-29.81 58.4,-44.71 96.3,-44.71 42.3,0 74.1,13.2 95.3,39.6 21.2,26.4 31.8,61.4 31.8,105.2l0 30.39 -202.7 0 -0.9 1.51c0,31.8 7,57.7 21.1,77.5 14.1,19.81 35.5,29.7 64.4,29.7 19.6,0 36.7,-2.7 51.5,-8.3 14.7,-5.6 27.41,-13.3 37.9,-23l22.6 37.5c-11.4,10.9 -26.3,20.2 -44.9,27.7 -18.5,7.5 -40.9,11.2 -67.1,11.3zm-9 -283.6c-20.2,0 -36.8,7.7 -50,23.2 -13.2,15.6 -21.2,35.4 -24.19,59.7l0.6 1.4 143 0 0 -4.7c0,-23 -5.7,-42 -17,-57.1 -11.3,-14.99 -28.8,-22.49 -52.4,-22.49zm341.9 11.4l-29.6 -1.79c-15.2,0 -28.1,3.6 -38.5,10.89 -10.5,7.2 -18.5,17.31 -24.2,30.4l0 226.5 -57.7 0 0 -317 51.6 0 5.5 46.3c9,-16.4 20.09,-29.19 33.3,-38.4 13.2,-9.2 28.29,-13.8 45.5,-13.8 4.3,0 8.4,0.4 12.3,1.1 3.9,0.71 7.2,1.4 9.7,2.2l-7.9 53.6zm254.9 266c-1.9,-9.6 -3.39,-18 -4.5,-25.3 -1.1,-7.4 -1.7,-14.7 -1.9,-22.2 -10.8,15.3 -24.81,28 -42.1,38.3 -17.2,10.2 -35.9,15.3 -55.8,15.4 -33,-0.1 -58.1,-8.5 -75.4,-25.4 -17.31,-16.9 -25.9,-40.2 -25.9,-69.9 0,-30.2 12.2,-53.9 36.7,-71 24.5,-17.1 57.8,-25.6 99.8,-25.6l62.7 0 0 -31.41c0,-18.5 -5.71,-33.2 -17,-44.09 -11.3,-10.8 -27.4,-16.2 -48.11,-16.2 -18.7,0 -33.9,4.6 -45.39,14 -11.51,9.4 -17.31,20.6 -17.31,33.7l-54.7 0.6 -0.6 -1.79c-1.39,-23 9.41,-44.1 32.31,-63.2 22.99,-19.2 52.6,-28.8 88.99,-28.8 35.9,0 64.81,9.2 86.71,27.4 21.9,18.3 32.8,44.6 32.8,79l0 152.6c0,11.4 0.6,22.3 1.7,32.8 1.2,10.6 3.4,20.9 6.5,31.1l-59.5 0zm-95.8 -42.2c20.9,0 39.8,-5.4 56.6,-16.11 16.8,-10.7 27.7,-23.1 32.8,-36.9l0 -51.6 -64.8 0c-23.2,0 -41.81,5.9 -55.8,17.6 -13.9,11.7 -20.9,25.5 -20.9,41.3 0,14.1 4.41,25.2 13.21,33.39 8.7,8.2 21.69,12.31 38.9,12.31zm501.6 -104.3c0,45.7 -11,82.6 -33,110.59 -21.9,28 -52.2,42 -90.6,42.1 -21.1,-0.1 -39.4,-4.2 -54.99,-12.5 -15.5,-8.3 -28.3,-20.6 -38.51,-36.8l-9.4 43.1 -44.2 0 0 -457 57.7 0 0 177.5c10,-14.1 22.31,-24.81 37.1,-32.2 14.7,-7.4 32,-11.2 51.7,-11.2 39,0 69.49,15.7 91.4,46.9 21.9,31.3 32.8,72.4 32.8,123.4l0 6.11zm-57.7 -6.11c0,-36.4 -6.7,-66 -20.1,-89 -13.4,-22.89 -33.7,-34.4 -61.1,-34.4 -17.7,0 -32.7,4.41 -44.9,13.1 -12.2,8.7 -22,20.3 -29.2,34.99l0 137.41c7.4,15.6 17.2,27.8 29.2,36.6 12,8.8 27.2,13.2 45.5,13.2 27.2,0 47.39,-9.7 60.69,-29 13.21,-19.41 19.91,-44.9 19.91,-76.8l0 -6.11zm190.39 152.6l-57.7 0 0 -317 57.7 0 0 317zm0 -398.1l-57.7 0 0 -58.9 57.7 0 0 58.9zm151.2 398.1l-57.7 0 0 -457 57.7 0 0 457zm151.2 0l-57.7 0 0 -317 57.7 0 0 317zm0 -398.1l-57.7 0 0 -58.9 57.7 0 0 58.9zm169.1 4.6l0 76.5 60 0 0 42.8 -60 0 0 192.5c0,14.8 3,25.3 9.2,31.29 6.1,6.11 14.3,9.1 24.5,9.1 3.3,0 7,-0.4 11.1,-1.29 4.1,-0.9 7.5,-1.8 10.2,-2.81l7.99 39.5c-4.29,3.61 -10.7,6.4 -19.1,8.7 -8.4,2.2 -16.7,3.3 -24.9,3.4 -23.4,-0.1 -42.1,-7.1 -55.9,-21.3 -13.9,-14.1 -20.8,-36.4 -20.8,-66.59l0 -192.5 -50.4 0 0 -42.8 50.4 0 0 -76.5 57.7 0zm184.2 393.5l-57.7 0 0 -317 57.7 0 0 317zm0 -398.1l-57.7 0 0 -58.9 57.7 0 0 58.9zm220 404.3c-45.5,-0.1 -81,-14.6 -106.4,-43.7 -25.49,-29.1 -38.29,-67.4 -38.29,-114.79l0 -12.9c0,-45.5 13.2,-83.2 39.4,-113 26.3,-29.81 58.4,-44.71 96.3,-44.71 42.3,0 74.1,13.2 95.3,39.6 21.2,26.4 31.8,61.4 31.8,105.2l0 30.39 -202.7 0 -0.9 1.51c0,31.8 7,57.7 21.1,77.5 14.1,19.81 35.5,29.7 64.4,29.7 19.6,0 36.7,-2.7 51.5,-8.3 14.7,-5.6 27.41,-13.3 37.9,-23l22.6 37.5c-11.4,10.9 -26.3,20.2 -44.9,27.7 -18.5,7.5 -40.9,11.2 -67.1,11.3zm-9 -283.6c-20.2,0 -36.8,7.7 -50,23.2 -13.2,15.6 -21.2,35.4 -24.19,59.7l0.6 1.4 143 0 0 -4.7c0,-23 -5.7,-42 -17,-57.1 -11.3,-14.99 -28.8,-22.49 -52.4,-22.49zm376.21 192.1c0,-12.7 -4.91,-22.99 -14.5,-31 -9.7,-8 -28,-15.1 -55,-21.1 -37.3,-8 -65.91,-19.2 -85.9,-33.7 -20.1,-14.5 -30.1,-33.8 -30.1,-58.01 0,-25.8 11,-47.89 33,-66.19 22,-18.4 50.39,-27.6 85.4,-27.6 35.9,0 65,9.81 87.3,29.3 22.3,19.59 32.9,42.3 31.9,68.3l-0.6 1.8 -55 0c0,-13.7 -6,-26.1 -18.1,-37.2 -12.01,-11.2 -27.2,-16.69 -45.5,-16.69 -20.3,0 -35.5,4.5 -45.6,13.7 -10,9.19 -15.1,20.09 -15.1,32.8 0,12.5 4.41,22.2 13.1,29 8.7,6.9 26.6,13.1 53.69,18.8 38.91,8.2 68.41,19.8 88.5,34.9 20.1,15 30.21,34.59 30.21,58.8 0,28.2 -11.4,51.1 -34.1,68.9 -22.8,17.8 -52.5,26.6 -89.3,26.7 -40.4,-0.1 -72.21,-10.3 -95.5,-30.8 -23.21,-20.49 -34.2,-44.4 -33.11,-71.8l0.6 -1.7 55.1 0c1,20.5 8.6,35.4 22.9,44.9 14.2,9.5 30.9,14.2 50,14.2 20.6,0 36.6,-4.3 48.2,-13 11.7,-8.7 17.5,-19.8 17.5,-33.3zm616.77 85.3c-1.9,-9.6 -3.39,-18 -4.5,-25.3 -1.1,-7.4 -1.7,-14.7 -1.9,-22.2 -10.8,15.3 -24.81,28 -42.1,38.3 -17.2,10.2 -35.9,15.3 -55.8,15.4 -33,-0.1 -58.1,-8.5 -75.4,-25.4 -17.31,-16.9 -25.9,-40.2 -25.9,-69.9 0,-30.2 12.2,-53.9 36.7,-71 24.5,-17.1 57.8,-25.6 99.8,-25.6l62.7 0 0 -31.41c0,-18.5 -5.71,-33.2 -17,-44.09 -11.3,-10.8 -27.4,-16.2 -48.11,-16.2 -18.7,0 -33.9,4.6 -45.39,14 -11.51,9.4 -17.31,20.6 -17.31,33.7l-54.7 0.6 -0.6 -1.79c-1.39,-23 9.41,-44.1 32.31,-63.2 22.99,-19.2 52.6,-28.8 88.99,-28.8 35.9,0 64.81,9.2 86.71,27.4 21.9,18.3 32.8,44.6 32.8,79l0 152.6c0,11.4 0.6,22.3 1.7,32.8 1.2,10.6 3.4,20.9 6.5,31.1l-59.5 0zm-95.8 -42.2c20.9,0 39.8,-5.4 56.6,-16.11 16.8,-10.7 27.7,-23.1 32.8,-36.9l0 -51.6 -64.8 0c-23.2,0 -41.81,5.9 -55.8,17.6 -13.9,11.7 -20.9,25.5 -20.9,41.3 0,14.1 4.41,25.2 13.21,33.39 8.7,8.2 21.69,12.31 38.9,12.31zm282.5 -274.8l4.1 47.2c10.5,-16.8 23.7,-29.9 39.7,-39.1 15.89,-9.29 34,-14 54.3,-14 34.2,0 60.6,10.1 79.4,30.1 18.7,20 28.1,50.9 28.1,92.7l0 200.1 -57.7 0 0 -198.9c0,-28 -5.5,-47.8 -16.5,-59.5 -11.11,-11.7 -27.9,-17.6 -50.6,-17.6 -17.81,0 -32.81,3.61 -45.21,10.7 -12.5,7.1 -22.3,17.2 -29.5,30l0 235.3 -57.7 0 0 -317 51.6 0zm276.2 164.4c0,-51 10.9,-92.1 32.7,-123.4 21.8,-31.2 52.3,-46.9 91.5,-46.9 18.6,0 35,3.5 49.4,10.3 14.4,6.8 26.6,16.8 36.81,29.9l0 -174.3 57.7 0 0 457 -44.31 0 -8.7 -40.1c-10.4,15.2 -23.2,26.69 -38.4,34.49 -15.31,7.81 -32.9,11.7 -53.11,11.8 -38.6,-0.1 -68.9,-14.1 -90.8,-42.1 -21.8,-27.99 -32.8,-64.89 -32.8,-110.59l0 -6.11zm57.7 6.11c0,32 6.6,57.7 19.7,76.9 12.99,19.3 33.39,28.9 60.9,28.9 17.2,0 31.6,-3.9 43.4,-11.7 11.69,-7.9 21.2,-18.8 28.7,-32.9l0 -147.9c-7.5,-13.1 -17.1,-23.5 -28.9,-31.2 -11.79,-7.7 -26,-11.6 -42.6,-11.6 -27.8,0 -48.2,11.4 -61.41,34.3 -13.2,22.9 -19.8,52.49 -19.8,89.1l0 6.11zm720.17 152.7c-45.5,-0.1 -81,-14.6 -106.4,-43.7 -25.49,-29.1 -38.29,-67.4 -38.29,-114.79l0 -12.9c0,-45.5 13.2,-83.2 39.4,-113 26.3,-29.81 58.4,-44.71 96.3,-44.71 42.3,0 74.1,13.2 95.3,39.6 21.2,26.4 31.8,61.4 31.8,105.2l0 30.39 -202.7 0 -0.9 1.51c0,31.8 7,57.7 21.1,77.5 14.1,19.81 35.5,29.7 64.4,29.7 19.6,0 36.7,-2.7 51.5,-8.3 14.7,-5.6 27.41,-13.3 37.9,-23l22.6 37.5c-11.4,10.9 -26.3,20.2 -44.9,27.7 -18.5,7.5 -40.9,11.2 -67.1,11.3zm-9 -283.6c-20.2,0 -36.8,7.7 -50,23.2 -13.2,15.6 -21.2,35.4 -24.19,59.7l0.6 1.4 143 0 0 -4.7c0,-23 -5.7,-42 -17,-57.1 -11.3,-14.99 -28.8,-22.49 -52.4,-22.49zm243.5 -39.6l4.1 41.6c10.3,-15 23.4,-26.7 39.4,-35 15.9,-8.3 34.4,-12.5 55.51,-12.5 21.1,0 39.19,4.9 54.3,14.7 15.2,9.8 26.5,24.4 34.2,43.9 10.09,-18.1 23.3,-32.4 39.7,-42.9 16.3,-10.4 35.4,-15.7 57.21,-15.7 32.3,0 57.7,11.1 76.49,33.3 18.7,22.2 28.11,55.5 28.11,100l0 189.6 -57.7 0 0 -190.1c0,-31.3 -5.4,-53.4 -16.11,-66.41 -10.7,-12.99 -26.8,-19.5 -48.1,-19.5 -19.7,0 -35.6,6.91 -47.9,20.5 -12.19,13.7 -19.3,31 -21.5,51.9l0 2.3 0 201.31 -58 0 0 -190.1c0,-29.7 -5.5,-51.51 -16.51,-65.21 -11.1,-13.79 -27,-20.7 -47.7,-20.7 -17.5,0 -32,3.61 -43.3,10.9 -11.29,7.2 -19.99,17.3 -26.1,30.4l0 234.7 -57.7 0 0 -317 51.6 0zm604 323.2c-45.5,-0.1 -81,-14.6 -106.4,-43.7 -25.49,-29.1 -38.29,-67.4 -38.29,-114.79l0 -12.9c0,-45.5 13.2,-83.2 39.4,-113 26.3,-29.81 58.4,-44.71 96.3,-44.71 42.3,0 74.1,13.2 95.3,39.6 21.2,26.4 31.8,61.4 31.8,105.2l0 30.39 -202.7 0 -0.9 1.51c0,31.8 7,57.7 21.1,77.5 14.1,19.81 35.5,29.7 64.4,29.7 19.6,0 36.7,-2.7 51.5,-8.3 14.7,-5.6 27.41,-13.3 37.9,-23l22.6 37.5c-11.4,10.9 -26.3,20.2 -44.9,27.7 -18.5,7.5 -40.9,11.2 -67.1,11.3zm-9 -283.6c-20.2,0 -36.8,7.7 -50,23.2 -13.2,15.6 -21.2,35.4 -24.19,59.7l0.6 1.4 143 0 0 -4.7c0,-23 -5.7,-42 -17,-57.1 -11.3,-14.99 -28.8,-22.49 -52.4,-22.49zm341.9 11.4l-29.6 -1.79c-15.2,0 -28.1,3.6 -38.5,10.89 -10.5,7.2 -18.5,17.31 -24.2,30.4l0 226.5 -57.7 0 0 -317 51.6 0 5.5 46.3c9,-16.4 20.09,-29.19 33.3,-38.4 13.2,-9.2 28.29,-13.8 45.5,-13.8 4.3,0 8.4,0.4 12.3,1.1 3.9,0.71 7.2,1.4 9.7,2.2l-7.9 53.6zm44.19 113.4c0,-51 10.9,-92.1 32.7,-123.4 21.8,-31.2 52.21,-46.9 91.31,-46.9 20.09,0 37.8,4.1 53,12.2 15.2,8.1 28,19.8 38.4,35l7 -41.3 46 0 0 318.8c0,40.6 -11.8,71.8 -35.4,93.59 -23.7,21.7 -57.8,32.6 -102.3,32.6 -15.2,0 -31.69,-2.1 -49.4,-6.3 -17.59,-4.2 -33.2,-9.9 -46.7,-17.1l8.8 -44.8c11.1,5.8 24.59,10.6 40.3,14.2 15.7,3.6 31.19,5.4 46.4,5.4 28.1,0 48.6,-6.4 61.4,-19.2 12.8,-12.8 19.2,-32.3 19.2,-58.4l0 -36.1c-10.4,13.3 -22.8,23.39 -37.2,30.2 -14.5,6.8 -31.2,10.2 -50.1,10.3 -38.7,-0.1 -68.9,-14.1 -90.7,-42.1 -21.8,-27.99 -32.7,-64.89 -32.7,-110.59l0 -6.11zm57.8 6.11c0,31.9 6.5,57.39 19.6,76.8 13.1,19.3 33.3,29 60.6,29 17.4,0 32,-4 43.7,-11.9 11.7,-7.9 21.4,-19.1 29,-33.51l0 -145.9c-7.4,-13.5 -17.1,-24.19 -29,-32.09 -11.91,-7.9 -26.3,-11.91 -43.11,-11.91 -27.49,0 -47.89,11.4 -61.1,34.3 -13.2,22.9 -19.7,52.49 -19.7,89.1l0 6.11zm355.9 146.5l-57.7 0 0 -317 57.7 0 0 317zm0 -398.1l-57.7 0 0 -58.9 57.7 0 0 58.9zm140.4 81.1l4.1 47.2c10.5,-16.8 23.7,-29.9 39.7,-39.1 15.89,-9.29 34,-14 54.3,-14 34.2,0 60.6,10.1 79.4,30.1 18.7,20 28.1,50.9 28.1,92.7l0 200.1 -57.7 0 0 -198.9c0,-28 -5.5,-47.8 -16.5,-59.5 -11.11,-11.7 -27.9,-17.6 -50.6,-17.6 -17.81,0 -32.81,3.61 -45.21,10.7 -12.5,7.1 -22.3,17.2 -29.5,30l0 235.3 -57.7 0 0 -317 51.6 0zm279.1 164.4c0,-51 10.9,-92.1 32.7,-123.4 21.8,-31.2 52.21,-46.9 91.31,-46.9 20.09,0 37.8,4.1 53,12.2 15.2,8.1 28,19.8 38.4,35l7 -41.3 46 0 0 318.8c0,40.6 -11.8,71.8 -35.4,93.59 -23.7,21.7 -57.8,32.6 -102.3,32.6 -15.2,0 -31.69,-2.1 -49.4,-6.3 -17.59,-4.2 -33.2,-9.9 -46.7,-17.1l8.8 -44.8c11.1,5.8 24.59,10.6 40.3,14.2 15.7,3.6 31.19,5.4 46.4,5.4 28.1,0 48.6,-6.4 61.4,-19.2 12.8,-12.8 19.2,-32.3 19.2,-58.4l0 -36.1c-10.4,13.3 -22.8,23.39 -37.2,30.2 -14.5,6.8 -31.2,10.2 -50.1,10.3 -38.7,-0.1 -68.9,-14.1 -90.7,-42.1 -21.8,-27.99 -32.7,-64.89 -32.7,-110.59l0 -6.11zm57.8 6.11c0,31.9 6.5,57.39 19.6,76.8 13.1,19.3 33.3,29 60.6,29 17.4,0 32,-4 43.7,-11.9 11.7,-7.9 21.4,-19.1 29,-33.51l0 -145.9c-7.4,-13.5 -17.1,-24.19 -29,-32.09 -11.91,-7.9 -26.3,-11.91 -43.11,-11.91 -27.49,0 -47.89,11.4 -61.1,34.3 -13.2,22.9 -19.7,52.49 -19.7,89.1l0 6.11zm735.97 -119.51l-29.6 -1.79c-15.2,0 -28.1,3.6 -38.5,10.89 -10.5,7.2 -18.5,17.31 -24.2,30.4l0 226.5 -57.7 0 0 -317 51.6 0 5.5 46.3c9,-16.4 20.09,-29.19 33.3,-38.4 13.2,-9.2 28.29,-13.8 45.5,-13.8 4.3,0 8.4,0.4 12.3,1.1 3.9,0.71 7.2,1.4 9.7,2.2l-7.9 53.6zm122.5 266l-57.7 0 0 -317 57.7 0 0 317zm0 -398.1l-57.7 0 0 -58.9 57.7 0 0 58.9zm273.1 312.8c0,-12.7 -4.91,-22.99 -14.5,-31 -9.7,-8 -28,-15.1 -55,-21.1 -37.3,-8 -65.91,-19.2 -85.9,-33.7 -20.1,-14.5 -30.1,-33.8 -30.1,-58.01 0,-25.8 11,-47.89 33,-66.19 22,-18.4 50.39,-27.6 85.4,-27.6 35.9,0 65,9.81 87.3,29.3 22.3,19.59 32.9,42.3 31.9,68.3l-0.6 1.8 -55 0c0,-13.7 -6,-26.1 -18.1,-37.2 -12.01,-11.2 -27.2,-16.69 -45.5,-16.69 -20.3,0 -35.5,4.5 -45.6,13.7 -10,9.19 -15.1,20.09 -15.1,32.8 0,12.5 4.41,22.2 13.1,29 8.7,6.9 26.6,13.1 53.69,18.8 38.91,8.2 68.41,19.8 88.5,34.9 20.1,15 30.21,34.59 30.21,58.8 0,28.2 -11.4,51.1 -34.1,68.9 -22.8,17.8 -52.5,26.6 -89.3,26.7 -40.4,-0.1 -72.21,-10.3 -95.5,-30.8 -23.21,-20.49 -34.2,-44.4 -33.11,-71.8l0.6 -1.7 55.1 0c1,20.5 8.6,35.4 22.9,44.9 14.2,9.5 30.9,14.2 50,14.2 20.6,0 36.6,-4.3 48.2,-13 11.7,-8.7 17.5,-19.8 17.5,-33.3zm217.1 -60.9l-29.59 0 0 146.2 -57.71 0 0 -457 57.71 0 0 264.8 29 0 95.2 -124.8 69.2 0 -115.2 146.2 125.1 170.8 -68.2 0 -105.5 -146.2zm404.31 60.9c0,-12.7 -4.91,-22.99 -14.5,-31 -9.7,-8 -28,-15.1 -55,-21.1 -37.3,-8 -65.91,-19.2 -85.9,-33.7 -20.1,-14.5 -30.1,-33.8 -30.1,-58.01 0,-25.8 11,-47.89 33,-66.19 22,-18.4 50.39,-27.6 85.4,-27.6 35.9,0 65,9.81 87.3,29.3 22.3,19.59 32.9,42.3 31.9,68.3l-0.6 1.8 -55 0c0,-13.7 -6,-26.1 -18.1,-37.2 -12.01,-11.2 -27.2,-16.69 -45.5,-16.69 -20.3,0 -35.5,4.5 -45.6,13.7 -10,9.19 -15.1,20.09 -15.1,32.8 0,12.5 4.41,22.2 13.1,29 8.7,6.9 26.6,13.1 53.69,18.8 38.91,8.2 68.41,19.8 88.5,34.9 20.1,15 30.21,34.59 30.21,58.8 0,28.2 -11.4,51.1 -34.1,68.9 -22.8,17.8 -52.5,26.6 -89.3,26.7 -40.4,-0.1 -72.21,-10.3 -95.5,-30.8 -23.21,-20.49 -34.2,-44.4 -33.11,-71.8l0.6 -1.7 55.1 0c1,20.5 8.6,35.4 22.9,44.9 14.2,9.5 30.9,14.2 50,14.2 20.6,0 36.6,-4.3 48.2,-13 11.7,-8.7 17.5,-19.8 17.5,-33.3zm179.9 71.2l-44 89.7 -34.2 0 20.5 -92.6 0 -47.7 57.7 0 0 50.6zm-9401.26 740.4c-45.5,-0.1 -81,-14.6 -106.4,-43.7 -25.49,-29.1 -38.29,-67.4 -38.29,-114.79l0 -12.9c0,-45.5 13.2,-83.2 39.4,-113 26.3,-29.81 58.4,-44.71 96.3,-44.71 42.3,0 74.1,13.2 95.3,39.6 21.2,26.4 31.8,61.4 31.8,105.2l0 30.39 -202.7 0 -0.9 1.51c0,31.8 7,57.7 21.1,77.5 14.1,19.81 35.5,29.7 64.4,29.7 19.6,0 36.7,-2.7 51.5,-8.3 14.7,-5.6 27.41,-13.3 37.9,-23l22.6 37.5c-11.4,10.9 -26.3,20.2 -44.9,27.7 -18.5,7.5 -40.9,11.2 -67.1,11.3zm-9 -283.6c-20.2,0 -36.8,7.7 -50,23.2 -13.2,15.6 -21.2,35.4 -24.19,59.7l0.6 1.4 143 0 0 -4.7c0,-23 -5.7,-42 -17,-57.1 -11.3,-14.99 -28.8,-22.49 -52.4,-22.49zm243.5 -39.6l4.1 47.2c10.5,-16.8 23.7,-29.9 39.7,-39.1 15.89,-9.29 34,-14 54.3,-14 34.2,0 60.6,10.1 79.4,30.1 18.7,20 28.1,50.9 28.1,92.7l0 200.1 -57.7 0 0 -198.9c0,-28 -5.5,-47.8 -16.5,-59.5 -11.11,-11.7 -27.9,-17.6 -50.6,-17.6 -17.81,0 -32.81,3.61 -45.21,10.7 -12.5,7.1 -22.3,17.2 -29.5,30l0 235.3 -57.7 0 0 -317 51.6 0z"/>
   <path class="fil1" d="M2589.33 7176.57c0,-12.7 -4.91,-22.99 -14.5,-31 -9.7,-8 -28,-15.1 -55,-21.1 -37.3,-8 -65.91,-19.2 -85.9,-33.7 -20.1,-14.5 -30.1,-33.8 -30.1,-58.01 0,-25.8 11,-47.89 33,-66.19 22,-18.4 50.39,-27.6 85.4,-27.6 35.9,0 65,9.81 87.3,29.3 22.3,19.59 32.9,42.3 31.9,68.3l-0.6 1.8 -55 0c0,-13.7 -6,-26.1 -18.1,-37.2 -12.01,-11.2 -27.2,-16.69 -45.5,-16.69 -20.3,0 -35.5,4.5 -45.6,13.7 -10,9.19 -15.1,20.09 -15.1,32.8 0,12.5 4.41,22.2 13.1,29 8.7,6.9 26.6,13.1 53.69,18.8 38.91,8.2 68.41,19.8 88.5,34.9 20.1,15 30.21,34.59 30.21,58.8 0,28.2 -11.4,51.1 -34.1,68.9 -22.8,17.8 -52.5,26.6 -89.3,26.7 -40.4,-0.1 -72.21,-10.3 -95.5,-30.8 -23.21,-20.49 -34.2,-44.4 -33.11,-71.8l0.6 -1.7 55.1 0c1,20.5 8.6,35.4 22.9,44.9 14.2,9.5 30.9,14.2 50,14.2 20.6,0 36.6,-4.3 48.2,-13 11.7,-8.7 17.5,-19.8 17.5,-33.3zm330.8 38.4c-10,17 -22.8,30.1 -38.4,39.3 -15.6,9.2 -33.7,13.7 -54.2,13.8 -34.6,-0.1 -61.5,-11.1 -80.91,-33.2 -19.3,-22 -29,-56.4 -29,-103.1l0 -186.9 57.7 0 0 187.5c0,33.79 5,56.99 15,69.7 9.9,12.7 25.5,19.1 46.6,19.1 20.5,0 37.4,-4.2 50.8,-12.5 13.39,-8.3 23.5,-20 30.3,-35.3l0 -228.5 57.7 0 0 317 -51.8 0 -3.8 -46.9zm289.7 -219.1l-29.6 -1.79c-15.2,0 -28.1,3.6 -38.5,10.89 -10.5,7.2 -18.5,17.31 -24.2,30.4l0 226.5 -57.7 0 0 -317 51.6 0 5.5 46.3c9,-16.4 20.09,-29.19 33.3,-38.4 13.2,-9.2 28.29,-13.8 45.5,-13.8 4.3,0 8.4,0.4 12.3,1.1 3.9,0.71 7.2,1.4 9.7,2.2l-7.9 53.6zm122.5 266l-57.7 0 0 -317 57.7 0 0 317zm0 -398.1l-57.7 0 0 -58.9 57.7 0 0 58.9zm140.4 81.1l4.1 47.2c10.5,-16.8 23.7,-29.9 39.7,-39.1 15.89,-9.29 34,-14 54.3,-14 34.2,0 60.6,10.1 79.4,30.1 18.7,20 28.1,50.9 28.1,92.7l0 200.1 -57.7 0 0 -198.9c0,-28 -5.5,-47.8 -16.5,-59.5 -11.11,-11.7 -27.9,-17.6 -50.6,-17.6 -17.81,0 -32.81,3.61 -45.21,10.7 -12.5,7.1 -22.3,17.2 -29.5,30l0 235.3 -57.7 0 0 -317 51.6 0zm279.1 164.4c0,-51 10.9,-92.1 32.7,-123.4 21.8,-31.2 52.21,-46.9 91.31,-46.9 20.09,0 37.8,4.1 53,12.2 15.2,8.1 28,19.8 38.4,35l7 -41.3 46 0 0 318.8c0,40.6 -11.8,71.8 -35.4,93.59 -23.7,21.7 -57.8,32.6 -102.3,32.6 -15.2,0 -31.69,-2.1 -49.4,-6.3 -17.59,-4.2 -33.2,-9.9 -46.7,-17.1l8.8 -44.8c11.1,5.8 24.59,10.6 40.3,14.2 15.7,3.6 31.19,5.4 46.4,5.4 28.1,0 48.6,-6.4 61.4,-19.2 12.8,-12.8 19.2,-32.3 19.2,-58.4l0 -36.1c-10.4,13.3 -22.8,23.39 -37.2,30.2 -14.5,6.8 -31.2,10.2 -50.1,10.3 -38.7,-0.1 -68.9,-14.1 -90.7,-42.1 -21.8,-27.99 -32.7,-64.89 -32.7,-110.59l0 -6.11zm57.8 6.11c0,31.9 6.5,57.39 19.6,76.8 13.1,19.3 33.3,29 60.6,29 17.4,0 32,-4 43.7,-11.9 11.7,-7.9 21.4,-19.1 29,-33.51l0 -145.9c-7.4,-13.5 -17.1,-24.19 -29,-32.09 -11.91,-7.9 -26.3,-11.91 -43.11,-11.91 -27.49,0 -47.89,11.4 -61.1,34.3 -13.2,22.9 -19.7,52.49 -19.7,89.1l0 6.11zm584.26 99.6c-10,17 -22.8,30.1 -38.4,39.3 -15.6,9.2 -33.7,13.7 -54.2,13.8 -34.6,-0.1 -61.5,-11.1 -80.91,-33.2 -19.3,-22 -29,-56.4 -29,-103.1l0 -186.9 57.7 0 0 187.5c0,33.79 5,56.99 15,69.7 9.9,12.7 25.5,19.1 46.6,19.1 20.5,0 37.4,-4.2 50.8,-12.5 13.39,-8.3 23.5,-20 30.3,-35.3l0 -228.5 57.7 0 0 317 -51.8 0 -3.8 -46.9zm191.3 -270.1l4.1 47.2c10.5,-16.8 23.7,-29.9 39.7,-39.1 15.89,-9.29 34,-14 54.3,-14 34.2,0 60.6,10.1 79.4,30.1 18.7,20 28.1,50.9 28.1,92.7l0 200.1 -57.7 0 0 -198.9c0,-28 -5.5,-47.8 -16.5,-59.5 -11.11,-11.7 -27.9,-17.6 -50.6,-17.6 -17.81,0 -32.81,3.61 -45.21,10.7 -12.5,7.1 -22.3,17.2 -29.5,30l0 235.3 -57.7 0 0 -317 51.6 0zm351.8 317l-57.7 0 0 -317 57.7 0 0 317zm0 -398.1l-57.7 0 0 -58.9 57.7 0 0 58.9zm140.4 81.1l4.1 47.2c10.5,-16.8 23.7,-29.9 39.7,-39.1 15.89,-9.29 34,-14 54.3,-14 34.2,0 60.6,10.1 79.4,30.1 18.7,20 28.1,50.9 28.1,92.7l0 200.1 -57.7 0 0 -198.9c0,-28 -5.5,-47.8 -16.5,-59.5 -11.11,-11.7 -27.9,-17.6 -50.6,-17.6 -17.81,0 -32.81,3.61 -45.21,10.7 -12.5,7.1 -22.3,17.2 -29.5,30l0 235.3 -57.7 0 0 -317 51.6 0zm369.7 -76.5l0 76.5 60 0 0 42.8 -60 0 0 192.5c0,14.8 3,25.3 9.2,31.29 6.1,6.11 14.3,9.1 24.5,9.1 3.3,0 7,-0.4 11.1,-1.29 4.1,-0.9 7.5,-1.8 10.2,-2.81l7.99 39.5c-4.29,3.61 -10.7,6.4 -19.1,8.7 -8.4,2.2 -16.7,3.3 -24.9,3.4 -23.4,-0.1 -42.1,-7.1 -55.9,-21.3 -13.9,-14.1 -20.8,-36.4 -20.8,-66.59l0 -192.5 -50.4 0 0 -42.8 50.4 0 0 -76.5 57.7 0zm253 399.7c-45.5,-0.1 -81,-14.6 -106.4,-43.7 -25.49,-29.1 -38.29,-67.4 -38.29,-114.79l0 -12.9c0,-45.5 13.2,-83.2 39.4,-113 26.3,-29.81 58.4,-44.71 96.3,-44.71 42.3,0 74.1,13.2 95.3,39.6 21.2,26.4 31.8,61.4 31.8,105.2l0 30.39 -202.7 0 -0.9 1.51c0,31.8 7,57.7 21.1,77.5 14.1,19.81 35.5,29.7 64.4,29.7 19.6,0 36.7,-2.7 51.5,-8.3 14.7,-5.6 27.41,-13.3 37.9,-23l22.6 37.5c-11.4,10.9 -26.3,20.2 -44.9,27.7 -18.5,7.5 -40.9,11.2 -67.1,11.3zm-9 -283.6c-20.2,0 -36.8,7.7 -50,23.2 -13.2,15.6 -21.2,35.4 -24.19,59.7l0.6 1.4 143 0 0 -4.7c0,-23 -5.7,-42 -17,-57.1 -11.3,-14.99 -28.8,-22.49 -52.4,-22.49zm341.9 11.4l-29.6 -1.79c-15.2,0 -28.1,3.6 -38.5,10.89 -10.5,7.2 -18.5,17.31 -24.2,30.4l0 226.5 -57.7 0 0 -317 51.6 0 5.5 46.3c9,-16.4 20.09,-29.19 33.3,-38.4 13.2,-9.2 28.29,-13.8 45.5,-13.8 4.3,0 8.4,0.4 12.3,1.1 3.9,0.71 7.2,1.4 9.7,2.2l-7.9 53.6zm210.1 0l-29.6 -1.79c-15.2,0 -28.1,3.6 -38.5,10.89 -10.5,7.2 -18.5,17.31 -24.2,30.4l0 226.5 -57.7 0 0 -317 51.6 0 5.5 46.3c9,-16.4 20.09,-29.19 33.3,-38.4 13.2,-9.2 28.29,-13.8 45.5,-13.8 4.3,0 8.4,0.4 12.3,1.1 3.9,0.71 7.2,1.4 9.7,2.2l-7.9 53.6zm261.4 219.1c-10,17 -22.8,30.1 -38.4,39.3 -15.6,9.2 -33.7,13.7 -54.2,13.8 -34.6,-0.1 -61.5,-11.1 -80.91,-33.2 -19.3,-22 -29,-56.4 -29,-103.1l0 -186.9 57.7 0 0 187.5c0,33.79 5,56.99 15,69.7 9.9,12.7 25.5,19.1 46.6,19.1 20.5,0 37.4,-4.2 50.8,-12.5 13.39,-8.3 23.5,-20 30.3,-35.3l0 -228.5 57.7 0 0 317 -51.8 0 -3.8 -46.9zm409.8 -99.6c0,45.7 -10.9,82.6 -32.8,110.59 -21.9,28 -52.1,42 -90.5,42.1 -19.6,-0.1 -36.7,-3.3 -51.4,-9.9 -14.81,-6.5 -27.31,-16.3 -37.71,-29.4l0 155 -57.7 0 0 -438.91 44.2 0 9.1 41c10.4,-15.2 23.3,-26.8 38.7,-34.8 15.4,-8.1 33.39,-12.1 53.9,-12.1 39.3,0 69.8,15.6 91.5,46.8 21.8,31.11 32.7,72.3 32.7,123.5l0 6.11zm-57.7 -6.11c0,-36 -7.1,-65.5 -21.2,-88.7 -14.2,-23.11 -35,-34.7 -62.6,-34.7 -16.6,0 -30.8,3.8 -42.5,11.3 -11.7,7.5 -21.2,17.8 -28.4,30.9l0 153.2c7.2,13.1 16.7,23.3 28.4,30.6 11.7,7.41 26.1,11 43.1,11 27.31,0 48,-10 62.1,-30 14.1,-20 21.1,-45.8 21.1,-77.5l0 -6.11zm208.9 -240.9l0 76.5 60 0 0 42.8 -60 0 0 192.5c0,14.8 3,25.3 9.2,31.29 6.1,6.11 14.3,9.1 24.5,9.1 3.3,0 7,-0.4 11.1,-1.29 4.1,-0.9 7.5,-1.8 10.2,-2.81l7.99 39.5c-4.29,3.61 -10.7,6.4 -19.1,8.7 -8.4,2.2 -16.7,3.3 -24.9,3.4 -23.4,-0.1 -42.1,-7.1 -55.9,-21.3 -13.9,-14.1 -20.8,-36.4 -20.8,-66.59l0 -192.5 -50.4 0 0 -42.8 50.4 0 0 -76.5 57.7 0zm253 399.7c-45.5,-0.1 -81,-14.6 -106.4,-43.7 -25.49,-29.1 -38.29,-67.4 -38.29,-114.79l0 -12.9c0,-45.5 13.2,-83.2 39.4,-113 26.3,-29.81 58.4,-44.71 96.3,-44.71 42.3,0 74.1,13.2 95.3,39.6 21.2,26.4 31.8,61.4 31.8,105.2l0 30.39 -202.7 0 -0.9 1.51c0,31.8 7,57.7 21.1,77.5 14.1,19.81 35.5,29.7 64.4,29.7 19.6,0 36.7,-2.7 51.5,-8.3 14.7,-5.6 27.41,-13.3 37.9,-23l22.6 37.5c-11.4,10.9 -26.3,20.2 -44.9,27.7 -18.5,7.5 -40.9,11.2 -67.1,11.3zm-9 -283.6c-20.2,0 -36.8,7.7 -50,23.2 -13.2,15.6 -21.2,35.4 -24.19,59.7l0.6 1.4 143 0 0 -4.7c0,-23 -5.7,-42 -17,-57.1 -11.3,-14.99 -28.8,-22.49 -52.4,-22.49zm178.7 124.8c0,-51 10.9,-92.1 32.7,-123.4 21.8,-31.2 52.3,-46.9 91.5,-46.9 18.6,0 35,3.5 49.4,10.3 14.4,6.8 26.6,16.8 36.81,29.9l0 -174.3 57.7 0 0 457 -44.31 0 -8.7 -40.1c-10.4,15.2 -23.2,26.69 -38.4,34.49 -15.31,7.81 -32.9,11.7 -53.11,11.8 -38.6,-0.1 -68.9,-14.1 -90.8,-42.1 -21.8,-27.99 -32.8,-64.89 -32.8,-110.59l0 -6.11zm57.7 6.11c0,32 6.6,57.7 19.7,76.9 12.99,19.3 33.39,28.9 60.9,28.9 17.2,0 31.6,-3.9 43.4,-11.7 11.69,-7.9 21.2,-18.8 28.7,-32.9l0 -147.9c-7.5,-13.1 -17.1,-23.5 -28.9,-31.2 -11.79,-7.7 -26,-11.6 -42.6,-11.6 -27.8,0 -48.2,11.4 -61.41,34.3 -13.2,22.9 -19.8,52.49 -19.8,89.1l0 6.11zm570.27 61.19c0,-12.7 -4.91,-22.99 -14.5,-31 -9.7,-8 -28,-15.1 -55,-21.1 -37.3,-8 -65.91,-19.2 -85.9,-33.7 -20.1,-14.5 -30.1,-33.8 -30.1,-58.01 0,-25.8 11,-47.89 33,-66.19 22,-18.4 50.39,-27.6 85.4,-27.6 35.9,0 65,9.81 87.3,29.3 22.3,19.59 32.9,42.3 31.9,68.3l-0.6 1.8 -55 0c0,-13.7 -6,-26.1 -18.1,-37.2 -12.01,-11.2 -27.2,-16.69 -45.5,-16.69 -20.3,0 -35.5,4.5 -45.6,13.7 -10,9.19 -15.1,20.09 -15.1,32.8 0,12.5 4.41,22.2 13.1,29 8.7,6.9 26.6,13.1 53.69,18.8 38.91,8.2 68.41,19.8 88.5,34.9 20.1,15 30.21,34.59 30.21,58.8 0,28.2 -11.4,51.1 -34.1,68.9 -22.8,17.8 -52.5,26.6 -89.3,26.7 -40.4,-0.1 -72.21,-10.3 -95.5,-30.8 -23.21,-20.49 -34.2,-44.4 -33.11,-71.8l0.6 -1.7 55.1 0c1,20.5 8.6,35.4 22.9,44.9 14.2,9.5 30.9,14.2 50,14.2 20.6,0 36.6,-4.3 48.2,-13 11.7,-8.7 17.5,-19.8 17.5,-33.3zm260.7 91.5c-45.5,-0.1 -81,-14.6 -106.4,-43.7 -25.49,-29.1 -38.29,-67.4 -38.29,-114.79l0 -12.9c0,-45.5 13.2,-83.2 39.4,-113 26.3,-29.81 58.4,-44.71 96.3,-44.71 42.3,0 74.1,13.2 95.3,39.6 21.2,26.4 31.8,61.4 31.8,105.2l0 30.39 -202.7 0 -0.9 1.51c0,31.8 7,57.7 21.1,77.5 14.1,19.81 35.5,29.7 64.4,29.7 19.6,0 36.7,-2.7 51.5,-8.3 14.7,-5.6 27.41,-13.3 37.9,-23l22.6 37.5c-11.4,10.9 -26.3,20.2 -44.9,27.7 -18.5,7.5 -40.9,11.2 -67.1,11.3zm-9 -283.6c-20.2,0 -36.8,7.7 -50,23.2 -13.2,15.6 -21.2,35.4 -24.19,59.7l0.6 1.4 143 0 0 -4.7c0,-23 -5.7,-42 -17,-57.1 -11.3,-14.99 -28.8,-22.49 -52.4,-22.49zm317.9 238.4c17.7,0 33.3,-5.9 46.6,-17.71 13.2,-11.79 19.9,-26.29 19.9,-43.5l52.1 0 0.9 1.8c0.8,27.3 -10.89,51.6 -35.2,72.8 -24.2,21.2 -52.3,31.69 -84.3,31.8 -44.6,-0.1 -78.9,-15.2 -103.2,-45.5 -24.19,-30.21 -36.29,-67.9 -36.29,-113l0 -12.41c0,-44.7 12.19,-82.2 36.5,-112.6 24.3,-30.39 58.6,-45.6 103,-45.6 35.3,0 64.3,11 86.8,32.9 22.6,21.8 33.5,48.7 32.7,80.5l-0.6 1.8 -52.4 0c0,-19.4 -6.3,-35.8 -18.9,-49.4 -12.59,-13.61 -28.5,-20.3 -47.6,-20.3 -28.3,0 -49,10.89 -62,32.89 -13,22 -19.5,48.6 -19.5,79.8l0 12.41c0,31.8 6.4,58.6 19.2,80.5 12.8,21.9 33.6,32.8 62.3,32.8zm389.4 -7.9c-10,17 -22.8,30.1 -38.4,39.3 -15.6,9.2 -33.7,13.7 -54.2,13.8 -34.6,-0.1 -61.5,-11.1 -80.91,-33.2 -19.3,-22 -29,-56.4 -29,-103.1l0 -186.9 57.7 0 0 187.5c0,33.79 5,56.99 15,69.7 9.9,12.7 25.5,19.1 46.6,19.1 20.5,0 37.4,-4.2 50.8,-12.5 13.39,-8.3 23.5,-20 30.3,-35.3l0 -228.5 57.7 0 0 317 -51.8 0 -3.8 -46.9zm289.7 -219.1l-29.6 -1.79c-15.2,0 -28.1,3.6 -38.5,10.89 -10.5,7.2 -18.5,17.31 -24.2,30.4l0 226.5 -57.7 0 0 -317 51.6 0 5.5 46.3c9,-16.4 20.09,-29.19 33.3,-38.4 13.2,-9.2 28.29,-13.8 45.5,-13.8 4.3,0 8.4,0.4 12.3,1.1 3.9,0.71 7.2,1.4 9.7,2.2l-7.9 53.6zm122.5 266l-57.7 0 0 -317 57.7 0 0 317zm0 -398.1l-57.7 0 0 -58.9 57.7 0 0 58.9zm169.1 4.6l0 76.5 60 0 0 42.8 -60 0 0 192.5c0,14.8 3,25.3 9.2,31.29 6.1,6.11 14.3,9.1 24.5,9.1 3.3,0 7,-0.4 11.1,-1.29 4.1,-0.9 7.5,-1.8 10.2,-2.81l7.99 39.5c-4.29,3.61 -10.7,6.4 -19.1,8.7 -8.4,2.2 -16.7,3.3 -24.9,3.4 -23.4,-0.1 -42.1,-7.1 -55.9,-21.3 -13.9,-14.1 -20.8,-36.4 -20.8,-66.59l0 -192.5 -50.4 0 0 -42.8 50.4 0 0 -76.5 57.7 0zm218.81 276l10.2 39.9 1.8 0 77.9 -239.4 64.2 0 -133.3 365.6c-8,21.3 -19.5,39.9 -34.5,55.7 -14.9,15.8 -35.1,23.7 -60.51,23.7 -4.6,0 -10.6,-0.5 -17.8,-1.6 -7.2,-1.11 -12.8,-2.1 -16.7,-3.1l5.8 -45.39c-1.1,-0.2 2.3,0 10.4,0.6 8.1,0.6 13.3,0.9 15.4,0.9 12.31,0 22.4,-5.5 30.21,-16.4 7.8,-10.89 14.4,-23.1 19.59,-36.29l13.8 -33.2 -117.8 -310.5 64.49 0 66.81 199.5zm236.5 117.5l-57.71 0 0 -59.2 57.71 0 0 59.2z"/>
   <path class="fil2" d="M2078.29 1809.48l-134.09 0 0 396.66 -94.05 0 0 -396.66 -132.11 0 0 -72.6 360.25 0 0 72.6zm136.29 92.07c11,-15.84 24.41,-28.28 40.26,-37.19 15.94,-8.9 33.55,-13.42 52.91,-13.42 36.29,0 64.78,12.1 85.58,36.3 20.68,24.2 31.02,61.49 31.02,111.98l0 206.91 -94.05 0 0 -207.57c0,-27.06 -4.4,-46.19 -13.09,-57.53 -8.69,-11.22 -21.78,-16.94 -39.16,-16.94 -14.41,0 -26.84,2.31 -37.51,6.93 -10.66,4.62 -19.24,11.33 -25.95,19.91l0 255.2 -94.05 0 0 -502.7 94.05 0 0 198.12zm464.09 36.74l-34.43 -0.88c-13.97,0 -25.52,2.87 -34.54,8.69 -9.01,5.72 -15.83,13.97 -20.57,24.42l0 235.62 -93.82 0 0 -348.7 87.34 0 4.18 51.58c8.14,-18.26 18.81,-32.56 31.79,-42.68 12.98,-10.23 27.94,-15.4 44.88,-15.4 4.73,0 9.12,0.44 13.09,1.22 3.96,0.77 8.03,1.65 12.1,2.75l-10.01 83.38zm193.93 274.67c-51.93,-0.11 -92.62,-16.06 -121.78,-47.96 -29.25,-31.9 -43.89,-72.93 -43.89,-123.2l0 -12.87c0,-52.25 14.19,-95.04 42.57,-128.26 28.38,-33.33 67.33,-49.94 117.04,-49.72 46.75,0 82.72,14.41 107.69,43.12 25.08,28.6 37.62,67.21 37.62,115.83l0 48.62 -207.9 0 -0.99 1.98c1.54,23.87 8.8,43.11 21.78,57.97 12.98,14.85 32.34,22.22 57.86,22.22 21,0 38.94,-2.09 53.68,-6.39 14.74,-4.29 29.92,-10.89 45.54,-19.69l25.52 57.97c-13.97,11.44 -32.88,21 -56.76,28.71 -23.87,7.7 -49.83,11.55 -77.99,11.66zm-6.05 -289.41c-18.92,0 -33.55,6.49 -43.67,19.47 -10.23,12.98 -16.39,30.25 -18.59,51.7l0.66 1.65 114.73 0 0 -7.15c0,-20.35 -4.18,-36.41 -12.54,-48.18 -8.47,-11.66 -22,-17.48 -40.59,-17.48zm405.69 282.59c-3.41,-7.92 -6.39,-16.28 -8.8,-25.19 -2.53,-8.8 -4.29,-17.82 -5.39,-27.06 -9.68,17.05 -22.44,31.12 -38.28,42.24 -15.94,11.22 -34.87,16.72 -56.76,16.83 -36.52,-0.11 -64.68,-9.46 -84.37,-28.27 -19.81,-18.81 -29.7,-44.44 -29.7,-76.89 0,-34.1 13.2,-60.61 39.49,-79.42 26.29,-18.81 64.68,-28.17 115.17,-28.17l52.91 0 0 -27.71c0,-16.72 -4.41,-29.81 -13.2,-39.05 -8.8,-9.13 -22,-13.75 -39.38,-13.75 -15.18,0 -26.95,3.63 -35.31,11.11 -8.26,7.37 -12.32,17.49 -12.32,30.36l-90.64 0 -0.54 -1.87c-1.54,-29.47 11.33,-54.88 38.5,-76.23 27.17,-21.34 62.59,-32.12 106.48,-32.12 41.91,0 75.8,10.56 101.64,31.69 25.85,21 38.83,51.15 38.83,90.52l0 143.99c0,16.4 1.22,31.69 3.74,46.09 2.42,14.41 6.38,28.71 11.77,42.9l-93.82 0zm-86.03 -62.81c16.4,0 30.91,-4.07 43.89,-12.32 12.87,-8.14 21.68,-17.59 26.4,-28.27l0 -49.39 -52.91 0c-19.91,0 -35.09,4.95 -45.21,14.85 -10.23,9.9 -15.4,22 -15.4,36.41 0,11.88 3.84,21.23 11.44,28.16 7.7,7.04 18.26,10.56 31.79,10.56zm347.82 -371.25l0 85.36 58.96 0 0 66.11 -58.96 0 0 177.54c0,13.53 2.76,23.21 8.47,29.04 5.72,5.71 13.2,8.69 22.44,8.69 4.95,0 9.24,-0.33 12.87,-0.88 3.63,-0.54 7.82,-1.43 12.54,-2.75l7.81 68.09c-9.46,3.19 -18.7,5.6 -27.6,7.25 -8.91,1.54 -18.59,2.31 -29.15,2.42 -32.45,-0.11 -57.42,-9.02 -74.91,-26.84 -17.49,-17.82 -26.29,-46.09 -26.29,-84.7l0 -177.87 -50.93 0 0 -66.11 50.93 0 0 -85.36 93.82 0zm465.34 310.64l1.87 0 120.56 -345.84 122.76 0 0 469.26 -94.05 0 0 -320.32 -1.97 -0.33 -116.05 320.65 -63.8 0 -115.94 -321.31 -1.98 0.33 0 320.98 -94.05 0 0 -469.26 123.42 0 119.23 345.84zm423.5 123.42l-94.16 0 0 -348.7 94.16 0 0 348.7zm0 -432.19l-94.16 0 0 -70.51 94.16 0 0 70.51zm190.19 -1.87l0 85.36 58.96 0 0 66.11 -58.96 0 0 177.54c0,13.53 2.76,23.21 8.47,29.04 5.72,5.71 13.2,8.69 22.44,8.69 4.95,0 9.24,-0.33 12.87,-0.88 3.63,-0.54 7.82,-1.43 12.54,-2.75l7.81 68.09c-9.46,3.19 -18.7,5.6 -27.6,7.25 -8.91,1.54 -18.59,2.31 -29.15,2.42 -32.45,-0.11 -57.42,-9.02 -74.91,-26.84 -17.49,-17.82 -26.29,-46.09 -26.29,-84.7l0 -177.87 -50.93 0 0 -66.11 50.93 0 0 -85.36 93.82 0zm215.93 434.06l-94.16 0 0 -348.7 94.16 0 0 348.7zm0 -432.19l-94.16 0 0 -70.51 94.16 0 0 70.51zm63.47 260.7c0,-55 11.99,-99.33 35.75,-133.1 23.87,-33.67 57.42,-50.61 100.54,-50.61 19.58,0 36.74,4.41 51.58,13.32 14.85,8.79 27.5,21.34 38.06,37.61l7.36 -44.43 80.97 0 0 347.05c0,45.32 -14.86,80.41 -44.55,105.27 -29.59,24.75 -70.95,37.18 -124.08,37.18 -17.6,0 -36.3,-2.42 -55.99,-7.26 -19.8,-4.84 -38.06,-11.44 -54.78,-19.8l15.73 -70.18c14.41,6.82 29.26,11.99 44.66,15.62 15.4,3.52 31.9,5.28 49.82,5.28 25.74,0 44.66,-5.39 56.87,-16.17 12.1,-10.67 18.15,-27.5 18.15,-50.28l0 -31.57c-10.34,13.09 -22.44,23.1 -36.41,30.03 -13.97,6.82 -29.93,10.23 -47.96,10.34 -42.79,-0.11 -76.12,-15.73 -99.99,-47.08 -23.76,-31.35 -35.75,-72.82 -35.75,-124.41l0 -6.82zm94.16 6.82c0,30.47 5.06,54.56 15.29,72.05 10.23,17.48 26.85,26.18 50.05,26.18 14.41,0 26.62,-2.53 36.63,-7.81 10.01,-5.28 17.93,-12.99 23.98,-23.11l0 -151.14c-6.05,-10.66 -13.97,-19.02 -23.98,-24.75 -10.01,-5.83 -22,-8.8 -35.96,-8.8 -22.99,0 -39.71,10.23 -50.28,30.69 -10.56,20.35 -15.73,47.08 -15.73,79.86l0 6.82zm497.86 164.67c-3.41,-7.92 -6.39,-16.28 -8.8,-25.19 -2.53,-8.8 -4.29,-17.82 -5.39,-27.06 -9.68,17.05 -22.44,31.12 -38.28,42.24 -15.94,11.22 -34.87,16.72 -56.76,16.83 -36.52,-0.11 -64.68,-9.46 -84.37,-28.27 -19.81,-18.81 -29.7,-44.44 -29.7,-76.89 0,-34.1 13.2,-60.61 39.49,-79.42 26.29,-18.81 64.68,-28.17 115.17,-28.17l52.91 0 0 -27.71c0,-16.72 -4.41,-29.81 -13.2,-39.05 -8.8,-9.13 -22,-13.75 -39.38,-13.75 -15.18,0 -26.95,3.63 -35.31,11.11 -8.26,7.37 -12.32,17.49 -12.32,30.36l-90.64 0 -0.54 -1.87c-1.54,-29.47 11.33,-54.88 38.5,-76.23 27.17,-21.34 62.59,-32.12 106.48,-32.12 41.91,0 75.8,10.56 101.64,31.69 25.85,21 38.83,51.15 38.83,90.52l0 143.99c0,16.4 1.22,31.69 3.74,46.09 2.42,14.41 6.38,28.71 11.77,42.9l-93.82 0zm-86.03 -62.81c16.4,0 30.91,-4.07 43.89,-12.32 12.87,-8.14 21.68,-17.59 26.4,-28.27l0 -49.39 -52.91 0c-19.91,0 -35.09,4.95 -45.21,14.85 -10.23,9.9 -15.4,22 -15.4,36.41 0,11.88 3.84,21.23 11.44,28.16 7.7,7.04 18.26,10.56 31.79,10.56zm347.82 -371.25l0 85.36 58.96 0 0 66.11 -58.96 0 0 177.54c0,13.53 2.76,23.21 8.47,29.04 5.72,5.71 13.2,8.69 22.44,8.69 4.95,0 9.24,-0.33 12.87,-0.88 3.63,-0.54 7.82,-1.43 12.54,-2.75l7.81 68.09c-9.46,3.19 -18.7,5.6 -27.6,7.25 -8.91,1.54 -18.59,2.31 -29.15,2.42 -32.45,-0.11 -57.42,-9.02 -74.91,-26.84 -17.49,-17.82 -26.29,-46.09 -26.29,-84.7l0 -177.87 -50.93 0 0 -66.11 50.93 0 0 -85.36 93.82 0zm215.93 434.06l-94.16 0 0 -348.7 94.16 0 0 348.7zm0 -432.19l-94.16 0 0 -70.51 94.16 0 0 70.51zm62.81 254.65c0,-52.04 14.52,-94.61 43.57,-127.82 28.93,-33.22 69.19,-49.83 120.56,-49.83 51.47,0 91.84,16.62 121.1,49.72 29.26,33 43.89,75.68 43.89,127.93l0 6.71c0,52.47 -14.63,95.15 -43.67,128.15 -29.15,33 -69.41,49.39 -120.78,49.5 -51.47,-0.11 -91.85,-16.5 -120.99,-49.5 -29.04,-33 -43.68,-75.68 -43.68,-128.15l0 -6.71zm93.83 6.71c0,31.79 5.61,57.31 16.72,76.56 11.23,19.24 29.26,28.82 54.12,28.82 24.31,0 42.13,-9.69 53.35,-28.93 11.33,-19.36 16.94,-44.88 16.94,-76.45l0 -6.71c0,-31.02 -5.72,-56.21 -17.05,-75.8 -11.44,-19.47 -29.37,-29.25 -53.79,-29.25 -24.31,0 -42.14,9.79 -53.35,29.47 -11.33,19.58 -16.94,44.77 -16.94,75.57l0 6.71zm379.28 -177.87l4.18 49.94c11.66,-17.82 25.95,-31.68 42.89,-41.58 16.94,-9.91 35.97,-14.86 57.1,-14.86 35.2,0 62.7,11.34 82.5,34.1 19.69,22.66 29.59,58.41 29.59,107.47l0 213.62 -94.39 0 0 -213.4c0,-24.87 -4.4,-42.57 -13.09,-52.91 -8.69,-10.45 -21.78,-15.73 -39.16,-15.73 -13.97,0 -26.29,2.64 -36.85,7.93 -10.67,5.27 -19.47,12.53 -26.29,21.78l0 252.34 -94.05 0 0 -348.7 87.56 0z"/>
  </g>
 </g>
</svg>
